%
M48
M72
T01C0.01181
T02C0.02362
T03C0.03600
T04C0.04000
T05C0.15748
%
T01
X240104Y176492
X244631Y176098
X242860Y172161
X248490Y172358
X251718Y176492
X246009Y182004
X250537Y185154
X257230Y182988
X257623Y189484
X266285Y187909
X267427Y181177
X267230Y176335
X276718Y181020
X277899Y174917
X281836Y174917
X285970Y175311
X293253Y178461
X291679Y181217
X295419Y183972
X295222Y188106
X285773Y182791
X281836Y186335
X273175Y190075
X282427Y193618
X288135Y198146
X295222Y195783
X306639Y200114
X315891Y201492
X321009Y203067
X324159Y206217
X333214Y208382
X336167Y204642
X333805Y202280
X342860Y205035
X339513Y208185
X347781Y204642
X350930Y196374
X355261Y195980
X351521Y190075
X363135Y193224
X365497Y190469
X369238Y196571
X372190Y205429
X377308Y205035
X386797Y204799
X393647Y204839
X399946Y201689
X409198Y202476
X415301Y203067
X419828Y197358
X423765Y196571
X430655Y191650
X427112Y189287
X423962Y186531
X433214Y180232
X427112Y177280
X423765Y178854
X419041Y174524
X413923Y178067
X407230Y171768
X411757Y167043
X413923Y158972
X422978Y157358
X419828Y153697
X411167Y154248
X411167Y149917
X411364Y145587
X403686Y146177
X403490Y142043
X411560Y139878
X408017Y136728
X404592Y134051
X407427Y131217
X398175Y125311
X385379Y136728
X375930Y136728
X370616Y137122
X371206Y142634
X379868Y148146
X365891Y153461
X370261Y159130
X377237Y163649
X381836Y159169
X392466Y164287
X399749Y164091
X403490Y158579
X393962Y157476
X400930Y154248
X393450Y141059
X375340Y127083
X373568Y123736
X373962Y120390
X371600Y117634
X365694Y119996
X379080Y114681
X380261Y121768
X380852Y107594
X394434Y106610
X398962Y105429
X432623Y89681
X451206Y138697
X450537Y144799
X444631Y145783
X443253Y153854
X454474Y153894
X463056Y159996
X468844Y161925
X460616Y170035
X463293Y176846
X448096Y173933
X441875Y180035
X435576Y186138
X435576Y173736
X427427Y172988
X421993Y164091
X430458Y153303
X433135Y147122
X440458Y162004
X451718Y162476
X468332Y145902
X460891Y138657
X416285Y231374
X409986Y230232
X410970Y235154
X413923Y236925
X406836Y235547
X403490Y236098
X398175Y237280
X390694Y238894
X384001Y246571
X380064Y250311
X381875Y253028
X382820Y256217
X377308Y252280
X373765Y251492
X368450Y252791
X371797Y257988
X372190Y263697
X369238Y266846
X361167Y266453
X353686Y263500
X348765Y263894
X346797Y266650
X342663Y266650
X338332Y266650
X333017Y266650
X327112Y266650
X317860Y272949
X318253Y281217
X310773Y284957
X308017Y289484
X305261Y286925
X299946Y286925
X287938Y283776
X282623Y282201
X274946Y281610
X267072Y281413
X259198Y281413
X254474Y283776
X253883Y278657
X258214Y276689
X280064Y265469
X283017Y266846
X282230Y269799
X283608Y272752
X284592Y275902
X294828Y276689
X297584Y273736
X295025Y270783
X300143Y270783
X300143Y276689
X311364Y276886
X311364Y273736
X313135Y264681
X306245Y261531
X298175Y258382
X298175Y253657
X305261Y255035
X305655Y249524
X301915Y246571
X305458Y243815
X306639Y239681
X315694Y238303
X314907Y234563
X319238Y233972
X323765Y235154
X332820Y235154
X336757Y232988
X336757Y228264
X334986Y223539
X339119Y222161
X343647Y219799
X351324Y221571
X354474Y226295
X350340Y228264
X350340Y236728
X355458Y235941
X363332Y236335
X365104Y232988
X369041Y233382
X373962Y236531
X377308Y234169
X383017Y231413
X382820Y227083
X385379Y225114
X385379Y219996
X377308Y220783
X369041Y224327
X365104Y227870
X368844Y216453
X363135Y214878
X351718Y214878
X367663Y208579
X386009Y212673
X394434Y218028
X401324Y218028
X420419Y221177
X422387Y212713
X423371Y207398
X395222Y194996
X388923Y189878
X385773Y196177
X399946Y187319
X399946Y176886
X386954Y175114
X380523Y172692
X373429Y173639
X364642Y173665
X369238Y182004
X351993Y176413
X347781Y177476
X339119Y180626
X336757Y178067
X334395Y180429
X332820Y172161
X325340Y173933
X323371Y177870
X320616Y176295
X315891Y174327
X315497Y177870
X309592Y174327
X310576Y171374
X301127Y170390
X298962Y168028
X301127Y165665
X297584Y164681
X306245Y160154
X307493Y157201
X310713Y152673
X313343Y154839
X315973Y153264
X318603Y154839
X321245Y153224
X323863Y154819
X326521Y149917
X327112Y146768
X321797Y143421
X320222Y140272
X319238Y135547
X318844Y132594
X321403Y128657
X321009Y125705
X317860Y124720
X314710Y124327
X306836Y123146
X300340Y122358
X300734Y119209
X295616Y120193
X291875Y120193
X291088Y123146
X289710Y125902
X287938Y123343
X283214Y123933
X284395Y129642
X274946Y131217
X277308Y133972
X280458Y137122
X283411Y139091
X289710Y139287
X291679Y141453
X293844Y143618
X308017Y142043
X310379Y138697
X305655Y133579
X300537Y128854
X318450Y118421
X333214Y116846
X336167Y118224
X336167Y121571
X336167Y124720
X336560Y127870
X330655Y133579
X330458Y136925
X337348Y136728
X346600Y138106
X343056Y144209
X340497Y146374
X333608Y144602
X332820Y150114
X334986Y152476
X318450Y144799
X347584Y130823
X350340Y128264
X350340Y123343
X350340Y117831
X342663Y117437
X361757Y134760
X356639Y161531
X347584Y165075
X338135Y167437
X320616Y185744
X318253Y188500
X323371Y188894
X331442Y190075
X334395Y191650
X332033Y194012
X321403Y196374
X315891Y196177
X308608Y190469
X308805Y186925
X306442Y182594
X294631Y206217
X294631Y212516
X285182Y211335
X284592Y217240
X278883Y220390
X288529Y221768
X284789Y226295
X292663Y226098
X296009Y227673
X297387Y230626
X292269Y231807
X286167Y233579
X281049Y234169
X273175Y236335
X274946Y240272
X276521Y244012
X281049Y247949
X280064Y253067
X286364Y258185
X286560Y261531
X284001Y263697
X316482Y256217
X331442Y255626
X339710Y255626
X343647Y259366
X352899Y255626
X358411Y258579
X382466Y259760
X389119Y263894
X394238Y263894
X405419Y267043
X399749Y270783
X396797Y271768
X391679Y272161
X386364Y275311
X390694Y278264
X410182Y273933
X414316Y271965
X414316Y268618
X406009Y259760
X405261Y255193
X408805Y248303
X426206Y275980
X419631Y277673
X415694Y279839
X391679Y291650
X391285Y297358
X314710Y295980
X308411Y298776
X307820Y303264
X302584Y304209
X301875Y299012
X297978Y308028
X286560Y289484
X247190Y164484
X249946Y159563
X252308Y155429
X254474Y151689
X256639Y147555
X260970Y147555
X266482Y148343
X269828Y151295
X275143Y153264
X276521Y158579
X280458Y158185
X284001Y164681
X273962Y164681
X270025Y166256
X266088Y165272
X262938Y171571
X256836Y169209
X258017Y164484
X260773Y161335
X265104Y158579
X260970Y154642
X253647Y164248
X270222Y144209
X263529Y136335
X270025Y125902
X276324Y120980
X287348Y106610
X290301Y105823
X284395Y105232
X297978Y102083
X307820Y106217
X303096Y110547
X300734Y112909
X299671Y93815
X381836Y182398
X333805Y217437
X321009Y222949
X318253Y226492
X317860Y219602
X306049Y219012
X295025Y218815
X304868Y210154
X281442Y203854
X275930Y204445
X277308Y210744
X269041Y211531
X265497Y217240
X270616Y220783
X270812Y226689
X262348Y209366
X260576Y197555
X306442Y228854
X343253Y236335
T02
X323962Y278264
X323962Y293421
X362938Y293421
X362938Y278264
T03
X283450Y83854
X283450Y73854
X293450Y73854
X303450Y73854
X313450Y73854
X323450Y73854
X333450Y73854
X343450Y73854
X353450Y73854
X363450Y73854
X373450Y73854
X383450Y73854
X393450Y73854
X403450Y73854
X403450Y83854
X393450Y83854
X383450Y83854
X373450Y83854
X363450Y83854
X353450Y83854
X343450Y83854
X333450Y83854
X323450Y83854
X313450Y83854
X303450Y83854
X293450Y83854
T04
X368450Y103421
X358450Y102319
X348450Y103421
X338450Y102319
X328450Y103421
X318450Y102319
T05
X268353Y48489
X418274Y48377
X493392Y178187
X193549Y178365
X418512Y308078
X268549Y308114
M30
