G75*
%MOIN*%
%OFA0B0*%
%FSLAX25Y25*%
%IPPOS*%
%LPD*%
%AMOC8*
5,1,8,0,0,1.08239X$1,22.5*
%
%ADD10C,0.00000*%
%ADD11C,0.00600*%
%ADD12R,0.00167X0.00167*%
%ADD13R,0.08013X0.00167*%
%ADD14R,0.03504X0.00167*%
%ADD15R,0.00834X0.00167*%
%ADD16R,0.03504X0.00167*%
%ADD17R,0.00834X0.00167*%
%ADD18R,0.00834X0.00167*%
%ADD19R,0.03504X0.00167*%
%ADD20R,0.03337X0.00167*%
%ADD21R,0.01001X0.00167*%
%ADD22R,0.00834X0.00167*%
%ADD23R,0.01001X0.00167*%
%ADD24R,0.01001X0.00167*%
%ADD25R,0.01001X0.00167*%
%ADD26R,0.01001X0.00167*%
%ADD27R,0.00834X0.00167*%
%ADD28R,0.00667X0.00167*%
%ADD29R,0.00501X0.00167*%
%ADD30R,0.02169X0.00167*%
%ADD31R,0.00834X0.00167*%
%ADD32R,0.02169X0.00167*%
%ADD33R,0.02002X0.00167*%
%ADD34R,0.01168X0.00167*%
%ADD35R,0.01502X0.00167*%
%ADD36R,0.02670X0.00167*%
%ADD37R,0.02336X0.00167*%
%ADD38R,0.00667X0.00167*%
%ADD39R,0.02002X0.00167*%
%ADD40R,0.00167X0.00167*%
%ADD41R,0.00167X0.00167*%
%ADD42R,0.00500X0.00167*%
%ADD43R,0.01502X0.00167*%
%ADD44R,0.01669X0.00167*%
%ADD45R,0.01835X0.00167*%
%ADD46R,0.01668X0.00167*%
%ADD47R,0.01835X0.00167*%
%ADD48R,0.01669X0.00167*%
%ADD49R,0.01835X0.00167*%
%ADD50R,0.01669X0.00167*%
%ADD51R,0.01835X0.00167*%
%ADD52R,0.01835X0.00167*%
%ADD53R,0.02169X0.00167*%
%ADD54R,0.02503X0.00167*%
%ADD55R,0.03003X0.00167*%
%ADD56R,0.03670X0.00167*%
%ADD57R,0.04171X0.00167*%
%ADD58R,0.04505X0.00167*%
%ADD59R,0.04839X0.00167*%
%ADD60R,0.05172X0.00167*%
%ADD61R,0.03670X0.00167*%
%ADD62R,0.03837X0.00167*%
%ADD63R,0.03670X0.00167*%
%ADD64R,0.12680X0.00167*%
%ADD65R,0.12680X0.00167*%
%ADD66R,0.03837X0.00167*%
%ADD67R,0.12680X0.00167*%
%ADD68R,0.03837X0.00167*%
%ADD69R,0.03671X0.00167*%
%ADD70R,0.00667X0.00167*%
%ADD71R,0.01668X0.00167*%
%ADD72R,0.01168X0.00167*%
%ADD73R,0.00334X0.00167*%
%ADD74R,0.03337X0.00167*%
%ADD75R,0.02837X0.00167*%
%ADD76R,0.00500X0.00167*%
%ADD77R,0.01502X0.00167*%
%ADD78R,0.02670X0.00167*%
%ADD79R,0.02169X0.00167*%
%ADD80R,0.01168X0.00167*%
%ADD81R,0.02502X0.00167*%
%ADD82R,0.01835X0.00167*%
%ADD83R,0.02502X0.00167*%
%ADD84R,0.01668X0.00167*%
%ADD85R,0.01335X0.00167*%
%ADD86R,0.02502X0.00167*%
%ADD87R,0.00334X0.00167*%
%ADD88R,0.02002X0.00167*%
%ADD89R,0.00333X0.00167*%
%ADD90R,0.00167X0.00167*%
%ADD91R,0.02336X0.00167*%
%ADD92R,0.01335X0.00167*%
%ADD93R,0.01335X0.00167*%
%ADD94R,0.01001X0.00167*%
%ADD95R,0.01168X0.00167*%
%ADD96R,0.03504X0.00167*%
%ADD97R,0.02336X0.00167*%
%ADD98R,0.00333X0.00167*%
%ADD99R,0.00167X0.00167*%
%ADD100R,0.02002X0.00167*%
%ADD101R,0.02503X0.00167*%
%ADD102R,0.03337X0.00167*%
%ADD103R,0.01335X0.00167*%
%ADD104R,0.03170X0.00167*%
%ADD105R,0.03170X0.00167*%
%ADD106R,0.02836X0.00167*%
%ADD107R,0.02335X0.00167*%
%ADD108R,0.02836X0.00167*%
%ADD109R,0.03003X0.00167*%
%ADD110R,0.03003X0.00167*%
%ADD111R,0.03837X0.00167*%
%ADD112R,0.02503X0.00167*%
%ADD113R,0.06340X0.00167*%
%ADD114R,0.05840X0.00167*%
%ADD115R,0.01501X0.00167*%
%ADD116R,0.05172X0.00167*%
%ADD117R,0.04505X0.00167*%
%ADD118R,0.00668X0.00167*%
%ADD119R,0.03337X0.00167*%
%ADD120R,0.00668X0.00167*%
%ADD121R,0.01168X0.00167*%
%ADD122R,0.00668X0.00167*%
%ADD123R,0.02836X0.00167*%
%ADD124R,0.04004X0.00167*%
%ADD125R,0.04838X0.00167*%
%ADD126R,0.05339X0.00167*%
%ADD127R,0.05506X0.00167*%
%ADD128R,0.02169X0.00167*%
%ADD129R,0.03337X0.00167*%
%ADD130R,0.00334X0.00167*%
%ADD131R,0.02669X0.00167*%
%ADD132R,0.03337X0.00167*%
%ADD133R,0.00501X0.00167*%
%ADD134R,0.03170X0.00167*%
%ADD135R,0.03170X0.00167*%
%ADD136R,0.00500X0.00167*%
%ADD137R,0.08009X0.00167*%
%ADD138R,0.09009X0.00167*%
%ADD139R,0.09510X0.00167*%
%ADD140R,0.09677X0.00167*%
%ADD141R,0.10010X0.00167*%
%ADD142R,0.05672X0.00167*%
%ADD143R,0.04838X0.00167*%
%ADD144R,0.04171X0.00167*%
%ADD145R,0.00333X0.00167*%
%ADD146R,0.03504X0.00167*%
%ADD147R,0.02002X0.00167*%
%ADD148R,0.02335X0.00167*%
%ADD149R,0.04338X0.00167*%
%ADD150R,0.04004X0.00167*%
%ADD151R,0.03170X0.00167*%
%ADD152R,0.00167X0.00167*%
%ADD153R,0.04171X0.00167*%
%ADD154R,0.04672X0.00167*%
%ADD155R,0.05005X0.00167*%
%ADD156R,0.06006X0.00167*%
%ADD157R,0.06507X0.00167*%
%ADD158R,0.06841X0.00167*%
%ADD159R,0.07174X0.00167*%
%ADD160R,0.07674X0.00167*%
%ADD161R,0.08008X0.00167*%
%ADD162R,0.09844X0.00167*%
%ADD163R,0.08342X0.00167*%
%ADD164R,0.09677X0.00167*%
%ADD165R,0.08676X0.00167*%
%ADD166R,0.09343X0.00167*%
%ADD167R,0.09176X0.00167*%
%ADD168R,0.08676X0.00167*%
%ADD169R,0.09677X0.00167*%
%ADD170R,0.09844X0.00167*%
%ADD171R,0.10344X0.00167*%
%ADD172R,0.10678X0.00167*%
%ADD173R,0.10678X0.00167*%
%ADD174R,0.10678X0.00167*%
%ADD175R,0.10844X0.00167*%
%ADD176R,0.11012X0.00167*%
%ADD177R,0.11011X0.00167*%
%ADD178R,0.11178X0.00167*%
%ADD179R,0.11178X0.00167*%
%ADD180R,0.11345X0.00167*%
%ADD181R,0.11512X0.00167*%
%ADD182R,0.11512X0.00167*%
%ADD183R,0.11512X0.00167*%
%ADD184R,0.11679X0.00167*%
%ADD185R,0.11846X0.00167*%
%ADD186R,0.12013X0.00167*%
%ADD187R,0.12012X0.00167*%
%ADD188R,0.12180X0.00167*%
%ADD189R,0.12346X0.00167*%
%ADD190R,0.12513X0.00167*%
%ADD191R,0.12513X0.00167*%
%ADD192R,0.12847X0.00167*%
%ADD193R,0.13013X0.00167*%
%ADD194R,0.13013X0.00167*%
%ADD195R,0.13180X0.00167*%
%ADD196R,0.13347X0.00167*%
%ADD197R,0.13514X0.00167*%
%ADD198R,0.13514X0.00167*%
%ADD199R,0.02002X0.00167*%
%ADD200R,0.11178X0.00167*%
%ADD201R,0.11011X0.00167*%
%ADD202R,0.10844X0.00167*%
%ADD203R,0.10678X0.00167*%
%ADD204R,0.10344X0.00167*%
%ADD205R,0.10178X0.00167*%
%ADD206R,0.10011X0.00167*%
%ADD207R,0.09176X0.00167*%
%ADD208R,0.09176X0.00167*%
%ADD209R,0.04171X0.00167*%
%ADD210R,0.08843X0.00167*%
%ADD211R,0.08843X0.00167*%
%ADD212R,0.04505X0.00167*%
%ADD213R,0.08509X0.00167*%
%ADD214R,0.08342X0.00167*%
%ADD215R,0.04839X0.00167*%
%ADD216R,0.08175X0.00167*%
%ADD217R,0.07841X0.00167*%
%ADD218R,0.07841X0.00167*%
%ADD219R,0.05506X0.00167*%
%ADD220R,0.07508X0.00167*%
%ADD221R,0.05506X0.00167*%
%ADD222R,0.07508X0.00167*%
%ADD223R,0.05839X0.00167*%
%ADD224R,0.07174X0.00167*%
%ADD225R,0.05672X0.00167*%
%ADD226R,0.05506X0.00167*%
%ADD227R,0.05339X0.00167*%
%ADD228R,0.06674X0.00167*%
%ADD229R,0.05006X0.00167*%
%ADD230R,0.07174X0.00167*%
%ADD231R,0.04338X0.00167*%
%ADD232R,0.07508X0.00167*%
%ADD233R,0.04004X0.00167*%
%ADD234R,0.08008X0.00167*%
%ADD235R,0.05672X0.00167*%
%ADD236R,0.03837X0.00167*%
%ADD237R,0.05839X0.00167*%
%ADD238R,0.06006X0.00167*%
%ADD239R,0.06340X0.00167*%
%ADD240R,0.07007X0.00167*%
%ADD241R,0.07341X0.00167*%
%ADD242R,0.06006X0.00167*%
%ADD243R,0.06173X0.00167*%
%ADD244R,0.01168X0.00167*%
%ADD245R,0.06173X0.00167*%
%ADD246R,0.06340X0.00167*%
%ADD247R,0.06173X0.00167*%
%ADD248R,0.06173X0.00167*%
%ADD249R,0.06340X0.00167*%
%ADD250R,0.07007X0.00167*%
%ADD251R,0.08175X0.00167*%
%ADD252R,0.09343X0.00167*%
%ADD253R,0.03003X0.00167*%
%ADD254R,0.15683X0.00167*%
%ADD255R,0.15683X0.00167*%
%ADD256R,0.02837X0.00167*%
%ADD257R,0.15516X0.00167*%
%ADD258R,0.15516X0.00167*%
%ADD259R,0.15349X0.00167*%
%ADD260R,0.15182X0.00167*%
%ADD261R,0.16017X0.00167*%
%ADD262R,0.02669X0.00167*%
%ADD263R,0.19687X0.00167*%
%ADD264R,0.19687X0.00167*%
%ADD265R,0.19687X0.00167*%
%ADD266R,0.19854X0.00167*%
%ADD267R,0.19854X0.00167*%
%ADD268R,0.03170X0.00167*%
%ADD269R,0.20021X0.00167*%
%ADD270R,0.20021X0.00167*%
%ADD271R,0.20188X0.00167*%
%ADD272R,0.20187X0.00167*%
%ADD273R,0.20521X0.00167*%
%ADD274R,0.03504X0.00167*%
%ADD275R,0.20688X0.00167*%
%ADD276R,0.03671X0.00167*%
%ADD277R,0.20855X0.00167*%
%ADD278R,0.14181X0.00167*%
%ADD279R,0.13848X0.00167*%
%ADD280R,0.13347X0.00167*%
%ADD281R,0.06340X0.00167*%
%ADD282R,0.12847X0.00167*%
%ADD283R,0.11846X0.00167*%
%ADD284R,0.11345X0.00167*%
%ADD285R,0.10177X0.00167*%
%ADD286R,0.10344X0.00167*%
%ADD287R,0.09343X0.00167*%
%ADD288R,0.08509X0.00167*%
%ADD289R,0.08843X0.00167*%
%ADD290R,0.08008X0.00167*%
%ADD291R,0.08342X0.00167*%
%ADD292R,0.07007X0.00167*%
%ADD293R,0.07007X0.00167*%
%ADD294R,0.06674X0.00167*%
%ADD295R,0.06507X0.00167*%
%ADD296R,0.06006X0.00167*%
%ADD297R,0.05673X0.00167*%
%ADD298R,0.05172X0.00167*%
%ADD299R,0.04338X0.00167*%
%ADD300R,0.04171X0.00167*%
%ADD301R,0.01501X0.00167*%
%ADD302R,0.04839X0.00167*%
%ADD303R,0.02670X0.00167*%
%ADD304R,0.04171X0.00167*%
%ADD305R,0.01501X0.00167*%
%ADD306R,0.04004X0.00167*%
%ADD307R,0.02669X0.00167*%
%ADD308R,0.06006X0.00167*%
%ADD309R,0.05339X0.00167*%
%ADD310R,0.04338X0.00167*%
%ADD311R,0.05005X0.00167*%
%ADD312R,0.05506X0.00167*%
%ADD313R,0.04672X0.00167*%
%ADD314R,0.07341X0.00167*%
%ADD315R,0.07842X0.00167*%
%ADD316R,0.08509X0.00167*%
%ADD317R,0.09009X0.00167*%
%ADD318R,0.06841X0.00167*%
%ADD319R,0.09510X0.00167*%
%ADD320R,0.10010X0.00167*%
%ADD321R,0.07675X0.00167*%
%ADD322R,0.11345X0.00167*%
%ADD323R,0.13013X0.00167*%
%ADD324R,0.11512X0.00167*%
%ADD325R,0.14682X0.00167*%
%ADD326R,0.15183X0.00167*%
%ADD327R,0.15850X0.00167*%
%ADD328R,0.13014X0.00167*%
%ADD329R,0.16517X0.00167*%
%ADD330R,0.13514X0.00167*%
%ADD331R,0.17018X0.00167*%
%ADD332R,0.13848X0.00167*%
%ADD333R,0.17519X0.00167*%
%ADD334R,0.14515X0.00167*%
%ADD335R,0.18185X0.00167*%
%ADD336R,0.15016X0.00167*%
%ADD337R,0.18686X0.00167*%
%ADD338R,0.15517X0.00167*%
%ADD339R,0.19187X0.00167*%
%ADD340R,0.16017X0.00167*%
%ADD341R,0.16517X0.00167*%
%ADD342R,0.20521X0.00167*%
%ADD343R,0.17018X0.00167*%
%ADD344R,0.21022X0.00167*%
%ADD345R,0.17518X0.00167*%
%ADD346R,0.21522X0.00167*%
%ADD347R,0.18019X0.00167*%
%ADD348R,0.22190X0.00167*%
%ADD349R,0.18519X0.00167*%
%ADD350R,0.22691X0.00167*%
%ADD351R,0.19020X0.00167*%
%ADD352R,0.23191X0.00167*%
%ADD353R,0.19687X0.00167*%
%ADD354R,0.23691X0.00167*%
%ADD355R,0.20021X0.00167*%
%ADD356R,0.24359X0.00167*%
%ADD357R,0.25026X0.00167*%
%ADD358R,0.21189X0.00167*%
%ADD359R,0.25527X0.00167*%
%ADD360R,0.21689X0.00167*%
%ADD361R,0.26194X0.00167*%
%ADD362R,0.26694X0.00167*%
%ADD363R,0.22690X0.00167*%
%ADD364R,0.27028X0.00167*%
%ADD365R,0.23191X0.00167*%
%ADD366R,0.27362X0.00167*%
%ADD367R,0.23691X0.00167*%
%ADD368R,0.27862X0.00167*%
%ADD369R,0.24359X0.00167*%
%ADD370R,0.28196X0.00167*%
%ADD371R,0.24693X0.00167*%
%ADD372R,0.28530X0.00167*%
%ADD373R,0.25193X0.00167*%
%ADD374R,0.28863X0.00167*%
%ADD375R,0.25860X0.00167*%
%ADD376R,0.29030X0.00167*%
%ADD377R,0.26361X0.00167*%
%ADD378R,0.29364X0.00167*%
%ADD379R,0.26694X0.00167*%
%ADD380R,0.29531X0.00167*%
%ADD381R,0.27362X0.00167*%
%ADD382R,0.29865X0.00167*%
%ADD383R,0.27696X0.00167*%
%ADD384R,0.30031X0.00167*%
%ADD385R,0.27863X0.00167*%
%ADD386R,0.30198X0.00167*%
%ADD387R,0.28363X0.00167*%
%ADD388R,0.30531X0.00167*%
%ADD389R,0.28697X0.00167*%
%ADD390R,0.30698X0.00167*%
%ADD391R,0.28864X0.00167*%
%ADD392R,0.30865X0.00167*%
%ADD393R,0.29197X0.00167*%
%ADD394R,0.30865X0.00167*%
%ADD395R,0.29364X0.00167*%
%ADD396R,0.31199X0.00167*%
%ADD397R,0.31366X0.00167*%
%ADD398R,0.31533X0.00167*%
%ADD399R,0.30031X0.00167*%
%ADD400R,0.31700X0.00167*%
%ADD401R,0.30198X0.00167*%
%ADD402R,0.31867X0.00167*%
%ADD403R,0.30365X0.00167*%
%ADD404R,0.31867X0.00167*%
%ADD405R,0.30699X0.00167*%
%ADD406R,0.32033X0.00167*%
%ADD407R,0.30699X0.00167*%
%ADD408R,0.03837X0.00167*%
%ADD409R,0.32200X0.00167*%
%ADD410R,0.30866X0.00167*%
%ADD411R,0.32367X0.00167*%
%ADD412R,0.31033X0.00167*%
%ADD413R,0.23024X0.00167*%
%ADD414R,0.31199X0.00167*%
%ADD415R,0.22357X0.00167*%
%ADD416R,0.31366X0.00167*%
%ADD417R,0.21856X0.00167*%
%ADD418R,0.31533X0.00167*%
%ADD419R,0.21356X0.00167*%
%ADD420R,0.31700X0.00167*%
%ADD421R,0.21189X0.00167*%
%ADD422R,0.31867X0.00167*%
%ADD423R,0.21022X0.00167*%
%ADD424R,0.20855X0.00167*%
%ADD425R,0.21022X0.00167*%
%ADD426R,0.20855X0.00167*%
%ADD427R,0.02837X0.00167*%
%ADD428R,0.20688X0.00167*%
%ADD429R,0.20188X0.00167*%
%ADD430R,0.20188X0.00167*%
%ADD431R,0.20688X0.00167*%
%ADD432R,0.20354X0.00167*%
%ADD433R,0.21022X0.00167*%
%ADD434R,0.05339X0.00167*%
%ADD435R,0.21356X0.00167*%
%ADD436R,0.05339X0.00167*%
%ADD437R,0.21356X0.00167*%
%ADD438R,0.21522X0.00167*%
%ADD439R,0.05339X0.00167*%
%ADD440R,0.21022X0.00167*%
%ADD441R,0.21689X0.00167*%
%ADD442R,0.21689X0.00167*%
%ADD443R,0.06674X0.00167*%
%ADD444R,0.21856X0.00167*%
%ADD445R,0.22023X0.00167*%
%ADD446R,0.21356X0.00167*%
%ADD447R,0.22023X0.00167*%
%ADD448R,0.22190X0.00167*%
%ADD449R,0.22524X0.00167*%
%ADD450R,0.22190X0.00167*%
%ADD451R,0.22524X0.00167*%
%ADD452R,0.22691X0.00167*%
%ADD453R,0.22857X0.00167*%
%ADD454R,0.22857X0.00167*%
%ADD455R,0.04004X0.00167*%
%ADD456R,0.23024X0.00167*%
%ADD457R,0.05005X0.00167*%
%ADD458R,0.22023X0.00167*%
%ADD459R,0.23191X0.00167*%
%ADD460R,0.23358X0.00167*%
%ADD461R,0.23191X0.00167*%
%ADD462R,0.04671X0.00167*%
%ADD463R,0.19520X0.00167*%
%ADD464R,0.22690X0.00167*%
%ADD465R,0.04671X0.00167*%
%ADD466R,0.22357X0.00167*%
%ADD467R,0.04671X0.00167*%
%ADD468R,0.18520X0.00167*%
%ADD469R,0.21856X0.00167*%
%ADD470R,0.18019X0.00167*%
%ADD471R,0.21522X0.00167*%
%ADD472R,0.16517X0.00167*%
%ADD473R,0.16017X0.00167*%
%ADD474R,0.19854X0.00167*%
%ADD475R,0.19354X0.00167*%
%ADD476R,0.15016X0.00167*%
%ADD477R,0.18853X0.00167*%
%ADD478R,0.14849X0.00167*%
%ADD479R,0.18686X0.00167*%
%ADD480R,0.02169X0.00167*%
%ADD481R,0.14348X0.00167*%
%ADD482R,0.18185X0.00167*%
%ADD483R,0.17685X0.00167*%
%ADD484R,0.17351X0.00167*%
%ADD485R,0.04004X0.00167*%
%ADD486R,0.16851X0.00167*%
%ADD487R,0.16350X0.00167*%
%ADD488R,0.12346X0.00167*%
%ADD489R,0.12013X0.00167*%
%ADD490R,0.15516X0.00167*%
%ADD491R,0.14849X0.00167*%
%ADD492R,0.14348X0.00167*%
%ADD493R,0.14015X0.00167*%
%ADD494R,0.13014X0.00167*%
%ADD495R,0.11345X0.00167*%
%ADD496R,0.18186X0.00167*%
%ADD497R,0.12179X0.00167*%
%ADD498R,0.17519X0.00167*%
%ADD499R,0.16851X0.00167*%
%ADD500R,0.15850X0.00167*%
%ADD501R,0.10511X0.00167*%
%ADD502R,0.14515X0.00167*%
%ADD503R,0.15349X0.00167*%
%ADD504R,0.13848X0.00167*%
%ADD505R,0.14682X0.00167*%
%ADD506R,0.10511X0.00167*%
%ADD507R,0.10845X0.00167*%
%ADD508R,0.08509X0.00167*%
%ADD509R,0.09343X0.00167*%
%ADD510R,0.07675X0.00167*%
%ADD511R,0.08676X0.00167*%
%ADD512R,0.07007X0.00167*%
%ADD513R,0.07841X0.00167*%
%ADD514R,0.07007X0.00167*%
%ADD515R,0.06173X0.00167*%
%ADD516R,0.02426X0.00167*%
%ADD517R,0.04094X0.00167*%
%ADD518R,0.04761X0.00167*%
%ADD519R,0.05429X0.00167*%
%ADD520R,0.05763X0.00167*%
%ADD521R,0.01335X0.00167*%
%ADD522R,0.10511X0.00167*%
%ADD523R,0.12013X0.00167*%
%ADD524R,0.12179X0.00167*%
%ADD525R,0.00167X0.00167*%
%ADD526R,0.03003X0.00167*%
%ADD527R,0.07842X0.00167*%
%ADD528R,0.05839X0.00167*%
D10*
X0188454Y0160635D02*
X0190860Y0159556D01*
X0193240Y0158420D01*
X0195593Y0157229D01*
X0197916Y0155982D01*
X0200209Y0154680D01*
X0202471Y0153324D01*
X0204700Y0151915D01*
X0206895Y0150453D01*
X0209054Y0148940D01*
X0211177Y0147376D01*
X0213263Y0145762D01*
X0215309Y0144100D01*
X0217316Y0142389D01*
X0219281Y0140631D01*
X0221205Y0138827D01*
X0223084Y0136978D01*
X0224920Y0135084D01*
X0226710Y0133148D01*
X0228454Y0131170D01*
X0230150Y0129151D01*
X0231798Y0127093D01*
X0233397Y0124995D01*
X0234945Y0122861D01*
X0236443Y0120691D01*
X0237888Y0118485D01*
X0237889Y0118486D02*
X0238900Y0116734D01*
X0238901Y0116734D02*
X0240068Y0114461D01*
X0241180Y0112160D01*
X0242237Y0109833D01*
X0243238Y0107482D01*
X0244183Y0105107D01*
X0245071Y0102711D01*
X0245901Y0100294D01*
X0246673Y0097858D01*
X0247386Y0095404D01*
X0248041Y0092934D01*
X0248637Y0090449D01*
X0249172Y0087950D01*
X0249648Y0085439D01*
X0250064Y0082918D01*
X0250420Y0080387D01*
X0250715Y0077848D01*
X0250949Y0075304D01*
X0251122Y0072754D01*
X0251234Y0070201D01*
X0251286Y0067646D01*
X0251276Y0065090D01*
X0251205Y0062536D01*
X0251073Y0059984D01*
X0250880Y0057435D01*
X0250626Y0054892D01*
X0250311Y0052356D01*
X0250310Y0052356D02*
X0250221Y0051912D01*
X0250143Y0051466D01*
X0250076Y0051018D01*
X0250019Y0050569D01*
X0249974Y0050118D01*
X0249940Y0049667D01*
X0249917Y0049214D01*
X0249905Y0048762D01*
X0249904Y0048309D01*
X0249914Y0047856D01*
X0249935Y0047403D01*
X0249968Y0046952D01*
X0250011Y0046501D01*
X0250066Y0046051D01*
X0250131Y0045603D01*
X0250208Y0045157D01*
X0250295Y0044712D01*
X0250393Y0044270D01*
X0250502Y0043830D01*
X0250622Y0043394D01*
X0250753Y0042960D01*
X0250894Y0042530D01*
X0251045Y0042103D01*
X0251207Y0041680D01*
X0251380Y0041261D01*
X0251562Y0040846D01*
X0251755Y0040437D01*
X0251957Y0040031D01*
X0252170Y0039632D01*
X0252392Y0039237D01*
X0252624Y0038848D01*
X0252865Y0038465D01*
X0253116Y0038087D01*
X0253376Y0037716D01*
X0253645Y0037352D01*
X0253922Y0036994D01*
X0254209Y0036643D01*
X0254504Y0036299D01*
X0254807Y0035963D01*
X0255118Y0035634D01*
X0255438Y0035313D01*
X0255765Y0035000D01*
X0256099Y0034694D01*
X0256442Y0034398D01*
X0256791Y0034109D01*
X0257147Y0033830D01*
X0257510Y0033559D01*
X0257880Y0033297D01*
X0258255Y0033044D01*
X0258637Y0032801D01*
X0259025Y0032567D01*
X0259418Y0032342D01*
X0259817Y0032127D01*
X0260221Y0031922D01*
X0260630Y0031727D01*
X0261043Y0031543D01*
X0261461Y0031368D01*
X0261883Y0031204D01*
X0262309Y0031050D01*
X0262739Y0030906D01*
X0263172Y0030773D01*
X0263608Y0030651D01*
X0264047Y0030539D01*
X0264488Y0030439D01*
X0264932Y0030349D01*
X0265378Y0030270D01*
X0265826Y0030202D01*
X0266275Y0030145D01*
X0266726Y0030099D01*
X0267178Y0030064D01*
X0267630Y0030040D01*
X0268083Y0030027D01*
X0268536Y0030026D01*
X0268988Y0030035D01*
X0269441Y0030056D01*
X0269893Y0030087D01*
X0270344Y0030130D01*
X0270793Y0030184D01*
X0271242Y0030249D01*
X0271688Y0030324D01*
X0272133Y0030411D01*
X0272575Y0030509D01*
X0273015Y0030617D01*
X0273452Y0030736D01*
X0273886Y0030866D01*
X0274316Y0031006D01*
X0274743Y0031157D01*
X0275166Y0031318D01*
X0275586Y0031490D01*
X0276000Y0031672D01*
X0276411Y0031864D01*
X0276816Y0032066D01*
X0277216Y0032278D01*
X0277611Y0032499D01*
X0278001Y0032730D01*
X0278384Y0032971D01*
X0278762Y0033221D01*
X0279134Y0033480D01*
X0279498Y0033749D01*
X0279857Y0034026D01*
X0280208Y0034312D01*
X0280552Y0034606D01*
X0280889Y0034909D01*
X0281219Y0035219D01*
X0330537Y0055779D02*
X0330658Y0055799D01*
X0330779Y0055824D01*
X0330899Y0055852D01*
X0331018Y0055884D01*
X0331136Y0055919D01*
X0331253Y0055959D01*
X0331368Y0056002D01*
X0331482Y0056048D01*
X0331595Y0056098D01*
X0331706Y0056152D01*
X0331815Y0056209D01*
X0331922Y0056269D01*
X0332028Y0056333D01*
X0332131Y0056400D01*
X0332233Y0056470D01*
X0332332Y0056543D01*
X0332428Y0056620D01*
X0332523Y0056699D01*
X0332614Y0056782D01*
X0332703Y0056867D01*
X0332790Y0056955D01*
X0332873Y0057045D01*
X0332954Y0057138D01*
X0333032Y0057234D01*
X0333107Y0057332D01*
X0333178Y0057432D01*
X0333247Y0057535D01*
X0333312Y0057639D01*
X0333374Y0057746D01*
X0333432Y0057854D01*
X0333487Y0057964D01*
X0333539Y0058076D01*
X0333587Y0058190D01*
X0333632Y0058305D01*
X0333673Y0058421D01*
X0333710Y0058538D01*
X0333743Y0058657D01*
X0333773Y0058777D01*
X0333799Y0058897D01*
X0333799Y0058898D02*
X0333849Y0059133D01*
X0333905Y0059368D01*
X0333966Y0059601D01*
X0334034Y0059832D01*
X0334107Y0060062D01*
X0334185Y0060289D01*
X0334269Y0060515D01*
X0334359Y0060739D01*
X0334454Y0060960D01*
X0334555Y0061179D01*
X0334660Y0061395D01*
X0334772Y0061609D01*
X0334888Y0061820D01*
X0335009Y0062028D01*
X0335136Y0062233D01*
X0335267Y0062435D01*
X0335403Y0062634D01*
X0335545Y0062829D01*
X0335691Y0063021D01*
X0335841Y0063209D01*
X0335996Y0063393D01*
X0336156Y0063574D01*
X0336320Y0063751D01*
X0336488Y0063923D01*
X0336660Y0064091D01*
X0336837Y0064255D01*
X0337017Y0064415D01*
X0337201Y0064570D01*
X0337389Y0064721D01*
X0337581Y0064867D01*
X0337776Y0065008D01*
X0337975Y0065145D01*
X0338177Y0065276D01*
X0338382Y0065403D01*
X0338590Y0065524D01*
X0338801Y0065641D01*
X0339014Y0065752D01*
X0339231Y0065858D01*
X0339450Y0065958D01*
X0339671Y0066054D01*
X0339895Y0066143D01*
X0340120Y0066228D01*
X0340348Y0066306D01*
X0340578Y0066380D01*
X0340809Y0066447D01*
X0341042Y0066509D01*
X0341276Y0066565D01*
X0341512Y0066615D01*
X0341748Y0066660D01*
X0341986Y0066699D01*
X0342225Y0066731D01*
X0342464Y0066759D01*
X0342704Y0066780D01*
X0342945Y0066795D01*
X0343185Y0066804D01*
X0343426Y0066808D01*
X0343667Y0066806D01*
X0343908Y0066797D01*
X0344149Y0066783D01*
X0344389Y0066763D01*
X0344628Y0066737D01*
X0344867Y0066705D01*
X0345105Y0066668D01*
X0345342Y0066624D01*
X0345578Y0066575D01*
X0345812Y0066520D01*
X0346046Y0066460D01*
X0346277Y0066393D01*
X0346507Y0066321D01*
X0346735Y0066244D01*
X0346961Y0066160D01*
X0347185Y0066072D01*
X0347407Y0065978D01*
X0347627Y0065878D01*
X0347843Y0065773D01*
X0348058Y0065663D01*
X0348269Y0065548D01*
X0348478Y0065427D01*
X0348683Y0065301D01*
X0348886Y0065171D01*
X0349085Y0065035D01*
X0349281Y0064895D01*
X0349473Y0064750D01*
X0349662Y0064600D01*
X0349847Y0064446D01*
X0350028Y0064287D01*
X0350205Y0064124D01*
X0350379Y0063956D01*
X0350548Y0063785D01*
X0350712Y0063609D01*
X0350873Y0063429D01*
X0351029Y0063246D01*
X0351180Y0063058D01*
X0351327Y0062867D01*
X0351469Y0062673D01*
X0351607Y0062475D01*
X0351739Y0062273D01*
X0351866Y0062069D01*
X0351989Y0061861D01*
X0352106Y0061651D01*
X0352218Y0061438D01*
X0352325Y0061222D01*
X0352427Y0061003D01*
X0352523Y0060782D01*
X0352613Y0060559D01*
X0352699Y0060334D01*
X0352778Y0060106D01*
X0352852Y0059877D01*
X0352921Y0059646D01*
X0352984Y0059413D01*
X0353041Y0059179D01*
X0353092Y0058944D01*
X0353091Y0058943D02*
X0353118Y0058823D01*
X0353148Y0058704D01*
X0353182Y0058586D01*
X0353220Y0058469D01*
X0353262Y0058353D01*
X0353307Y0058238D01*
X0353355Y0058125D01*
X0353407Y0058014D01*
X0353463Y0057904D01*
X0353522Y0057796D01*
X0353584Y0057690D01*
X0353650Y0057586D01*
X0353718Y0057483D01*
X0353790Y0057384D01*
X0353865Y0057286D01*
X0353943Y0057191D01*
X0354024Y0057098D01*
X0354108Y0057008D01*
X0354195Y0056921D01*
X0354284Y0056836D01*
X0354376Y0056754D01*
X0354470Y0056675D01*
X0354567Y0056599D01*
X0354666Y0056527D01*
X0354768Y0056457D01*
X0354871Y0056390D01*
X0354977Y0056327D01*
X0355084Y0056267D01*
X0355194Y0056210D01*
X0355305Y0056157D01*
X0355417Y0056108D01*
X0355531Y0056062D01*
X0355647Y0056019D01*
X0355764Y0055980D01*
X0355882Y0055945D01*
X0356001Y0055914D01*
X0356120Y0055886D01*
X0356241Y0055862D01*
X0356362Y0055842D01*
X0405920Y0034649D02*
X0406260Y0034350D01*
X0406607Y0034059D01*
X0406961Y0033777D01*
X0407322Y0033503D01*
X0407690Y0033239D01*
X0408064Y0032983D01*
X0408444Y0032737D01*
X0408830Y0032500D01*
X0409222Y0032273D01*
X0409619Y0032055D01*
X0410022Y0031848D01*
X0410429Y0031650D01*
X0410841Y0031462D01*
X0411258Y0031284D01*
X0411679Y0031117D01*
X0412104Y0030960D01*
X0412532Y0030814D01*
X0412964Y0030678D01*
X0413399Y0030552D01*
X0413838Y0030438D01*
X0414278Y0030334D01*
X0414722Y0030241D01*
X0415167Y0030159D01*
X0415614Y0030087D01*
X0416063Y0030027D01*
X0416514Y0029978D01*
X0416965Y0029940D01*
X0417417Y0029913D01*
X0417870Y0029897D01*
X0418322Y0029892D01*
X0418775Y0029898D01*
X0419228Y0029916D01*
X0419680Y0029944D01*
X0420131Y0029984D01*
X0420581Y0030034D01*
X0421030Y0030096D01*
X0421477Y0030168D01*
X0421922Y0030252D01*
X0422365Y0030346D01*
X0422806Y0030451D01*
X0423243Y0030567D01*
X0423678Y0030694D01*
X0424110Y0030831D01*
X0424538Y0030979D01*
X0424962Y0031138D01*
X0425383Y0031306D01*
X0425799Y0031485D01*
X0426210Y0031674D01*
X0426617Y0031873D01*
X0427019Y0032082D01*
X0427416Y0032301D01*
X0427807Y0032530D01*
X0428192Y0032768D01*
X0428571Y0033015D01*
X0428945Y0033271D01*
X0429311Y0033537D01*
X0429672Y0033812D01*
X0430025Y0034095D01*
X0430371Y0034387D01*
X0430710Y0034687D01*
X0431042Y0034996D01*
X0431366Y0035312D01*
X0431682Y0035637D01*
X0431990Y0035969D01*
X0432290Y0036308D01*
X0432581Y0036655D01*
X0432864Y0037009D01*
X0433138Y0037369D01*
X0433403Y0037737D01*
X0433659Y0038110D01*
X0433906Y0038490D01*
X0434143Y0038876D01*
X0434371Y0039267D01*
X0434589Y0039664D01*
X0434798Y0040066D01*
X0434996Y0040473D01*
X0435185Y0040885D01*
X0435363Y0041301D01*
X0435531Y0041722D01*
X0435689Y0042147D01*
X0435836Y0042575D01*
X0435973Y0043007D01*
X0436099Y0043442D01*
X0436214Y0043880D01*
X0436319Y0044320D01*
X0436413Y0044763D01*
X0436495Y0045209D01*
X0436567Y0045656D01*
X0436628Y0046105D01*
X0436678Y0046555D01*
X0436717Y0047006D01*
X0436745Y0047458D01*
X0436761Y0047911D01*
X0436767Y0048364D01*
X0436761Y0048817D01*
X0436745Y0049269D01*
X0436717Y0049721D01*
X0436678Y0050173D01*
X0436629Y0050623D01*
X0436568Y0051071D01*
X0436496Y0051519D01*
X0436413Y0051964D01*
X0436319Y0052407D01*
X0436215Y0052848D01*
X0330537Y0055779D02*
X0327875Y0055337D01*
X0325225Y0054831D01*
X0322589Y0054260D01*
X0319966Y0053626D01*
X0317360Y0052928D01*
X0314772Y0052168D01*
X0312202Y0051345D01*
X0309654Y0050459D01*
X0307128Y0049512D01*
X0304625Y0048505D01*
X0302148Y0047436D01*
X0299697Y0046308D01*
X0297274Y0045121D01*
X0294881Y0043876D01*
X0292519Y0042572D01*
X0290189Y0041212D01*
X0287893Y0039796D01*
X0285632Y0038324D01*
X0283407Y0036798D01*
X0281220Y0035219D01*
X0356363Y0055842D02*
X0358924Y0055425D01*
X0361473Y0054946D01*
X0364011Y0054406D01*
X0366535Y0053803D01*
X0369043Y0053140D01*
X0371534Y0052416D01*
X0374008Y0051632D01*
X0376461Y0050788D01*
X0378893Y0049885D01*
X0381303Y0048923D01*
X0383688Y0047903D01*
X0386048Y0046825D01*
X0388382Y0045690D01*
X0390687Y0044499D01*
X0392962Y0043253D01*
X0395206Y0041951D01*
X0397419Y0040596D01*
X0399597Y0039187D01*
X0401741Y0037725D01*
X0403849Y0036213D01*
X0405919Y0034649D01*
X0449012Y0118486D02*
X0450397Y0120633D01*
X0451833Y0122747D01*
X0453320Y0124826D01*
X0454855Y0126869D01*
X0456440Y0128874D01*
X0458071Y0130841D01*
X0459749Y0132768D01*
X0461473Y0134655D01*
X0463241Y0136500D01*
X0465053Y0138302D01*
X0466908Y0140060D01*
X0468804Y0141774D01*
X0470740Y0143441D01*
X0472716Y0145062D01*
X0474730Y0146636D01*
X0476781Y0148160D01*
X0478868Y0149635D01*
X0480989Y0151060D01*
X0483144Y0152434D01*
X0485331Y0153756D01*
X0487549Y0155025D01*
X0489797Y0156241D01*
X0492073Y0157402D01*
X0494377Y0158509D01*
X0496706Y0159561D01*
X0499059Y0160557D01*
X0499488Y0160701D01*
X0499914Y0160857D01*
X0500335Y0161022D01*
X0500753Y0161198D01*
X0501166Y0161384D01*
X0501574Y0161581D01*
X0501977Y0161787D01*
X0502375Y0162003D01*
X0502768Y0162228D01*
X0503155Y0162464D01*
X0503536Y0162708D01*
X0503911Y0162962D01*
X0504280Y0163225D01*
X0504642Y0163497D01*
X0504997Y0163778D01*
X0505346Y0164067D01*
X0505687Y0164365D01*
X0506021Y0164672D01*
X0506347Y0164986D01*
X0506665Y0165308D01*
X0506976Y0165638D01*
X0507278Y0165975D01*
X0507572Y0166320D01*
X0507857Y0166672D01*
X0508134Y0167030D01*
X0508401Y0167396D01*
X0508660Y0167767D01*
X0508910Y0168145D01*
X0509150Y0168529D01*
X0509380Y0168919D01*
X0509601Y0169314D01*
X0509813Y0169715D01*
X0510014Y0170121D01*
X0510205Y0170531D01*
X0510387Y0170946D01*
X0510558Y0171366D01*
X0510718Y0171789D01*
X0510869Y0172216D01*
X0511008Y0172647D01*
X0511137Y0173081D01*
X0511256Y0173519D01*
X0511364Y0173958D01*
X0511460Y0174401D01*
X0511547Y0174846D01*
X0511622Y0175292D01*
X0511686Y0175741D01*
X0511739Y0176190D01*
X0511781Y0176641D01*
X0511812Y0177093D01*
X0511832Y0177546D01*
X0511841Y0177999D01*
X0511838Y0178451D01*
X0511825Y0178904D01*
X0511800Y0179356D01*
X0511765Y0179808D01*
X0511718Y0180258D01*
X0511660Y0180708D01*
X0511592Y0181155D01*
X0511512Y0181601D01*
X0511422Y0182045D01*
X0511320Y0182486D01*
X0511208Y0182925D01*
X0511085Y0183361D01*
X0510952Y0183794D01*
X0510807Y0184223D01*
X0510653Y0184649D01*
X0510488Y0185071D01*
X0510313Y0185488D01*
X0510127Y0185902D01*
X0509932Y0186310D01*
X0509726Y0186714D01*
X0509511Y0187112D01*
X0509286Y0187505D01*
X0509051Y0187893D01*
X0508807Y0188274D01*
X0508554Y0188650D01*
X0508291Y0189019D01*
X0508020Y0189382D01*
X0507740Y0189737D01*
X0507451Y0190086D01*
X0507153Y0190428D01*
X0506848Y0190762D01*
X0506534Y0191089D01*
X0506213Y0191408D01*
X0505883Y0191719D01*
X0505546Y0192021D01*
X0505202Y0192316D01*
X0504851Y0192602D01*
X0504493Y0192879D01*
X0504128Y0193147D01*
X0503756Y0193406D01*
X0503379Y0193656D01*
X0502995Y0193897D01*
X0502606Y0194128D01*
X0502211Y0194350D01*
X0501810Y0194562D01*
X0501405Y0194764D01*
X0500995Y0194956D01*
X0500580Y0195138D01*
X0500161Y0195310D01*
X0499738Y0195471D01*
X0499311Y0195622D01*
X0498880Y0195762D01*
X0498446Y0195892D01*
X0449012Y0238042D02*
X0448000Y0239794D01*
X0364119Y0275902D02*
X0364119Y0279445D01*
X0364117Y0279511D01*
X0364112Y0279577D01*
X0364102Y0279643D01*
X0364089Y0279708D01*
X0364073Y0279772D01*
X0364053Y0279835D01*
X0364029Y0279897D01*
X0364002Y0279957D01*
X0363972Y0280016D01*
X0363938Y0280073D01*
X0363901Y0280128D01*
X0363861Y0280181D01*
X0363819Y0280232D01*
X0363773Y0280280D01*
X0363725Y0280326D01*
X0363674Y0280368D01*
X0363621Y0280408D01*
X0363566Y0280445D01*
X0363509Y0280479D01*
X0363450Y0280509D01*
X0363390Y0280536D01*
X0363328Y0280560D01*
X0363265Y0280580D01*
X0363201Y0280596D01*
X0363136Y0280609D01*
X0363070Y0280619D01*
X0363004Y0280624D01*
X0362938Y0280626D01*
X0362872Y0280624D01*
X0362806Y0280619D01*
X0362740Y0280609D01*
X0362675Y0280596D01*
X0362611Y0280580D01*
X0362548Y0280560D01*
X0362486Y0280536D01*
X0362426Y0280509D01*
X0362367Y0280479D01*
X0362310Y0280445D01*
X0362255Y0280408D01*
X0362202Y0280368D01*
X0362151Y0280326D01*
X0362103Y0280280D01*
X0362057Y0280232D01*
X0362015Y0280181D01*
X0361975Y0280128D01*
X0361938Y0280073D01*
X0361904Y0280016D01*
X0361874Y0279957D01*
X0361847Y0279897D01*
X0361823Y0279835D01*
X0361803Y0279772D01*
X0361787Y0279708D01*
X0361774Y0279643D01*
X0361764Y0279577D01*
X0361759Y0279511D01*
X0361757Y0279445D01*
X0361757Y0275902D01*
X0361759Y0275836D01*
X0361764Y0275770D01*
X0361774Y0275704D01*
X0361787Y0275639D01*
X0361803Y0275575D01*
X0361823Y0275512D01*
X0361847Y0275450D01*
X0361874Y0275390D01*
X0361904Y0275331D01*
X0361938Y0275274D01*
X0361975Y0275219D01*
X0362015Y0275166D01*
X0362057Y0275115D01*
X0362103Y0275067D01*
X0362151Y0275021D01*
X0362202Y0274979D01*
X0362255Y0274939D01*
X0362310Y0274902D01*
X0362367Y0274868D01*
X0362426Y0274838D01*
X0362486Y0274811D01*
X0362548Y0274787D01*
X0362611Y0274767D01*
X0362675Y0274751D01*
X0362740Y0274738D01*
X0362806Y0274728D01*
X0362872Y0274723D01*
X0362938Y0274721D01*
X0363004Y0274723D01*
X0363070Y0274728D01*
X0363136Y0274738D01*
X0363201Y0274751D01*
X0363265Y0274767D01*
X0363328Y0274787D01*
X0363390Y0274811D01*
X0363450Y0274838D01*
X0363509Y0274868D01*
X0363566Y0274902D01*
X0363621Y0274939D01*
X0363674Y0274979D01*
X0363725Y0275021D01*
X0363773Y0275067D01*
X0363819Y0275115D01*
X0363861Y0275166D01*
X0363901Y0275219D01*
X0363938Y0275274D01*
X0363972Y0275331D01*
X0364002Y0275390D01*
X0364029Y0275450D01*
X0364053Y0275512D01*
X0364073Y0275575D01*
X0364089Y0275639D01*
X0364102Y0275704D01*
X0364112Y0275770D01*
X0364117Y0275836D01*
X0364119Y0275902D01*
X0362938Y0274721D02*
X0362872Y0274723D01*
X0362806Y0274728D01*
X0362740Y0274738D01*
X0362675Y0274751D01*
X0362611Y0274767D01*
X0362548Y0274787D01*
X0362486Y0274811D01*
X0362426Y0274838D01*
X0362367Y0274868D01*
X0362310Y0274902D01*
X0362255Y0274939D01*
X0362202Y0274979D01*
X0362151Y0275021D01*
X0362103Y0275067D01*
X0362057Y0275115D01*
X0362015Y0275166D01*
X0361975Y0275219D01*
X0361938Y0275274D01*
X0361904Y0275331D01*
X0361874Y0275390D01*
X0361847Y0275450D01*
X0361823Y0275512D01*
X0361803Y0275575D01*
X0361787Y0275639D01*
X0361774Y0275704D01*
X0361764Y0275770D01*
X0361759Y0275836D01*
X0361757Y0275902D01*
X0362938Y0274721D02*
X0363004Y0274723D01*
X0363070Y0274728D01*
X0363136Y0274738D01*
X0363201Y0274751D01*
X0363265Y0274767D01*
X0363328Y0274787D01*
X0363390Y0274811D01*
X0363450Y0274838D01*
X0363509Y0274868D01*
X0363566Y0274902D01*
X0363621Y0274939D01*
X0363674Y0274979D01*
X0363725Y0275021D01*
X0363773Y0275067D01*
X0363819Y0275115D01*
X0363861Y0275166D01*
X0363901Y0275219D01*
X0363938Y0275274D01*
X0363972Y0275331D01*
X0364002Y0275390D01*
X0364029Y0275450D01*
X0364053Y0275512D01*
X0364073Y0275575D01*
X0364089Y0275639D01*
X0364102Y0275704D01*
X0364112Y0275770D01*
X0364117Y0275836D01*
X0364119Y0275902D01*
X0364119Y0279445D02*
X0364117Y0279511D01*
X0364112Y0279577D01*
X0364102Y0279643D01*
X0364089Y0279708D01*
X0364073Y0279772D01*
X0364053Y0279835D01*
X0364029Y0279897D01*
X0364002Y0279957D01*
X0363972Y0280016D01*
X0363938Y0280073D01*
X0363901Y0280128D01*
X0363861Y0280181D01*
X0363819Y0280232D01*
X0363773Y0280280D01*
X0363725Y0280326D01*
X0363674Y0280368D01*
X0363621Y0280408D01*
X0363566Y0280445D01*
X0363509Y0280479D01*
X0363450Y0280509D01*
X0363390Y0280536D01*
X0363328Y0280560D01*
X0363265Y0280580D01*
X0363201Y0280596D01*
X0363136Y0280609D01*
X0363070Y0280619D01*
X0363004Y0280624D01*
X0362938Y0280626D01*
X0362872Y0280624D01*
X0362806Y0280619D01*
X0362740Y0280609D01*
X0362675Y0280596D01*
X0362611Y0280580D01*
X0362548Y0280560D01*
X0362486Y0280536D01*
X0362426Y0280509D01*
X0362367Y0280479D01*
X0362310Y0280445D01*
X0362255Y0280408D01*
X0362202Y0280368D01*
X0362151Y0280326D01*
X0362103Y0280280D01*
X0362057Y0280232D01*
X0362015Y0280181D01*
X0361975Y0280128D01*
X0361938Y0280073D01*
X0361904Y0280016D01*
X0361874Y0279957D01*
X0361847Y0279897D01*
X0361823Y0279835D01*
X0361803Y0279772D01*
X0361787Y0279708D01*
X0361774Y0279643D01*
X0361764Y0279577D01*
X0361759Y0279511D01*
X0361757Y0279445D01*
X0359001Y0282398D02*
X0359001Y0301098D01*
X0359001Y0301100D02*
X0359001Y0301187D01*
X0361757Y0295783D02*
X0361757Y0291059D01*
X0361759Y0290993D01*
X0361764Y0290927D01*
X0361774Y0290861D01*
X0361787Y0290796D01*
X0361803Y0290732D01*
X0361823Y0290669D01*
X0361847Y0290607D01*
X0361874Y0290547D01*
X0361904Y0290488D01*
X0361938Y0290431D01*
X0361975Y0290376D01*
X0362015Y0290323D01*
X0362057Y0290272D01*
X0362103Y0290224D01*
X0362151Y0290178D01*
X0362202Y0290136D01*
X0362255Y0290096D01*
X0362310Y0290059D01*
X0362367Y0290025D01*
X0362426Y0289995D01*
X0362486Y0289968D01*
X0362548Y0289944D01*
X0362611Y0289924D01*
X0362675Y0289908D01*
X0362740Y0289895D01*
X0362806Y0289885D01*
X0362872Y0289880D01*
X0362938Y0289878D01*
X0363004Y0289880D01*
X0363070Y0289885D01*
X0363136Y0289895D01*
X0363201Y0289908D01*
X0363265Y0289924D01*
X0363328Y0289944D01*
X0363390Y0289968D01*
X0363450Y0289995D01*
X0363509Y0290025D01*
X0363566Y0290059D01*
X0363621Y0290096D01*
X0363674Y0290136D01*
X0363725Y0290178D01*
X0363773Y0290224D01*
X0363819Y0290272D01*
X0363861Y0290323D01*
X0363901Y0290376D01*
X0363938Y0290431D01*
X0363972Y0290488D01*
X0364002Y0290547D01*
X0364029Y0290607D01*
X0364053Y0290669D01*
X0364073Y0290732D01*
X0364089Y0290796D01*
X0364102Y0290861D01*
X0364112Y0290927D01*
X0364117Y0290993D01*
X0364119Y0291059D01*
X0364119Y0295783D01*
X0364117Y0295849D01*
X0364112Y0295915D01*
X0364102Y0295981D01*
X0364089Y0296046D01*
X0364073Y0296110D01*
X0364053Y0296173D01*
X0364029Y0296235D01*
X0364002Y0296295D01*
X0363972Y0296354D01*
X0363938Y0296411D01*
X0363901Y0296466D01*
X0363861Y0296519D01*
X0363819Y0296570D01*
X0363773Y0296618D01*
X0363725Y0296664D01*
X0363674Y0296706D01*
X0363621Y0296746D01*
X0363566Y0296783D01*
X0363509Y0296817D01*
X0363450Y0296847D01*
X0363390Y0296874D01*
X0363328Y0296898D01*
X0363265Y0296918D01*
X0363201Y0296934D01*
X0363136Y0296947D01*
X0363070Y0296957D01*
X0363004Y0296962D01*
X0362938Y0296964D01*
X0362872Y0296962D01*
X0362806Y0296957D01*
X0362740Y0296947D01*
X0362675Y0296934D01*
X0362611Y0296918D01*
X0362548Y0296898D01*
X0362486Y0296874D01*
X0362426Y0296847D01*
X0362367Y0296817D01*
X0362310Y0296783D01*
X0362255Y0296746D01*
X0362202Y0296706D01*
X0362151Y0296664D01*
X0362103Y0296618D01*
X0362057Y0296570D01*
X0362015Y0296519D01*
X0361975Y0296466D01*
X0361938Y0296411D01*
X0361904Y0296354D01*
X0361874Y0296295D01*
X0361847Y0296235D01*
X0361823Y0296173D01*
X0361803Y0296110D01*
X0361787Y0296046D01*
X0361774Y0295981D01*
X0361764Y0295915D01*
X0361759Y0295849D01*
X0361757Y0295783D01*
X0362938Y0296964D02*
X0363004Y0296962D01*
X0363070Y0296957D01*
X0363136Y0296947D01*
X0363201Y0296934D01*
X0363265Y0296918D01*
X0363328Y0296898D01*
X0363390Y0296874D01*
X0363450Y0296847D01*
X0363509Y0296817D01*
X0363566Y0296783D01*
X0363621Y0296746D01*
X0363674Y0296706D01*
X0363725Y0296664D01*
X0363773Y0296618D01*
X0363819Y0296570D01*
X0363861Y0296519D01*
X0363901Y0296466D01*
X0363938Y0296411D01*
X0363972Y0296354D01*
X0364002Y0296295D01*
X0364029Y0296235D01*
X0364053Y0296173D01*
X0364073Y0296110D01*
X0364089Y0296046D01*
X0364102Y0295981D01*
X0364112Y0295915D01*
X0364117Y0295849D01*
X0364119Y0295783D01*
X0362938Y0296964D02*
X0362872Y0296962D01*
X0362806Y0296957D01*
X0362740Y0296947D01*
X0362675Y0296934D01*
X0362611Y0296918D01*
X0362548Y0296898D01*
X0362486Y0296874D01*
X0362426Y0296847D01*
X0362367Y0296817D01*
X0362310Y0296783D01*
X0362255Y0296746D01*
X0362202Y0296706D01*
X0362151Y0296664D01*
X0362103Y0296618D01*
X0362057Y0296570D01*
X0362015Y0296519D01*
X0361975Y0296466D01*
X0361938Y0296411D01*
X0361904Y0296354D01*
X0361874Y0296295D01*
X0361847Y0296235D01*
X0361823Y0296173D01*
X0361803Y0296110D01*
X0361787Y0296046D01*
X0361774Y0295981D01*
X0361764Y0295915D01*
X0361759Y0295849D01*
X0361757Y0295783D01*
X0361757Y0291059D02*
X0361759Y0290993D01*
X0361764Y0290927D01*
X0361774Y0290861D01*
X0361787Y0290796D01*
X0361803Y0290732D01*
X0361823Y0290669D01*
X0361847Y0290607D01*
X0361874Y0290547D01*
X0361904Y0290488D01*
X0361938Y0290431D01*
X0361975Y0290376D01*
X0362015Y0290323D01*
X0362057Y0290272D01*
X0362103Y0290224D01*
X0362151Y0290178D01*
X0362202Y0290136D01*
X0362255Y0290096D01*
X0362310Y0290059D01*
X0362367Y0290025D01*
X0362426Y0289995D01*
X0362486Y0289968D01*
X0362548Y0289944D01*
X0362611Y0289924D01*
X0362675Y0289908D01*
X0362740Y0289895D01*
X0362806Y0289885D01*
X0362872Y0289880D01*
X0362938Y0289878D01*
X0363004Y0289880D01*
X0363070Y0289885D01*
X0363136Y0289895D01*
X0363201Y0289908D01*
X0363265Y0289924D01*
X0363328Y0289944D01*
X0363390Y0289968D01*
X0363450Y0289995D01*
X0363509Y0290025D01*
X0363566Y0290059D01*
X0363621Y0290096D01*
X0363674Y0290136D01*
X0363725Y0290178D01*
X0363773Y0290224D01*
X0363819Y0290272D01*
X0363861Y0290323D01*
X0363901Y0290376D01*
X0363938Y0290431D01*
X0363972Y0290488D01*
X0364002Y0290547D01*
X0364029Y0290607D01*
X0364053Y0290669D01*
X0364073Y0290732D01*
X0364089Y0290796D01*
X0364102Y0290861D01*
X0364112Y0290927D01*
X0364117Y0290993D01*
X0364119Y0291059D01*
X0359002Y0282398D02*
X0359000Y0282288D01*
X0358994Y0282178D01*
X0358985Y0282069D01*
X0358971Y0281960D01*
X0358954Y0281851D01*
X0358933Y0281743D01*
X0358908Y0281636D01*
X0358880Y0281530D01*
X0358848Y0281425D01*
X0358812Y0281321D01*
X0358773Y0281218D01*
X0358730Y0281117D01*
X0358683Y0281017D01*
X0358633Y0280919D01*
X0358580Y0280823D01*
X0358523Y0280729D01*
X0358463Y0280637D01*
X0358400Y0280546D01*
X0358334Y0280459D01*
X0358265Y0280373D01*
X0358193Y0280290D01*
X0358118Y0280210D01*
X0358040Y0280132D01*
X0357960Y0280057D01*
X0357877Y0279985D01*
X0357791Y0279916D01*
X0357704Y0279850D01*
X0357613Y0279787D01*
X0357521Y0279727D01*
X0357427Y0279670D01*
X0357331Y0279617D01*
X0357233Y0279567D01*
X0357133Y0279520D01*
X0357032Y0279477D01*
X0356929Y0279438D01*
X0356825Y0279402D01*
X0356720Y0279370D01*
X0356614Y0279342D01*
X0356507Y0279317D01*
X0356399Y0279296D01*
X0356290Y0279279D01*
X0356181Y0279265D01*
X0356072Y0279256D01*
X0355962Y0279250D01*
X0355852Y0279248D01*
X0331049Y0279248D01*
X0355852Y0279248D01*
X0355962Y0279250D01*
X0356072Y0279256D01*
X0356181Y0279265D01*
X0356290Y0279279D01*
X0356399Y0279296D01*
X0356507Y0279317D01*
X0356614Y0279342D01*
X0356720Y0279370D01*
X0356825Y0279402D01*
X0356929Y0279438D01*
X0357032Y0279477D01*
X0357133Y0279520D01*
X0357233Y0279567D01*
X0357331Y0279617D01*
X0357427Y0279670D01*
X0357521Y0279727D01*
X0357613Y0279787D01*
X0357704Y0279850D01*
X0357791Y0279916D01*
X0357877Y0279985D01*
X0357960Y0280057D01*
X0358040Y0280132D01*
X0358118Y0280210D01*
X0358193Y0280290D01*
X0358265Y0280373D01*
X0358334Y0280459D01*
X0358400Y0280546D01*
X0358463Y0280637D01*
X0358523Y0280729D01*
X0358580Y0280823D01*
X0358633Y0280919D01*
X0358683Y0281017D01*
X0358730Y0281117D01*
X0358773Y0281218D01*
X0358812Y0281321D01*
X0358848Y0281425D01*
X0358880Y0281530D01*
X0358908Y0281636D01*
X0358933Y0281743D01*
X0358954Y0281851D01*
X0358971Y0281960D01*
X0358985Y0282069D01*
X0358994Y0282178D01*
X0359000Y0282288D01*
X0359002Y0282398D01*
X0331049Y0279248D02*
X0330939Y0279250D01*
X0330829Y0279256D01*
X0330720Y0279265D01*
X0330611Y0279279D01*
X0330502Y0279296D01*
X0330394Y0279317D01*
X0330287Y0279342D01*
X0330181Y0279370D01*
X0330076Y0279402D01*
X0329972Y0279438D01*
X0329869Y0279477D01*
X0329768Y0279520D01*
X0329668Y0279567D01*
X0329570Y0279617D01*
X0329474Y0279670D01*
X0329380Y0279727D01*
X0329288Y0279787D01*
X0329197Y0279850D01*
X0329110Y0279916D01*
X0329024Y0279985D01*
X0328941Y0280057D01*
X0328861Y0280132D01*
X0328783Y0280210D01*
X0328708Y0280290D01*
X0328636Y0280373D01*
X0328567Y0280459D01*
X0328501Y0280546D01*
X0328438Y0280637D01*
X0328378Y0280729D01*
X0328321Y0280823D01*
X0328268Y0280919D01*
X0328218Y0281017D01*
X0328171Y0281117D01*
X0328128Y0281218D01*
X0328089Y0281321D01*
X0328053Y0281425D01*
X0328021Y0281530D01*
X0327993Y0281636D01*
X0327968Y0281743D01*
X0327947Y0281851D01*
X0327930Y0281960D01*
X0327916Y0282069D01*
X0327907Y0282178D01*
X0327901Y0282288D01*
X0327899Y0282398D01*
X0327899Y0301098D01*
X0327899Y0301114D01*
X0327899Y0301118D02*
X0327899Y0282398D01*
X0327901Y0282288D01*
X0327907Y0282178D01*
X0327916Y0282069D01*
X0327930Y0281960D01*
X0327947Y0281851D01*
X0327968Y0281743D01*
X0327993Y0281636D01*
X0328021Y0281530D01*
X0328053Y0281425D01*
X0328089Y0281321D01*
X0328128Y0281218D01*
X0328171Y0281117D01*
X0328218Y0281017D01*
X0328268Y0280919D01*
X0328321Y0280823D01*
X0328378Y0280729D01*
X0328438Y0280637D01*
X0328501Y0280546D01*
X0328567Y0280459D01*
X0328636Y0280373D01*
X0328708Y0280290D01*
X0328783Y0280210D01*
X0328861Y0280132D01*
X0328941Y0280057D01*
X0329024Y0279985D01*
X0329110Y0279916D01*
X0329197Y0279850D01*
X0329288Y0279787D01*
X0329380Y0279727D01*
X0329474Y0279670D01*
X0329570Y0279617D01*
X0329668Y0279567D01*
X0329768Y0279520D01*
X0329869Y0279477D01*
X0329972Y0279438D01*
X0330076Y0279402D01*
X0330181Y0279370D01*
X0330287Y0279342D01*
X0330394Y0279317D01*
X0330502Y0279296D01*
X0330611Y0279279D01*
X0330720Y0279265D01*
X0330829Y0279256D01*
X0330939Y0279250D01*
X0331049Y0279248D01*
X0325143Y0279445D02*
X0325143Y0275902D01*
X0323962Y0274721D02*
X0323896Y0274723D01*
X0323830Y0274728D01*
X0323764Y0274738D01*
X0323699Y0274751D01*
X0323635Y0274767D01*
X0323572Y0274787D01*
X0323510Y0274811D01*
X0323450Y0274838D01*
X0323391Y0274868D01*
X0323334Y0274902D01*
X0323279Y0274939D01*
X0323226Y0274979D01*
X0323175Y0275021D01*
X0323127Y0275067D01*
X0323081Y0275115D01*
X0323039Y0275166D01*
X0322999Y0275219D01*
X0322962Y0275274D01*
X0322928Y0275331D01*
X0322898Y0275390D01*
X0322871Y0275450D01*
X0322847Y0275512D01*
X0322827Y0275575D01*
X0322811Y0275639D01*
X0322798Y0275704D01*
X0322788Y0275770D01*
X0322783Y0275836D01*
X0322781Y0275902D01*
X0322781Y0279445D01*
X0323962Y0280626D02*
X0324028Y0280624D01*
X0324094Y0280619D01*
X0324160Y0280609D01*
X0324225Y0280596D01*
X0324289Y0280580D01*
X0324352Y0280560D01*
X0324414Y0280536D01*
X0324474Y0280509D01*
X0324533Y0280479D01*
X0324590Y0280445D01*
X0324645Y0280408D01*
X0324698Y0280368D01*
X0324749Y0280326D01*
X0324797Y0280280D01*
X0324843Y0280232D01*
X0324885Y0280181D01*
X0324925Y0280128D01*
X0324962Y0280073D01*
X0324996Y0280016D01*
X0325026Y0279957D01*
X0325053Y0279897D01*
X0325077Y0279835D01*
X0325097Y0279772D01*
X0325113Y0279708D01*
X0325126Y0279643D01*
X0325136Y0279577D01*
X0325141Y0279511D01*
X0325143Y0279445D01*
X0323962Y0280626D02*
X0323896Y0280624D01*
X0323830Y0280619D01*
X0323764Y0280609D01*
X0323699Y0280596D01*
X0323635Y0280580D01*
X0323572Y0280560D01*
X0323510Y0280536D01*
X0323450Y0280509D01*
X0323391Y0280479D01*
X0323334Y0280445D01*
X0323279Y0280408D01*
X0323226Y0280368D01*
X0323175Y0280326D01*
X0323127Y0280280D01*
X0323081Y0280232D01*
X0323039Y0280181D01*
X0322999Y0280128D01*
X0322962Y0280073D01*
X0322928Y0280016D01*
X0322898Y0279957D01*
X0322871Y0279897D01*
X0322847Y0279835D01*
X0322827Y0279772D01*
X0322811Y0279708D01*
X0322798Y0279643D01*
X0322788Y0279577D01*
X0322783Y0279511D01*
X0322781Y0279445D01*
X0323962Y0280626D02*
X0324028Y0280624D01*
X0324094Y0280619D01*
X0324160Y0280609D01*
X0324225Y0280596D01*
X0324289Y0280580D01*
X0324352Y0280560D01*
X0324414Y0280536D01*
X0324474Y0280509D01*
X0324533Y0280479D01*
X0324590Y0280445D01*
X0324645Y0280408D01*
X0324698Y0280368D01*
X0324749Y0280326D01*
X0324797Y0280280D01*
X0324843Y0280232D01*
X0324885Y0280181D01*
X0324925Y0280128D01*
X0324962Y0280073D01*
X0324996Y0280016D01*
X0325026Y0279957D01*
X0325053Y0279897D01*
X0325077Y0279835D01*
X0325097Y0279772D01*
X0325113Y0279708D01*
X0325126Y0279643D01*
X0325136Y0279577D01*
X0325141Y0279511D01*
X0325143Y0279445D01*
X0323962Y0280626D02*
X0323896Y0280624D01*
X0323830Y0280619D01*
X0323764Y0280609D01*
X0323699Y0280596D01*
X0323635Y0280580D01*
X0323572Y0280560D01*
X0323510Y0280536D01*
X0323450Y0280509D01*
X0323391Y0280479D01*
X0323334Y0280445D01*
X0323279Y0280408D01*
X0323226Y0280368D01*
X0323175Y0280326D01*
X0323127Y0280280D01*
X0323081Y0280232D01*
X0323039Y0280181D01*
X0322999Y0280128D01*
X0322962Y0280073D01*
X0322928Y0280016D01*
X0322898Y0279957D01*
X0322871Y0279897D01*
X0322847Y0279835D01*
X0322827Y0279772D01*
X0322811Y0279708D01*
X0322798Y0279643D01*
X0322788Y0279577D01*
X0322783Y0279511D01*
X0322781Y0279445D01*
X0325143Y0275902D02*
X0325141Y0275836D01*
X0325136Y0275770D01*
X0325126Y0275704D01*
X0325113Y0275639D01*
X0325097Y0275575D01*
X0325077Y0275512D01*
X0325053Y0275450D01*
X0325026Y0275390D01*
X0324996Y0275331D01*
X0324962Y0275274D01*
X0324925Y0275219D01*
X0324885Y0275166D01*
X0324843Y0275115D01*
X0324797Y0275067D01*
X0324749Y0275021D01*
X0324698Y0274979D01*
X0324645Y0274939D01*
X0324590Y0274902D01*
X0324533Y0274868D01*
X0324474Y0274838D01*
X0324414Y0274811D01*
X0324352Y0274787D01*
X0324289Y0274767D01*
X0324225Y0274751D01*
X0324160Y0274738D01*
X0324094Y0274728D01*
X0324028Y0274723D01*
X0323962Y0274721D01*
X0323896Y0274723D01*
X0323830Y0274728D01*
X0323764Y0274738D01*
X0323699Y0274751D01*
X0323635Y0274767D01*
X0323572Y0274787D01*
X0323510Y0274811D01*
X0323450Y0274838D01*
X0323391Y0274868D01*
X0323334Y0274902D01*
X0323279Y0274939D01*
X0323226Y0274979D01*
X0323175Y0275021D01*
X0323127Y0275067D01*
X0323081Y0275115D01*
X0323039Y0275166D01*
X0322999Y0275219D01*
X0322962Y0275274D01*
X0322928Y0275331D01*
X0322898Y0275390D01*
X0322871Y0275450D01*
X0322847Y0275512D01*
X0322827Y0275575D01*
X0322811Y0275639D01*
X0322798Y0275704D01*
X0322788Y0275770D01*
X0322783Y0275836D01*
X0322781Y0275902D01*
X0323962Y0274721D02*
X0324028Y0274723D01*
X0324094Y0274728D01*
X0324160Y0274738D01*
X0324225Y0274751D01*
X0324289Y0274767D01*
X0324352Y0274787D01*
X0324414Y0274811D01*
X0324474Y0274838D01*
X0324533Y0274868D01*
X0324590Y0274902D01*
X0324645Y0274939D01*
X0324698Y0274979D01*
X0324749Y0275021D01*
X0324797Y0275067D01*
X0324843Y0275115D01*
X0324885Y0275166D01*
X0324925Y0275219D01*
X0324962Y0275274D01*
X0324996Y0275331D01*
X0325026Y0275390D01*
X0325053Y0275450D01*
X0325077Y0275512D01*
X0325097Y0275575D01*
X0325113Y0275639D01*
X0325126Y0275704D01*
X0325136Y0275770D01*
X0325141Y0275836D01*
X0325143Y0275902D01*
X0325143Y0291059D02*
X0325143Y0295783D01*
X0325141Y0295849D01*
X0325136Y0295915D01*
X0325126Y0295981D01*
X0325113Y0296046D01*
X0325097Y0296110D01*
X0325077Y0296173D01*
X0325053Y0296235D01*
X0325026Y0296295D01*
X0324996Y0296354D01*
X0324962Y0296411D01*
X0324925Y0296466D01*
X0324885Y0296519D01*
X0324843Y0296570D01*
X0324797Y0296618D01*
X0324749Y0296664D01*
X0324698Y0296706D01*
X0324645Y0296746D01*
X0324590Y0296783D01*
X0324533Y0296817D01*
X0324474Y0296847D01*
X0324414Y0296874D01*
X0324352Y0296898D01*
X0324289Y0296918D01*
X0324225Y0296934D01*
X0324160Y0296947D01*
X0324094Y0296957D01*
X0324028Y0296962D01*
X0323962Y0296964D01*
X0323896Y0296962D01*
X0323830Y0296957D01*
X0323764Y0296947D01*
X0323699Y0296934D01*
X0323635Y0296918D01*
X0323572Y0296898D01*
X0323510Y0296874D01*
X0323450Y0296847D01*
X0323391Y0296817D01*
X0323334Y0296783D01*
X0323279Y0296746D01*
X0323226Y0296706D01*
X0323175Y0296664D01*
X0323127Y0296618D01*
X0323081Y0296570D01*
X0323039Y0296519D01*
X0322999Y0296466D01*
X0322962Y0296411D01*
X0322928Y0296354D01*
X0322898Y0296295D01*
X0322871Y0296235D01*
X0322847Y0296173D01*
X0322827Y0296110D01*
X0322811Y0296046D01*
X0322798Y0295981D01*
X0322788Y0295915D01*
X0322783Y0295849D01*
X0322781Y0295783D01*
X0322781Y0291059D01*
X0322783Y0290993D01*
X0322788Y0290927D01*
X0322798Y0290861D01*
X0322811Y0290796D01*
X0322827Y0290732D01*
X0322847Y0290669D01*
X0322871Y0290607D01*
X0322898Y0290547D01*
X0322928Y0290488D01*
X0322962Y0290431D01*
X0322999Y0290376D01*
X0323039Y0290323D01*
X0323081Y0290272D01*
X0323127Y0290224D01*
X0323175Y0290178D01*
X0323226Y0290136D01*
X0323279Y0290096D01*
X0323334Y0290059D01*
X0323391Y0290025D01*
X0323450Y0289995D01*
X0323510Y0289968D01*
X0323572Y0289944D01*
X0323635Y0289924D01*
X0323699Y0289908D01*
X0323764Y0289895D01*
X0323830Y0289885D01*
X0323896Y0289880D01*
X0323962Y0289878D01*
X0324028Y0289880D01*
X0324094Y0289885D01*
X0324160Y0289895D01*
X0324225Y0289908D01*
X0324289Y0289924D01*
X0324352Y0289944D01*
X0324414Y0289968D01*
X0324474Y0289995D01*
X0324533Y0290025D01*
X0324590Y0290059D01*
X0324645Y0290096D01*
X0324698Y0290136D01*
X0324749Y0290178D01*
X0324797Y0290224D01*
X0324843Y0290272D01*
X0324885Y0290323D01*
X0324925Y0290376D01*
X0324962Y0290431D01*
X0324996Y0290488D01*
X0325026Y0290547D01*
X0325053Y0290607D01*
X0325077Y0290669D01*
X0325097Y0290732D01*
X0325113Y0290796D01*
X0325126Y0290861D01*
X0325136Y0290927D01*
X0325141Y0290993D01*
X0325143Y0291059D01*
X0323962Y0289878D02*
X0323896Y0289880D01*
X0323830Y0289885D01*
X0323764Y0289895D01*
X0323699Y0289908D01*
X0323635Y0289924D01*
X0323572Y0289944D01*
X0323510Y0289968D01*
X0323450Y0289995D01*
X0323391Y0290025D01*
X0323334Y0290059D01*
X0323279Y0290096D01*
X0323226Y0290136D01*
X0323175Y0290178D01*
X0323127Y0290224D01*
X0323081Y0290272D01*
X0323039Y0290323D01*
X0322999Y0290376D01*
X0322962Y0290431D01*
X0322928Y0290488D01*
X0322898Y0290547D01*
X0322871Y0290607D01*
X0322847Y0290669D01*
X0322827Y0290732D01*
X0322811Y0290796D01*
X0322798Y0290861D01*
X0322788Y0290927D01*
X0322783Y0290993D01*
X0322781Y0291059D01*
X0323962Y0289878D02*
X0324028Y0289880D01*
X0324094Y0289885D01*
X0324160Y0289895D01*
X0324225Y0289908D01*
X0324289Y0289924D01*
X0324352Y0289944D01*
X0324414Y0289968D01*
X0324474Y0289995D01*
X0324533Y0290025D01*
X0324590Y0290059D01*
X0324645Y0290096D01*
X0324698Y0290136D01*
X0324749Y0290178D01*
X0324797Y0290224D01*
X0324843Y0290272D01*
X0324885Y0290323D01*
X0324925Y0290376D01*
X0324962Y0290431D01*
X0324996Y0290488D01*
X0325026Y0290547D01*
X0325053Y0290607D01*
X0325077Y0290669D01*
X0325097Y0290732D01*
X0325113Y0290796D01*
X0325126Y0290861D01*
X0325136Y0290927D01*
X0325141Y0290993D01*
X0325143Y0291059D01*
X0325143Y0295783D02*
X0325141Y0295849D01*
X0325136Y0295915D01*
X0325126Y0295981D01*
X0325113Y0296046D01*
X0325097Y0296110D01*
X0325077Y0296173D01*
X0325053Y0296235D01*
X0325026Y0296295D01*
X0324996Y0296354D01*
X0324962Y0296411D01*
X0324925Y0296466D01*
X0324885Y0296519D01*
X0324843Y0296570D01*
X0324797Y0296618D01*
X0324749Y0296664D01*
X0324698Y0296706D01*
X0324645Y0296746D01*
X0324590Y0296783D01*
X0324533Y0296817D01*
X0324474Y0296847D01*
X0324414Y0296874D01*
X0324352Y0296898D01*
X0324289Y0296918D01*
X0324225Y0296934D01*
X0324160Y0296947D01*
X0324094Y0296957D01*
X0324028Y0296962D01*
X0323962Y0296964D01*
X0323896Y0296962D01*
X0323830Y0296957D01*
X0323764Y0296947D01*
X0323699Y0296934D01*
X0323635Y0296918D01*
X0323572Y0296898D01*
X0323510Y0296874D01*
X0323450Y0296847D01*
X0323391Y0296817D01*
X0323334Y0296783D01*
X0323279Y0296746D01*
X0323226Y0296706D01*
X0323175Y0296664D01*
X0323127Y0296618D01*
X0323081Y0296570D01*
X0323039Y0296519D01*
X0322999Y0296466D01*
X0322962Y0296411D01*
X0322928Y0296354D01*
X0322898Y0296295D01*
X0322871Y0296235D01*
X0322847Y0296173D01*
X0322827Y0296110D01*
X0322811Y0296046D01*
X0322798Y0295981D01*
X0322788Y0295915D01*
X0322783Y0295849D01*
X0322781Y0295783D01*
X0280981Y0321879D02*
X0280641Y0322178D01*
X0280294Y0322469D01*
X0279940Y0322751D01*
X0279579Y0323025D01*
X0279211Y0323289D01*
X0278837Y0323545D01*
X0278457Y0323791D01*
X0278071Y0324028D01*
X0277679Y0324255D01*
X0277282Y0324473D01*
X0276879Y0324680D01*
X0276472Y0324878D01*
X0276060Y0325066D01*
X0275643Y0325244D01*
X0275222Y0325411D01*
X0274797Y0325568D01*
X0274369Y0325714D01*
X0273937Y0325850D01*
X0273502Y0325976D01*
X0273063Y0326090D01*
X0272623Y0326194D01*
X0272179Y0326287D01*
X0271734Y0326369D01*
X0271287Y0326441D01*
X0270838Y0326501D01*
X0270387Y0326550D01*
X0269936Y0326588D01*
X0269484Y0326615D01*
X0269031Y0326631D01*
X0268579Y0326636D01*
X0268126Y0326630D01*
X0267673Y0326612D01*
X0267221Y0326584D01*
X0266770Y0326544D01*
X0266320Y0326494D01*
X0265871Y0326432D01*
X0265424Y0326360D01*
X0264979Y0326276D01*
X0264536Y0326182D01*
X0264095Y0326077D01*
X0263658Y0325961D01*
X0263223Y0325834D01*
X0262791Y0325697D01*
X0262363Y0325549D01*
X0261939Y0325390D01*
X0261518Y0325222D01*
X0261102Y0325043D01*
X0260691Y0324854D01*
X0260284Y0324655D01*
X0259882Y0324446D01*
X0259485Y0324227D01*
X0259094Y0323998D01*
X0258709Y0323760D01*
X0258330Y0323513D01*
X0257956Y0323257D01*
X0257590Y0322991D01*
X0257229Y0322716D01*
X0256876Y0322433D01*
X0256530Y0322141D01*
X0256191Y0321841D01*
X0255859Y0321532D01*
X0255535Y0321216D01*
X0255219Y0320891D01*
X0254911Y0320559D01*
X0254611Y0320220D01*
X0254320Y0319873D01*
X0254037Y0319519D01*
X0253763Y0319159D01*
X0253498Y0318791D01*
X0253242Y0318418D01*
X0252995Y0318038D01*
X0252758Y0317652D01*
X0252530Y0317261D01*
X0252312Y0316864D01*
X0252103Y0316462D01*
X0251905Y0316055D01*
X0251716Y0315643D01*
X0251538Y0315227D01*
X0251370Y0314806D01*
X0251212Y0314381D01*
X0251065Y0313953D01*
X0250928Y0313521D01*
X0250802Y0313086D01*
X0250687Y0312648D01*
X0250582Y0312208D01*
X0250488Y0311765D01*
X0250406Y0311319D01*
X0250334Y0310872D01*
X0250273Y0310423D01*
X0250223Y0309973D01*
X0250184Y0309522D01*
X0250156Y0309070D01*
X0250140Y0308617D01*
X0250134Y0308164D01*
X0250140Y0307711D01*
X0250156Y0307259D01*
X0250184Y0306807D01*
X0250223Y0306355D01*
X0250272Y0305905D01*
X0250333Y0305457D01*
X0250405Y0305009D01*
X0250488Y0304564D01*
X0250582Y0304121D01*
X0250686Y0303680D01*
X0359002Y0301187D02*
X0361653Y0301693D01*
X0364291Y0302263D01*
X0366915Y0302897D01*
X0369522Y0303594D01*
X0372112Y0304355D01*
X0374683Y0305178D01*
X0377233Y0306063D01*
X0379760Y0307010D01*
X0382264Y0308018D01*
X0384743Y0309087D01*
X0387195Y0310215D01*
X0389619Y0311403D01*
X0392013Y0312649D01*
X0394376Y0313952D01*
X0396707Y0315313D01*
X0399005Y0316730D01*
X0401267Y0318202D01*
X0403493Y0319729D01*
X0405681Y0321309D01*
X0406011Y0321619D01*
X0406348Y0321922D01*
X0406692Y0322216D01*
X0407043Y0322502D01*
X0407402Y0322779D01*
X0407766Y0323048D01*
X0408138Y0323307D01*
X0408516Y0323557D01*
X0408899Y0323798D01*
X0409289Y0324029D01*
X0409684Y0324250D01*
X0410084Y0324462D01*
X0410489Y0324664D01*
X0410900Y0324856D01*
X0411314Y0325038D01*
X0411734Y0325210D01*
X0412157Y0325371D01*
X0412584Y0325522D01*
X0413014Y0325662D01*
X0413448Y0325792D01*
X0413885Y0325911D01*
X0414325Y0326019D01*
X0414767Y0326117D01*
X0415212Y0326204D01*
X0415658Y0326279D01*
X0416107Y0326344D01*
X0416556Y0326398D01*
X0417007Y0326441D01*
X0417459Y0326472D01*
X0417912Y0326493D01*
X0418364Y0326502D01*
X0418817Y0326501D01*
X0419270Y0326488D01*
X0419722Y0326464D01*
X0420174Y0326429D01*
X0420625Y0326383D01*
X0421074Y0326326D01*
X0421522Y0326258D01*
X0421968Y0326179D01*
X0422412Y0326089D01*
X0422853Y0325989D01*
X0423292Y0325877D01*
X0423728Y0325755D01*
X0424161Y0325622D01*
X0424591Y0325478D01*
X0425017Y0325324D01*
X0425439Y0325160D01*
X0425857Y0324985D01*
X0426270Y0324801D01*
X0426679Y0324606D01*
X0427083Y0324401D01*
X0427482Y0324186D01*
X0427875Y0323961D01*
X0428263Y0323727D01*
X0428645Y0323484D01*
X0429020Y0323231D01*
X0429390Y0322969D01*
X0429753Y0322698D01*
X0430109Y0322419D01*
X0430458Y0322130D01*
X0430801Y0321834D01*
X0431135Y0321528D01*
X0431462Y0321215D01*
X0431782Y0320894D01*
X0432093Y0320565D01*
X0432396Y0320229D01*
X0432691Y0319885D01*
X0432978Y0319534D01*
X0433255Y0319176D01*
X0433524Y0318812D01*
X0433784Y0318441D01*
X0434035Y0318063D01*
X0434276Y0317680D01*
X0434508Y0317291D01*
X0434730Y0316896D01*
X0434943Y0316497D01*
X0435145Y0316091D01*
X0435338Y0315682D01*
X0435520Y0315267D01*
X0435693Y0314848D01*
X0435855Y0314425D01*
X0436006Y0313998D01*
X0436147Y0313568D01*
X0436278Y0313134D01*
X0436398Y0312698D01*
X0436507Y0312258D01*
X0436605Y0311816D01*
X0436692Y0311371D01*
X0436769Y0310925D01*
X0436834Y0310477D01*
X0436889Y0310027D01*
X0436932Y0309576D01*
X0436965Y0309125D01*
X0436986Y0308672D01*
X0436996Y0308219D01*
X0436995Y0307766D01*
X0436983Y0307314D01*
X0436960Y0306861D01*
X0436926Y0306410D01*
X0436881Y0305959D01*
X0436824Y0305510D01*
X0436757Y0305062D01*
X0436679Y0304616D01*
X0436590Y0304172D01*
X0327899Y0301116D02*
X0325353Y0301596D01*
X0322820Y0302138D01*
X0320300Y0302741D01*
X0317796Y0303405D01*
X0315309Y0304129D01*
X0312840Y0304913D01*
X0310391Y0305757D01*
X0307963Y0306660D01*
X0305557Y0307622D01*
X0303176Y0308641D01*
X0300819Y0309718D01*
X0298490Y0310852D01*
X0296189Y0312042D01*
X0293917Y0313287D01*
X0291677Y0314587D01*
X0289468Y0315941D01*
X0287293Y0317348D01*
X0285152Y0318807D01*
X0283048Y0320318D01*
X0280981Y0321879D01*
X0237889Y0238042D02*
X0236504Y0235895D01*
X0235068Y0233781D01*
X0233581Y0231702D01*
X0232046Y0229659D01*
X0230461Y0227654D01*
X0228830Y0225687D01*
X0227152Y0223760D01*
X0225428Y0221873D01*
X0223660Y0220028D01*
X0221848Y0218226D01*
X0219993Y0216468D01*
X0218097Y0214754D01*
X0216161Y0213087D01*
X0214185Y0211466D01*
X0212171Y0209892D01*
X0210120Y0208368D01*
X0208033Y0206893D01*
X0205912Y0205468D01*
X0203757Y0204094D01*
X0201570Y0202772D01*
X0199352Y0201503D01*
X0197104Y0200287D01*
X0194828Y0199126D01*
X0192524Y0198019D01*
X0190195Y0196967D01*
X0187842Y0195971D01*
X0187413Y0195827D01*
X0186987Y0195671D01*
X0186566Y0195506D01*
X0186148Y0195330D01*
X0185735Y0195144D01*
X0185327Y0194947D01*
X0184924Y0194741D01*
X0184526Y0194525D01*
X0184133Y0194300D01*
X0183746Y0194064D01*
X0183365Y0193820D01*
X0182990Y0193566D01*
X0182621Y0193303D01*
X0182259Y0193031D01*
X0181904Y0192750D01*
X0181555Y0192461D01*
X0181214Y0192163D01*
X0180880Y0191856D01*
X0180554Y0191542D01*
X0180236Y0191220D01*
X0179925Y0190890D01*
X0179623Y0190553D01*
X0179329Y0190208D01*
X0179044Y0189856D01*
X0178767Y0189498D01*
X0178500Y0189132D01*
X0178241Y0188761D01*
X0177991Y0188383D01*
X0177751Y0187999D01*
X0177521Y0187609D01*
X0177300Y0187214D01*
X0177088Y0186813D01*
X0176887Y0186407D01*
X0176696Y0185997D01*
X0176514Y0185582D01*
X0176343Y0185162D01*
X0176183Y0184739D01*
X0176032Y0184312D01*
X0175893Y0183881D01*
X0175764Y0183447D01*
X0175645Y0183009D01*
X0175537Y0182570D01*
X0175441Y0182127D01*
X0175354Y0181682D01*
X0175279Y0181236D01*
X0175215Y0180787D01*
X0175162Y0180338D01*
X0175120Y0179887D01*
X0175089Y0179435D01*
X0175069Y0178982D01*
X0175060Y0178529D01*
X0175063Y0178077D01*
X0175076Y0177624D01*
X0175101Y0177172D01*
X0175136Y0176720D01*
X0175183Y0176270D01*
X0175241Y0175820D01*
X0175309Y0175373D01*
X0175389Y0174927D01*
X0175479Y0174483D01*
X0175581Y0174042D01*
X0175693Y0173603D01*
X0175816Y0173167D01*
X0175949Y0172734D01*
X0176094Y0172305D01*
X0176248Y0171879D01*
X0176413Y0171457D01*
X0176588Y0171040D01*
X0176774Y0170626D01*
X0176969Y0170218D01*
X0177175Y0169814D01*
X0177390Y0169416D01*
X0177615Y0169023D01*
X0177850Y0168635D01*
X0178094Y0168254D01*
X0178347Y0167878D01*
X0178610Y0167509D01*
X0178881Y0167146D01*
X0179161Y0166791D01*
X0179450Y0166442D01*
X0179748Y0166100D01*
X0180053Y0165766D01*
X0180367Y0165439D01*
X0180688Y0165120D01*
X0181018Y0164809D01*
X0181355Y0164507D01*
X0181699Y0164212D01*
X0182050Y0163926D01*
X0182408Y0163649D01*
X0182773Y0163381D01*
X0183145Y0163122D01*
X0183522Y0162872D01*
X0183906Y0162631D01*
X0184295Y0162400D01*
X0184690Y0162178D01*
X0185091Y0161966D01*
X0185496Y0161764D01*
X0185906Y0161572D01*
X0186321Y0161390D01*
X0186740Y0161218D01*
X0187163Y0161057D01*
X0187590Y0160906D01*
X0188021Y0160766D01*
X0188455Y0160636D01*
X0237889Y0238042D02*
X0238900Y0239794D01*
X0240087Y0242148D01*
X0241218Y0244530D01*
X0242292Y0246939D01*
X0243309Y0249372D01*
X0244268Y0251828D01*
X0245168Y0254307D01*
X0246009Y0256806D01*
X0246791Y0259324D01*
X0247513Y0261860D01*
X0248174Y0264413D01*
X0248775Y0266981D01*
X0249315Y0269562D01*
X0249793Y0272155D01*
X0250210Y0274759D01*
X0250565Y0277372D01*
X0250858Y0279992D01*
X0251088Y0282619D01*
X0251257Y0285251D01*
X0251363Y0287886D01*
X0251406Y0290522D01*
X0251387Y0293159D01*
X0251305Y0295795D01*
X0251161Y0298428D01*
X0250954Y0301056D01*
X0250685Y0303680D01*
X0449012Y0238042D02*
X0450457Y0235836D01*
X0451955Y0233666D01*
X0453503Y0231532D01*
X0455102Y0229434D01*
X0456750Y0227376D01*
X0458446Y0225357D01*
X0460190Y0223379D01*
X0461980Y0221443D01*
X0463816Y0219549D01*
X0465695Y0217700D01*
X0467619Y0215896D01*
X0469584Y0214138D01*
X0471591Y0212427D01*
X0473637Y0210765D01*
X0475723Y0209151D01*
X0477846Y0207587D01*
X0480005Y0206074D01*
X0482200Y0204612D01*
X0484429Y0203203D01*
X0486691Y0201847D01*
X0488984Y0200545D01*
X0491307Y0199298D01*
X0493660Y0198107D01*
X0496040Y0196971D01*
X0498446Y0195892D01*
X0449012Y0118486D02*
X0448000Y0116734D01*
X0448001Y0116734D02*
X0446814Y0114380D01*
X0445683Y0111998D01*
X0444609Y0109589D01*
X0443592Y0107156D01*
X0442633Y0104700D01*
X0441733Y0102221D01*
X0440892Y0099722D01*
X0440110Y0097204D01*
X0439388Y0094668D01*
X0438727Y0092115D01*
X0438126Y0089547D01*
X0437586Y0086966D01*
X0437108Y0084373D01*
X0436691Y0081769D01*
X0436336Y0079156D01*
X0436043Y0076536D01*
X0435813Y0073909D01*
X0435644Y0071277D01*
X0435538Y0068642D01*
X0435495Y0066006D01*
X0435514Y0063369D01*
X0435596Y0060733D01*
X0435740Y0058100D01*
X0435947Y0055472D01*
X0436216Y0052848D01*
X0448000Y0239794D02*
X0446833Y0242067D01*
X0445721Y0244368D01*
X0444664Y0246695D01*
X0443663Y0249046D01*
X0442718Y0251421D01*
X0441830Y0253817D01*
X0441000Y0256234D01*
X0440228Y0258670D01*
X0439515Y0261124D01*
X0438860Y0263594D01*
X0438264Y0266079D01*
X0437729Y0268578D01*
X0437253Y0271089D01*
X0436837Y0273610D01*
X0436481Y0276141D01*
X0436186Y0278680D01*
X0435952Y0281224D01*
X0435779Y0283774D01*
X0435667Y0286327D01*
X0435615Y0288882D01*
X0435625Y0291438D01*
X0435696Y0293992D01*
X0435828Y0296544D01*
X0436021Y0299093D01*
X0436275Y0301636D01*
X0436590Y0304172D01*
D11*
X0285734Y0014974D02*
X0285734Y0013906D01*
X0285734Y0011771D02*
X0285734Y0007501D01*
X0284666Y0007501D02*
X0286802Y0007501D01*
X0288963Y0007501D02*
X0291098Y0007501D01*
X0290031Y0007501D02*
X0290031Y0013906D01*
X0288963Y0013906D01*
X0285734Y0011771D02*
X0284666Y0011771D01*
X0282491Y0012839D02*
X0281424Y0013906D01*
X0279288Y0013906D01*
X0278221Y0012839D01*
X0278221Y0011771D01*
X0279288Y0010704D01*
X0281424Y0010704D01*
X0282491Y0009636D01*
X0282491Y0008568D01*
X0281424Y0007501D01*
X0279288Y0007501D01*
X0278221Y0008568D01*
X0293260Y0007501D02*
X0293260Y0013906D01*
X0296463Y0011771D02*
X0293260Y0009636D01*
X0296463Y0007501D01*
X0298632Y0007501D02*
X0301834Y0007501D01*
X0302902Y0008568D01*
X0301834Y0009636D01*
X0299699Y0009636D01*
X0298632Y0010704D01*
X0299699Y0011771D01*
X0302902Y0011771D01*
X0305077Y0010704D02*
X0305077Y0008568D01*
X0306145Y0007501D01*
X0309347Y0007501D01*
X0311523Y0007501D02*
X0311523Y0011771D01*
X0313658Y0011771D02*
X0314725Y0011771D01*
X0313658Y0011771D02*
X0311523Y0009636D01*
X0309347Y0011771D02*
X0306145Y0011771D01*
X0305077Y0010704D01*
X0316894Y0010704D02*
X0316894Y0008568D01*
X0317961Y0007501D01*
X0320097Y0007501D01*
X0321164Y0009636D02*
X0316894Y0009636D01*
X0316894Y0010704D02*
X0317961Y0011771D01*
X0320097Y0011771D01*
X0321164Y0010704D01*
X0321164Y0009636D01*
X0323339Y0009636D02*
X0327610Y0009636D01*
X0327610Y0010704D01*
X0326542Y0011771D01*
X0324407Y0011771D01*
X0323339Y0010704D01*
X0323339Y0008568D01*
X0324407Y0007501D01*
X0326542Y0007501D01*
X0329785Y0007501D02*
X0329785Y0011771D01*
X0332988Y0011771D01*
X0334055Y0010704D01*
X0334055Y0007501D01*
X0342676Y0013906D02*
X0346946Y0013906D01*
X0344811Y0013906D02*
X0344811Y0007501D01*
X0349121Y0008568D02*
X0349121Y0010704D01*
X0350189Y0011771D01*
X0352324Y0011771D01*
X0353392Y0010704D01*
X0353392Y0008568D01*
X0352324Y0007501D01*
X0350189Y0007501D01*
X0349121Y0008568D01*
X0355567Y0007501D02*
X0358770Y0007501D01*
X0359837Y0008568D01*
X0359837Y0010704D01*
X0358770Y0011771D01*
X0355567Y0011771D01*
X0355567Y0005366D01*
X0368458Y0007501D02*
X0368458Y0011771D01*
X0368458Y0009636D02*
X0370593Y0011771D01*
X0371661Y0011771D01*
X0373829Y0010704D02*
X0374897Y0011771D01*
X0377032Y0011771D01*
X0378099Y0010704D01*
X0378099Y0009636D01*
X0373829Y0009636D01*
X0373829Y0008568D02*
X0373829Y0010704D01*
X0373829Y0008568D02*
X0374897Y0007501D01*
X0377032Y0007501D01*
X0380275Y0011771D02*
X0382410Y0007501D01*
X0384545Y0011771D01*
X0393166Y0012839D02*
X0394233Y0013906D01*
X0396368Y0013906D01*
X0397436Y0012839D01*
X0397436Y0011771D01*
X0393166Y0007501D01*
X0397436Y0007501D01*
X0399611Y0007501D02*
X0400679Y0007501D01*
X0400679Y0008568D01*
X0399611Y0008568D01*
X0399611Y0007501D01*
X0402834Y0008568D02*
X0402834Y0012839D01*
X0403901Y0013906D01*
X0406037Y0013906D01*
X0407104Y0012839D01*
X0402834Y0008568D01*
X0403901Y0007501D01*
X0406037Y0007501D01*
X0407104Y0008568D01*
X0407104Y0012839D01*
D12*
X0493353Y0174533D03*
X0493353Y0174700D03*
X0493353Y0174867D03*
X0493353Y0175034D03*
X0493353Y0175201D03*
X0493353Y0175368D03*
X0493353Y0175535D03*
X0493353Y0175702D03*
X0493353Y0175869D03*
X0493353Y0176035D03*
X0493353Y0176202D03*
X0493353Y0176369D03*
X0493353Y0176536D03*
X0493353Y0176703D03*
X0493353Y0176870D03*
X0493353Y0177037D03*
X0493353Y0177204D03*
X0493353Y0177371D03*
X0493353Y0177538D03*
X0493353Y0177705D03*
X0493353Y0177872D03*
X0493353Y0178039D03*
X0493353Y0178206D03*
X0493353Y0178539D03*
X0493353Y0178706D03*
X0493353Y0178873D03*
X0493353Y0179040D03*
X0493353Y0179207D03*
X0493353Y0179374D03*
X0493353Y0179541D03*
X0493353Y0179708D03*
X0493353Y0179875D03*
X0493353Y0180042D03*
X0493353Y0180209D03*
X0493353Y0180376D03*
X0493353Y0180543D03*
X0493353Y0180709D03*
X0493353Y0180876D03*
X0493353Y0181043D03*
X0493353Y0181210D03*
X0493353Y0181377D03*
X0493353Y0181544D03*
X0493353Y0181711D03*
X0493353Y0181878D03*
X0493353Y0182045D03*
X0493353Y0182212D03*
X0493353Y0182379D03*
X0193548Y0182379D03*
X0193548Y0182212D03*
X0193548Y0182045D03*
X0193548Y0181878D03*
X0193548Y0181711D03*
X0193548Y0181544D03*
X0193548Y0181377D03*
X0193548Y0181210D03*
X0193548Y0181043D03*
X0193548Y0180876D03*
X0193548Y0180709D03*
X0193548Y0180543D03*
X0193548Y0180376D03*
X0193548Y0180209D03*
X0193548Y0180042D03*
X0193548Y0179875D03*
X0193548Y0179708D03*
X0193548Y0179541D03*
X0193548Y0179374D03*
X0193548Y0179207D03*
X0193548Y0179040D03*
X0193548Y0178873D03*
X0193548Y0178706D03*
X0193548Y0178539D03*
X0193548Y0178206D03*
X0193548Y0178039D03*
X0193548Y0177872D03*
X0193548Y0177705D03*
X0193548Y0177538D03*
X0193548Y0177371D03*
X0193548Y0177204D03*
X0193548Y0177037D03*
X0193548Y0176870D03*
X0193548Y0176703D03*
X0193548Y0176536D03*
X0193548Y0176369D03*
X0193548Y0176202D03*
X0193548Y0176035D03*
X0193548Y0175869D03*
X0193548Y0175702D03*
X0193548Y0175535D03*
X0193548Y0175368D03*
X0193548Y0175201D03*
X0193548Y0175034D03*
X0193548Y0174867D03*
X0193548Y0174700D03*
X0193548Y0174533D03*
D13*
X0193464Y0178372D03*
X0493269Y0178372D03*
D14*
X0394502Y0046751D03*
X0394502Y0046417D03*
X0263698Y0088795D03*
X0261530Y0102476D03*
X0262030Y0102809D03*
X0252520Y0113654D03*
X0257025Y0139181D03*
X0254189Y0141016D03*
X0254856Y0203414D03*
D15*
X0289892Y0183560D03*
X0292896Y0180891D03*
X0292896Y0180224D03*
X0354960Y0143852D03*
X0361634Y0148690D03*
X0405847Y0162705D03*
X0398839Y0201412D03*
X0398839Y0202080D03*
X0398839Y0202747D03*
X0409517Y0234614D03*
X0326431Y0267314D03*
X0271540Y0235948D03*
X0272207Y0233946D03*
X0275210Y0233946D03*
X0275210Y0234614D03*
X0275210Y0232611D03*
X0270038Y0231277D03*
X0390998Y0294342D03*
X0390998Y0295010D03*
X0258193Y0124499D03*
X0258193Y0123831D03*
X0270038Y0104311D03*
X0279715Y0095635D03*
X0293062Y0049921D03*
X0293062Y0049254D03*
X0293062Y0048586D03*
X0293062Y0047919D03*
X0293062Y0047252D03*
X0293062Y0046584D03*
X0393167Y0050588D03*
X0425868Y0092298D03*
X0425868Y0093633D03*
D16*
X0394502Y0046584D03*
X0260195Y0094968D03*
X0250518Y0112486D03*
X0251686Y0113154D03*
X0248182Y0119160D03*
X0240841Y0123831D03*
X0230998Y0140015D03*
X0234001Y0148023D03*
X0251185Y0148023D03*
X0260695Y0203081D03*
X0254856Y0203748D03*
X0358130Y0150693D03*
X0363469Y0150693D03*
X0426368Y0200411D03*
D17*
X0398839Y0200912D03*
X0398839Y0201245D03*
X0398839Y0201579D03*
X0398839Y0202413D03*
X0366806Y0149024D03*
X0360133Y0149024D03*
X0359465Y0145354D03*
X0361634Y0144186D03*
X0291394Y0176553D03*
X0292896Y0180557D03*
X0291394Y0184728D03*
X0281050Y0177220D03*
X0235169Y0130338D03*
X0258193Y0124666D03*
X0258193Y0123998D03*
X0256691Y0098805D03*
X0293062Y0050088D03*
X0293062Y0049754D03*
X0293062Y0049420D03*
X0293062Y0049087D03*
X0293062Y0048253D03*
X0293062Y0047585D03*
X0293062Y0046751D03*
X0393167Y0050088D03*
X0425868Y0092132D03*
X0425868Y0092465D03*
X0425868Y0093967D03*
X0275210Y0233779D03*
X0275210Y0234113D03*
X0275210Y0234947D03*
X0272207Y0234113D03*
X0319090Y0268315D03*
X0384992Y0296178D03*
X0390998Y0295344D03*
X0390998Y0294676D03*
D18*
X0390998Y0294509D03*
X0390998Y0294843D03*
X0390998Y0295177D03*
X0390998Y0295510D03*
X0384992Y0300015D03*
X0326431Y0267481D03*
X0319090Y0268149D03*
X0271540Y0236115D03*
X0272207Y0234280D03*
X0275210Y0234280D03*
X0275210Y0234447D03*
X0275210Y0234780D03*
X0275210Y0235114D03*
X0275210Y0233612D03*
X0275210Y0232445D03*
X0270038Y0231444D03*
X0281050Y0184061D03*
X0292896Y0181058D03*
X0292896Y0180724D03*
X0292896Y0180390D03*
X0354960Y0149191D03*
X0359465Y0147689D03*
X0361634Y0148857D03*
X0361634Y0144353D03*
X0360133Y0144019D03*
X0364637Y0144019D03*
X0366806Y0144019D03*
X0364637Y0140682D03*
X0405847Y0164540D03*
X0413188Y0165041D03*
X0413188Y0163873D03*
X0417692Y0163539D03*
X0390664Y0198409D03*
X0398839Y0201079D03*
X0398839Y0201746D03*
X0398839Y0201913D03*
X0398839Y0202246D03*
X0398839Y0202580D03*
X0398839Y0202914D03*
X0409517Y0234447D03*
X0258193Y0124832D03*
X0267035Y0117491D03*
X0270038Y0104478D03*
X0270038Y0104144D03*
X0270038Y0103477D03*
X0276712Y0100807D03*
X0275210Y0094467D03*
X0293062Y0050422D03*
X0293062Y0050255D03*
X0293062Y0049587D03*
X0293062Y0048920D03*
X0293062Y0048753D03*
X0293062Y0048419D03*
X0293062Y0048086D03*
X0293062Y0047752D03*
X0293062Y0047418D03*
X0293062Y0047085D03*
X0293062Y0046918D03*
X0393167Y0050255D03*
X0393167Y0050422D03*
X0425868Y0091798D03*
X0425868Y0091965D03*
X0425868Y0093466D03*
X0425868Y0093800D03*
X0425868Y0094134D03*
D19*
X0394502Y0046918D03*
X0263198Y0096803D03*
X0250184Y0112319D03*
X0251352Y0112987D03*
X0253354Y0114155D03*
X0247348Y0118659D03*
X0249017Y0119660D03*
X0260528Y0126334D03*
X0237504Y0137179D03*
X0235002Y0133008D03*
X0254689Y0143852D03*
X0260695Y0203248D03*
X0254856Y0203581D03*
X0360800Y0138179D03*
X0416691Y0173884D03*
X0426368Y0200244D03*
D20*
X0433125Y0203581D03*
X0433125Y0203915D03*
X0394251Y0198576D03*
X0407932Y0165375D03*
X0261780Y0102643D03*
X0253771Y0105979D03*
X0250768Y0112653D03*
X0252270Y0113487D03*
X0250768Y0116657D03*
X0249100Y0115656D03*
X0248433Y0115323D03*
X0247932Y0118993D03*
X0248433Y0119327D03*
X0249934Y0120161D03*
X0247932Y0140515D03*
X0254439Y0141183D03*
X0394585Y0047085D03*
D21*
X0394084Y0047919D03*
X0393584Y0047252D03*
X0395252Y0049254D03*
X0416441Y0090964D03*
X0416441Y0094968D03*
X0357713Y0145187D03*
X0366556Y0149358D03*
X0413605Y0165542D03*
X0417943Y0164874D03*
X0396420Y0199410D03*
X0391081Y0198075D03*
X0477505Y0156032D03*
X0479674Y0156032D03*
X0479674Y0157366D03*
X0325846Y0266647D03*
X0320007Y0266647D03*
X0277630Y0234614D03*
X0254606Y0207752D03*
X0234585Y0188899D03*
X0281634Y0184895D03*
X0291144Y0176219D03*
X0207890Y0156032D03*
X0258443Y0125166D03*
X0262948Y0118492D03*
X0276128Y0101642D03*
X0277129Y0098972D03*
D22*
X0277213Y0099306D03*
X0277046Y0100140D03*
X0276879Y0100474D03*
X0274376Y0103810D03*
X0274376Y0104144D03*
X0274376Y0104812D03*
X0274209Y0105312D03*
X0266201Y0109984D03*
X0266201Y0110150D03*
X0264199Y0113487D03*
X0263865Y0114155D03*
X0263532Y0114822D03*
X0262197Y0111986D03*
X0258026Y0112653D03*
X0269371Y0113320D03*
X0263031Y0104144D03*
X0254522Y0102643D03*
X0259528Y0093800D03*
X0275878Y0093466D03*
X0275878Y0093300D03*
X0277880Y0094467D03*
X0277713Y0094801D03*
X0277546Y0095135D03*
X0279548Y0095969D03*
X0279882Y0095302D03*
X0280049Y0095135D03*
X0308245Y0117491D03*
X0308245Y0118159D03*
X0308245Y0118326D03*
X0308245Y0119327D03*
X0308245Y0119660D03*
X0308245Y0119994D03*
X0308245Y0120161D03*
X0308245Y0121496D03*
X0308245Y0121662D03*
X0308245Y0121996D03*
X0308245Y0122330D03*
X0308245Y0122663D03*
X0308245Y0124165D03*
X0308245Y0124832D03*
X0308412Y0125333D03*
X0317588Y0125333D03*
X0317588Y0116824D03*
X0357296Y0140015D03*
X0357130Y0140348D03*
X0356963Y0140682D03*
X0357630Y0139681D03*
X0363970Y0139681D03*
X0364304Y0140015D03*
X0364471Y0140348D03*
X0364471Y0144353D03*
X0364304Y0144686D03*
X0364137Y0144853D03*
X0361968Y0144853D03*
X0361467Y0144019D03*
X0359966Y0144353D03*
X0359632Y0144853D03*
X0357463Y0144853D03*
X0357296Y0144686D03*
X0357130Y0144353D03*
X0356963Y0144019D03*
X0354794Y0144019D03*
X0354627Y0144353D03*
X0354293Y0144853D03*
X0353959Y0146188D03*
X0353959Y0146355D03*
X0353959Y0146688D03*
X0354126Y0147689D03*
X0354293Y0148190D03*
X0354460Y0148524D03*
X0354627Y0148857D03*
X0358130Y0151026D03*
X0360299Y0149191D03*
X0359966Y0148857D03*
X0359799Y0148524D03*
X0359632Y0148190D03*
X0361300Y0149191D03*
X0361801Y0148524D03*
X0361968Y0148190D03*
X0362135Y0147689D03*
X0363469Y0151026D03*
X0366639Y0149191D03*
X0366973Y0148857D03*
X0367140Y0148524D03*
X0367307Y0148190D03*
X0367474Y0147689D03*
X0367640Y0146688D03*
X0367640Y0146355D03*
X0367640Y0146188D03*
X0367307Y0144853D03*
X0366973Y0144353D03*
X0405513Y0163539D03*
X0405680Y0164207D03*
X0410351Y0163873D03*
X0410351Y0163206D03*
X0413354Y0163539D03*
X0417859Y0163873D03*
X0418026Y0164707D03*
X0418026Y0166042D03*
X0418026Y0166376D03*
X0418026Y0166543D03*
X0418026Y0167210D03*
X0418026Y0167877D03*
X0418026Y0168044D03*
X0418026Y0168378D03*
X0418026Y0168712D03*
X0418026Y0169045D03*
X0418026Y0169379D03*
X0418026Y0169713D03*
X0418026Y0169879D03*
X0418026Y0170547D03*
X0418026Y0171214D03*
X0418026Y0171381D03*
X0418026Y0171715D03*
X0418026Y0172048D03*
X0418026Y0172382D03*
X0418026Y0172716D03*
X0418026Y0173049D03*
X0418026Y0173216D03*
X0410518Y0172716D03*
X0397838Y0198409D03*
X0398172Y0198910D03*
X0398339Y0199243D03*
X0398506Y0199577D03*
X0397004Y0200244D03*
X0396837Y0199911D03*
X0391999Y0199577D03*
X0391665Y0199911D03*
X0391498Y0200244D03*
X0391498Y0200411D03*
X0389997Y0199577D03*
X0390164Y0199243D03*
X0390331Y0198910D03*
X0389663Y0201079D03*
X0389663Y0201746D03*
X0389663Y0201913D03*
X0389663Y0202246D03*
X0389663Y0202580D03*
X0389663Y0202914D03*
X0391498Y0205250D03*
X0391665Y0205583D03*
X0396670Y0205917D03*
X0396837Y0205583D03*
X0397004Y0205250D03*
X0408516Y0231444D03*
X0408683Y0231777D03*
X0408683Y0232111D03*
X0408850Y0232445D03*
X0409184Y0233612D03*
X0410685Y0234280D03*
X0410852Y0233612D03*
X0411185Y0232445D03*
X0411352Y0232111D03*
X0411519Y0231444D03*
X0415023Y0231444D03*
X0415023Y0231777D03*
X0415023Y0232111D03*
X0415023Y0232445D03*
X0415023Y0232778D03*
X0415023Y0232945D03*
X0415023Y0233612D03*
X0415023Y0234280D03*
X0415023Y0234447D03*
X0415023Y0234780D03*
X0415023Y0235114D03*
X0415023Y0236115D03*
X0410018Y0236115D03*
X0326597Y0267815D03*
X0326764Y0268482D03*
X0326764Y0268482D03*
X0326764Y0268482D03*
X0326764Y0268649D03*
X0326764Y0269150D03*
X0326764Y0269316D03*
X0326764Y0269650D03*
X0326764Y0269984D03*
X0326764Y0270317D03*
X0326764Y0270651D03*
X0326764Y0270985D03*
X0326764Y0271152D03*
X0326764Y0271819D03*
X0326764Y0272486D03*
X0326764Y0272653D03*
X0326764Y0272987D03*
X0326764Y0273321D03*
X0326764Y0273654D03*
X0326764Y0273988D03*
X0326764Y0274322D03*
X0326764Y0274488D03*
X0326764Y0275156D03*
X0326764Y0275823D03*
X0326764Y0275990D03*
X0326764Y0276657D03*
X0326764Y0277325D03*
X0326764Y0277492D03*
X0326264Y0267147D03*
X0326097Y0266981D03*
X0319590Y0267147D03*
X0277546Y0235448D03*
X0277713Y0235114D03*
X0277713Y0234780D03*
X0277713Y0233612D03*
X0277713Y0232945D03*
X0277713Y0232778D03*
X0277713Y0232445D03*
X0277546Y0232111D03*
X0275377Y0232111D03*
X0273041Y0231444D03*
X0272875Y0231777D03*
X0272875Y0232111D03*
X0272708Y0232445D03*
X0272374Y0233612D03*
X0271039Y0234447D03*
X0270706Y0233612D03*
X0270372Y0232445D03*
X0270205Y0231777D03*
X0275377Y0235448D03*
X0254689Y0208086D03*
X0281217Y0184395D03*
X0281384Y0184561D03*
X0280883Y0183727D03*
X0280716Y0183394D03*
X0280549Y0183060D03*
X0280382Y0182726D03*
X0280382Y0182559D03*
X0280049Y0181058D03*
X0280049Y0180724D03*
X0280049Y0180390D03*
X0280216Y0179222D03*
X0280382Y0178555D03*
X0280716Y0177888D03*
X0280716Y0177721D03*
X0280883Y0177387D03*
X0281217Y0177054D03*
X0281384Y0176720D03*
X0290893Y0179723D03*
X0292729Y0179222D03*
X0292562Y0178555D03*
X0292228Y0177888D03*
X0292228Y0177721D03*
X0292062Y0177387D03*
X0291728Y0177054D03*
X0291561Y0176720D03*
X0292562Y0182559D03*
X0292562Y0182726D03*
X0292395Y0183060D03*
X0292228Y0183394D03*
X0292062Y0183727D03*
X0291895Y0184061D03*
X0291728Y0184395D03*
X0291561Y0184561D03*
X0290059Y0183394D03*
X0290226Y0183060D03*
X0290560Y0182559D03*
X0257525Y0140182D03*
X0240841Y0139848D03*
X0258359Y0124999D03*
X0258359Y0123498D03*
X0258693Y0122997D03*
X0262531Y0125333D03*
X0262364Y0125667D03*
X0209976Y0156365D03*
X0210143Y0156866D03*
X0210143Y0157200D03*
X0210143Y0157533D03*
X0210143Y0157867D03*
X0210143Y0159035D03*
X0209809Y0159702D03*
X0207640Y0159035D03*
X0207473Y0158367D03*
X0207473Y0158201D03*
X0207473Y0157867D03*
X0207640Y0156866D03*
X0207640Y0156532D03*
X0207640Y0156365D03*
X0393334Y0050755D03*
X0395502Y0050422D03*
X0395669Y0050255D03*
X0395502Y0049587D03*
X0395002Y0048920D03*
X0393667Y0047418D03*
X0416358Y0091798D03*
X0416358Y0091965D03*
X0416358Y0092632D03*
X0416358Y0093300D03*
X0416358Y0093466D03*
X0416358Y0093800D03*
X0416358Y0094134D03*
X0419027Y0094134D03*
X0419027Y0093800D03*
X0419027Y0093466D03*
X0419027Y0093300D03*
X0419027Y0092632D03*
X0419027Y0091965D03*
X0419027Y0091798D03*
X0429371Y0092632D03*
X0429371Y0093300D03*
X0429371Y0093466D03*
X0477421Y0156365D03*
X0479757Y0156365D03*
X0479924Y0156532D03*
X0479924Y0156866D03*
X0479757Y0157200D03*
X0479757Y0159035D03*
X0477421Y0159035D03*
X0390664Y0296678D03*
D23*
X0390414Y0292841D03*
X0326013Y0266814D03*
X0320174Y0266480D03*
X0277296Y0235615D03*
X0275628Y0235615D03*
X0282134Y0185396D03*
X0289642Y0183894D03*
X0290810Y0185396D03*
X0291144Y0185062D03*
X0286472Y0173884D03*
X0248099Y0141850D03*
X0264616Y0120328D03*
X0263782Y0119494D03*
X0271790Y0109149D03*
X0272624Y0099139D03*
X0264449Y0085458D03*
X0355211Y0143518D03*
X0363720Y0145354D03*
X0366389Y0143518D03*
X0363720Y0139347D03*
X0409934Y0162538D03*
X0477505Y0159535D03*
X0479674Y0159535D03*
X0416441Y0094634D03*
X0416441Y0091297D03*
X0394418Y0051589D03*
X0394418Y0048253D03*
X0393751Y0047585D03*
X0210059Y0158868D03*
D24*
X0289976Y0177721D03*
X0291311Y0176386D03*
X0289809Y0183727D03*
X0355044Y0143685D03*
X0363886Y0139514D03*
X0410268Y0164207D03*
X0396587Y0199577D03*
X0390581Y0198576D03*
X0392249Y0206251D03*
X0477671Y0159702D03*
X0395419Y0050755D03*
X0394585Y0048419D03*
X0393918Y0047752D03*
X0275294Y0232778D03*
X0271623Y0235781D03*
X0390247Y0292674D03*
D25*
X0390080Y0292507D03*
X0319674Y0266981D03*
X0276295Y0233612D03*
X0254606Y0207919D03*
X0286472Y0187398D03*
X0281967Y0185229D03*
X0281634Y0176386D03*
X0281967Y0176053D03*
X0282134Y0175886D03*
X0290810Y0175886D03*
X0290977Y0176053D03*
X0290977Y0185229D03*
X0355211Y0149525D03*
X0366389Y0149525D03*
X0366556Y0143685D03*
X0357713Y0139514D03*
X0406097Y0162372D03*
X0406097Y0164707D03*
X0409767Y0162372D03*
X0413438Y0165375D03*
X0413772Y0165708D03*
X0417943Y0165041D03*
X0417275Y0163206D03*
X0397922Y0198576D03*
X0396253Y0199243D03*
X0391916Y0205917D03*
X0410101Y0235781D03*
X0479507Y0159702D03*
X0479507Y0158367D03*
X0416441Y0094801D03*
X0416441Y0094467D03*
X0416441Y0091464D03*
X0416441Y0091131D03*
X0394919Y0048753D03*
X0394251Y0048086D03*
X0291811Y0050422D03*
X0280132Y0094801D03*
X0278798Y0097137D03*
X0274126Y0103477D03*
X0270622Y0102643D03*
X0270289Y0104812D03*
X0268287Y0106647D03*
X0265951Y0110818D03*
X0262781Y0118326D03*
X0263949Y0119660D03*
X0264282Y0119994D03*
X0264449Y0120161D03*
X0264616Y0121496D03*
X0262447Y0124165D03*
X0262113Y0126000D03*
X0252437Y0122330D03*
X0240591Y0139681D03*
X0207890Y0159702D03*
D26*
X0235252Y0130505D03*
X0264116Y0119827D03*
X0264783Y0120495D03*
X0273792Y0105646D03*
X0279799Y0094301D03*
X0292979Y0051256D03*
X0394752Y0048586D03*
X0363886Y0145187D03*
X0355044Y0149358D03*
X0291311Y0184895D03*
X0281801Y0176219D03*
X0277463Y0231944D03*
X0392082Y0206084D03*
X0392082Y0199410D03*
X0397421Y0198075D03*
X0453313Y0188232D03*
X0410935Y0233279D03*
X0413938Y0235281D03*
D27*
X0415023Y0234947D03*
X0415023Y0234113D03*
X0415023Y0233779D03*
X0415023Y0233446D03*
X0415023Y0233112D03*
X0415023Y0232278D03*
X0415023Y0231610D03*
X0411519Y0231610D03*
X0410852Y0233779D03*
X0410685Y0234113D03*
X0409350Y0234113D03*
X0409184Y0233446D03*
X0408850Y0232278D03*
X0408516Y0231610D03*
X0396837Y0205750D03*
X0397171Y0204916D03*
X0397171Y0200578D03*
X0396670Y0199744D03*
X0398339Y0199076D03*
X0397671Y0198242D03*
X0391832Y0199744D03*
X0391332Y0200912D03*
X0389663Y0200912D03*
X0389663Y0201245D03*
X0389663Y0201579D03*
X0389663Y0202413D03*
X0391332Y0204582D03*
X0391832Y0205750D03*
X0390164Y0199076D03*
X0390831Y0198242D03*
X0418026Y0173383D03*
X0418026Y0172549D03*
X0418026Y0171881D03*
X0418026Y0171047D03*
X0418026Y0170714D03*
X0418026Y0170380D03*
X0418026Y0170046D03*
X0418026Y0169212D03*
X0418026Y0168545D03*
X0418026Y0167710D03*
X0418026Y0167377D03*
X0418026Y0167043D03*
X0418026Y0166709D03*
X0413354Y0165208D03*
X0410351Y0163706D03*
X0410185Y0162872D03*
X0405680Y0162872D03*
X0405513Y0163706D03*
X0367640Y0146855D03*
X0367474Y0145354D03*
X0366973Y0144186D03*
X0364804Y0143518D03*
X0364971Y0142017D03*
X0363469Y0142017D03*
X0364304Y0140182D03*
X0358130Y0142017D03*
X0356629Y0142017D03*
X0356796Y0143518D03*
X0357630Y0145020D03*
X0359298Y0146855D03*
X0360800Y0146855D03*
X0362302Y0146855D03*
X0362135Y0145354D03*
X0363970Y0145020D03*
X0359966Y0144186D03*
X0361467Y0149024D03*
X0354794Y0149024D03*
X0353959Y0146855D03*
X0354126Y0145354D03*
X0354627Y0144186D03*
X0357296Y0140182D03*
X0308245Y0124666D03*
X0308245Y0124332D03*
X0308245Y0123998D03*
X0308245Y0123665D03*
X0308245Y0122830D03*
X0308245Y0122163D03*
X0308245Y0120661D03*
X0308245Y0120328D03*
X0308245Y0119494D03*
X0308245Y0117992D03*
X0308245Y0117658D03*
X0308245Y0117325D03*
X0277213Y0099806D03*
X0277213Y0099473D03*
X0277213Y0099139D03*
X0275044Y0098805D03*
X0274710Y0099139D03*
X0274543Y0099473D03*
X0274376Y0103977D03*
X0274043Y0105479D03*
X0270205Y0104645D03*
X0270372Y0102809D03*
X0266535Y0109483D03*
X0266034Y0110317D03*
X0265867Y0110651D03*
X0264700Y0112820D03*
X0263698Y0114321D03*
X0263532Y0114655D03*
X0262030Y0117325D03*
X0262364Y0119494D03*
X0260695Y0127001D03*
X0268036Y0095468D03*
X0275544Y0093967D03*
X0276045Y0093133D03*
X0279382Y0096136D03*
X0209976Y0156198D03*
X0210143Y0157033D03*
X0210143Y0157700D03*
X0209976Y0159535D03*
X0207807Y0159535D03*
X0207640Y0159202D03*
X0207473Y0158534D03*
X0207807Y0156198D03*
X0280549Y0178055D03*
X0280382Y0178722D03*
X0280049Y0180557D03*
X0280216Y0182059D03*
X0280549Y0183227D03*
X0280883Y0183894D03*
X0281551Y0184728D03*
X0290226Y0183227D03*
X0290727Y0182059D03*
X0290893Y0181725D03*
X0292729Y0182059D03*
X0292395Y0183227D03*
X0292062Y0183894D03*
X0290727Y0179056D03*
X0289726Y0179056D03*
X0291895Y0177220D03*
X0292395Y0178055D03*
X0292562Y0178722D03*
X0281551Y0176553D03*
X0273041Y0231610D03*
X0272708Y0232278D03*
X0272374Y0233446D03*
X0270872Y0234113D03*
X0270706Y0233446D03*
X0270372Y0232278D03*
X0275377Y0232278D03*
X0277713Y0233112D03*
X0277713Y0233446D03*
X0277713Y0233779D03*
X0277713Y0234947D03*
X0319256Y0267648D03*
X0326764Y0268649D03*
X0326764Y0268649D03*
X0326764Y0268816D03*
X0326764Y0268983D03*
X0326764Y0269817D03*
X0326764Y0270484D03*
X0326764Y0271318D03*
X0326764Y0271652D03*
X0326764Y0271986D03*
X0326764Y0272320D03*
X0326764Y0273154D03*
X0326764Y0273821D03*
X0326764Y0274655D03*
X0326764Y0274989D03*
X0326764Y0275323D03*
X0326764Y0275656D03*
X0326764Y0276157D03*
X0326764Y0276491D03*
X0326764Y0276824D03*
X0326764Y0277158D03*
X0390664Y0293175D03*
X0390831Y0293508D03*
X0390831Y0296178D03*
X0390664Y0296511D03*
X0390497Y0296845D03*
X0477421Y0159202D03*
X0479590Y0158534D03*
X0479757Y0158868D03*
X0479757Y0159202D03*
X0479757Y0157033D03*
X0479757Y0156198D03*
X0477421Y0156198D03*
X0429371Y0093133D03*
X0429371Y0092799D03*
X0429371Y0092465D03*
X0419027Y0092465D03*
X0419027Y0092132D03*
X0419027Y0092799D03*
X0419027Y0093133D03*
X0419027Y0093967D03*
X0416358Y0093967D03*
X0416358Y0093133D03*
X0416358Y0092799D03*
X0416358Y0092465D03*
X0416358Y0092132D03*
X0395669Y0050088D03*
X0395502Y0049754D03*
X0395336Y0049420D03*
X0395169Y0049087D03*
D28*
X0395586Y0049921D03*
X0428621Y0090964D03*
X0428621Y0091631D03*
X0428621Y0094301D03*
X0428621Y0094968D03*
X0364554Y0140515D03*
X0364887Y0141850D03*
X0364721Y0143852D03*
X0367390Y0145187D03*
X0367390Y0148023D03*
X0362218Y0147189D03*
X0362051Y0148023D03*
X0359548Y0148023D03*
X0359382Y0147189D03*
X0359548Y0145187D03*
X0362051Y0145187D03*
X0356879Y0143852D03*
X0356712Y0141850D03*
X0357046Y0140515D03*
X0354043Y0145854D03*
X0354043Y0147189D03*
X0317671Y0125166D03*
X0317671Y0124499D03*
X0317671Y0123831D03*
X0317671Y0122497D03*
X0317671Y0121829D03*
X0317671Y0120495D03*
X0317671Y0119827D03*
X0317671Y0118492D03*
X0317671Y0117825D03*
X0317671Y0117158D03*
X0315169Y0115823D03*
X0315169Y0115156D03*
X0315169Y0114488D03*
X0313000Y0114488D03*
X0313000Y0115156D03*
X0313000Y0115823D03*
X0308328Y0125166D03*
X0313000Y0126501D03*
X0313000Y0127168D03*
X0315169Y0127168D03*
X0315169Y0126501D03*
X0274293Y0104978D03*
X0272458Y0108315D03*
X0271623Y0109817D03*
X0269955Y0112486D03*
X0265951Y0110484D03*
X0268287Y0106313D03*
X0269955Y0103644D03*
X0272624Y0098972D03*
X0278631Y0097637D03*
X0279298Y0096303D03*
X0277630Y0094968D03*
X0276462Y0092298D03*
X0266952Y0117825D03*
X0262113Y0117158D03*
X0260445Y0119827D03*
X0248099Y0142017D03*
X0286639Y0178889D03*
X0286639Y0179556D03*
X0286639Y0181558D03*
X0286639Y0182226D03*
X0290977Y0180891D03*
X0290977Y0180224D03*
X0292812Y0179556D03*
X0292645Y0178889D03*
X0292812Y0181558D03*
X0292645Y0182226D03*
X0292478Y0182893D03*
X0289642Y0177554D03*
X0280132Y0179556D03*
X0280132Y0181558D03*
X0280466Y0182893D03*
X0254606Y0208420D03*
X0272458Y0233279D03*
X0319173Y0267982D03*
X0319006Y0268482D03*
X0319006Y0268649D03*
X0319006Y0268816D03*
X0319006Y0269483D03*
X0326681Y0267982D03*
X0318172Y0276324D03*
X0390915Y0295677D03*
X0390748Y0296345D03*
X0410769Y0233946D03*
X0394251Y0207419D03*
X0391582Y0205416D03*
X0391248Y0204082D03*
X0391248Y0203414D03*
X0391248Y0202080D03*
X0391248Y0201412D03*
X0389747Y0200745D03*
X0390080Y0199410D03*
X0394084Y0196073D03*
X0394084Y0195406D03*
X0394084Y0194739D03*
X0394084Y0194071D03*
X0398422Y0199410D03*
X0398756Y0200745D03*
X0397255Y0201412D03*
X0397255Y0202080D03*
X0397255Y0203414D03*
X0397255Y0204082D03*
X0397255Y0204749D03*
X0410435Y0172215D03*
X0410435Y0171548D03*
X0410435Y0170880D03*
X0410435Y0170213D03*
X0410435Y0169546D03*
X0410435Y0168878D03*
X0410435Y0168211D03*
X0410435Y0167544D03*
X0410435Y0166876D03*
X0410435Y0166209D03*
X0410435Y0165542D03*
X0413104Y0164874D03*
X0413104Y0164040D03*
X0417943Y0164040D03*
X0407932Y0161371D03*
X0405596Y0164040D03*
D29*
X0279715Y0094134D03*
X0276045Y0097804D03*
X0291561Y0050255D03*
X0234334Y0188732D03*
D30*
X0360800Y0150025D03*
X0411185Y0172883D03*
X0272541Y0106313D03*
X0262197Y0111151D03*
X0292395Y0050588D03*
X0384324Y0299014D03*
D31*
X0390330Y0297012D03*
X0390831Y0293675D03*
X0390497Y0293008D03*
X0326764Y0277658D03*
X0326764Y0276991D03*
X0326764Y0276324D03*
X0326764Y0275489D03*
X0326764Y0274822D03*
X0326764Y0274155D03*
X0326764Y0273487D03*
X0326764Y0272820D03*
X0326764Y0272153D03*
X0326764Y0271485D03*
X0326764Y0270818D03*
X0326764Y0270151D03*
X0326764Y0269483D03*
X0326764Y0268816D03*
X0326764Y0268649D03*
X0326764Y0268482D03*
X0319423Y0267314D03*
X0277546Y0235281D03*
X0277713Y0233279D03*
X0277713Y0232611D03*
X0275544Y0231944D03*
X0273041Y0231277D03*
X0272875Y0231944D03*
X0270706Y0233279D03*
X0270872Y0233946D03*
X0271039Y0234614D03*
X0272041Y0234614D03*
X0270205Y0231944D03*
X0275377Y0235281D03*
X0281217Y0184228D03*
X0280716Y0183560D03*
X0280049Y0180891D03*
X0280049Y0180224D03*
X0280549Y0178221D03*
X0280883Y0177554D03*
X0281217Y0176887D03*
X0286556Y0180224D03*
X0290893Y0179556D03*
X0290893Y0181558D03*
X0290727Y0182226D03*
X0290393Y0182893D03*
X0291728Y0184228D03*
X0292228Y0183560D03*
X0292395Y0178221D03*
X0292062Y0177554D03*
X0291728Y0176887D03*
X0354627Y0148690D03*
X0353959Y0146522D03*
X0354460Y0144519D03*
X0357296Y0144519D03*
X0359799Y0144519D03*
X0360299Y0143852D03*
X0361300Y0143852D03*
X0361801Y0144519D03*
X0364304Y0144519D03*
X0366639Y0143852D03*
X0367140Y0144519D03*
X0367640Y0146522D03*
X0366973Y0148690D03*
X0359966Y0148690D03*
X0356796Y0141183D03*
X0357463Y0139848D03*
X0360800Y0137846D03*
X0364137Y0139848D03*
X0364804Y0141183D03*
X0405513Y0163373D03*
X0410018Y0162705D03*
X0410351Y0163373D03*
X0410351Y0164040D03*
X0413521Y0163373D03*
X0417526Y0163373D03*
X0418026Y0166209D03*
X0418026Y0166876D03*
X0418026Y0167544D03*
X0418026Y0168211D03*
X0418026Y0168878D03*
X0418026Y0169546D03*
X0418026Y0170213D03*
X0418026Y0170880D03*
X0418026Y0171548D03*
X0418026Y0172215D03*
X0418026Y0172883D03*
X0398005Y0198743D03*
X0398673Y0200078D03*
X0397171Y0200745D03*
X0397004Y0200078D03*
X0391665Y0200078D03*
X0391332Y0200745D03*
X0389830Y0200078D03*
X0389663Y0201412D03*
X0389663Y0202080D03*
X0389663Y0202747D03*
X0391332Y0204749D03*
X0396504Y0206084D03*
X0397004Y0205416D03*
X0390497Y0198743D03*
X0408516Y0231277D03*
X0408683Y0231944D03*
X0409184Y0233279D03*
X0409350Y0233946D03*
X0410518Y0234614D03*
X0410018Y0235948D03*
X0411352Y0231944D03*
X0411519Y0231277D03*
X0415023Y0231277D03*
X0415023Y0231944D03*
X0415023Y0232611D03*
X0415023Y0233279D03*
X0415023Y0233946D03*
X0415023Y0234614D03*
X0415023Y0235281D03*
X0477421Y0159368D03*
X0479757Y0159368D03*
X0479757Y0158701D03*
X0479924Y0156699D03*
X0477254Y0156699D03*
X0429371Y0092966D03*
X0419027Y0092966D03*
X0419027Y0093633D03*
X0419027Y0092298D03*
X0416358Y0092298D03*
X0416358Y0091631D03*
X0416358Y0092966D03*
X0416358Y0093633D03*
X0416358Y0094301D03*
X0395502Y0050588D03*
X0308245Y0117158D03*
X0308245Y0117825D03*
X0308245Y0118492D03*
X0308245Y0119827D03*
X0308245Y0120495D03*
X0308245Y0121829D03*
X0308245Y0122497D03*
X0308245Y0123831D03*
X0308245Y0124499D03*
X0274209Y0103644D03*
X0270205Y0102976D03*
X0274877Y0098972D03*
X0277213Y0099639D03*
X0277046Y0100307D03*
X0280049Y0094968D03*
X0278047Y0094301D03*
X0275711Y0093633D03*
X0275377Y0094301D03*
X0266368Y0109817D03*
X0264032Y0113821D03*
X0263698Y0114488D03*
X0262197Y0119827D03*
X0262364Y0123831D03*
X0262197Y0125833D03*
X0258526Y0123164D03*
X0246013Y0117158D03*
X0249517Y0111151D03*
X0251686Y0108983D03*
X0209809Y0156032D03*
X0210143Y0156699D03*
X0210143Y0157366D03*
X0209976Y0159368D03*
X0207640Y0159368D03*
X0207473Y0158701D03*
X0207473Y0158034D03*
X0207640Y0156699D03*
D32*
X0208808Y0160203D03*
X0251185Y0148190D03*
X0240841Y0123498D03*
X0255356Y0115656D03*
X0259194Y0109650D03*
X0271540Y0108649D03*
X0275878Y0101141D03*
X0275544Y0095135D03*
X0265033Y0098472D03*
X0292395Y0050755D03*
X0360800Y0143018D03*
X0409684Y0165041D03*
X0415523Y0162372D03*
X0478589Y0160203D03*
D33*
X0452812Y0188566D03*
X0414439Y0235615D03*
X0288808Y0186563D03*
X0287473Y0185062D03*
X0284136Y0186563D03*
X0284136Y0174718D03*
X0288808Y0174718D03*
X0362885Y0145687D03*
X0269121Y0112820D03*
X0266785Y0116991D03*
X0262113Y0111318D03*
X0262280Y0110651D03*
X0272124Y0093967D03*
X0292478Y0050922D03*
X0208891Y0155531D03*
D34*
X0262364Y0123998D03*
X0249684Y0111318D03*
X0262864Y0103977D03*
X0277046Y0098805D03*
X0280049Y0094634D03*
X0358297Y0139014D03*
X0290393Y0185729D03*
X0391165Y0197909D03*
X0391665Y0197575D03*
X0392499Y0199076D03*
X0396837Y0197575D03*
X0396170Y0206417D03*
X0392499Y0206417D03*
X0410018Y0235615D03*
X0394168Y0301850D03*
X0394168Y0302518D03*
X0394168Y0303352D03*
X0394168Y0303686D03*
X0394168Y0304019D03*
X0394168Y0305521D03*
X0394168Y0305854D03*
X0394168Y0306689D03*
X0394168Y0307356D03*
X0393500Y0050922D03*
X0395169Y0050922D03*
D35*
X0429038Y0091798D03*
X0429038Y0091965D03*
X0429038Y0093800D03*
X0429038Y0094134D03*
X0365305Y0142851D03*
X0360800Y0149525D03*
X0356295Y0142851D03*
X0406681Y0165041D03*
X0410018Y0164707D03*
X0453062Y0188399D03*
X0395669Y0198910D03*
X0392833Y0198910D03*
X0410018Y0235114D03*
X0288558Y0184561D03*
X0234835Y0189066D03*
X0207807Y0157200D03*
X0248016Y0141516D03*
X0260195Y0135010D03*
X0260195Y0134843D03*
X0259861Y0134175D03*
X0246180Y0117491D03*
X0249684Y0111485D03*
X0251519Y0108649D03*
X0257859Y0112319D03*
X0264699Y0113320D03*
X0267035Y0109316D03*
X0268370Y0106814D03*
X0262864Y0103810D03*
X0276045Y0101475D03*
X0275377Y0094801D03*
X0276712Y0092632D03*
X0272040Y0094467D03*
X0292729Y0051089D03*
X0277379Y0234280D03*
X0271540Y0235114D03*
D36*
X0276462Y0235781D03*
X0276462Y0231777D03*
X0208891Y0159869D03*
X0254939Y0141683D03*
X0253271Y0118326D03*
X0248266Y0114989D03*
X0264449Y0097804D03*
X0394418Y0051089D03*
D37*
X0394418Y0051256D03*
X0318506Y0119160D03*
X0318506Y0121162D03*
X0318506Y0123164D03*
X0307494Y0123164D03*
X0307494Y0121162D03*
X0307494Y0119160D03*
X0276128Y0098305D03*
X0264950Y0098305D03*
X0249934Y0111819D03*
X0246430Y0117825D03*
X0235085Y0131840D03*
X0245096Y0138013D03*
X0243928Y0140015D03*
X0287640Y0184895D03*
X0260946Y0201746D03*
X0276462Y0235948D03*
X0319006Y0275489D03*
X0319006Y0276991D03*
X0426952Y0209754D03*
D38*
X0398756Y0200411D03*
X0398756Y0200244D03*
X0398589Y0199911D03*
X0397088Y0200411D03*
X0397255Y0201079D03*
X0397255Y0201746D03*
X0397255Y0201913D03*
X0397255Y0202246D03*
X0397255Y0203248D03*
X0397255Y0203581D03*
X0397255Y0203748D03*
X0397255Y0204415D03*
X0397088Y0205083D03*
X0391248Y0204415D03*
X0391248Y0203748D03*
X0391248Y0203581D03*
X0391248Y0203248D03*
X0391248Y0202246D03*
X0391248Y0201913D03*
X0391248Y0201746D03*
X0391248Y0201079D03*
X0389747Y0200411D03*
X0389747Y0200244D03*
X0394084Y0196240D03*
X0394084Y0195907D03*
X0394084Y0195573D03*
X0394084Y0195239D03*
X0394084Y0195072D03*
X0394084Y0194405D03*
X0394084Y0193738D03*
X0410435Y0172382D03*
X0410435Y0172048D03*
X0410435Y0171715D03*
X0410435Y0171381D03*
X0410435Y0171214D03*
X0410435Y0170547D03*
X0410435Y0169879D03*
X0410435Y0169713D03*
X0410435Y0169379D03*
X0410435Y0169045D03*
X0410435Y0168712D03*
X0410435Y0168378D03*
X0410435Y0168044D03*
X0410435Y0167877D03*
X0410435Y0167210D03*
X0410435Y0166543D03*
X0410435Y0166376D03*
X0410435Y0166042D03*
X0410435Y0165708D03*
X0410435Y0165375D03*
X0410435Y0163539D03*
X0413104Y0164207D03*
X0413104Y0164540D03*
X0413104Y0164707D03*
X0417943Y0164540D03*
X0417943Y0164207D03*
X0405596Y0163873D03*
X0405596Y0163206D03*
X0405596Y0163039D03*
X0367390Y0147856D03*
X0367223Y0144686D03*
X0364887Y0143352D03*
X0364721Y0143685D03*
X0364887Y0141516D03*
X0364887Y0141349D03*
X0364721Y0141016D03*
X0361884Y0144686D03*
X0362218Y0145520D03*
X0362218Y0147022D03*
X0362218Y0147356D03*
X0362051Y0147856D03*
X0359548Y0147856D03*
X0359382Y0147356D03*
X0359382Y0147022D03*
X0359382Y0145520D03*
X0359715Y0144686D03*
X0356879Y0143685D03*
X0356712Y0143352D03*
X0356712Y0141516D03*
X0356712Y0141349D03*
X0356879Y0141016D03*
X0354376Y0144686D03*
X0354043Y0145520D03*
X0354043Y0147022D03*
X0354043Y0147356D03*
X0317671Y0124999D03*
X0317671Y0124832D03*
X0317671Y0124165D03*
X0317671Y0122663D03*
X0317671Y0122330D03*
X0317671Y0121996D03*
X0317671Y0121662D03*
X0317671Y0121496D03*
X0317671Y0120161D03*
X0317671Y0119994D03*
X0317671Y0119660D03*
X0317671Y0119327D03*
X0317671Y0118326D03*
X0317671Y0118159D03*
X0317671Y0117491D03*
X0315169Y0115656D03*
X0315169Y0115323D03*
X0315169Y0114989D03*
X0315169Y0114822D03*
X0313000Y0114822D03*
X0313000Y0114989D03*
X0313000Y0115323D03*
X0313000Y0115656D03*
X0308328Y0116824D03*
X0308328Y0124999D03*
X0313000Y0126334D03*
X0313000Y0126668D03*
X0313000Y0126835D03*
X0313000Y0127502D03*
X0315169Y0127502D03*
X0315169Y0126835D03*
X0315169Y0126668D03*
X0315169Y0126334D03*
X0276128Y0101975D03*
X0276128Y0101808D03*
X0277129Y0099973D03*
X0274626Y0099306D03*
X0272791Y0098638D03*
X0272791Y0098472D03*
X0271957Y0099973D03*
X0270122Y0103310D03*
X0269955Y0103810D03*
X0268454Y0105979D03*
X0267619Y0107481D03*
X0266952Y0108649D03*
X0266451Y0109650D03*
X0265284Y0111652D03*
X0265117Y0113487D03*
X0262948Y0115656D03*
X0262447Y0119327D03*
X0262280Y0119660D03*
X0262113Y0119994D03*
X0260445Y0119994D03*
X0259945Y0120828D03*
X0258443Y0123331D03*
X0258109Y0124165D03*
X0267619Y0116657D03*
X0269454Y0113487D03*
X0271623Y0109650D03*
X0271790Y0109316D03*
X0274293Y0105145D03*
X0278631Y0097471D03*
X0278130Y0094134D03*
X0275628Y0093800D03*
X0275461Y0094134D03*
X0272124Y0094801D03*
X0261613Y0091798D03*
X0235252Y0130004D03*
X0235252Y0130171D03*
X0246097Y0139848D03*
X0210059Y0156532D03*
X0280132Y0179389D03*
X0280132Y0179723D03*
X0280132Y0180057D03*
X0280132Y0181225D03*
X0280132Y0181892D03*
X0286639Y0181892D03*
X0286639Y0181225D03*
X0286639Y0181058D03*
X0286639Y0180057D03*
X0286639Y0179723D03*
X0286639Y0179389D03*
X0286639Y0179222D03*
X0290810Y0179222D03*
X0290810Y0179389D03*
X0290977Y0180057D03*
X0290977Y0180390D03*
X0290977Y0180724D03*
X0290977Y0181058D03*
X0290977Y0181225D03*
X0290810Y0181892D03*
X0290477Y0182726D03*
X0292812Y0181892D03*
X0292812Y0181225D03*
X0292812Y0180057D03*
X0292812Y0179723D03*
X0292812Y0179389D03*
X0270289Y0232111D03*
X0270956Y0234280D03*
X0272124Y0234447D03*
X0271623Y0236282D03*
X0319340Y0267481D03*
X0319173Y0267815D03*
X0319006Y0268482D03*
X0319006Y0268482D03*
X0319006Y0268482D03*
X0319006Y0268649D03*
X0319006Y0269150D03*
X0319006Y0269316D03*
X0319006Y0269650D03*
X0326681Y0268149D03*
X0318172Y0276657D03*
X0385075Y0296011D03*
X0390915Y0296011D03*
X0390915Y0295844D03*
X0390915Y0294176D03*
X0390915Y0294009D03*
X0390748Y0293341D03*
X0410101Y0236282D03*
X0410602Y0234447D03*
X0409434Y0234280D03*
X0411436Y0231777D03*
X0477338Y0156532D03*
X0428621Y0094801D03*
X0428621Y0094467D03*
X0428621Y0091464D03*
X0428621Y0091131D03*
X0293146Y0051423D03*
D39*
X0272124Y0093466D03*
X0272124Y0093800D03*
X0272124Y0094134D03*
X0276128Y0098138D03*
X0278464Y0096636D03*
X0265117Y0098638D03*
X0263949Y0101475D03*
X0256941Y0099306D03*
X0262280Y0110818D03*
X0249767Y0111652D03*
X0247932Y0141183D03*
X0254606Y0206084D03*
X0254606Y0206251D03*
X0276462Y0231444D03*
X0276462Y0236115D03*
X0384408Y0299181D03*
X0414439Y0235448D03*
X0427119Y0210255D03*
X0394418Y0051423D03*
D40*
X0293396Y0051589D03*
X0277046Y0093133D03*
X0265200Y0113654D03*
X0260028Y0120995D03*
X0248182Y0142518D03*
X0413521Y0234947D03*
X0326764Y0277992D03*
X0385325Y0300516D03*
D41*
X0389663Y0203248D03*
X0398839Y0203248D03*
X0289392Y0177387D03*
X0241675Y0140515D03*
X0252687Y0122663D03*
X0262030Y0116657D03*
X0271707Y0109984D03*
X0272374Y0108148D03*
X0272040Y0100140D03*
X0256524Y0098472D03*
X0264199Y0085124D03*
D42*
X0264366Y0085291D03*
X0278547Y0097804D03*
X0262197Y0109984D03*
X0264533Y0112653D03*
X0262197Y0116824D03*
X0260528Y0119660D03*
X0266869Y0118159D03*
X0241342Y0140182D03*
X0289559Y0179222D03*
X0413688Y0235114D03*
X0453563Y0188065D03*
X0326764Y0277825D03*
X0385158Y0295844D03*
D43*
X0389496Y0297679D03*
X0276545Y0231277D03*
X0283386Y0186230D03*
X0360800Y0143185D03*
X0417692Y0165542D03*
X0429038Y0093633D03*
X0429038Y0092298D03*
X0276545Y0092966D03*
X0264533Y0085625D03*
X0267202Y0108983D03*
X0263699Y0115156D03*
X0259027Y0125833D03*
X0248016Y0114488D03*
X0257525Y0140015D03*
D44*
X0258109Y0138847D03*
X0258777Y0137679D03*
X0259611Y0136178D03*
X0259611Y0134009D03*
X0259110Y0133675D03*
X0257609Y0132841D03*
X0256441Y0132173D03*
X0254939Y0131339D03*
X0255273Y0116991D03*
X0257942Y0112153D03*
X0258777Y0110651D03*
X0258944Y0110317D03*
X0252270Y0107314D03*
X0253771Y0104645D03*
X0254606Y0103143D03*
X0256942Y0099139D03*
X0264783Y0100641D03*
X0267953Y0094634D03*
X0272124Y0093133D03*
X0261780Y0090630D03*
X0264283Y0086459D03*
X0264616Y0085792D03*
X0275961Y0101308D03*
X0273459Y0102809D03*
X0267119Y0109149D03*
X0235085Y0131339D03*
X0290143Y0178388D03*
X0290143Y0178722D03*
X0254606Y0206751D03*
X0277296Y0234113D03*
X0392249Y0197241D03*
X0394251Y0198242D03*
D45*
X0478923Y0158201D03*
X0356128Y0143018D03*
X0277213Y0095969D03*
X0274043Y0100140D03*
X0273208Y0102643D03*
X0270372Y0108148D03*
X0267536Y0111986D03*
X0268036Y0112319D03*
X0264366Y0115656D03*
X0263698Y0115323D03*
X0266034Y0116657D03*
X0255523Y0116324D03*
X0255523Y0115990D03*
X0253354Y0120161D03*
X0260695Y0126835D03*
X0259361Y0136678D03*
X0258693Y0137846D03*
X0258526Y0138180D03*
X0258359Y0138347D03*
X0262197Y0111485D03*
X0259194Y0109984D03*
X0258693Y0110818D03*
X0253354Y0105312D03*
X0264366Y0101141D03*
X0265033Y0100140D03*
X0265200Y0099306D03*
X0261530Y0091131D03*
X0262197Y0089963D03*
X0263865Y0087126D03*
X0264533Y0085959D03*
X0207974Y0157533D03*
X0209642Y0158201D03*
X0384491Y0299348D03*
D46*
X0396253Y0197241D03*
X0262280Y0110317D03*
X0258610Y0110985D03*
X0265117Y0099806D03*
X0261446Y0091297D03*
X0262280Y0089796D03*
X0263782Y0087293D03*
X0264449Y0086125D03*
X0230414Y0139514D03*
D47*
X0248015Y0141350D03*
X0259861Y0135844D03*
X0255523Y0116490D03*
X0265867Y0116490D03*
X0266034Y0111151D03*
X0262197Y0110484D03*
X0259194Y0109817D03*
X0258526Y0111151D03*
X0252020Y0107648D03*
X0251686Y0108315D03*
X0264533Y0100974D03*
X0265200Y0099639D03*
X0265200Y0098972D03*
X0268203Y0094301D03*
X0272041Y0094301D03*
X0275544Y0094968D03*
X0277713Y0096303D03*
X0274209Y0100307D03*
X0269538Y0107648D03*
X0259861Y0094301D03*
X0264366Y0086292D03*
X0362802Y0145854D03*
D48*
X0407932Y0165708D03*
X0417609Y0165708D03*
X0410101Y0234780D03*
X0414606Y0235781D03*
X0289142Y0186397D03*
X0283803Y0186397D03*
X0254606Y0206584D03*
X0254606Y0206918D03*
X0271623Y0234780D03*
X0209725Y0158367D03*
X0239757Y0139014D03*
X0255773Y0139014D03*
X0260111Y0135343D03*
X0258777Y0133508D03*
X0257942Y0133008D03*
X0257275Y0132674D03*
X0256775Y0132340D03*
X0256107Y0132007D03*
X0255273Y0131506D03*
X0252270Y0121996D03*
X0253771Y0119660D03*
X0255440Y0116824D03*
X0255440Y0116657D03*
X0263114Y0118993D03*
X0262114Y0111652D03*
X0258276Y0111485D03*
X0252103Y0107481D03*
X0254272Y0103810D03*
X0254439Y0103477D03*
X0264616Y0100807D03*
X0267786Y0095135D03*
X0268286Y0094134D03*
X0268453Y0093800D03*
X0268787Y0093300D03*
X0269121Y0092632D03*
X0262114Y0090130D03*
X0261947Y0090463D03*
X0263448Y0087794D03*
X0263615Y0087460D03*
X0264116Y0086626D03*
X0259778Y0094134D03*
D49*
X0261696Y0090797D03*
X0263365Y0088127D03*
X0264032Y0086793D03*
X0268704Y0093466D03*
X0267870Y0094801D03*
X0272207Y0093300D03*
X0273709Y0099973D03*
X0274543Y0100474D03*
X0275044Y0100807D03*
X0269871Y0107815D03*
X0269371Y0107481D03*
X0267035Y0111652D03*
X0269204Y0112987D03*
X0265534Y0116324D03*
X0264866Y0115990D03*
X0259527Y0122663D03*
X0253521Y0119994D03*
X0253855Y0119327D03*
X0253855Y0118993D03*
X0258026Y0111986D03*
X0258193Y0111652D03*
X0259027Y0110150D03*
X0252353Y0107147D03*
X0251519Y0108482D03*
X0253521Y0105145D03*
X0253688Y0104812D03*
X0253855Y0104478D03*
X0254522Y0103310D03*
X0264866Y0100474D03*
X0259694Y0136011D03*
X0259527Y0136344D03*
X0259027Y0137179D03*
X0258860Y0137512D03*
X0258026Y0139014D03*
X0360800Y0143685D03*
X0365472Y0143018D03*
X0415523Y0166543D03*
D50*
X0290143Y0178889D03*
X0289142Y0174885D03*
X0283803Y0174885D03*
X0255273Y0138680D03*
X0259444Y0136511D03*
X0260111Y0135177D03*
X0258109Y0133174D03*
X0256942Y0132507D03*
X0255773Y0131840D03*
X0259611Y0122497D03*
X0262114Y0117825D03*
X0266785Y0117158D03*
X0264783Y0113154D03*
X0258109Y0111819D03*
X0253605Y0104978D03*
X0253938Y0104311D03*
X0264950Y0100307D03*
X0267786Y0094968D03*
X0261613Y0090964D03*
X0263949Y0086960D03*
X0271290Y0105646D03*
X0268453Y0106980D03*
X0235085Y0131172D03*
X0207890Y0157366D03*
D51*
X0258193Y0138680D03*
X0259027Y0137345D03*
X0253688Y0119827D03*
X0253855Y0119160D03*
X0255190Y0117158D03*
X0264699Y0115823D03*
X0267202Y0111819D03*
X0268370Y0112486D03*
X0270706Y0108315D03*
X0262697Y0103644D03*
X0258860Y0110484D03*
X0254355Y0103644D03*
X0268537Y0093633D03*
X0262030Y0090296D03*
X0263532Y0087627D03*
X0358798Y0145854D03*
X0360800Y0149358D03*
X0432374Y0201746D03*
X0478589Y0155364D03*
D52*
X0277546Y0096136D03*
X0276879Y0095802D03*
X0272875Y0099473D03*
X0268370Y0093967D03*
X0263365Y0087961D03*
X0264199Y0101308D03*
X0270205Y0107982D03*
X0271540Y0108816D03*
X0267870Y0112153D03*
X0253855Y0119494D03*
X0246347Y0117658D03*
X0239673Y0138847D03*
D53*
X0255190Y0142017D03*
X0263365Y0088294D03*
D54*
X0263532Y0088461D03*
X0269037Y0112653D03*
X0255023Y0115323D03*
X0252020Y0121662D03*
X0260695Y0126668D03*
X0245346Y0137512D03*
X0245179Y0137846D03*
X0245012Y0138180D03*
X0244512Y0139014D03*
X0243845Y0140182D03*
X0243678Y0140515D03*
X0243511Y0140849D03*
X0234001Y0148190D03*
X0208808Y0155698D03*
X0235002Y0132007D03*
X0426869Y0209421D03*
X0426869Y0209587D03*
D55*
X0432958Y0208086D03*
X0432958Y0207919D03*
X0432958Y0207585D03*
X0432958Y0207252D03*
X0432958Y0206918D03*
X0432958Y0204249D03*
X0432958Y0202080D03*
X0394251Y0207085D03*
X0410101Y0232778D03*
X0407932Y0161704D03*
X0286472Y0174050D03*
X0254939Y0143185D03*
X0254939Y0143018D03*
X0251936Y0121496D03*
X0246597Y0118159D03*
X0254606Y0114989D03*
X0258944Y0109316D03*
X0264116Y0097471D03*
X0260111Y0094801D03*
X0263615Y0088628D03*
D56*
X0263782Y0088962D03*
X0266118Y0090296D03*
X0267285Y0090964D03*
X0268454Y0091631D03*
X0262447Y0096303D03*
X0261279Y0095635D03*
X0258943Y0100974D03*
X0261279Y0102309D03*
X0257609Y0108315D03*
X0256441Y0107648D03*
X0258777Y0108983D03*
X0234919Y0133174D03*
X0254272Y0144686D03*
X0286639Y0180891D03*
X0260612Y0203748D03*
X0394251Y0196741D03*
D57*
X0427202Y0208253D03*
X0358131Y0150526D03*
X0360800Y0138346D03*
X0261696Y0120661D03*
X0235002Y0133675D03*
X0263865Y0089129D03*
X0259527Y0207419D03*
X0259027Y0208920D03*
X0258860Y0209254D03*
D58*
X0236503Y0136344D03*
X0264032Y0089295D03*
X0427035Y0207252D03*
D59*
X0426702Y0201579D03*
X0264032Y0089462D03*
X0231498Y0140349D03*
D60*
X0235002Y0134509D03*
X0251352Y0120495D03*
X0264199Y0089629D03*
X0236170Y0190234D03*
X0426702Y0201746D03*
X0426702Y0202413D03*
X0426702Y0204415D03*
X0426702Y0205083D03*
X0433042Y0213758D03*
D61*
X0426285Y0200745D03*
X0407932Y0165208D03*
X0407932Y0161871D03*
X0363553Y0142350D03*
X0358047Y0142350D03*
X0286639Y0180557D03*
X0260612Y0203414D03*
X0260445Y0204082D03*
X0257776Y0211590D03*
X0253938Y0145521D03*
X0254105Y0145187D03*
X0258443Y0108816D03*
X0253938Y0106146D03*
X0258443Y0100641D03*
X0259611Y0101308D03*
X0262113Y0096136D03*
X0261613Y0095802D03*
X0260946Y0095468D03*
X0262781Y0096470D03*
X0265284Y0089796D03*
X0271957Y0102476D03*
X0272458Y0105813D03*
D62*
X0261863Y0095969D03*
X0265534Y0089963D03*
X0260362Y0204582D03*
X0260362Y0204749D03*
X0258193Y0210922D03*
D63*
X0257943Y0211423D03*
X0260445Y0204249D03*
X0260612Y0203581D03*
X0235586Y0189733D03*
X0286639Y0180724D03*
X0286639Y0180390D03*
X0254272Y0144853D03*
X0254105Y0140849D03*
X0258109Y0108649D03*
X0257275Y0108148D03*
X0256774Y0107815D03*
X0256107Y0107481D03*
X0255607Y0107147D03*
X0259277Y0101141D03*
X0258777Y0100807D03*
X0258109Y0100474D03*
X0257609Y0100140D03*
X0260445Y0095135D03*
X0260779Y0095302D03*
X0262948Y0096636D03*
X0268120Y0091464D03*
X0268620Y0091798D03*
X0266952Y0090797D03*
X0266451Y0090463D03*
X0265784Y0090130D03*
X0411936Y0173049D03*
X0426285Y0200578D03*
X0426285Y0200912D03*
X0394251Y0206918D03*
D64*
X0433959Y0212090D03*
X0247098Y0210588D03*
X0247098Y0130004D03*
X0422614Y0095302D03*
X0422614Y0095135D03*
X0422614Y0090797D03*
X0422614Y0090463D03*
X0422614Y0090130D03*
D65*
X0422614Y0090296D03*
X0422614Y0095635D03*
D66*
X0415523Y0162872D03*
X0427202Y0208920D03*
X0257025Y0107982D03*
X0255857Y0107314D03*
X0266702Y0090630D03*
D67*
X0422614Y0090630D03*
X0422614Y0095468D03*
X0422614Y0095802D03*
X0442802Y0208920D03*
D68*
X0426201Y0201245D03*
X0452061Y0189066D03*
X0415523Y0166042D03*
X0360800Y0146688D03*
X0267536Y0091131D03*
X0259861Y0101475D03*
X0257859Y0108482D03*
X0235002Y0133341D03*
X0237171Y0136845D03*
X0254189Y0145020D03*
X0253855Y0145688D03*
X0254856Y0202747D03*
X0254856Y0202914D03*
X0254856Y0203248D03*
X0260528Y0203915D03*
X0258359Y0210588D03*
X0258026Y0211256D03*
D69*
X0267786Y0091297D03*
D70*
X0272124Y0092799D03*
X0274626Y0095468D03*
X0277796Y0094634D03*
X0279798Y0095468D03*
X0279632Y0095802D03*
X0278798Y0097304D03*
X0276795Y0100641D03*
X0272624Y0098805D03*
X0270122Y0103143D03*
X0269955Y0103977D03*
X0268454Y0106146D03*
X0268287Y0106480D03*
X0271790Y0109483D03*
X0263949Y0113988D03*
X0262113Y0116991D03*
X0266785Y0117992D03*
X0266952Y0117658D03*
X0262280Y0123665D03*
X0262447Y0125500D03*
X0258109Y0124332D03*
X0258276Y0123665D03*
X0230080Y0139181D03*
X0210059Y0159202D03*
X0207557Y0158868D03*
X0280466Y0178388D03*
X0280132Y0179890D03*
X0280132Y0181391D03*
X0280132Y0181725D03*
X0286639Y0181725D03*
X0286639Y0181391D03*
X0286639Y0182059D03*
X0286639Y0182392D03*
X0286639Y0179890D03*
X0286639Y0179056D03*
X0290977Y0179890D03*
X0290977Y0180557D03*
X0290977Y0181391D03*
X0292812Y0181391D03*
X0292812Y0181725D03*
X0292645Y0182392D03*
X0292812Y0179890D03*
X0292645Y0179056D03*
X0292478Y0178388D03*
X0254606Y0208253D03*
X0254606Y0208586D03*
X0270122Y0231610D03*
X0272291Y0233779D03*
X0277630Y0232278D03*
X0319006Y0268649D03*
X0319006Y0268649D03*
X0319006Y0268816D03*
X0319006Y0268983D03*
X0326514Y0267648D03*
X0326681Y0268315D03*
X0318172Y0276157D03*
X0318172Y0276491D03*
X0318172Y0276824D03*
X0385075Y0300182D03*
X0390915Y0293842D03*
X0409267Y0233779D03*
X0410935Y0233446D03*
X0411269Y0232278D03*
X0397255Y0204582D03*
X0397255Y0204249D03*
X0397255Y0203915D03*
X0397255Y0201579D03*
X0397255Y0201245D03*
X0397255Y0200912D03*
X0398756Y0200578D03*
X0398589Y0199744D03*
X0394084Y0195740D03*
X0394084Y0194905D03*
X0394084Y0194572D03*
X0394084Y0194238D03*
X0394084Y0193904D03*
X0391248Y0201245D03*
X0391248Y0201579D03*
X0389747Y0200578D03*
X0391248Y0203915D03*
X0391248Y0204249D03*
X0410435Y0172549D03*
X0410435Y0171881D03*
X0410435Y0171047D03*
X0410435Y0170714D03*
X0410435Y0170380D03*
X0410435Y0170046D03*
X0410435Y0169212D03*
X0410435Y0168545D03*
X0410435Y0167710D03*
X0410435Y0167377D03*
X0410435Y0167043D03*
X0410435Y0166709D03*
X0410435Y0165875D03*
X0410435Y0165208D03*
X0413104Y0164374D03*
X0413271Y0163706D03*
X0417776Y0163706D03*
X0417943Y0164374D03*
X0405763Y0164374D03*
X0367223Y0148357D03*
X0367390Y0145020D03*
X0364554Y0144186D03*
X0364887Y0141683D03*
X0364721Y0140849D03*
X0362051Y0145020D03*
X0359548Y0145020D03*
X0359382Y0147523D03*
X0359715Y0148357D03*
X0361884Y0148357D03*
X0362218Y0147523D03*
X0357046Y0144186D03*
X0356712Y0141683D03*
X0356879Y0140849D03*
X0354043Y0145687D03*
X0354043Y0146021D03*
X0354043Y0147523D03*
X0354376Y0148357D03*
X0315169Y0127669D03*
X0315169Y0127335D03*
X0315169Y0127001D03*
X0315169Y0126167D03*
X0313000Y0126167D03*
X0313000Y0127001D03*
X0313000Y0127335D03*
X0313000Y0127669D03*
X0317671Y0124666D03*
X0317671Y0124332D03*
X0317671Y0123998D03*
X0317671Y0123665D03*
X0317671Y0122830D03*
X0317671Y0122163D03*
X0317671Y0120661D03*
X0317671Y0120328D03*
X0317671Y0119494D03*
X0317671Y0117992D03*
X0317671Y0117658D03*
X0317671Y0117325D03*
X0317671Y0116991D03*
X0315169Y0115489D03*
X0315169Y0114655D03*
X0313000Y0114655D03*
X0313000Y0115489D03*
X0308328Y0116991D03*
X0428621Y0094634D03*
X0428621Y0091297D03*
D71*
X0478839Y0157867D03*
X0290310Y0177888D03*
X0287306Y0185229D03*
X0259277Y0136845D03*
X0259945Y0135677D03*
X0258443Y0133341D03*
X0255607Y0131673D03*
X0259277Y0126000D03*
X0251769Y0108148D03*
X0251936Y0107815D03*
X0254105Y0104144D03*
X0265117Y0099973D03*
X0268120Y0094467D03*
X0261446Y0091464D03*
X0278631Y0096803D03*
X0384574Y0296678D03*
D72*
X0389830Y0292340D03*
X0394168Y0302184D03*
X0394168Y0302851D03*
X0394168Y0303519D03*
X0394168Y0305688D03*
X0394168Y0306355D03*
X0394168Y0307022D03*
X0394168Y0307690D03*
X0290393Y0175552D03*
X0246514Y0140015D03*
X0270372Y0104978D03*
X0261530Y0091631D03*
X0363469Y0139181D03*
D73*
X0269955Y0112319D03*
X0266952Y0108482D03*
X0256608Y0098638D03*
X0261780Y0091965D03*
X0235252Y0129671D03*
X0254606Y0208753D03*
X0415273Y0236282D03*
D74*
X0254772Y0203915D03*
X0254772Y0143519D03*
X0251102Y0120828D03*
X0249600Y0119994D03*
X0246764Y0118326D03*
X0249600Y0115990D03*
X0250268Y0116324D03*
X0251102Y0116824D03*
X0251936Y0113320D03*
X0272458Y0105979D03*
X0268787Y0091965D03*
D75*
X0268871Y0092132D03*
X0260028Y0094634D03*
X0254856Y0201579D03*
X0254856Y0201913D03*
X0254856Y0202246D03*
X0254856Y0202580D03*
X0432875Y0201913D03*
X0432875Y0206751D03*
X0432875Y0208253D03*
D76*
X0389663Y0203081D03*
X0248182Y0142184D03*
X0251853Y0109149D03*
X0276378Y0092132D03*
D77*
X0276545Y0092799D03*
X0276045Y0097971D03*
X0271040Y0105479D03*
X0272541Y0106480D03*
X0266034Y0110985D03*
X0235169Y0131006D03*
X0240007Y0139181D03*
X0283386Y0175051D03*
X0356295Y0150192D03*
X0360800Y0149858D03*
X0358965Y0146021D03*
X0360800Y0143518D03*
X0362635Y0146021D03*
X0365305Y0150192D03*
X0362635Y0138680D03*
X0358965Y0138680D03*
X0429038Y0093967D03*
X0429038Y0092132D03*
X0478589Y0160369D03*
X0410018Y0234947D03*
X0271540Y0234947D03*
D78*
X0238589Y0138013D03*
X0254772Y0115156D03*
X0268954Y0092298D03*
X0432791Y0208420D03*
D79*
X0427035Y0210088D03*
X0417359Y0165875D03*
X0478589Y0155531D03*
X0269037Y0092465D03*
X0253521Y0105479D03*
X0262197Y0110985D03*
X0266201Y0111318D03*
X0264199Y0121329D03*
X0259694Y0126167D03*
X0239173Y0138513D03*
X0208141Y0157700D03*
X0235002Y0189233D03*
D80*
X0282552Y0185729D03*
X0287056Y0185396D03*
X0290560Y0175719D03*
X0282385Y0175719D03*
X0240508Y0139514D03*
X0235169Y0130672D03*
X0246180Y0117325D03*
X0247849Y0114321D03*
X0251686Y0108816D03*
X0266868Y0117325D03*
X0258693Y0125500D03*
X0273876Y0103143D03*
X0276545Y0092465D03*
X0259694Y0093967D03*
X0355628Y0149858D03*
X0365972Y0149858D03*
X0363303Y0139014D03*
X0409517Y0162205D03*
X0417859Y0165208D03*
X0397338Y0197909D03*
X0396003Y0199076D03*
X0325596Y0266480D03*
X0319090Y0269817D03*
X0319090Y0270484D03*
X0271540Y0235615D03*
X0276545Y0233779D03*
X0384825Y0299848D03*
D81*
X0384157Y0298847D03*
X0384157Y0297346D03*
X0261029Y0202080D03*
X0247849Y0140849D03*
X0244178Y0139681D03*
X0244011Y0139848D03*
X0244846Y0138347D03*
X0245513Y0137179D03*
X0238839Y0138180D03*
X0257359Y0139681D03*
X0271373Y0108482D03*
X0276045Y0098472D03*
X0360800Y0138013D03*
X0425868Y0093300D03*
X0425868Y0092632D03*
X0478589Y0155698D03*
D82*
X0478923Y0157700D03*
X0417359Y0174050D03*
X0290393Y0178055D03*
X0288224Y0184728D03*
X0258359Y0138513D03*
X0259194Y0137012D03*
X0260028Y0135510D03*
X0255523Y0138847D03*
X0259361Y0122830D03*
X0262197Y0117992D03*
X0265200Y0116157D03*
X0255523Y0116157D03*
X0258359Y0111318D03*
X0251853Y0107982D03*
X0254189Y0103977D03*
X0265200Y0099473D03*
X0265200Y0099139D03*
X0265200Y0098805D03*
X0268871Y0093133D03*
X0269037Y0092799D03*
X0274877Y0100641D03*
X0248015Y0114655D03*
X0275711Y0233446D03*
X0384491Y0296845D03*
D83*
X0261029Y0202580D03*
X0261029Y0202246D03*
X0261029Y0201913D03*
X0243344Y0141016D03*
X0244178Y0139514D03*
X0244846Y0138513D03*
X0259027Y0109483D03*
X0264699Y0097971D03*
X0425868Y0093133D03*
X0425868Y0092799D03*
D84*
X0478839Y0158034D03*
X0409934Y0164874D03*
X0290310Y0178221D03*
X0258610Y0138013D03*
X0259277Y0133842D03*
X0254772Y0102976D03*
X0268954Y0092966D03*
X0275628Y0233279D03*
D85*
X0271623Y0235281D03*
X0254606Y0207085D03*
X0355878Y0150025D03*
X0273625Y0102976D03*
X0271623Y0108983D03*
X0269288Y0113154D03*
X0262114Y0111819D03*
X0257942Y0112486D03*
X0256775Y0098972D03*
X0272124Y0092966D03*
X0260278Y0134509D03*
X0240257Y0139348D03*
X0391915Y0197408D03*
X0396587Y0197408D03*
X0410101Y0235281D03*
X0384741Y0299681D03*
D86*
X0261029Y0202413D03*
X0244679Y0138680D03*
X0245513Y0137345D03*
X0425868Y0092966D03*
X0478589Y0160036D03*
D87*
X0267619Y0116490D03*
X0259444Y0093633D03*
X0254606Y0209087D03*
D88*
X0254606Y0206417D03*
X0277129Y0233946D03*
X0384408Y0297012D03*
X0427119Y0210422D03*
X0365555Y0143185D03*
X0356045Y0143185D03*
X0272124Y0093633D03*
X0255440Y0115823D03*
X0263115Y0119160D03*
X0252103Y0121829D03*
X0239423Y0138680D03*
X0209559Y0158034D03*
D89*
X0241425Y0140349D03*
X0249600Y0140349D03*
X0245930Y0116991D03*
X0277963Y0093967D03*
D90*
X0279715Y0093967D03*
X0278714Y0097971D03*
X0276045Y0102476D03*
X0268370Y0105813D03*
X0267536Y0109483D03*
X0235336Y0129504D03*
X0415523Y0162205D03*
X0478589Y0155197D03*
D91*
X0407932Y0161537D03*
X0426952Y0209921D03*
X0319006Y0275823D03*
X0319006Y0275990D03*
X0319006Y0277325D03*
X0319006Y0277492D03*
X0260946Y0201412D03*
X0238922Y0138347D03*
X0245763Y0136845D03*
X0230581Y0139681D03*
X0266618Y0116824D03*
X0271957Y0101975D03*
X0259945Y0094467D03*
X0248099Y0114822D03*
X0307494Y0118659D03*
X0307494Y0118993D03*
X0307494Y0120828D03*
X0307494Y0122997D03*
X0307494Y0123331D03*
X0307494Y0123498D03*
X0318506Y0123498D03*
X0318506Y0123331D03*
X0318506Y0122997D03*
X0318506Y0120828D03*
X0318506Y0118993D03*
X0318506Y0118659D03*
D92*
X0358547Y0138847D03*
X0363052Y0138847D03*
X0413938Y0163039D03*
X0417109Y0163039D03*
X0417776Y0165375D03*
X0395920Y0206584D03*
X0392750Y0206584D03*
X0479340Y0157533D03*
X0320508Y0266313D03*
X0276462Y0236282D03*
X0277463Y0234447D03*
X0254606Y0207252D03*
X0283135Y0186063D03*
X0282802Y0185896D03*
X0288975Y0184395D03*
X0289809Y0186063D03*
X0290143Y0185896D03*
X0290143Y0178555D03*
X0289809Y0175218D03*
X0283135Y0175218D03*
X0235085Y0130839D03*
X0258777Y0125667D03*
X0259611Y0122330D03*
X0270789Y0105312D03*
X0272791Y0099306D03*
X0279966Y0094467D03*
X0389580Y0292174D03*
D93*
X0384741Y0296511D03*
X0275461Y0233112D03*
X0254606Y0207419D03*
X0282802Y0175385D03*
X0290143Y0175385D03*
X0260278Y0134676D03*
X0260111Y0134342D03*
X0261780Y0126167D03*
X0263114Y0118826D03*
X0262114Y0117658D03*
X0252270Y0122163D03*
X0254606Y0102809D03*
X0272124Y0094634D03*
X0207723Y0157033D03*
X0209892Y0158534D03*
X0406431Y0162205D03*
X0414105Y0165875D03*
D94*
X0410268Y0164374D03*
X0405930Y0162538D03*
X0357880Y0145354D03*
X0357880Y0139347D03*
X0281801Y0185062D03*
X0264783Y0120661D03*
X0267119Y0108816D03*
X0275294Y0094634D03*
X0394251Y0196407D03*
X0319840Y0266814D03*
X0390247Y0297179D03*
D95*
X0319090Y0270651D03*
X0319090Y0270317D03*
X0319090Y0269984D03*
X0271540Y0235448D03*
X0275377Y0232945D03*
X0289392Y0184061D03*
X0358131Y0145520D03*
X0360800Y0143352D03*
X0366139Y0143352D03*
X0366139Y0149691D03*
X0360800Y0149691D03*
X0410184Y0164540D03*
X0397171Y0197742D03*
X0392333Y0199243D03*
X0391332Y0197742D03*
X0262697Y0118159D03*
X0262030Y0117491D03*
X0263532Y0114989D03*
X0264699Y0112987D03*
X0267870Y0095302D03*
D96*
X0276045Y0095302D03*
X0257359Y0099973D03*
X0254522Y0144186D03*
X0433209Y0202747D03*
X0433209Y0202914D03*
X0433209Y0203248D03*
X0319090Y0271152D03*
D97*
X0319006Y0275656D03*
X0319006Y0277158D03*
X0276462Y0231610D03*
X0260946Y0201579D03*
X0255106Y0142184D03*
X0255106Y0141850D03*
X0247932Y0141016D03*
X0244428Y0139181D03*
X0244595Y0138847D03*
X0245263Y0137679D03*
X0243761Y0140349D03*
X0255106Y0115489D03*
X0263782Y0115489D03*
X0257108Y0099473D03*
X0276629Y0095468D03*
X0307494Y0118826D03*
X0307494Y0120995D03*
X0307494Y0121329D03*
X0318506Y0121329D03*
X0318506Y0120995D03*
X0318506Y0118826D03*
X0432624Y0208586D03*
D98*
X0417943Y0174217D03*
X0268120Y0095635D03*
X0263115Y0104311D03*
X0385242Y0300349D03*
D99*
X0265367Y0111819D03*
X0267703Y0107648D03*
X0272708Y0098305D03*
X0274710Y0095635D03*
X0254355Y0102309D03*
D100*
X0276629Y0095635D03*
D101*
X0278380Y0096470D03*
X0268704Y0107314D03*
X0235002Y0132173D03*
X0245680Y0137012D03*
X0247348Y0140349D03*
X0358130Y0150859D03*
X0363469Y0150859D03*
D102*
X0433125Y0202413D03*
X0433125Y0203748D03*
X0254606Y0144019D03*
X0251603Y0117158D03*
X0263448Y0096970D03*
D103*
X0278631Y0096970D03*
X0365722Y0150025D03*
D104*
X0263698Y0097137D03*
X0260695Y0202747D03*
X0260695Y0202914D03*
D105*
X0360800Y0150192D03*
X0433042Y0202246D03*
X0433042Y0204082D03*
X0253021Y0117992D03*
X0254188Y0114655D03*
X0257192Y0099806D03*
X0263865Y0097304D03*
X0235002Y0132841D03*
X0238172Y0137679D03*
D106*
X0247849Y0140682D03*
X0255023Y0142684D03*
X0235002Y0132507D03*
X0257192Y0099639D03*
X0264366Y0097637D03*
X0426869Y0209087D03*
X0319090Y0270818D03*
D107*
X0261112Y0120161D03*
X0262614Y0103477D03*
X0264783Y0098138D03*
D108*
X0262531Y0103310D03*
X0276045Y0098638D03*
X0253188Y0118159D03*
X0235002Y0132340D03*
X0238339Y0137846D03*
X0230831Y0139848D03*
X0271540Y0232778D03*
X0271540Y0232945D03*
X0383990Y0297512D03*
X0383990Y0298513D03*
X0410018Y0232945D03*
X0452562Y0188732D03*
X0415523Y0166376D03*
X0478589Y0159869D03*
D109*
X0432958Y0207085D03*
X0432958Y0207752D03*
X0271623Y0232611D03*
X0235419Y0189567D03*
X0254606Y0141350D03*
X0260612Y0126501D03*
X0263782Y0121162D03*
X0273292Y0099639D03*
D110*
X0273292Y0099806D03*
X0271957Y0102142D03*
X0262447Y0103143D03*
X0250101Y0112153D03*
X0240758Y0123665D03*
X0286472Y0187231D03*
X0432958Y0207419D03*
D111*
X0426201Y0201079D03*
X0360800Y0146522D03*
X0257859Y0100307D03*
X0254022Y0145354D03*
X0254856Y0203081D03*
X0258026Y0211089D03*
D112*
X0253354Y0214426D03*
X0208808Y0160036D03*
X0243511Y0140682D03*
X0244345Y0139348D03*
X0253521Y0118492D03*
X0253521Y0105646D03*
X0275711Y0100974D03*
X0432708Y0206417D03*
D113*
X0261446Y0101642D03*
X0248099Y0135844D03*
D114*
X0261530Y0101808D03*
D115*
X0271874Y0101808D03*
D116*
X0261530Y0101975D03*
X0253187Y0117491D03*
X0235669Y0135677D03*
X0426702Y0202080D03*
X0426702Y0202747D03*
X0426702Y0203915D03*
X0426702Y0204249D03*
X0426702Y0204582D03*
X0426702Y0204749D03*
D117*
X0427035Y0207419D03*
X0451895Y0189233D03*
X0261363Y0102142D03*
X0254022Y0106480D03*
X0235002Y0134009D03*
X0236336Y0136178D03*
D118*
X0259611Y0122163D03*
X0262614Y0124332D03*
X0262614Y0124666D03*
X0264116Y0113654D03*
X0269288Y0113654D03*
X0274460Y0104645D03*
X0275961Y0102142D03*
X0254439Y0102476D03*
X0310831Y0114655D03*
X0310831Y0115489D03*
X0310831Y0126167D03*
X0310831Y0127001D03*
X0310831Y0127335D03*
X0310831Y0127669D03*
X0354210Y0145020D03*
X0367557Y0145687D03*
X0367557Y0146021D03*
X0367557Y0147523D03*
X0290643Y0182392D03*
X0280299Y0182392D03*
X0280299Y0179056D03*
X0270789Y0233779D03*
X0319840Y0276157D03*
X0319840Y0276491D03*
X0319840Y0276824D03*
X0391415Y0204916D03*
X0391415Y0200578D03*
X0389913Y0199744D03*
D119*
X0452312Y0188899D03*
X0271957Y0102309D03*
X0262280Y0102976D03*
X0253938Y0114488D03*
X0252771Y0113821D03*
X0250435Y0116490D03*
X0261446Y0120495D03*
X0237755Y0137345D03*
D120*
X0241092Y0140015D03*
X0262614Y0125166D03*
X0262614Y0124499D03*
X0269288Y0113821D03*
X0274460Y0104311D03*
X0275961Y0102309D03*
X0310831Y0114488D03*
X0310831Y0115156D03*
X0310831Y0115823D03*
X0310831Y0126501D03*
X0310831Y0127168D03*
X0354210Y0145187D03*
X0354210Y0148023D03*
X0367557Y0147189D03*
X0367557Y0145854D03*
X0280299Y0178889D03*
X0280299Y0182226D03*
X0319840Y0276324D03*
D121*
X0389830Y0297512D03*
X0389997Y0297346D03*
X0394168Y0301683D03*
X0394168Y0302017D03*
X0394168Y0302351D03*
X0394168Y0302685D03*
X0394168Y0303018D03*
X0394168Y0303185D03*
X0394168Y0303852D03*
X0394168Y0304186D03*
X0394168Y0306021D03*
X0394168Y0306188D03*
X0394168Y0306522D03*
X0394168Y0306856D03*
X0394168Y0307189D03*
X0394168Y0307523D03*
X0394168Y0307857D03*
X0410018Y0235448D03*
X0396337Y0206251D03*
X0413688Y0163206D03*
X0363469Y0145520D03*
X0355461Y0143352D03*
X0355461Y0149691D03*
X0274043Y0103310D03*
X0270539Y0105145D03*
X0262197Y0110150D03*
X0263031Y0118659D03*
X0263698Y0119327D03*
X0258526Y0125333D03*
X0248015Y0141683D03*
X0208808Y0157867D03*
X0254689Y0207585D03*
D122*
X0354210Y0147856D03*
X0367557Y0147356D03*
X0367557Y0147022D03*
X0367557Y0145520D03*
X0410268Y0163039D03*
X0389913Y0199911D03*
X0391415Y0205083D03*
X0319840Y0276657D03*
X0310831Y0127502D03*
X0310831Y0126835D03*
X0310831Y0126668D03*
X0310831Y0126334D03*
X0310831Y0115656D03*
X0310831Y0115323D03*
X0310831Y0114989D03*
X0310831Y0114822D03*
X0274460Y0104478D03*
X0247765Y0114155D03*
X0262614Y0124832D03*
X0262614Y0124999D03*
D123*
X0246514Y0117992D03*
X0253688Y0105813D03*
X0272541Y0106146D03*
X0257192Y0139514D03*
X0255023Y0142851D03*
X0271540Y0233112D03*
X0410018Y0233112D03*
X0415523Y0162538D03*
X0478589Y0155865D03*
D124*
X0260111Y0205750D03*
X0258443Y0210422D03*
X0253938Y0140682D03*
X0253938Y0106313D03*
D125*
X0254189Y0106647D03*
X0263031Y0120828D03*
X0236170Y0136011D03*
X0358130Y0150359D03*
X0363469Y0150359D03*
X0412687Y0173216D03*
X0426869Y0206084D03*
X0426869Y0206251D03*
D126*
X0286472Y0174384D03*
X0231748Y0140515D03*
X0254272Y0106814D03*
D127*
X0254355Y0106980D03*
X0241008Y0124499D03*
D128*
X0253688Y0118659D03*
X0268537Y0107147D03*
X0432541Y0206251D03*
D129*
X0433125Y0202580D03*
X0426451Y0200078D03*
X0258777Y0109149D03*
X0253605Y0114321D03*
X0253104Y0113988D03*
X0251436Y0116991D03*
X0249934Y0116157D03*
X0247598Y0118826D03*
D130*
X0247598Y0113988D03*
X0249434Y0110985D03*
X0260445Y0119494D03*
X0254606Y0208920D03*
D131*
X0235252Y0189400D03*
X0255106Y0142351D03*
X0249934Y0111986D03*
X0266284Y0111485D03*
X0394251Y0196574D03*
X0394251Y0198409D03*
D132*
X0254772Y0143685D03*
X0251269Y0120995D03*
X0248766Y0119494D03*
X0248766Y0115489D03*
X0251102Y0112820D03*
D133*
X0258193Y0112820D03*
X0269204Y0113988D03*
X0398839Y0203081D03*
D134*
X0363803Y0142184D03*
X0360800Y0142851D03*
X0357797Y0142184D03*
X0254355Y0114822D03*
X0235002Y0132674D03*
X0238005Y0137512D03*
X0319090Y0270985D03*
D135*
X0410018Y0232611D03*
X0257192Y0139348D03*
X0251519Y0121162D03*
X0249350Y0115823D03*
X0248349Y0115156D03*
D136*
X0252520Y0122497D03*
X0262864Y0115823D03*
X0235335Y0129838D03*
D137*
X0313000Y0115990D03*
D138*
X0313000Y0116157D03*
D139*
X0312917Y0116324D03*
X0248182Y0133008D03*
D140*
X0250602Y0146021D03*
X0313000Y0116490D03*
D141*
X0313000Y0116657D03*
D142*
X0253104Y0117325D03*
X0251269Y0120328D03*
X0236420Y0190401D03*
X0292812Y0306856D03*
X0292812Y0307189D03*
D143*
X0426869Y0205917D03*
X0363469Y0142684D03*
X0358130Y0142684D03*
X0251185Y0147690D03*
X0253187Y0117658D03*
D144*
X0253188Y0117825D03*
X0358131Y0142517D03*
X0259861Y0206417D03*
X0259694Y0207085D03*
X0259027Y0209087D03*
X0258693Y0209754D03*
X0427202Y0208420D03*
D145*
X0289475Y0179389D03*
X0248266Y0142351D03*
X0260111Y0122997D03*
X0261613Y0118159D03*
X0208891Y0160536D03*
D146*
X0249350Y0119827D03*
X0247014Y0118492D03*
X0415523Y0162705D03*
X0415523Y0166209D03*
X0433209Y0203081D03*
D147*
X0358714Y0145687D03*
X0253771Y0118826D03*
D148*
X0261112Y0120328D03*
X0384241Y0297179D03*
D149*
X0253438Y0140349D03*
X0251269Y0120661D03*
D150*
X0263448Y0120995D03*
X0260278Y0204916D03*
X0260278Y0205250D03*
X0259778Y0206751D03*
X0258276Y0210755D03*
X0319006Y0271652D03*
X0319006Y0271986D03*
X0319006Y0272320D03*
X0319006Y0273154D03*
X0319006Y0273821D03*
X0319006Y0274655D03*
X0319006Y0274989D03*
X0319006Y0275323D03*
X0427286Y0208586D03*
D151*
X0251853Y0121329D03*
D152*
X0262197Y0123498D03*
D153*
X0240841Y0123998D03*
X0363469Y0150526D03*
X0260028Y0205917D03*
X0259194Y0208253D03*
X0259194Y0208586D03*
D154*
X0240925Y0124165D03*
D155*
X0240925Y0124332D03*
X0234919Y0134342D03*
X0415941Y0173717D03*
X0426785Y0205250D03*
X0426785Y0205583D03*
D156*
X0241092Y0124666D03*
D157*
X0241175Y0124832D03*
X0248182Y0135677D03*
X0248182Y0136011D03*
X0250852Y0137512D03*
D158*
X0251185Y0137846D03*
X0248182Y0135343D03*
X0241175Y0124999D03*
D159*
X0241342Y0125166D03*
X0248182Y0135177D03*
X0237004Y0190901D03*
D160*
X0241425Y0125333D03*
X0386076Y0297846D03*
D161*
X0241592Y0125500D03*
D162*
X0248182Y0132841D03*
X0312917Y0125500D03*
D163*
X0241592Y0125667D03*
D164*
X0313000Y0125667D03*
D165*
X0241759Y0125833D03*
D166*
X0313000Y0125833D03*
D167*
X0241842Y0126000D03*
X0433375Y0212924D03*
D168*
X0313000Y0126000D03*
D169*
X0241926Y0126167D03*
D170*
X0242009Y0126334D03*
X0234835Y0146355D03*
X0238005Y0191735D03*
D171*
X0242093Y0126501D03*
D172*
X0242259Y0126668D03*
D173*
X0242593Y0126835D03*
X0439966Y0210255D03*
D174*
X0440466Y0210088D03*
X0242760Y0127001D03*
D175*
X0243010Y0127168D03*
X0235002Y0146021D03*
D176*
X0243260Y0127335D03*
D177*
X0243594Y0127502D03*
X0248099Y0211256D03*
D178*
X0243845Y0127669D03*
D179*
X0244011Y0127836D03*
X0433709Y0212424D03*
X0441217Y0209754D03*
D180*
X0244261Y0128002D03*
D181*
X0244512Y0128169D03*
X0248015Y0131506D03*
X0252687Y0212757D03*
X0441884Y0209421D03*
D182*
X0244846Y0128336D03*
D183*
X0245012Y0128503D03*
D184*
X0245263Y0128670D03*
D185*
X0245513Y0128837D03*
X0248016Y0131339D03*
D186*
X0245763Y0129003D03*
D187*
X0245930Y0129170D03*
D188*
X0246180Y0129337D03*
D189*
X0246430Y0129504D03*
X0235419Y0145521D03*
X0239089Y0192570D03*
D190*
X0246681Y0129671D03*
D191*
X0246848Y0129838D03*
X0448558Y0191569D03*
D192*
X0247348Y0130171D03*
D193*
X0247598Y0130338D03*
D194*
X0247765Y0130505D03*
D195*
X0248016Y0130672D03*
D196*
X0248266Y0130839D03*
D197*
X0248516Y0131006D03*
X0252186Y0212257D03*
X0448057Y0191902D03*
D198*
X0248683Y0131172D03*
D199*
X0246931Y0140182D03*
X0257442Y0139848D03*
X0235085Y0131673D03*
X0235085Y0131506D03*
X0432458Y0204582D03*
D200*
X0248015Y0131673D03*
D201*
X0248099Y0131840D03*
D202*
X0248015Y0132007D03*
X0238506Y0192069D03*
X0440883Y0209921D03*
D203*
X0449309Y0191068D03*
X0248099Y0132173D03*
D204*
X0248099Y0132340D03*
D205*
X0248182Y0132507D03*
D206*
X0248099Y0132674D03*
X0433459Y0212757D03*
D207*
X0248182Y0133174D03*
X0237838Y0191569D03*
D208*
X0248182Y0133341D03*
D209*
X0235002Y0133508D03*
X0253688Y0140515D03*
X0235836Y0189900D03*
X0259861Y0206584D03*
X0259694Y0206918D03*
X0259527Y0207252D03*
X0259527Y0207585D03*
X0259027Y0208753D03*
X0258860Y0209421D03*
X0258860Y0209587D03*
X0258693Y0209921D03*
X0360800Y0146355D03*
X0427202Y0208086D03*
X0433042Y0213925D03*
D210*
X0250852Y0146355D03*
X0248182Y0133508D03*
X0237671Y0191402D03*
D211*
X0248182Y0133675D03*
D212*
X0235002Y0133842D03*
X0427035Y0207085D03*
D213*
X0248182Y0133842D03*
D214*
X0248266Y0134009D03*
D215*
X0235002Y0134175D03*
X0360800Y0146188D03*
D216*
X0248182Y0134175D03*
D217*
X0248182Y0134342D03*
D218*
X0248182Y0134509D03*
D219*
X0235002Y0134676D03*
X0292729Y0307523D03*
D220*
X0234334Y0147022D03*
X0248182Y0134676D03*
X0252020Y0138513D03*
D221*
X0235002Y0134843D03*
D222*
X0248182Y0134843D03*
X0251019Y0146855D03*
D223*
X0235002Y0135010D03*
X0394168Y0304520D03*
X0394168Y0304687D03*
X0394168Y0305354D03*
D224*
X0248182Y0135010D03*
D225*
X0235085Y0135177D03*
X0292812Y0306355D03*
X0292812Y0307022D03*
D226*
X0251185Y0147523D03*
X0235335Y0135343D03*
D227*
X0235586Y0135510D03*
D228*
X0248099Y0135510D03*
X0248266Y0136178D03*
X0250935Y0137679D03*
X0394251Y0202413D03*
X0394251Y0203081D03*
D229*
X0235920Y0135844D03*
D230*
X0248349Y0136344D03*
D231*
X0236754Y0136511D03*
X0286472Y0174217D03*
X0427119Y0207752D03*
D232*
X0248516Y0136511D03*
D233*
X0236921Y0136678D03*
X0231248Y0140182D03*
X0260111Y0205416D03*
X0259945Y0206084D03*
X0259945Y0206251D03*
X0426285Y0201412D03*
D234*
X0248599Y0136678D03*
D235*
X0249934Y0136845D03*
X0292812Y0306522D03*
X0292812Y0306689D03*
X0292812Y0307356D03*
D236*
X0319090Y0271318D03*
X0237338Y0137012D03*
D237*
X0250184Y0137012D03*
X0251352Y0138847D03*
X0394168Y0304853D03*
X0394168Y0305187D03*
D238*
X0451144Y0189733D03*
X0286472Y0186730D03*
X0286472Y0174551D03*
X0251603Y0139014D03*
X0250434Y0137179D03*
D239*
X0250601Y0137345D03*
X0247765Y0145354D03*
D240*
X0251436Y0138013D03*
D241*
X0251603Y0138180D03*
X0251770Y0138347D03*
X0385742Y0298180D03*
D242*
X0251269Y0138680D03*
D243*
X0251686Y0139181D03*
X0252020Y0139514D03*
D244*
X0230164Y0139348D03*
X0209976Y0158701D03*
X0282552Y0175552D03*
X0282385Y0185562D03*
X0289225Y0184228D03*
X0290560Y0185562D03*
X0358131Y0139181D03*
X0406347Y0164874D03*
X0414856Y0235948D03*
X0319090Y0270151D03*
X0384825Y0296345D03*
D245*
X0251853Y0139348D03*
D246*
X0252103Y0139681D03*
X0248433Y0145688D03*
X0246931Y0144853D03*
D247*
X0252186Y0139848D03*
X0236670Y0190568D03*
X0433042Y0213592D03*
D248*
X0252353Y0140015D03*
X0231999Y0140682D03*
D249*
X0247265Y0145020D03*
X0252437Y0140182D03*
D250*
X0232416Y0140849D03*
D251*
X0232833Y0141016D03*
D252*
X0233417Y0141183D03*
X0234585Y0146522D03*
D253*
X0242927Y0141183D03*
D254*
X0236587Y0141350D03*
D255*
X0236420Y0141516D03*
X0236420Y0141683D03*
D256*
X0254856Y0141516D03*
X0254856Y0201412D03*
X0254856Y0202080D03*
X0432875Y0206584D03*
D257*
X0236337Y0141850D03*
D258*
X0236337Y0142017D03*
X0444554Y0207752D03*
D259*
X0236253Y0142184D03*
D260*
X0236170Y0142351D03*
X0434543Y0211423D03*
D261*
X0244929Y0209254D03*
X0236587Y0142518D03*
D262*
X0255106Y0142518D03*
X0426785Y0209254D03*
X0433125Y0214092D03*
X0384074Y0298680D03*
D263*
X0445471Y0193738D03*
X0238422Y0142684D03*
D264*
X0238422Y0142851D03*
D265*
X0238422Y0143018D03*
D266*
X0238506Y0143185D03*
X0238506Y0143519D03*
X0240007Y0201412D03*
D267*
X0238506Y0143352D03*
D268*
X0254856Y0143352D03*
D269*
X0238589Y0143685D03*
X0239924Y0201579D03*
X0239924Y0201913D03*
D270*
X0238589Y0143852D03*
D271*
X0238672Y0144019D03*
X0239840Y0202413D03*
D272*
X0238839Y0144186D03*
D273*
X0239006Y0144353D03*
X0242343Y0195239D03*
D274*
X0254522Y0144353D03*
X0433209Y0203414D03*
D275*
X0239090Y0144520D03*
D276*
X0254439Y0144520D03*
D277*
X0239340Y0144686D03*
X0447223Y0201746D03*
X0447557Y0203081D03*
D278*
X0447891Y0192069D03*
X0252020Y0212090D03*
X0236003Y0144853D03*
D279*
X0235836Y0145020D03*
D280*
X0235753Y0145187D03*
X0434126Y0211923D03*
X0443302Y0208586D03*
D281*
X0248099Y0145521D03*
X0247432Y0145187D03*
D282*
X0235502Y0145354D03*
X0252353Y0212424D03*
D283*
X0247515Y0210922D03*
X0238839Y0192403D03*
X0235336Y0145688D03*
X0448725Y0191402D03*
D284*
X0235085Y0145854D03*
D285*
X0250518Y0145854D03*
X0248683Y0211590D03*
D286*
X0238255Y0191902D03*
X0234918Y0146188D03*
D287*
X0250768Y0146188D03*
D288*
X0250852Y0146522D03*
D289*
X0234501Y0146689D03*
D290*
X0250935Y0146689D03*
D291*
X0234418Y0146855D03*
X0237421Y0191235D03*
D292*
X0251102Y0147022D03*
D293*
X0234251Y0147189D03*
D294*
X0251102Y0147189D03*
X0394251Y0202580D03*
X0394251Y0202914D03*
X0450977Y0189900D03*
D295*
X0415190Y0173550D03*
X0234168Y0147356D03*
D296*
X0251102Y0147356D03*
D297*
X0234084Y0147523D03*
D298*
X0234001Y0147690D03*
X0253354Y0214092D03*
X0426702Y0204916D03*
X0426702Y0204082D03*
X0426702Y0202580D03*
X0426702Y0202246D03*
X0426702Y0201913D03*
D299*
X0234084Y0147856D03*
D300*
X0251185Y0147856D03*
X0259361Y0207919D03*
X0259361Y0208086D03*
X0258526Y0210255D03*
X0253354Y0214259D03*
D301*
X0289559Y0186230D03*
X0208808Y0155364D03*
D302*
X0360800Y0138513D03*
D303*
X0208891Y0155865D03*
D304*
X0259361Y0207752D03*
X0259194Y0208420D03*
X0363469Y0142517D03*
D305*
X0289559Y0175051D03*
X0208808Y0160369D03*
X0384658Y0299515D03*
D306*
X0319006Y0274822D03*
X0319006Y0274155D03*
X0319006Y0273487D03*
X0319006Y0272820D03*
X0319006Y0272153D03*
X0319006Y0271485D03*
X0260278Y0205083D03*
X0394251Y0206751D03*
X0407932Y0162038D03*
D307*
X0407932Y0165542D03*
D308*
X0413605Y0173383D03*
D309*
X0286472Y0186897D03*
D310*
X0286472Y0187064D03*
X0394251Y0196908D03*
X0427119Y0207585D03*
X0427119Y0207919D03*
D311*
X0426785Y0205416D03*
X0451645Y0189400D03*
X0394251Y0197074D03*
D312*
X0451394Y0189567D03*
D313*
X0236086Y0190067D03*
D314*
X0450644Y0190067D03*
D315*
X0450393Y0190234D03*
D316*
X0450226Y0190401D03*
D317*
X0449976Y0190568D03*
D318*
X0236837Y0190734D03*
D319*
X0449726Y0190734D03*
D320*
X0449475Y0190901D03*
X0252937Y0213091D03*
D321*
X0237254Y0191068D03*
D322*
X0383407Y0291506D03*
X0441634Y0209587D03*
X0448975Y0191235D03*
D323*
X0448308Y0191735D03*
X0442969Y0208753D03*
D324*
X0247849Y0211089D03*
X0238672Y0192236D03*
D325*
X0447640Y0192236D03*
D326*
X0447390Y0192403D03*
X0245346Y0209587D03*
D327*
X0447056Y0192570D03*
D328*
X0239256Y0192737D03*
D329*
X0446890Y0192737D03*
D330*
X0246514Y0210255D03*
X0239507Y0192903D03*
D331*
X0445138Y0207252D03*
X0446639Y0192903D03*
D332*
X0443553Y0208420D03*
X0239673Y0193070D03*
D333*
X0445388Y0207085D03*
X0446389Y0193070D03*
D334*
X0239840Y0193237D03*
D335*
X0446222Y0193237D03*
D336*
X0240090Y0193404D03*
D337*
X0445972Y0193404D03*
D338*
X0240341Y0193571D03*
D339*
X0445721Y0193571D03*
X0446055Y0206584D03*
D340*
X0240424Y0193738D03*
D341*
X0240674Y0193904D03*
D342*
X0445221Y0193904D03*
D343*
X0240925Y0194071D03*
D344*
X0444971Y0194071D03*
D345*
X0241175Y0194238D03*
D346*
X0444721Y0194238D03*
X0446556Y0200578D03*
D347*
X0241259Y0194405D03*
D348*
X0243010Y0195740D03*
X0240174Y0204415D03*
X0444554Y0194405D03*
D349*
X0241509Y0194572D03*
D350*
X0444303Y0194572D03*
D351*
X0241759Y0194739D03*
D352*
X0240174Y0206084D03*
X0444053Y0194739D03*
X0447223Y0205416D03*
D353*
X0241926Y0194905D03*
D354*
X0443803Y0194905D03*
D355*
X0242093Y0195072D03*
X0239924Y0201746D03*
D356*
X0443636Y0195072D03*
D357*
X0443302Y0195239D03*
D358*
X0242510Y0195406D03*
X0241675Y0207252D03*
D359*
X0443052Y0195406D03*
D360*
X0242760Y0195573D03*
D361*
X0442885Y0195573D03*
D362*
X0442635Y0195740D03*
D363*
X0446973Y0205583D03*
X0243094Y0195907D03*
X0240091Y0205250D03*
D364*
X0442468Y0195907D03*
D365*
X0243344Y0196073D03*
D366*
X0442301Y0196073D03*
D367*
X0243594Y0196240D03*
D368*
X0442218Y0196240D03*
D369*
X0243761Y0196407D03*
D370*
X0442051Y0196407D03*
D371*
X0243928Y0196574D03*
D372*
X0441884Y0196574D03*
D373*
X0244178Y0196741D03*
D374*
X0441884Y0196741D03*
D375*
X0244345Y0196908D03*
D376*
X0441801Y0196908D03*
D377*
X0244595Y0197074D03*
D378*
X0441634Y0197074D03*
D379*
X0244762Y0197241D03*
D380*
X0245680Y0198743D03*
X0441551Y0197241D03*
D381*
X0244929Y0197408D03*
D382*
X0245680Y0198910D03*
X0441551Y0197408D03*
D383*
X0245096Y0197575D03*
D384*
X0441467Y0197575D03*
D385*
X0245179Y0197742D03*
D386*
X0441384Y0197742D03*
D387*
X0245262Y0197909D03*
D388*
X0441384Y0197909D03*
D389*
X0245429Y0198075D03*
D390*
X0441300Y0198075D03*
D391*
X0245513Y0198242D03*
D392*
X0441217Y0198242D03*
D393*
X0245513Y0198409D03*
D394*
X0441217Y0198409D03*
D395*
X0245596Y0198576D03*
D396*
X0441217Y0198576D03*
D397*
X0441134Y0198743D03*
D398*
X0441050Y0198910D03*
X0246013Y0200745D03*
D399*
X0245763Y0199076D03*
D400*
X0441134Y0199076D03*
D401*
X0245846Y0199243D03*
D402*
X0441050Y0199243D03*
D403*
X0245930Y0199410D03*
D404*
X0441050Y0199410D03*
D405*
X0245930Y0199577D03*
D406*
X0246097Y0201245D03*
X0440967Y0199577D03*
D407*
X0245930Y0199744D03*
D408*
X0260362Y0204415D03*
X0394335Y0198743D03*
D409*
X0441050Y0199744D03*
D410*
X0246013Y0199911D03*
D411*
X0440967Y0199911D03*
D412*
X0245930Y0200078D03*
D413*
X0445638Y0200078D03*
D414*
X0246013Y0200244D03*
D415*
X0240090Y0204749D03*
X0446139Y0200244D03*
D416*
X0246097Y0200411D03*
D417*
X0446389Y0200411D03*
D418*
X0246013Y0200578D03*
D419*
X0446639Y0200745D03*
D420*
X0246097Y0200912D03*
D421*
X0446889Y0200912D03*
D422*
X0246013Y0201079D03*
D423*
X0446973Y0201079D03*
D424*
X0447056Y0201245D03*
X0447390Y0202080D03*
X0447557Y0202747D03*
X0447557Y0202914D03*
X0446556Y0206084D03*
D425*
X0447140Y0201412D03*
D426*
X0447223Y0201579D03*
X0447390Y0202246D03*
X0447557Y0202580D03*
D427*
X0432875Y0204415D03*
X0254856Y0202413D03*
X0254856Y0201746D03*
D428*
X0241926Y0207419D03*
X0447307Y0201913D03*
D429*
X0446389Y0206251D03*
X0242176Y0207585D03*
X0239840Y0202080D03*
D430*
X0239840Y0202246D03*
D431*
X0447473Y0202413D03*
D432*
X0239757Y0202580D03*
D433*
X0240091Y0202747D03*
X0240091Y0202914D03*
X0447640Y0203248D03*
X0447640Y0203581D03*
D434*
X0426618Y0203581D03*
X0426618Y0203248D03*
X0426618Y0202914D03*
D435*
X0447640Y0203748D03*
X0240091Y0203081D03*
D436*
X0426618Y0203081D03*
X0426618Y0203748D03*
D437*
X0447640Y0203915D03*
X0240091Y0203248D03*
D438*
X0240174Y0203414D03*
D439*
X0426618Y0203414D03*
D440*
X0447640Y0203414D03*
D441*
X0447640Y0204249D03*
X0240091Y0203581D03*
D442*
X0240091Y0203748D03*
X0447640Y0204415D03*
D443*
X0394251Y0202747D03*
X0385576Y0298347D03*
D444*
X0447557Y0204749D03*
X0447557Y0204582D03*
X0240174Y0203915D03*
D445*
X0240091Y0204082D03*
D446*
X0446806Y0205917D03*
X0447640Y0204082D03*
D447*
X0240091Y0204249D03*
D448*
X0240174Y0204582D03*
D449*
X0240174Y0204916D03*
D450*
X0447557Y0204916D03*
D451*
X0447390Y0205083D03*
X0240174Y0205083D03*
D452*
X0447307Y0205250D03*
D453*
X0240174Y0205416D03*
D454*
X0240174Y0205583D03*
D455*
X0258610Y0210088D03*
X0260111Y0205583D03*
D456*
X0240091Y0205750D03*
D457*
X0426785Y0205750D03*
D458*
X0446806Y0205750D03*
D459*
X0240174Y0205917D03*
D460*
X0240091Y0206251D03*
D461*
X0240341Y0206417D03*
D462*
X0426952Y0206417D03*
D463*
X0446222Y0206417D03*
D464*
X0240591Y0206584D03*
D465*
X0426952Y0206584D03*
X0426952Y0206918D03*
D466*
X0240925Y0206751D03*
D467*
X0426952Y0206751D03*
D468*
X0445888Y0206751D03*
D469*
X0241175Y0206918D03*
D470*
X0445638Y0206918D03*
D471*
X0241342Y0207085D03*
D472*
X0445054Y0207419D03*
D473*
X0444804Y0207585D03*
D474*
X0242510Y0207752D03*
D475*
X0242760Y0207919D03*
D476*
X0444303Y0207919D03*
D477*
X0243010Y0208086D03*
D478*
X0444053Y0208086D03*
D479*
X0243260Y0208253D03*
D480*
X0394335Y0207252D03*
D481*
X0443803Y0208253D03*
D482*
X0243511Y0208420D03*
D483*
X0243761Y0208586D03*
D484*
X0244095Y0208753D03*
D485*
X0319006Y0271819D03*
X0319006Y0272486D03*
X0319006Y0272653D03*
X0319006Y0272987D03*
X0319006Y0273321D03*
X0319006Y0273654D03*
X0319006Y0273988D03*
X0319006Y0274322D03*
X0319006Y0274488D03*
X0319006Y0275156D03*
X0427286Y0208753D03*
D486*
X0244345Y0208920D03*
D487*
X0244595Y0209087D03*
X0434794Y0211089D03*
D488*
X0442468Y0209087D03*
D489*
X0442134Y0209254D03*
X0433792Y0212257D03*
D490*
X0245179Y0209421D03*
D491*
X0245680Y0209754D03*
D492*
X0245930Y0209921D03*
D493*
X0246264Y0210088D03*
D494*
X0246764Y0210422D03*
D495*
X0439298Y0210422D03*
D496*
X0435377Y0210588D03*
D497*
X0383991Y0292007D03*
X0252520Y0212591D03*
X0247348Y0210755D03*
D498*
X0435211Y0210755D03*
D499*
X0435044Y0210922D03*
D500*
X0434710Y0211256D03*
D501*
X0248349Y0211423D03*
D502*
X0434376Y0211590D03*
D503*
X0251769Y0211756D03*
D504*
X0434209Y0211756D03*
D505*
X0251936Y0211923D03*
D506*
X0433542Y0212591D03*
D507*
X0252854Y0212924D03*
D508*
X0433209Y0213091D03*
D509*
X0253104Y0213258D03*
D510*
X0433125Y0213258D03*
D511*
X0253104Y0213425D03*
D512*
X0433125Y0213425D03*
D513*
X0253187Y0213592D03*
D514*
X0253271Y0213758D03*
D515*
X0253354Y0213925D03*
D516*
X0322888Y0265479D03*
D517*
X0322889Y0265646D03*
D518*
X0322888Y0265813D03*
D519*
X0322889Y0265980D03*
D520*
X0322889Y0266146D03*
D521*
X0325346Y0266313D03*
D522*
X0383156Y0291339D03*
D523*
X0383573Y0291673D03*
D524*
X0383824Y0291840D03*
D525*
X0385325Y0295677D03*
D526*
X0383907Y0297679D03*
D527*
X0385826Y0298013D03*
D528*
X0394168Y0304353D03*
X0394168Y0305020D03*
M02*
