G75*
%MOIN*%
%OFA0B0*%
%FSLAX25Y25*%
%IPPOS*%
%LPD*%
%AMOC8*
5,1,8,0,0,1.08239X$1,22.5*
%
%ADD10C,0.00000*%
%ADD11C,0.01969*%
%ADD12C,0.00394*%
%ADD13C,0.00600*%
%ADD14C,0.02929*%
%ADD15C,0.00213*%
%ADD16C,0.00862*%
%ADD17C,0.00626*%
%ADD18C,0.01335*%
%ADD19C,0.00512*%
%ADD20C,0.00500*%
%ADD21C,0.00921*%
%ADD22C,0.01098*%
%ADD23C,0.01807*%
%ADD24C,0.00248*%
%ADD25C,0.00992*%
%ADD26C,0.00462*%
%ADD27C,0.00685*%
%ADD28C,0.02874*%
%ADD29C,0.01453*%
%ADD30C,0.00449*%
%ADD31C,0.02362*%
%ADD32C,0.00236*%
%ADD33C,0.01748*%
%ADD34C,0.01496*%
%ADD35C,0.03933*%
D10*
X0188454Y0160635D02*
X0190860Y0159556D01*
X0193240Y0158420D01*
X0195593Y0157229D01*
X0197916Y0155982D01*
X0200209Y0154680D01*
X0202471Y0153324D01*
X0204700Y0151915D01*
X0206895Y0150453D01*
X0209054Y0148940D01*
X0211177Y0147376D01*
X0213263Y0145762D01*
X0215309Y0144100D01*
X0217316Y0142389D01*
X0219281Y0140631D01*
X0221205Y0138827D01*
X0223084Y0136978D01*
X0224920Y0135084D01*
X0226710Y0133148D01*
X0228454Y0131170D01*
X0230150Y0129151D01*
X0231798Y0127093D01*
X0233397Y0124995D01*
X0234945Y0122861D01*
X0236443Y0120691D01*
X0237888Y0118485D01*
X0237889Y0118486D02*
X0238900Y0116734D01*
X0238901Y0116734D02*
X0240068Y0114461D01*
X0241180Y0112160D01*
X0242237Y0109833D01*
X0243238Y0107482D01*
X0244183Y0105107D01*
X0245071Y0102711D01*
X0245901Y0100294D01*
X0246673Y0097858D01*
X0247386Y0095404D01*
X0248041Y0092934D01*
X0248637Y0090449D01*
X0249172Y0087950D01*
X0249648Y0085439D01*
X0250064Y0082918D01*
X0250420Y0080387D01*
X0250715Y0077848D01*
X0250949Y0075304D01*
X0251122Y0072754D01*
X0251234Y0070201D01*
X0251286Y0067646D01*
X0251276Y0065090D01*
X0251205Y0062536D01*
X0251073Y0059984D01*
X0250880Y0057435D01*
X0250626Y0054892D01*
X0250311Y0052356D01*
X0250310Y0052356D02*
X0250221Y0051912D01*
X0250143Y0051466D01*
X0250076Y0051018D01*
X0250019Y0050569D01*
X0249974Y0050118D01*
X0249940Y0049667D01*
X0249917Y0049214D01*
X0249905Y0048762D01*
X0249904Y0048309D01*
X0249914Y0047856D01*
X0249935Y0047403D01*
X0249968Y0046952D01*
X0250011Y0046501D01*
X0250066Y0046051D01*
X0250131Y0045603D01*
X0250208Y0045157D01*
X0250295Y0044712D01*
X0250393Y0044270D01*
X0250502Y0043830D01*
X0250622Y0043394D01*
X0250753Y0042960D01*
X0250894Y0042530D01*
X0251045Y0042103D01*
X0251207Y0041680D01*
X0251380Y0041261D01*
X0251562Y0040846D01*
X0251755Y0040437D01*
X0251957Y0040031D01*
X0252170Y0039632D01*
X0252392Y0039237D01*
X0252624Y0038848D01*
X0252865Y0038465D01*
X0253116Y0038087D01*
X0253376Y0037716D01*
X0253645Y0037352D01*
X0253922Y0036994D01*
X0254209Y0036643D01*
X0254504Y0036299D01*
X0254807Y0035963D01*
X0255118Y0035634D01*
X0255438Y0035313D01*
X0255765Y0035000D01*
X0256099Y0034694D01*
X0256442Y0034398D01*
X0256791Y0034109D01*
X0257147Y0033830D01*
X0257510Y0033559D01*
X0257880Y0033297D01*
X0258255Y0033044D01*
X0258637Y0032801D01*
X0259025Y0032567D01*
X0259418Y0032342D01*
X0259817Y0032127D01*
X0260221Y0031922D01*
X0260630Y0031727D01*
X0261043Y0031543D01*
X0261461Y0031368D01*
X0261883Y0031204D01*
X0262309Y0031050D01*
X0262739Y0030906D01*
X0263172Y0030773D01*
X0263608Y0030651D01*
X0264047Y0030539D01*
X0264488Y0030439D01*
X0264932Y0030349D01*
X0265378Y0030270D01*
X0265826Y0030202D01*
X0266275Y0030145D01*
X0266726Y0030099D01*
X0267178Y0030064D01*
X0267630Y0030040D01*
X0268083Y0030027D01*
X0268536Y0030026D01*
X0268988Y0030035D01*
X0269441Y0030056D01*
X0269893Y0030087D01*
X0270344Y0030130D01*
X0270793Y0030184D01*
X0271242Y0030249D01*
X0271688Y0030324D01*
X0272133Y0030411D01*
X0272575Y0030509D01*
X0273015Y0030617D01*
X0273452Y0030736D01*
X0273886Y0030866D01*
X0274316Y0031006D01*
X0274743Y0031157D01*
X0275166Y0031318D01*
X0275586Y0031490D01*
X0276000Y0031672D01*
X0276411Y0031864D01*
X0276816Y0032066D01*
X0277216Y0032278D01*
X0277611Y0032499D01*
X0278001Y0032730D01*
X0278384Y0032971D01*
X0278762Y0033221D01*
X0279134Y0033480D01*
X0279498Y0033749D01*
X0279857Y0034026D01*
X0280208Y0034312D01*
X0280552Y0034606D01*
X0280889Y0034909D01*
X0281219Y0035219D01*
X0330537Y0055779D02*
X0330658Y0055799D01*
X0330779Y0055824D01*
X0330899Y0055852D01*
X0331018Y0055884D01*
X0331136Y0055919D01*
X0331253Y0055959D01*
X0331368Y0056002D01*
X0331482Y0056048D01*
X0331595Y0056098D01*
X0331706Y0056152D01*
X0331815Y0056209D01*
X0331922Y0056269D01*
X0332028Y0056333D01*
X0332131Y0056400D01*
X0332233Y0056470D01*
X0332332Y0056543D01*
X0332428Y0056620D01*
X0332523Y0056699D01*
X0332614Y0056782D01*
X0332703Y0056867D01*
X0332790Y0056955D01*
X0332873Y0057045D01*
X0332954Y0057138D01*
X0333032Y0057234D01*
X0333107Y0057332D01*
X0333178Y0057432D01*
X0333247Y0057535D01*
X0333312Y0057639D01*
X0333374Y0057746D01*
X0333432Y0057854D01*
X0333487Y0057964D01*
X0333539Y0058076D01*
X0333587Y0058190D01*
X0333632Y0058305D01*
X0333673Y0058421D01*
X0333710Y0058538D01*
X0333743Y0058657D01*
X0333773Y0058777D01*
X0333799Y0058897D01*
X0333799Y0058898D02*
X0333849Y0059133D01*
X0333905Y0059368D01*
X0333966Y0059601D01*
X0334034Y0059832D01*
X0334107Y0060062D01*
X0334185Y0060289D01*
X0334269Y0060515D01*
X0334359Y0060739D01*
X0334454Y0060960D01*
X0334555Y0061179D01*
X0334660Y0061395D01*
X0334772Y0061609D01*
X0334888Y0061820D01*
X0335009Y0062028D01*
X0335136Y0062233D01*
X0335267Y0062435D01*
X0335403Y0062634D01*
X0335545Y0062829D01*
X0335691Y0063021D01*
X0335841Y0063209D01*
X0335996Y0063393D01*
X0336156Y0063574D01*
X0336320Y0063751D01*
X0336488Y0063923D01*
X0336660Y0064091D01*
X0336837Y0064255D01*
X0337017Y0064415D01*
X0337201Y0064570D01*
X0337389Y0064721D01*
X0337581Y0064867D01*
X0337776Y0065008D01*
X0337975Y0065145D01*
X0338177Y0065276D01*
X0338382Y0065403D01*
X0338590Y0065524D01*
X0338801Y0065641D01*
X0339014Y0065752D01*
X0339231Y0065858D01*
X0339450Y0065958D01*
X0339671Y0066054D01*
X0339895Y0066143D01*
X0340120Y0066228D01*
X0340348Y0066306D01*
X0340578Y0066380D01*
X0340809Y0066447D01*
X0341042Y0066509D01*
X0341276Y0066565D01*
X0341512Y0066615D01*
X0341748Y0066660D01*
X0341986Y0066699D01*
X0342225Y0066731D01*
X0342464Y0066759D01*
X0342704Y0066780D01*
X0342945Y0066795D01*
X0343185Y0066804D01*
X0343426Y0066808D01*
X0343667Y0066806D01*
X0343908Y0066797D01*
X0344149Y0066783D01*
X0344389Y0066763D01*
X0344628Y0066737D01*
X0344867Y0066705D01*
X0345105Y0066668D01*
X0345342Y0066624D01*
X0345578Y0066575D01*
X0345812Y0066520D01*
X0346046Y0066460D01*
X0346277Y0066393D01*
X0346507Y0066321D01*
X0346735Y0066244D01*
X0346961Y0066160D01*
X0347185Y0066072D01*
X0347407Y0065978D01*
X0347627Y0065878D01*
X0347843Y0065773D01*
X0348058Y0065663D01*
X0348269Y0065548D01*
X0348478Y0065427D01*
X0348683Y0065301D01*
X0348886Y0065171D01*
X0349085Y0065035D01*
X0349281Y0064895D01*
X0349473Y0064750D01*
X0349662Y0064600D01*
X0349847Y0064446D01*
X0350028Y0064287D01*
X0350205Y0064124D01*
X0350379Y0063956D01*
X0350548Y0063785D01*
X0350712Y0063609D01*
X0350873Y0063429D01*
X0351029Y0063246D01*
X0351180Y0063058D01*
X0351327Y0062867D01*
X0351469Y0062673D01*
X0351607Y0062475D01*
X0351739Y0062273D01*
X0351866Y0062069D01*
X0351989Y0061861D01*
X0352106Y0061651D01*
X0352218Y0061438D01*
X0352325Y0061222D01*
X0352427Y0061003D01*
X0352523Y0060782D01*
X0352613Y0060559D01*
X0352699Y0060334D01*
X0352778Y0060106D01*
X0352852Y0059877D01*
X0352921Y0059646D01*
X0352984Y0059413D01*
X0353041Y0059179D01*
X0353092Y0058944D01*
X0353091Y0058943D02*
X0353118Y0058823D01*
X0353148Y0058704D01*
X0353182Y0058586D01*
X0353220Y0058469D01*
X0353262Y0058353D01*
X0353307Y0058238D01*
X0353355Y0058125D01*
X0353407Y0058014D01*
X0353463Y0057904D01*
X0353522Y0057796D01*
X0353584Y0057690D01*
X0353650Y0057586D01*
X0353718Y0057483D01*
X0353790Y0057384D01*
X0353865Y0057286D01*
X0353943Y0057191D01*
X0354024Y0057098D01*
X0354108Y0057008D01*
X0354195Y0056921D01*
X0354284Y0056836D01*
X0354376Y0056754D01*
X0354470Y0056675D01*
X0354567Y0056599D01*
X0354666Y0056527D01*
X0354768Y0056457D01*
X0354871Y0056390D01*
X0354977Y0056327D01*
X0355084Y0056267D01*
X0355194Y0056210D01*
X0355305Y0056157D01*
X0355417Y0056108D01*
X0355531Y0056062D01*
X0355647Y0056019D01*
X0355764Y0055980D01*
X0355882Y0055945D01*
X0356001Y0055914D01*
X0356120Y0055886D01*
X0356241Y0055862D01*
X0356362Y0055842D01*
X0405920Y0034649D02*
X0406260Y0034350D01*
X0406607Y0034059D01*
X0406961Y0033777D01*
X0407322Y0033503D01*
X0407690Y0033239D01*
X0408064Y0032983D01*
X0408444Y0032737D01*
X0408830Y0032500D01*
X0409222Y0032273D01*
X0409619Y0032055D01*
X0410022Y0031848D01*
X0410429Y0031650D01*
X0410841Y0031462D01*
X0411258Y0031284D01*
X0411679Y0031117D01*
X0412104Y0030960D01*
X0412532Y0030814D01*
X0412964Y0030678D01*
X0413399Y0030552D01*
X0413838Y0030438D01*
X0414278Y0030334D01*
X0414722Y0030241D01*
X0415167Y0030159D01*
X0415614Y0030087D01*
X0416063Y0030027D01*
X0416514Y0029978D01*
X0416965Y0029940D01*
X0417417Y0029913D01*
X0417870Y0029897D01*
X0418322Y0029892D01*
X0418775Y0029898D01*
X0419228Y0029916D01*
X0419680Y0029944D01*
X0420131Y0029984D01*
X0420581Y0030034D01*
X0421030Y0030096D01*
X0421477Y0030168D01*
X0421922Y0030252D01*
X0422365Y0030346D01*
X0422806Y0030451D01*
X0423243Y0030567D01*
X0423678Y0030694D01*
X0424110Y0030831D01*
X0424538Y0030979D01*
X0424962Y0031138D01*
X0425383Y0031306D01*
X0425799Y0031485D01*
X0426210Y0031674D01*
X0426617Y0031873D01*
X0427019Y0032082D01*
X0427416Y0032301D01*
X0427807Y0032530D01*
X0428192Y0032768D01*
X0428571Y0033015D01*
X0428945Y0033271D01*
X0429311Y0033537D01*
X0429672Y0033812D01*
X0430025Y0034095D01*
X0430371Y0034387D01*
X0430710Y0034687D01*
X0431042Y0034996D01*
X0431366Y0035312D01*
X0431682Y0035637D01*
X0431990Y0035969D01*
X0432290Y0036308D01*
X0432581Y0036655D01*
X0432864Y0037009D01*
X0433138Y0037369D01*
X0433403Y0037737D01*
X0433659Y0038110D01*
X0433906Y0038490D01*
X0434143Y0038876D01*
X0434371Y0039267D01*
X0434589Y0039664D01*
X0434798Y0040066D01*
X0434996Y0040473D01*
X0435185Y0040885D01*
X0435363Y0041301D01*
X0435531Y0041722D01*
X0435689Y0042147D01*
X0435836Y0042575D01*
X0435973Y0043007D01*
X0436099Y0043442D01*
X0436214Y0043880D01*
X0436319Y0044320D01*
X0436413Y0044763D01*
X0436495Y0045209D01*
X0436567Y0045656D01*
X0436628Y0046105D01*
X0436678Y0046555D01*
X0436717Y0047006D01*
X0436745Y0047458D01*
X0436761Y0047911D01*
X0436767Y0048364D01*
X0436761Y0048817D01*
X0436745Y0049269D01*
X0436717Y0049721D01*
X0436678Y0050173D01*
X0436629Y0050623D01*
X0436568Y0051071D01*
X0436496Y0051519D01*
X0436413Y0051964D01*
X0436319Y0052407D01*
X0436215Y0052848D01*
X0330537Y0055779D02*
X0327875Y0055337D01*
X0325225Y0054831D01*
X0322589Y0054260D01*
X0319966Y0053626D01*
X0317360Y0052928D01*
X0314772Y0052168D01*
X0312202Y0051345D01*
X0309654Y0050459D01*
X0307128Y0049512D01*
X0304625Y0048505D01*
X0302148Y0047436D01*
X0299697Y0046308D01*
X0297274Y0045121D01*
X0294881Y0043876D01*
X0292519Y0042572D01*
X0290189Y0041212D01*
X0287893Y0039796D01*
X0285632Y0038324D01*
X0283407Y0036798D01*
X0281220Y0035219D01*
X0356363Y0055842D02*
X0358924Y0055425D01*
X0361473Y0054946D01*
X0364011Y0054406D01*
X0366535Y0053803D01*
X0369043Y0053140D01*
X0371534Y0052416D01*
X0374008Y0051632D01*
X0376461Y0050788D01*
X0378893Y0049885D01*
X0381303Y0048923D01*
X0383688Y0047903D01*
X0386048Y0046825D01*
X0388382Y0045690D01*
X0390687Y0044499D01*
X0392962Y0043253D01*
X0395206Y0041951D01*
X0397419Y0040596D01*
X0399597Y0039187D01*
X0401741Y0037725D01*
X0403849Y0036213D01*
X0405919Y0034649D01*
X0449012Y0118486D02*
X0450397Y0120633D01*
X0451833Y0122747D01*
X0453320Y0124826D01*
X0454855Y0126869D01*
X0456440Y0128874D01*
X0458071Y0130841D01*
X0459749Y0132768D01*
X0461473Y0134655D01*
X0463241Y0136500D01*
X0465053Y0138302D01*
X0466908Y0140060D01*
X0468804Y0141774D01*
X0470740Y0143441D01*
X0472716Y0145062D01*
X0474730Y0146636D01*
X0476781Y0148160D01*
X0478868Y0149635D01*
X0480989Y0151060D01*
X0483144Y0152434D01*
X0485331Y0153756D01*
X0487549Y0155025D01*
X0489797Y0156241D01*
X0492073Y0157402D01*
X0494377Y0158509D01*
X0496706Y0159561D01*
X0499059Y0160557D01*
X0499488Y0160701D01*
X0499914Y0160857D01*
X0500335Y0161022D01*
X0500753Y0161198D01*
X0501166Y0161384D01*
X0501574Y0161581D01*
X0501977Y0161787D01*
X0502375Y0162003D01*
X0502768Y0162228D01*
X0503155Y0162464D01*
X0503536Y0162708D01*
X0503911Y0162962D01*
X0504280Y0163225D01*
X0504642Y0163497D01*
X0504997Y0163778D01*
X0505346Y0164067D01*
X0505687Y0164365D01*
X0506021Y0164672D01*
X0506347Y0164986D01*
X0506665Y0165308D01*
X0506976Y0165638D01*
X0507278Y0165975D01*
X0507572Y0166320D01*
X0507857Y0166672D01*
X0508134Y0167030D01*
X0508401Y0167396D01*
X0508660Y0167767D01*
X0508910Y0168145D01*
X0509150Y0168529D01*
X0509380Y0168919D01*
X0509601Y0169314D01*
X0509813Y0169715D01*
X0510014Y0170121D01*
X0510205Y0170531D01*
X0510387Y0170946D01*
X0510558Y0171366D01*
X0510718Y0171789D01*
X0510869Y0172216D01*
X0511008Y0172647D01*
X0511137Y0173081D01*
X0511256Y0173519D01*
X0511364Y0173958D01*
X0511460Y0174401D01*
X0511547Y0174846D01*
X0511622Y0175292D01*
X0511686Y0175741D01*
X0511739Y0176190D01*
X0511781Y0176641D01*
X0511812Y0177093D01*
X0511832Y0177546D01*
X0511841Y0177999D01*
X0511838Y0178451D01*
X0511825Y0178904D01*
X0511800Y0179356D01*
X0511765Y0179808D01*
X0511718Y0180258D01*
X0511660Y0180708D01*
X0511592Y0181155D01*
X0511512Y0181601D01*
X0511422Y0182045D01*
X0511320Y0182486D01*
X0511208Y0182925D01*
X0511085Y0183361D01*
X0510952Y0183794D01*
X0510807Y0184223D01*
X0510653Y0184649D01*
X0510488Y0185071D01*
X0510313Y0185488D01*
X0510127Y0185902D01*
X0509932Y0186310D01*
X0509726Y0186714D01*
X0509511Y0187112D01*
X0509286Y0187505D01*
X0509051Y0187893D01*
X0508807Y0188274D01*
X0508554Y0188650D01*
X0508291Y0189019D01*
X0508020Y0189382D01*
X0507740Y0189737D01*
X0507451Y0190086D01*
X0507153Y0190428D01*
X0506848Y0190762D01*
X0506534Y0191089D01*
X0506213Y0191408D01*
X0505883Y0191719D01*
X0505546Y0192021D01*
X0505202Y0192316D01*
X0504851Y0192602D01*
X0504493Y0192879D01*
X0504128Y0193147D01*
X0503756Y0193406D01*
X0503379Y0193656D01*
X0502995Y0193897D01*
X0502606Y0194128D01*
X0502211Y0194350D01*
X0501810Y0194562D01*
X0501405Y0194764D01*
X0500995Y0194956D01*
X0500580Y0195138D01*
X0500161Y0195310D01*
X0499738Y0195471D01*
X0499311Y0195622D01*
X0498880Y0195762D01*
X0498446Y0195892D01*
X0449012Y0238042D02*
X0448000Y0239794D01*
X0364119Y0275902D02*
X0364119Y0279445D01*
X0364117Y0279511D01*
X0364112Y0279577D01*
X0364102Y0279643D01*
X0364089Y0279708D01*
X0364073Y0279772D01*
X0364053Y0279835D01*
X0364029Y0279897D01*
X0364002Y0279957D01*
X0363972Y0280016D01*
X0363938Y0280073D01*
X0363901Y0280128D01*
X0363861Y0280181D01*
X0363819Y0280232D01*
X0363773Y0280280D01*
X0363725Y0280326D01*
X0363674Y0280368D01*
X0363621Y0280408D01*
X0363566Y0280445D01*
X0363509Y0280479D01*
X0363450Y0280509D01*
X0363390Y0280536D01*
X0363328Y0280560D01*
X0363265Y0280580D01*
X0363201Y0280596D01*
X0363136Y0280609D01*
X0363070Y0280619D01*
X0363004Y0280624D01*
X0362938Y0280626D01*
X0362872Y0280624D01*
X0362806Y0280619D01*
X0362740Y0280609D01*
X0362675Y0280596D01*
X0362611Y0280580D01*
X0362548Y0280560D01*
X0362486Y0280536D01*
X0362426Y0280509D01*
X0362367Y0280479D01*
X0362310Y0280445D01*
X0362255Y0280408D01*
X0362202Y0280368D01*
X0362151Y0280326D01*
X0362103Y0280280D01*
X0362057Y0280232D01*
X0362015Y0280181D01*
X0361975Y0280128D01*
X0361938Y0280073D01*
X0361904Y0280016D01*
X0361874Y0279957D01*
X0361847Y0279897D01*
X0361823Y0279835D01*
X0361803Y0279772D01*
X0361787Y0279708D01*
X0361774Y0279643D01*
X0361764Y0279577D01*
X0361759Y0279511D01*
X0361757Y0279445D01*
X0361757Y0275902D01*
X0361759Y0275836D01*
X0361764Y0275770D01*
X0361774Y0275704D01*
X0361787Y0275639D01*
X0361803Y0275575D01*
X0361823Y0275512D01*
X0361847Y0275450D01*
X0361874Y0275390D01*
X0361904Y0275331D01*
X0361938Y0275274D01*
X0361975Y0275219D01*
X0362015Y0275166D01*
X0362057Y0275115D01*
X0362103Y0275067D01*
X0362151Y0275021D01*
X0362202Y0274979D01*
X0362255Y0274939D01*
X0362310Y0274902D01*
X0362367Y0274868D01*
X0362426Y0274838D01*
X0362486Y0274811D01*
X0362548Y0274787D01*
X0362611Y0274767D01*
X0362675Y0274751D01*
X0362740Y0274738D01*
X0362806Y0274728D01*
X0362872Y0274723D01*
X0362938Y0274721D01*
X0363004Y0274723D01*
X0363070Y0274728D01*
X0363136Y0274738D01*
X0363201Y0274751D01*
X0363265Y0274767D01*
X0363328Y0274787D01*
X0363390Y0274811D01*
X0363450Y0274838D01*
X0363509Y0274868D01*
X0363566Y0274902D01*
X0363621Y0274939D01*
X0363674Y0274979D01*
X0363725Y0275021D01*
X0363773Y0275067D01*
X0363819Y0275115D01*
X0363861Y0275166D01*
X0363901Y0275219D01*
X0363938Y0275274D01*
X0363972Y0275331D01*
X0364002Y0275390D01*
X0364029Y0275450D01*
X0364053Y0275512D01*
X0364073Y0275575D01*
X0364089Y0275639D01*
X0364102Y0275704D01*
X0364112Y0275770D01*
X0364117Y0275836D01*
X0364119Y0275902D01*
X0362938Y0274721D02*
X0362872Y0274723D01*
X0362806Y0274728D01*
X0362740Y0274738D01*
X0362675Y0274751D01*
X0362611Y0274767D01*
X0362548Y0274787D01*
X0362486Y0274811D01*
X0362426Y0274838D01*
X0362367Y0274868D01*
X0362310Y0274902D01*
X0362255Y0274939D01*
X0362202Y0274979D01*
X0362151Y0275021D01*
X0362103Y0275067D01*
X0362057Y0275115D01*
X0362015Y0275166D01*
X0361975Y0275219D01*
X0361938Y0275274D01*
X0361904Y0275331D01*
X0361874Y0275390D01*
X0361847Y0275450D01*
X0361823Y0275512D01*
X0361803Y0275575D01*
X0361787Y0275639D01*
X0361774Y0275704D01*
X0361764Y0275770D01*
X0361759Y0275836D01*
X0361757Y0275902D01*
X0362938Y0274721D02*
X0363004Y0274723D01*
X0363070Y0274728D01*
X0363136Y0274738D01*
X0363201Y0274751D01*
X0363265Y0274767D01*
X0363328Y0274787D01*
X0363390Y0274811D01*
X0363450Y0274838D01*
X0363509Y0274868D01*
X0363566Y0274902D01*
X0363621Y0274939D01*
X0363674Y0274979D01*
X0363725Y0275021D01*
X0363773Y0275067D01*
X0363819Y0275115D01*
X0363861Y0275166D01*
X0363901Y0275219D01*
X0363938Y0275274D01*
X0363972Y0275331D01*
X0364002Y0275390D01*
X0364029Y0275450D01*
X0364053Y0275512D01*
X0364073Y0275575D01*
X0364089Y0275639D01*
X0364102Y0275704D01*
X0364112Y0275770D01*
X0364117Y0275836D01*
X0364119Y0275902D01*
X0364119Y0279445D02*
X0364117Y0279511D01*
X0364112Y0279577D01*
X0364102Y0279643D01*
X0364089Y0279708D01*
X0364073Y0279772D01*
X0364053Y0279835D01*
X0364029Y0279897D01*
X0364002Y0279957D01*
X0363972Y0280016D01*
X0363938Y0280073D01*
X0363901Y0280128D01*
X0363861Y0280181D01*
X0363819Y0280232D01*
X0363773Y0280280D01*
X0363725Y0280326D01*
X0363674Y0280368D01*
X0363621Y0280408D01*
X0363566Y0280445D01*
X0363509Y0280479D01*
X0363450Y0280509D01*
X0363390Y0280536D01*
X0363328Y0280560D01*
X0363265Y0280580D01*
X0363201Y0280596D01*
X0363136Y0280609D01*
X0363070Y0280619D01*
X0363004Y0280624D01*
X0362938Y0280626D01*
X0362872Y0280624D01*
X0362806Y0280619D01*
X0362740Y0280609D01*
X0362675Y0280596D01*
X0362611Y0280580D01*
X0362548Y0280560D01*
X0362486Y0280536D01*
X0362426Y0280509D01*
X0362367Y0280479D01*
X0362310Y0280445D01*
X0362255Y0280408D01*
X0362202Y0280368D01*
X0362151Y0280326D01*
X0362103Y0280280D01*
X0362057Y0280232D01*
X0362015Y0280181D01*
X0361975Y0280128D01*
X0361938Y0280073D01*
X0361904Y0280016D01*
X0361874Y0279957D01*
X0361847Y0279897D01*
X0361823Y0279835D01*
X0361803Y0279772D01*
X0361787Y0279708D01*
X0361774Y0279643D01*
X0361764Y0279577D01*
X0361759Y0279511D01*
X0361757Y0279445D01*
X0359001Y0282398D02*
X0359001Y0301098D01*
X0359001Y0301100D02*
X0359001Y0301187D01*
X0361757Y0295783D02*
X0361757Y0291059D01*
X0361759Y0290993D01*
X0361764Y0290927D01*
X0361774Y0290861D01*
X0361787Y0290796D01*
X0361803Y0290732D01*
X0361823Y0290669D01*
X0361847Y0290607D01*
X0361874Y0290547D01*
X0361904Y0290488D01*
X0361938Y0290431D01*
X0361975Y0290376D01*
X0362015Y0290323D01*
X0362057Y0290272D01*
X0362103Y0290224D01*
X0362151Y0290178D01*
X0362202Y0290136D01*
X0362255Y0290096D01*
X0362310Y0290059D01*
X0362367Y0290025D01*
X0362426Y0289995D01*
X0362486Y0289968D01*
X0362548Y0289944D01*
X0362611Y0289924D01*
X0362675Y0289908D01*
X0362740Y0289895D01*
X0362806Y0289885D01*
X0362872Y0289880D01*
X0362938Y0289878D01*
X0363004Y0289880D01*
X0363070Y0289885D01*
X0363136Y0289895D01*
X0363201Y0289908D01*
X0363265Y0289924D01*
X0363328Y0289944D01*
X0363390Y0289968D01*
X0363450Y0289995D01*
X0363509Y0290025D01*
X0363566Y0290059D01*
X0363621Y0290096D01*
X0363674Y0290136D01*
X0363725Y0290178D01*
X0363773Y0290224D01*
X0363819Y0290272D01*
X0363861Y0290323D01*
X0363901Y0290376D01*
X0363938Y0290431D01*
X0363972Y0290488D01*
X0364002Y0290547D01*
X0364029Y0290607D01*
X0364053Y0290669D01*
X0364073Y0290732D01*
X0364089Y0290796D01*
X0364102Y0290861D01*
X0364112Y0290927D01*
X0364117Y0290993D01*
X0364119Y0291059D01*
X0364119Y0295783D01*
X0364117Y0295849D01*
X0364112Y0295915D01*
X0364102Y0295981D01*
X0364089Y0296046D01*
X0364073Y0296110D01*
X0364053Y0296173D01*
X0364029Y0296235D01*
X0364002Y0296295D01*
X0363972Y0296354D01*
X0363938Y0296411D01*
X0363901Y0296466D01*
X0363861Y0296519D01*
X0363819Y0296570D01*
X0363773Y0296618D01*
X0363725Y0296664D01*
X0363674Y0296706D01*
X0363621Y0296746D01*
X0363566Y0296783D01*
X0363509Y0296817D01*
X0363450Y0296847D01*
X0363390Y0296874D01*
X0363328Y0296898D01*
X0363265Y0296918D01*
X0363201Y0296934D01*
X0363136Y0296947D01*
X0363070Y0296957D01*
X0363004Y0296962D01*
X0362938Y0296964D01*
X0362872Y0296962D01*
X0362806Y0296957D01*
X0362740Y0296947D01*
X0362675Y0296934D01*
X0362611Y0296918D01*
X0362548Y0296898D01*
X0362486Y0296874D01*
X0362426Y0296847D01*
X0362367Y0296817D01*
X0362310Y0296783D01*
X0362255Y0296746D01*
X0362202Y0296706D01*
X0362151Y0296664D01*
X0362103Y0296618D01*
X0362057Y0296570D01*
X0362015Y0296519D01*
X0361975Y0296466D01*
X0361938Y0296411D01*
X0361904Y0296354D01*
X0361874Y0296295D01*
X0361847Y0296235D01*
X0361823Y0296173D01*
X0361803Y0296110D01*
X0361787Y0296046D01*
X0361774Y0295981D01*
X0361764Y0295915D01*
X0361759Y0295849D01*
X0361757Y0295783D01*
X0362938Y0296964D02*
X0363004Y0296962D01*
X0363070Y0296957D01*
X0363136Y0296947D01*
X0363201Y0296934D01*
X0363265Y0296918D01*
X0363328Y0296898D01*
X0363390Y0296874D01*
X0363450Y0296847D01*
X0363509Y0296817D01*
X0363566Y0296783D01*
X0363621Y0296746D01*
X0363674Y0296706D01*
X0363725Y0296664D01*
X0363773Y0296618D01*
X0363819Y0296570D01*
X0363861Y0296519D01*
X0363901Y0296466D01*
X0363938Y0296411D01*
X0363972Y0296354D01*
X0364002Y0296295D01*
X0364029Y0296235D01*
X0364053Y0296173D01*
X0364073Y0296110D01*
X0364089Y0296046D01*
X0364102Y0295981D01*
X0364112Y0295915D01*
X0364117Y0295849D01*
X0364119Y0295783D01*
X0362938Y0296964D02*
X0362872Y0296962D01*
X0362806Y0296957D01*
X0362740Y0296947D01*
X0362675Y0296934D01*
X0362611Y0296918D01*
X0362548Y0296898D01*
X0362486Y0296874D01*
X0362426Y0296847D01*
X0362367Y0296817D01*
X0362310Y0296783D01*
X0362255Y0296746D01*
X0362202Y0296706D01*
X0362151Y0296664D01*
X0362103Y0296618D01*
X0362057Y0296570D01*
X0362015Y0296519D01*
X0361975Y0296466D01*
X0361938Y0296411D01*
X0361904Y0296354D01*
X0361874Y0296295D01*
X0361847Y0296235D01*
X0361823Y0296173D01*
X0361803Y0296110D01*
X0361787Y0296046D01*
X0361774Y0295981D01*
X0361764Y0295915D01*
X0361759Y0295849D01*
X0361757Y0295783D01*
X0361757Y0291059D02*
X0361759Y0290993D01*
X0361764Y0290927D01*
X0361774Y0290861D01*
X0361787Y0290796D01*
X0361803Y0290732D01*
X0361823Y0290669D01*
X0361847Y0290607D01*
X0361874Y0290547D01*
X0361904Y0290488D01*
X0361938Y0290431D01*
X0361975Y0290376D01*
X0362015Y0290323D01*
X0362057Y0290272D01*
X0362103Y0290224D01*
X0362151Y0290178D01*
X0362202Y0290136D01*
X0362255Y0290096D01*
X0362310Y0290059D01*
X0362367Y0290025D01*
X0362426Y0289995D01*
X0362486Y0289968D01*
X0362548Y0289944D01*
X0362611Y0289924D01*
X0362675Y0289908D01*
X0362740Y0289895D01*
X0362806Y0289885D01*
X0362872Y0289880D01*
X0362938Y0289878D01*
X0363004Y0289880D01*
X0363070Y0289885D01*
X0363136Y0289895D01*
X0363201Y0289908D01*
X0363265Y0289924D01*
X0363328Y0289944D01*
X0363390Y0289968D01*
X0363450Y0289995D01*
X0363509Y0290025D01*
X0363566Y0290059D01*
X0363621Y0290096D01*
X0363674Y0290136D01*
X0363725Y0290178D01*
X0363773Y0290224D01*
X0363819Y0290272D01*
X0363861Y0290323D01*
X0363901Y0290376D01*
X0363938Y0290431D01*
X0363972Y0290488D01*
X0364002Y0290547D01*
X0364029Y0290607D01*
X0364053Y0290669D01*
X0364073Y0290732D01*
X0364089Y0290796D01*
X0364102Y0290861D01*
X0364112Y0290927D01*
X0364117Y0290993D01*
X0364119Y0291059D01*
X0359002Y0282398D02*
X0359000Y0282288D01*
X0358994Y0282178D01*
X0358985Y0282069D01*
X0358971Y0281960D01*
X0358954Y0281851D01*
X0358933Y0281743D01*
X0358908Y0281636D01*
X0358880Y0281530D01*
X0358848Y0281425D01*
X0358812Y0281321D01*
X0358773Y0281218D01*
X0358730Y0281117D01*
X0358683Y0281017D01*
X0358633Y0280919D01*
X0358580Y0280823D01*
X0358523Y0280729D01*
X0358463Y0280637D01*
X0358400Y0280546D01*
X0358334Y0280459D01*
X0358265Y0280373D01*
X0358193Y0280290D01*
X0358118Y0280210D01*
X0358040Y0280132D01*
X0357960Y0280057D01*
X0357877Y0279985D01*
X0357791Y0279916D01*
X0357704Y0279850D01*
X0357613Y0279787D01*
X0357521Y0279727D01*
X0357427Y0279670D01*
X0357331Y0279617D01*
X0357233Y0279567D01*
X0357133Y0279520D01*
X0357032Y0279477D01*
X0356929Y0279438D01*
X0356825Y0279402D01*
X0356720Y0279370D01*
X0356614Y0279342D01*
X0356507Y0279317D01*
X0356399Y0279296D01*
X0356290Y0279279D01*
X0356181Y0279265D01*
X0356072Y0279256D01*
X0355962Y0279250D01*
X0355852Y0279248D01*
X0331049Y0279248D01*
X0355852Y0279248D01*
X0355962Y0279250D01*
X0356072Y0279256D01*
X0356181Y0279265D01*
X0356290Y0279279D01*
X0356399Y0279296D01*
X0356507Y0279317D01*
X0356614Y0279342D01*
X0356720Y0279370D01*
X0356825Y0279402D01*
X0356929Y0279438D01*
X0357032Y0279477D01*
X0357133Y0279520D01*
X0357233Y0279567D01*
X0357331Y0279617D01*
X0357427Y0279670D01*
X0357521Y0279727D01*
X0357613Y0279787D01*
X0357704Y0279850D01*
X0357791Y0279916D01*
X0357877Y0279985D01*
X0357960Y0280057D01*
X0358040Y0280132D01*
X0358118Y0280210D01*
X0358193Y0280290D01*
X0358265Y0280373D01*
X0358334Y0280459D01*
X0358400Y0280546D01*
X0358463Y0280637D01*
X0358523Y0280729D01*
X0358580Y0280823D01*
X0358633Y0280919D01*
X0358683Y0281017D01*
X0358730Y0281117D01*
X0358773Y0281218D01*
X0358812Y0281321D01*
X0358848Y0281425D01*
X0358880Y0281530D01*
X0358908Y0281636D01*
X0358933Y0281743D01*
X0358954Y0281851D01*
X0358971Y0281960D01*
X0358985Y0282069D01*
X0358994Y0282178D01*
X0359000Y0282288D01*
X0359002Y0282398D01*
X0331049Y0279248D02*
X0330939Y0279250D01*
X0330829Y0279256D01*
X0330720Y0279265D01*
X0330611Y0279279D01*
X0330502Y0279296D01*
X0330394Y0279317D01*
X0330287Y0279342D01*
X0330181Y0279370D01*
X0330076Y0279402D01*
X0329972Y0279438D01*
X0329869Y0279477D01*
X0329768Y0279520D01*
X0329668Y0279567D01*
X0329570Y0279617D01*
X0329474Y0279670D01*
X0329380Y0279727D01*
X0329288Y0279787D01*
X0329197Y0279850D01*
X0329110Y0279916D01*
X0329024Y0279985D01*
X0328941Y0280057D01*
X0328861Y0280132D01*
X0328783Y0280210D01*
X0328708Y0280290D01*
X0328636Y0280373D01*
X0328567Y0280459D01*
X0328501Y0280546D01*
X0328438Y0280637D01*
X0328378Y0280729D01*
X0328321Y0280823D01*
X0328268Y0280919D01*
X0328218Y0281017D01*
X0328171Y0281117D01*
X0328128Y0281218D01*
X0328089Y0281321D01*
X0328053Y0281425D01*
X0328021Y0281530D01*
X0327993Y0281636D01*
X0327968Y0281743D01*
X0327947Y0281851D01*
X0327930Y0281960D01*
X0327916Y0282069D01*
X0327907Y0282178D01*
X0327901Y0282288D01*
X0327899Y0282398D01*
X0327899Y0301098D01*
X0327899Y0301114D01*
X0327899Y0301118D02*
X0327899Y0282398D01*
X0327901Y0282288D01*
X0327907Y0282178D01*
X0327916Y0282069D01*
X0327930Y0281960D01*
X0327947Y0281851D01*
X0327968Y0281743D01*
X0327993Y0281636D01*
X0328021Y0281530D01*
X0328053Y0281425D01*
X0328089Y0281321D01*
X0328128Y0281218D01*
X0328171Y0281117D01*
X0328218Y0281017D01*
X0328268Y0280919D01*
X0328321Y0280823D01*
X0328378Y0280729D01*
X0328438Y0280637D01*
X0328501Y0280546D01*
X0328567Y0280459D01*
X0328636Y0280373D01*
X0328708Y0280290D01*
X0328783Y0280210D01*
X0328861Y0280132D01*
X0328941Y0280057D01*
X0329024Y0279985D01*
X0329110Y0279916D01*
X0329197Y0279850D01*
X0329288Y0279787D01*
X0329380Y0279727D01*
X0329474Y0279670D01*
X0329570Y0279617D01*
X0329668Y0279567D01*
X0329768Y0279520D01*
X0329869Y0279477D01*
X0329972Y0279438D01*
X0330076Y0279402D01*
X0330181Y0279370D01*
X0330287Y0279342D01*
X0330394Y0279317D01*
X0330502Y0279296D01*
X0330611Y0279279D01*
X0330720Y0279265D01*
X0330829Y0279256D01*
X0330939Y0279250D01*
X0331049Y0279248D01*
X0325143Y0279445D02*
X0325143Y0275902D01*
X0323962Y0274721D02*
X0323896Y0274723D01*
X0323830Y0274728D01*
X0323764Y0274738D01*
X0323699Y0274751D01*
X0323635Y0274767D01*
X0323572Y0274787D01*
X0323510Y0274811D01*
X0323450Y0274838D01*
X0323391Y0274868D01*
X0323334Y0274902D01*
X0323279Y0274939D01*
X0323226Y0274979D01*
X0323175Y0275021D01*
X0323127Y0275067D01*
X0323081Y0275115D01*
X0323039Y0275166D01*
X0322999Y0275219D01*
X0322962Y0275274D01*
X0322928Y0275331D01*
X0322898Y0275390D01*
X0322871Y0275450D01*
X0322847Y0275512D01*
X0322827Y0275575D01*
X0322811Y0275639D01*
X0322798Y0275704D01*
X0322788Y0275770D01*
X0322783Y0275836D01*
X0322781Y0275902D01*
X0322781Y0279445D01*
X0323962Y0280626D02*
X0324028Y0280624D01*
X0324094Y0280619D01*
X0324160Y0280609D01*
X0324225Y0280596D01*
X0324289Y0280580D01*
X0324352Y0280560D01*
X0324414Y0280536D01*
X0324474Y0280509D01*
X0324533Y0280479D01*
X0324590Y0280445D01*
X0324645Y0280408D01*
X0324698Y0280368D01*
X0324749Y0280326D01*
X0324797Y0280280D01*
X0324843Y0280232D01*
X0324885Y0280181D01*
X0324925Y0280128D01*
X0324962Y0280073D01*
X0324996Y0280016D01*
X0325026Y0279957D01*
X0325053Y0279897D01*
X0325077Y0279835D01*
X0325097Y0279772D01*
X0325113Y0279708D01*
X0325126Y0279643D01*
X0325136Y0279577D01*
X0325141Y0279511D01*
X0325143Y0279445D01*
X0323962Y0280626D02*
X0323896Y0280624D01*
X0323830Y0280619D01*
X0323764Y0280609D01*
X0323699Y0280596D01*
X0323635Y0280580D01*
X0323572Y0280560D01*
X0323510Y0280536D01*
X0323450Y0280509D01*
X0323391Y0280479D01*
X0323334Y0280445D01*
X0323279Y0280408D01*
X0323226Y0280368D01*
X0323175Y0280326D01*
X0323127Y0280280D01*
X0323081Y0280232D01*
X0323039Y0280181D01*
X0322999Y0280128D01*
X0322962Y0280073D01*
X0322928Y0280016D01*
X0322898Y0279957D01*
X0322871Y0279897D01*
X0322847Y0279835D01*
X0322827Y0279772D01*
X0322811Y0279708D01*
X0322798Y0279643D01*
X0322788Y0279577D01*
X0322783Y0279511D01*
X0322781Y0279445D01*
X0323962Y0280626D02*
X0324028Y0280624D01*
X0324094Y0280619D01*
X0324160Y0280609D01*
X0324225Y0280596D01*
X0324289Y0280580D01*
X0324352Y0280560D01*
X0324414Y0280536D01*
X0324474Y0280509D01*
X0324533Y0280479D01*
X0324590Y0280445D01*
X0324645Y0280408D01*
X0324698Y0280368D01*
X0324749Y0280326D01*
X0324797Y0280280D01*
X0324843Y0280232D01*
X0324885Y0280181D01*
X0324925Y0280128D01*
X0324962Y0280073D01*
X0324996Y0280016D01*
X0325026Y0279957D01*
X0325053Y0279897D01*
X0325077Y0279835D01*
X0325097Y0279772D01*
X0325113Y0279708D01*
X0325126Y0279643D01*
X0325136Y0279577D01*
X0325141Y0279511D01*
X0325143Y0279445D01*
X0323962Y0280626D02*
X0323896Y0280624D01*
X0323830Y0280619D01*
X0323764Y0280609D01*
X0323699Y0280596D01*
X0323635Y0280580D01*
X0323572Y0280560D01*
X0323510Y0280536D01*
X0323450Y0280509D01*
X0323391Y0280479D01*
X0323334Y0280445D01*
X0323279Y0280408D01*
X0323226Y0280368D01*
X0323175Y0280326D01*
X0323127Y0280280D01*
X0323081Y0280232D01*
X0323039Y0280181D01*
X0322999Y0280128D01*
X0322962Y0280073D01*
X0322928Y0280016D01*
X0322898Y0279957D01*
X0322871Y0279897D01*
X0322847Y0279835D01*
X0322827Y0279772D01*
X0322811Y0279708D01*
X0322798Y0279643D01*
X0322788Y0279577D01*
X0322783Y0279511D01*
X0322781Y0279445D01*
X0325143Y0275902D02*
X0325141Y0275836D01*
X0325136Y0275770D01*
X0325126Y0275704D01*
X0325113Y0275639D01*
X0325097Y0275575D01*
X0325077Y0275512D01*
X0325053Y0275450D01*
X0325026Y0275390D01*
X0324996Y0275331D01*
X0324962Y0275274D01*
X0324925Y0275219D01*
X0324885Y0275166D01*
X0324843Y0275115D01*
X0324797Y0275067D01*
X0324749Y0275021D01*
X0324698Y0274979D01*
X0324645Y0274939D01*
X0324590Y0274902D01*
X0324533Y0274868D01*
X0324474Y0274838D01*
X0324414Y0274811D01*
X0324352Y0274787D01*
X0324289Y0274767D01*
X0324225Y0274751D01*
X0324160Y0274738D01*
X0324094Y0274728D01*
X0324028Y0274723D01*
X0323962Y0274721D01*
X0323896Y0274723D01*
X0323830Y0274728D01*
X0323764Y0274738D01*
X0323699Y0274751D01*
X0323635Y0274767D01*
X0323572Y0274787D01*
X0323510Y0274811D01*
X0323450Y0274838D01*
X0323391Y0274868D01*
X0323334Y0274902D01*
X0323279Y0274939D01*
X0323226Y0274979D01*
X0323175Y0275021D01*
X0323127Y0275067D01*
X0323081Y0275115D01*
X0323039Y0275166D01*
X0322999Y0275219D01*
X0322962Y0275274D01*
X0322928Y0275331D01*
X0322898Y0275390D01*
X0322871Y0275450D01*
X0322847Y0275512D01*
X0322827Y0275575D01*
X0322811Y0275639D01*
X0322798Y0275704D01*
X0322788Y0275770D01*
X0322783Y0275836D01*
X0322781Y0275902D01*
X0323962Y0274721D02*
X0324028Y0274723D01*
X0324094Y0274728D01*
X0324160Y0274738D01*
X0324225Y0274751D01*
X0324289Y0274767D01*
X0324352Y0274787D01*
X0324414Y0274811D01*
X0324474Y0274838D01*
X0324533Y0274868D01*
X0324590Y0274902D01*
X0324645Y0274939D01*
X0324698Y0274979D01*
X0324749Y0275021D01*
X0324797Y0275067D01*
X0324843Y0275115D01*
X0324885Y0275166D01*
X0324925Y0275219D01*
X0324962Y0275274D01*
X0324996Y0275331D01*
X0325026Y0275390D01*
X0325053Y0275450D01*
X0325077Y0275512D01*
X0325097Y0275575D01*
X0325113Y0275639D01*
X0325126Y0275704D01*
X0325136Y0275770D01*
X0325141Y0275836D01*
X0325143Y0275902D01*
X0325143Y0291059D02*
X0325143Y0295783D01*
X0325141Y0295849D01*
X0325136Y0295915D01*
X0325126Y0295981D01*
X0325113Y0296046D01*
X0325097Y0296110D01*
X0325077Y0296173D01*
X0325053Y0296235D01*
X0325026Y0296295D01*
X0324996Y0296354D01*
X0324962Y0296411D01*
X0324925Y0296466D01*
X0324885Y0296519D01*
X0324843Y0296570D01*
X0324797Y0296618D01*
X0324749Y0296664D01*
X0324698Y0296706D01*
X0324645Y0296746D01*
X0324590Y0296783D01*
X0324533Y0296817D01*
X0324474Y0296847D01*
X0324414Y0296874D01*
X0324352Y0296898D01*
X0324289Y0296918D01*
X0324225Y0296934D01*
X0324160Y0296947D01*
X0324094Y0296957D01*
X0324028Y0296962D01*
X0323962Y0296964D01*
X0323896Y0296962D01*
X0323830Y0296957D01*
X0323764Y0296947D01*
X0323699Y0296934D01*
X0323635Y0296918D01*
X0323572Y0296898D01*
X0323510Y0296874D01*
X0323450Y0296847D01*
X0323391Y0296817D01*
X0323334Y0296783D01*
X0323279Y0296746D01*
X0323226Y0296706D01*
X0323175Y0296664D01*
X0323127Y0296618D01*
X0323081Y0296570D01*
X0323039Y0296519D01*
X0322999Y0296466D01*
X0322962Y0296411D01*
X0322928Y0296354D01*
X0322898Y0296295D01*
X0322871Y0296235D01*
X0322847Y0296173D01*
X0322827Y0296110D01*
X0322811Y0296046D01*
X0322798Y0295981D01*
X0322788Y0295915D01*
X0322783Y0295849D01*
X0322781Y0295783D01*
X0322781Y0291059D01*
X0322783Y0290993D01*
X0322788Y0290927D01*
X0322798Y0290861D01*
X0322811Y0290796D01*
X0322827Y0290732D01*
X0322847Y0290669D01*
X0322871Y0290607D01*
X0322898Y0290547D01*
X0322928Y0290488D01*
X0322962Y0290431D01*
X0322999Y0290376D01*
X0323039Y0290323D01*
X0323081Y0290272D01*
X0323127Y0290224D01*
X0323175Y0290178D01*
X0323226Y0290136D01*
X0323279Y0290096D01*
X0323334Y0290059D01*
X0323391Y0290025D01*
X0323450Y0289995D01*
X0323510Y0289968D01*
X0323572Y0289944D01*
X0323635Y0289924D01*
X0323699Y0289908D01*
X0323764Y0289895D01*
X0323830Y0289885D01*
X0323896Y0289880D01*
X0323962Y0289878D01*
X0324028Y0289880D01*
X0324094Y0289885D01*
X0324160Y0289895D01*
X0324225Y0289908D01*
X0324289Y0289924D01*
X0324352Y0289944D01*
X0324414Y0289968D01*
X0324474Y0289995D01*
X0324533Y0290025D01*
X0324590Y0290059D01*
X0324645Y0290096D01*
X0324698Y0290136D01*
X0324749Y0290178D01*
X0324797Y0290224D01*
X0324843Y0290272D01*
X0324885Y0290323D01*
X0324925Y0290376D01*
X0324962Y0290431D01*
X0324996Y0290488D01*
X0325026Y0290547D01*
X0325053Y0290607D01*
X0325077Y0290669D01*
X0325097Y0290732D01*
X0325113Y0290796D01*
X0325126Y0290861D01*
X0325136Y0290927D01*
X0325141Y0290993D01*
X0325143Y0291059D01*
X0323962Y0289878D02*
X0323896Y0289880D01*
X0323830Y0289885D01*
X0323764Y0289895D01*
X0323699Y0289908D01*
X0323635Y0289924D01*
X0323572Y0289944D01*
X0323510Y0289968D01*
X0323450Y0289995D01*
X0323391Y0290025D01*
X0323334Y0290059D01*
X0323279Y0290096D01*
X0323226Y0290136D01*
X0323175Y0290178D01*
X0323127Y0290224D01*
X0323081Y0290272D01*
X0323039Y0290323D01*
X0322999Y0290376D01*
X0322962Y0290431D01*
X0322928Y0290488D01*
X0322898Y0290547D01*
X0322871Y0290607D01*
X0322847Y0290669D01*
X0322827Y0290732D01*
X0322811Y0290796D01*
X0322798Y0290861D01*
X0322788Y0290927D01*
X0322783Y0290993D01*
X0322781Y0291059D01*
X0323962Y0289878D02*
X0324028Y0289880D01*
X0324094Y0289885D01*
X0324160Y0289895D01*
X0324225Y0289908D01*
X0324289Y0289924D01*
X0324352Y0289944D01*
X0324414Y0289968D01*
X0324474Y0289995D01*
X0324533Y0290025D01*
X0324590Y0290059D01*
X0324645Y0290096D01*
X0324698Y0290136D01*
X0324749Y0290178D01*
X0324797Y0290224D01*
X0324843Y0290272D01*
X0324885Y0290323D01*
X0324925Y0290376D01*
X0324962Y0290431D01*
X0324996Y0290488D01*
X0325026Y0290547D01*
X0325053Y0290607D01*
X0325077Y0290669D01*
X0325097Y0290732D01*
X0325113Y0290796D01*
X0325126Y0290861D01*
X0325136Y0290927D01*
X0325141Y0290993D01*
X0325143Y0291059D01*
X0325143Y0295783D02*
X0325141Y0295849D01*
X0325136Y0295915D01*
X0325126Y0295981D01*
X0325113Y0296046D01*
X0325097Y0296110D01*
X0325077Y0296173D01*
X0325053Y0296235D01*
X0325026Y0296295D01*
X0324996Y0296354D01*
X0324962Y0296411D01*
X0324925Y0296466D01*
X0324885Y0296519D01*
X0324843Y0296570D01*
X0324797Y0296618D01*
X0324749Y0296664D01*
X0324698Y0296706D01*
X0324645Y0296746D01*
X0324590Y0296783D01*
X0324533Y0296817D01*
X0324474Y0296847D01*
X0324414Y0296874D01*
X0324352Y0296898D01*
X0324289Y0296918D01*
X0324225Y0296934D01*
X0324160Y0296947D01*
X0324094Y0296957D01*
X0324028Y0296962D01*
X0323962Y0296964D01*
X0323896Y0296962D01*
X0323830Y0296957D01*
X0323764Y0296947D01*
X0323699Y0296934D01*
X0323635Y0296918D01*
X0323572Y0296898D01*
X0323510Y0296874D01*
X0323450Y0296847D01*
X0323391Y0296817D01*
X0323334Y0296783D01*
X0323279Y0296746D01*
X0323226Y0296706D01*
X0323175Y0296664D01*
X0323127Y0296618D01*
X0323081Y0296570D01*
X0323039Y0296519D01*
X0322999Y0296466D01*
X0322962Y0296411D01*
X0322928Y0296354D01*
X0322898Y0296295D01*
X0322871Y0296235D01*
X0322847Y0296173D01*
X0322827Y0296110D01*
X0322811Y0296046D01*
X0322798Y0295981D01*
X0322788Y0295915D01*
X0322783Y0295849D01*
X0322781Y0295783D01*
X0280981Y0321879D02*
X0280641Y0322178D01*
X0280294Y0322469D01*
X0279940Y0322751D01*
X0279579Y0323025D01*
X0279211Y0323289D01*
X0278837Y0323545D01*
X0278457Y0323791D01*
X0278071Y0324028D01*
X0277679Y0324255D01*
X0277282Y0324473D01*
X0276879Y0324680D01*
X0276472Y0324878D01*
X0276060Y0325066D01*
X0275643Y0325244D01*
X0275222Y0325411D01*
X0274797Y0325568D01*
X0274369Y0325714D01*
X0273937Y0325850D01*
X0273502Y0325976D01*
X0273063Y0326090D01*
X0272623Y0326194D01*
X0272179Y0326287D01*
X0271734Y0326369D01*
X0271287Y0326441D01*
X0270838Y0326501D01*
X0270387Y0326550D01*
X0269936Y0326588D01*
X0269484Y0326615D01*
X0269031Y0326631D01*
X0268579Y0326636D01*
X0268126Y0326630D01*
X0267673Y0326612D01*
X0267221Y0326584D01*
X0266770Y0326544D01*
X0266320Y0326494D01*
X0265871Y0326432D01*
X0265424Y0326360D01*
X0264979Y0326276D01*
X0264536Y0326182D01*
X0264095Y0326077D01*
X0263658Y0325961D01*
X0263223Y0325834D01*
X0262791Y0325697D01*
X0262363Y0325549D01*
X0261939Y0325390D01*
X0261518Y0325222D01*
X0261102Y0325043D01*
X0260691Y0324854D01*
X0260284Y0324655D01*
X0259882Y0324446D01*
X0259485Y0324227D01*
X0259094Y0323998D01*
X0258709Y0323760D01*
X0258330Y0323513D01*
X0257956Y0323257D01*
X0257590Y0322991D01*
X0257229Y0322716D01*
X0256876Y0322433D01*
X0256530Y0322141D01*
X0256191Y0321841D01*
X0255859Y0321532D01*
X0255535Y0321216D01*
X0255219Y0320891D01*
X0254911Y0320559D01*
X0254611Y0320220D01*
X0254320Y0319873D01*
X0254037Y0319519D01*
X0253763Y0319159D01*
X0253498Y0318791D01*
X0253242Y0318418D01*
X0252995Y0318038D01*
X0252758Y0317652D01*
X0252530Y0317261D01*
X0252312Y0316864D01*
X0252103Y0316462D01*
X0251905Y0316055D01*
X0251716Y0315643D01*
X0251538Y0315227D01*
X0251370Y0314806D01*
X0251212Y0314381D01*
X0251065Y0313953D01*
X0250928Y0313521D01*
X0250802Y0313086D01*
X0250687Y0312648D01*
X0250582Y0312208D01*
X0250488Y0311765D01*
X0250406Y0311319D01*
X0250334Y0310872D01*
X0250273Y0310423D01*
X0250223Y0309973D01*
X0250184Y0309522D01*
X0250156Y0309070D01*
X0250140Y0308617D01*
X0250134Y0308164D01*
X0250140Y0307711D01*
X0250156Y0307259D01*
X0250184Y0306807D01*
X0250223Y0306355D01*
X0250272Y0305905D01*
X0250333Y0305457D01*
X0250405Y0305009D01*
X0250488Y0304564D01*
X0250582Y0304121D01*
X0250686Y0303680D01*
X0359002Y0301187D02*
X0361653Y0301693D01*
X0364291Y0302263D01*
X0366915Y0302897D01*
X0369522Y0303594D01*
X0372112Y0304355D01*
X0374683Y0305178D01*
X0377233Y0306063D01*
X0379760Y0307010D01*
X0382264Y0308018D01*
X0384743Y0309087D01*
X0387195Y0310215D01*
X0389619Y0311403D01*
X0392013Y0312649D01*
X0394376Y0313952D01*
X0396707Y0315313D01*
X0399005Y0316730D01*
X0401267Y0318202D01*
X0403493Y0319729D01*
X0405681Y0321309D01*
X0406011Y0321619D01*
X0406348Y0321922D01*
X0406692Y0322216D01*
X0407043Y0322502D01*
X0407402Y0322779D01*
X0407766Y0323048D01*
X0408138Y0323307D01*
X0408516Y0323557D01*
X0408899Y0323798D01*
X0409289Y0324029D01*
X0409684Y0324250D01*
X0410084Y0324462D01*
X0410489Y0324664D01*
X0410900Y0324856D01*
X0411314Y0325038D01*
X0411734Y0325210D01*
X0412157Y0325371D01*
X0412584Y0325522D01*
X0413014Y0325662D01*
X0413448Y0325792D01*
X0413885Y0325911D01*
X0414325Y0326019D01*
X0414767Y0326117D01*
X0415212Y0326204D01*
X0415658Y0326279D01*
X0416107Y0326344D01*
X0416556Y0326398D01*
X0417007Y0326441D01*
X0417459Y0326472D01*
X0417912Y0326493D01*
X0418364Y0326502D01*
X0418817Y0326501D01*
X0419270Y0326488D01*
X0419722Y0326464D01*
X0420174Y0326429D01*
X0420625Y0326383D01*
X0421074Y0326326D01*
X0421522Y0326258D01*
X0421968Y0326179D01*
X0422412Y0326089D01*
X0422853Y0325989D01*
X0423292Y0325877D01*
X0423728Y0325755D01*
X0424161Y0325622D01*
X0424591Y0325478D01*
X0425017Y0325324D01*
X0425439Y0325160D01*
X0425857Y0324985D01*
X0426270Y0324801D01*
X0426679Y0324606D01*
X0427083Y0324401D01*
X0427482Y0324186D01*
X0427875Y0323961D01*
X0428263Y0323727D01*
X0428645Y0323484D01*
X0429020Y0323231D01*
X0429390Y0322969D01*
X0429753Y0322698D01*
X0430109Y0322419D01*
X0430458Y0322130D01*
X0430801Y0321834D01*
X0431135Y0321528D01*
X0431462Y0321215D01*
X0431782Y0320894D01*
X0432093Y0320565D01*
X0432396Y0320229D01*
X0432691Y0319885D01*
X0432978Y0319534D01*
X0433255Y0319176D01*
X0433524Y0318812D01*
X0433784Y0318441D01*
X0434035Y0318063D01*
X0434276Y0317680D01*
X0434508Y0317291D01*
X0434730Y0316896D01*
X0434943Y0316497D01*
X0435145Y0316091D01*
X0435338Y0315682D01*
X0435520Y0315267D01*
X0435693Y0314848D01*
X0435855Y0314425D01*
X0436006Y0313998D01*
X0436147Y0313568D01*
X0436278Y0313134D01*
X0436398Y0312698D01*
X0436507Y0312258D01*
X0436605Y0311816D01*
X0436692Y0311371D01*
X0436769Y0310925D01*
X0436834Y0310477D01*
X0436889Y0310027D01*
X0436932Y0309576D01*
X0436965Y0309125D01*
X0436986Y0308672D01*
X0436996Y0308219D01*
X0436995Y0307766D01*
X0436983Y0307314D01*
X0436960Y0306861D01*
X0436926Y0306410D01*
X0436881Y0305959D01*
X0436824Y0305510D01*
X0436757Y0305062D01*
X0436679Y0304616D01*
X0436590Y0304172D01*
X0327899Y0301116D02*
X0325353Y0301596D01*
X0322820Y0302138D01*
X0320300Y0302741D01*
X0317796Y0303405D01*
X0315309Y0304129D01*
X0312840Y0304913D01*
X0310391Y0305757D01*
X0307963Y0306660D01*
X0305557Y0307622D01*
X0303176Y0308641D01*
X0300819Y0309718D01*
X0298490Y0310852D01*
X0296189Y0312042D01*
X0293917Y0313287D01*
X0291677Y0314587D01*
X0289468Y0315941D01*
X0287293Y0317348D01*
X0285152Y0318807D01*
X0283048Y0320318D01*
X0280981Y0321879D01*
X0237889Y0238042D02*
X0236504Y0235895D01*
X0235068Y0233781D01*
X0233581Y0231702D01*
X0232046Y0229659D01*
X0230461Y0227654D01*
X0228830Y0225687D01*
X0227152Y0223760D01*
X0225428Y0221873D01*
X0223660Y0220028D01*
X0221848Y0218226D01*
X0219993Y0216468D01*
X0218097Y0214754D01*
X0216161Y0213087D01*
X0214185Y0211466D01*
X0212171Y0209892D01*
X0210120Y0208368D01*
X0208033Y0206893D01*
X0205912Y0205468D01*
X0203757Y0204094D01*
X0201570Y0202772D01*
X0199352Y0201503D01*
X0197104Y0200287D01*
X0194828Y0199126D01*
X0192524Y0198019D01*
X0190195Y0196967D01*
X0187842Y0195971D01*
X0187413Y0195827D01*
X0186987Y0195671D01*
X0186566Y0195506D01*
X0186148Y0195330D01*
X0185735Y0195144D01*
X0185327Y0194947D01*
X0184924Y0194741D01*
X0184526Y0194525D01*
X0184133Y0194300D01*
X0183746Y0194064D01*
X0183365Y0193820D01*
X0182990Y0193566D01*
X0182621Y0193303D01*
X0182259Y0193031D01*
X0181904Y0192750D01*
X0181555Y0192461D01*
X0181214Y0192163D01*
X0180880Y0191856D01*
X0180554Y0191542D01*
X0180236Y0191220D01*
X0179925Y0190890D01*
X0179623Y0190553D01*
X0179329Y0190208D01*
X0179044Y0189856D01*
X0178767Y0189498D01*
X0178500Y0189132D01*
X0178241Y0188761D01*
X0177991Y0188383D01*
X0177751Y0187999D01*
X0177521Y0187609D01*
X0177300Y0187214D01*
X0177088Y0186813D01*
X0176887Y0186407D01*
X0176696Y0185997D01*
X0176514Y0185582D01*
X0176343Y0185162D01*
X0176183Y0184739D01*
X0176032Y0184312D01*
X0175893Y0183881D01*
X0175764Y0183447D01*
X0175645Y0183009D01*
X0175537Y0182570D01*
X0175441Y0182127D01*
X0175354Y0181682D01*
X0175279Y0181236D01*
X0175215Y0180787D01*
X0175162Y0180338D01*
X0175120Y0179887D01*
X0175089Y0179435D01*
X0175069Y0178982D01*
X0175060Y0178529D01*
X0175063Y0178077D01*
X0175076Y0177624D01*
X0175101Y0177172D01*
X0175136Y0176720D01*
X0175183Y0176270D01*
X0175241Y0175820D01*
X0175309Y0175373D01*
X0175389Y0174927D01*
X0175479Y0174483D01*
X0175581Y0174042D01*
X0175693Y0173603D01*
X0175816Y0173167D01*
X0175949Y0172734D01*
X0176094Y0172305D01*
X0176248Y0171879D01*
X0176413Y0171457D01*
X0176588Y0171040D01*
X0176774Y0170626D01*
X0176969Y0170218D01*
X0177175Y0169814D01*
X0177390Y0169416D01*
X0177615Y0169023D01*
X0177850Y0168635D01*
X0178094Y0168254D01*
X0178347Y0167878D01*
X0178610Y0167509D01*
X0178881Y0167146D01*
X0179161Y0166791D01*
X0179450Y0166442D01*
X0179748Y0166100D01*
X0180053Y0165766D01*
X0180367Y0165439D01*
X0180688Y0165120D01*
X0181018Y0164809D01*
X0181355Y0164507D01*
X0181699Y0164212D01*
X0182050Y0163926D01*
X0182408Y0163649D01*
X0182773Y0163381D01*
X0183145Y0163122D01*
X0183522Y0162872D01*
X0183906Y0162631D01*
X0184295Y0162400D01*
X0184690Y0162178D01*
X0185091Y0161966D01*
X0185496Y0161764D01*
X0185906Y0161572D01*
X0186321Y0161390D01*
X0186740Y0161218D01*
X0187163Y0161057D01*
X0187590Y0160906D01*
X0188021Y0160766D01*
X0188455Y0160636D01*
X0237889Y0238042D02*
X0238900Y0239794D01*
X0240087Y0242148D01*
X0241218Y0244530D01*
X0242292Y0246939D01*
X0243309Y0249372D01*
X0244268Y0251828D01*
X0245168Y0254307D01*
X0246009Y0256806D01*
X0246791Y0259324D01*
X0247513Y0261860D01*
X0248174Y0264413D01*
X0248775Y0266981D01*
X0249315Y0269562D01*
X0249793Y0272155D01*
X0250210Y0274759D01*
X0250565Y0277372D01*
X0250858Y0279992D01*
X0251088Y0282619D01*
X0251257Y0285251D01*
X0251363Y0287886D01*
X0251406Y0290522D01*
X0251387Y0293159D01*
X0251305Y0295795D01*
X0251161Y0298428D01*
X0250954Y0301056D01*
X0250685Y0303680D01*
X0449012Y0238042D02*
X0450457Y0235836D01*
X0451955Y0233666D01*
X0453503Y0231532D01*
X0455102Y0229434D01*
X0456750Y0227376D01*
X0458446Y0225357D01*
X0460190Y0223379D01*
X0461980Y0221443D01*
X0463816Y0219549D01*
X0465695Y0217700D01*
X0467619Y0215896D01*
X0469584Y0214138D01*
X0471591Y0212427D01*
X0473637Y0210765D01*
X0475723Y0209151D01*
X0477846Y0207587D01*
X0480005Y0206074D01*
X0482200Y0204612D01*
X0484429Y0203203D01*
X0486691Y0201847D01*
X0488984Y0200545D01*
X0491307Y0199298D01*
X0493660Y0198107D01*
X0496040Y0196971D01*
X0498446Y0195892D01*
X0449012Y0118486D02*
X0448000Y0116734D01*
X0448001Y0116734D02*
X0446814Y0114380D01*
X0445683Y0111998D01*
X0444609Y0109589D01*
X0443592Y0107156D01*
X0442633Y0104700D01*
X0441733Y0102221D01*
X0440892Y0099722D01*
X0440110Y0097204D01*
X0439388Y0094668D01*
X0438727Y0092115D01*
X0438126Y0089547D01*
X0437586Y0086966D01*
X0437108Y0084373D01*
X0436691Y0081769D01*
X0436336Y0079156D01*
X0436043Y0076536D01*
X0435813Y0073909D01*
X0435644Y0071277D01*
X0435538Y0068642D01*
X0435495Y0066006D01*
X0435514Y0063369D01*
X0435596Y0060733D01*
X0435740Y0058100D01*
X0435947Y0055472D01*
X0436216Y0052848D01*
X0448000Y0239794D02*
X0446833Y0242067D01*
X0445721Y0244368D01*
X0444664Y0246695D01*
X0443663Y0249046D01*
X0442718Y0251421D01*
X0441830Y0253817D01*
X0441000Y0256234D01*
X0440228Y0258670D01*
X0439515Y0261124D01*
X0438860Y0263594D01*
X0438264Y0266079D01*
X0437729Y0268578D01*
X0437253Y0271089D01*
X0436837Y0273610D01*
X0436481Y0276141D01*
X0436186Y0278680D01*
X0435952Y0281224D01*
X0435779Y0283774D01*
X0435667Y0286327D01*
X0435615Y0288882D01*
X0435625Y0291438D01*
X0435696Y0293992D01*
X0435828Y0296544D01*
X0436021Y0299093D01*
X0436275Y0301636D01*
X0436590Y0304172D01*
D11*
X0428667Y0284760D02*
X0428669Y0284823D01*
X0428675Y0284886D01*
X0428685Y0284948D01*
X0428699Y0285010D01*
X0428716Y0285070D01*
X0428738Y0285130D01*
X0428763Y0285187D01*
X0428791Y0285244D01*
X0428823Y0285298D01*
X0428859Y0285350D01*
X0428897Y0285400D01*
X0428939Y0285447D01*
X0428984Y0285492D01*
X0429031Y0285534D01*
X0429081Y0285572D01*
X0429133Y0285608D01*
X0429187Y0285640D01*
X0429244Y0285668D01*
X0429301Y0285693D01*
X0429361Y0285715D01*
X0429421Y0285732D01*
X0429483Y0285746D01*
X0429545Y0285756D01*
X0429608Y0285762D01*
X0429671Y0285764D01*
X0429734Y0285762D01*
X0429797Y0285756D01*
X0429859Y0285746D01*
X0429921Y0285732D01*
X0429981Y0285715D01*
X0430041Y0285693D01*
X0430098Y0285668D01*
X0430155Y0285640D01*
X0430209Y0285608D01*
X0430261Y0285572D01*
X0430311Y0285534D01*
X0430358Y0285492D01*
X0430403Y0285447D01*
X0430445Y0285400D01*
X0430483Y0285350D01*
X0430519Y0285298D01*
X0430551Y0285244D01*
X0430579Y0285187D01*
X0430604Y0285130D01*
X0430626Y0285070D01*
X0430643Y0285010D01*
X0430657Y0284948D01*
X0430667Y0284886D01*
X0430673Y0284823D01*
X0430675Y0284760D01*
X0430673Y0284697D01*
X0430667Y0284634D01*
X0430657Y0284572D01*
X0430643Y0284510D01*
X0430626Y0284450D01*
X0430604Y0284390D01*
X0430579Y0284333D01*
X0430551Y0284276D01*
X0430519Y0284222D01*
X0430483Y0284170D01*
X0430445Y0284120D01*
X0430403Y0284073D01*
X0430358Y0284028D01*
X0430311Y0283986D01*
X0430261Y0283948D01*
X0430209Y0283912D01*
X0430155Y0283880D01*
X0430098Y0283852D01*
X0430041Y0283827D01*
X0429981Y0283805D01*
X0429921Y0283788D01*
X0429859Y0283774D01*
X0429797Y0283764D01*
X0429734Y0283758D01*
X0429671Y0283756D01*
X0429608Y0283758D01*
X0429545Y0283764D01*
X0429483Y0283774D01*
X0429421Y0283788D01*
X0429361Y0283805D01*
X0429301Y0283827D01*
X0429244Y0283852D01*
X0429187Y0283880D01*
X0429133Y0283912D01*
X0429081Y0283948D01*
X0429031Y0283986D01*
X0428984Y0284028D01*
X0428939Y0284073D01*
X0428897Y0284120D01*
X0428859Y0284170D01*
X0428823Y0284222D01*
X0428791Y0284276D01*
X0428763Y0284333D01*
X0428738Y0284390D01*
X0428716Y0284450D01*
X0428699Y0284510D01*
X0428685Y0284572D01*
X0428675Y0284634D01*
X0428669Y0284697D01*
X0428667Y0284760D01*
X0293037Y0301098D02*
X0293039Y0301161D01*
X0293045Y0301224D01*
X0293055Y0301286D01*
X0293069Y0301348D01*
X0293086Y0301408D01*
X0293108Y0301468D01*
X0293133Y0301525D01*
X0293161Y0301582D01*
X0293193Y0301636D01*
X0293229Y0301688D01*
X0293267Y0301738D01*
X0293309Y0301785D01*
X0293354Y0301830D01*
X0293401Y0301872D01*
X0293451Y0301910D01*
X0293503Y0301946D01*
X0293557Y0301978D01*
X0293614Y0302006D01*
X0293671Y0302031D01*
X0293731Y0302053D01*
X0293791Y0302070D01*
X0293853Y0302084D01*
X0293915Y0302094D01*
X0293978Y0302100D01*
X0294041Y0302102D01*
X0294104Y0302100D01*
X0294167Y0302094D01*
X0294229Y0302084D01*
X0294291Y0302070D01*
X0294351Y0302053D01*
X0294411Y0302031D01*
X0294468Y0302006D01*
X0294525Y0301978D01*
X0294579Y0301946D01*
X0294631Y0301910D01*
X0294681Y0301872D01*
X0294728Y0301830D01*
X0294773Y0301785D01*
X0294815Y0301738D01*
X0294853Y0301688D01*
X0294889Y0301636D01*
X0294921Y0301582D01*
X0294949Y0301525D01*
X0294974Y0301468D01*
X0294996Y0301408D01*
X0295013Y0301348D01*
X0295027Y0301286D01*
X0295037Y0301224D01*
X0295043Y0301161D01*
X0295045Y0301098D01*
X0295043Y0301035D01*
X0295037Y0300972D01*
X0295027Y0300910D01*
X0295013Y0300848D01*
X0294996Y0300788D01*
X0294974Y0300728D01*
X0294949Y0300671D01*
X0294921Y0300614D01*
X0294889Y0300560D01*
X0294853Y0300508D01*
X0294815Y0300458D01*
X0294773Y0300411D01*
X0294728Y0300366D01*
X0294681Y0300324D01*
X0294631Y0300286D01*
X0294579Y0300250D01*
X0294525Y0300218D01*
X0294468Y0300190D01*
X0294411Y0300165D01*
X0294351Y0300143D01*
X0294291Y0300126D01*
X0294229Y0300112D01*
X0294167Y0300102D01*
X0294104Y0300096D01*
X0294041Y0300094D01*
X0293978Y0300096D01*
X0293915Y0300102D01*
X0293853Y0300112D01*
X0293791Y0300126D01*
X0293731Y0300143D01*
X0293671Y0300165D01*
X0293614Y0300190D01*
X0293557Y0300218D01*
X0293503Y0300250D01*
X0293451Y0300286D01*
X0293401Y0300324D01*
X0293354Y0300366D01*
X0293309Y0300411D01*
X0293267Y0300458D01*
X0293229Y0300508D01*
X0293193Y0300560D01*
X0293161Y0300614D01*
X0293133Y0300671D01*
X0293108Y0300728D01*
X0293086Y0300788D01*
X0293069Y0300848D01*
X0293055Y0300910D01*
X0293045Y0300972D01*
X0293039Y0301035D01*
X0293037Y0301098D01*
X0269808Y0157398D02*
X0269810Y0157461D01*
X0269816Y0157524D01*
X0269826Y0157586D01*
X0269840Y0157648D01*
X0269857Y0157708D01*
X0269879Y0157768D01*
X0269904Y0157825D01*
X0269932Y0157882D01*
X0269964Y0157936D01*
X0270000Y0157988D01*
X0270038Y0158038D01*
X0270080Y0158085D01*
X0270125Y0158130D01*
X0270172Y0158172D01*
X0270222Y0158210D01*
X0270274Y0158246D01*
X0270328Y0158278D01*
X0270385Y0158306D01*
X0270442Y0158331D01*
X0270502Y0158353D01*
X0270562Y0158370D01*
X0270624Y0158384D01*
X0270686Y0158394D01*
X0270749Y0158400D01*
X0270812Y0158402D01*
X0270875Y0158400D01*
X0270938Y0158394D01*
X0271000Y0158384D01*
X0271062Y0158370D01*
X0271122Y0158353D01*
X0271182Y0158331D01*
X0271239Y0158306D01*
X0271296Y0158278D01*
X0271350Y0158246D01*
X0271402Y0158210D01*
X0271452Y0158172D01*
X0271499Y0158130D01*
X0271544Y0158085D01*
X0271586Y0158038D01*
X0271624Y0157988D01*
X0271660Y0157936D01*
X0271692Y0157882D01*
X0271720Y0157825D01*
X0271745Y0157768D01*
X0271767Y0157708D01*
X0271784Y0157648D01*
X0271798Y0157586D01*
X0271808Y0157524D01*
X0271814Y0157461D01*
X0271816Y0157398D01*
X0271814Y0157335D01*
X0271808Y0157272D01*
X0271798Y0157210D01*
X0271784Y0157148D01*
X0271767Y0157088D01*
X0271745Y0157028D01*
X0271720Y0156971D01*
X0271692Y0156914D01*
X0271660Y0156860D01*
X0271624Y0156808D01*
X0271586Y0156758D01*
X0271544Y0156711D01*
X0271499Y0156666D01*
X0271452Y0156624D01*
X0271402Y0156586D01*
X0271350Y0156550D01*
X0271296Y0156518D01*
X0271239Y0156490D01*
X0271182Y0156465D01*
X0271122Y0156443D01*
X0271062Y0156426D01*
X0271000Y0156412D01*
X0270938Y0156402D01*
X0270875Y0156396D01*
X0270812Y0156394D01*
X0270749Y0156396D01*
X0270686Y0156402D01*
X0270624Y0156412D01*
X0270562Y0156426D01*
X0270502Y0156443D01*
X0270442Y0156465D01*
X0270385Y0156490D01*
X0270328Y0156518D01*
X0270274Y0156550D01*
X0270222Y0156586D01*
X0270172Y0156624D01*
X0270125Y0156666D01*
X0270080Y0156711D01*
X0270038Y0156758D01*
X0270000Y0156808D01*
X0269964Y0156860D01*
X0269932Y0156914D01*
X0269904Y0156971D01*
X0269879Y0157028D01*
X0269857Y0157088D01*
X0269840Y0157148D01*
X0269826Y0157210D01*
X0269816Y0157272D01*
X0269810Y0157335D01*
X0269808Y0157398D01*
X0428273Y0071374D02*
X0428275Y0071437D01*
X0428281Y0071500D01*
X0428291Y0071562D01*
X0428305Y0071624D01*
X0428322Y0071684D01*
X0428344Y0071744D01*
X0428369Y0071801D01*
X0428397Y0071858D01*
X0428429Y0071912D01*
X0428465Y0071964D01*
X0428503Y0072014D01*
X0428545Y0072061D01*
X0428590Y0072106D01*
X0428637Y0072148D01*
X0428687Y0072186D01*
X0428739Y0072222D01*
X0428793Y0072254D01*
X0428850Y0072282D01*
X0428907Y0072307D01*
X0428967Y0072329D01*
X0429027Y0072346D01*
X0429089Y0072360D01*
X0429151Y0072370D01*
X0429214Y0072376D01*
X0429277Y0072378D01*
X0429340Y0072376D01*
X0429403Y0072370D01*
X0429465Y0072360D01*
X0429527Y0072346D01*
X0429587Y0072329D01*
X0429647Y0072307D01*
X0429704Y0072282D01*
X0429761Y0072254D01*
X0429815Y0072222D01*
X0429867Y0072186D01*
X0429917Y0072148D01*
X0429964Y0072106D01*
X0430009Y0072061D01*
X0430051Y0072014D01*
X0430089Y0071964D01*
X0430125Y0071912D01*
X0430157Y0071858D01*
X0430185Y0071801D01*
X0430210Y0071744D01*
X0430232Y0071684D01*
X0430249Y0071624D01*
X0430263Y0071562D01*
X0430273Y0071500D01*
X0430279Y0071437D01*
X0430281Y0071374D01*
X0430279Y0071311D01*
X0430273Y0071248D01*
X0430263Y0071186D01*
X0430249Y0071124D01*
X0430232Y0071064D01*
X0430210Y0071004D01*
X0430185Y0070947D01*
X0430157Y0070890D01*
X0430125Y0070836D01*
X0430089Y0070784D01*
X0430051Y0070734D01*
X0430009Y0070687D01*
X0429964Y0070642D01*
X0429917Y0070600D01*
X0429867Y0070562D01*
X0429815Y0070526D01*
X0429761Y0070494D01*
X0429704Y0070466D01*
X0429647Y0070441D01*
X0429587Y0070419D01*
X0429527Y0070402D01*
X0429465Y0070388D01*
X0429403Y0070378D01*
X0429340Y0070372D01*
X0429277Y0070370D01*
X0429214Y0070372D01*
X0429151Y0070378D01*
X0429089Y0070388D01*
X0429027Y0070402D01*
X0428967Y0070419D01*
X0428907Y0070441D01*
X0428850Y0070466D01*
X0428793Y0070494D01*
X0428739Y0070526D01*
X0428687Y0070562D01*
X0428637Y0070600D01*
X0428590Y0070642D01*
X0428545Y0070687D01*
X0428503Y0070734D01*
X0428465Y0070784D01*
X0428429Y0070836D01*
X0428397Y0070890D01*
X0428369Y0070947D01*
X0428344Y0071004D01*
X0428322Y0071064D01*
X0428305Y0071124D01*
X0428291Y0071186D01*
X0428281Y0071248D01*
X0428275Y0071311D01*
X0428273Y0071374D01*
D12*
X0425340Y0071374D02*
X0433214Y0071374D01*
X0429277Y0075311D02*
X0429277Y0067437D01*
X0274749Y0157398D02*
X0266875Y0157398D01*
X0270812Y0161335D02*
X0270812Y0153461D01*
X0429671Y0280823D02*
X0429671Y0288697D01*
X0425734Y0284760D02*
X0433608Y0284760D01*
X0297978Y0301098D02*
X0290104Y0301098D01*
X0294041Y0305035D02*
X0294041Y0297161D01*
D13*
X0295389Y0013906D02*
X0296456Y0012839D01*
X0296456Y0010704D01*
X0295389Y0009636D01*
X0292186Y0009636D01*
X0292186Y0007501D02*
X0292186Y0013906D01*
X0295389Y0013906D01*
X0299699Y0011771D02*
X0301834Y0011771D01*
X0302902Y0010704D01*
X0302902Y0007501D01*
X0299699Y0007501D01*
X0298632Y0008568D01*
X0299699Y0009636D01*
X0302902Y0009636D01*
X0305077Y0010704D02*
X0306145Y0011771D01*
X0309347Y0011771D01*
X0311523Y0011771D02*
X0313658Y0011771D01*
X0312590Y0012839D02*
X0312590Y0008568D01*
X0313658Y0007501D01*
X0315820Y0008568D02*
X0315820Y0010704D01*
X0316887Y0011771D01*
X0319022Y0011771D01*
X0320090Y0010704D01*
X0320090Y0009636D01*
X0315820Y0009636D01*
X0315820Y0008568D02*
X0316887Y0007501D01*
X0319022Y0007501D01*
X0309347Y0008568D02*
X0308280Y0009636D01*
X0306145Y0009636D01*
X0305077Y0010704D01*
X0305077Y0007501D02*
X0308280Y0007501D01*
X0309347Y0008568D01*
X0328711Y0013906D02*
X0332981Y0013906D01*
X0330846Y0013906D02*
X0330846Y0007501D01*
X0335156Y0008568D02*
X0335156Y0010704D01*
X0336224Y0011771D01*
X0338359Y0011771D01*
X0339426Y0010704D01*
X0339426Y0008568D01*
X0338359Y0007501D01*
X0336224Y0007501D01*
X0335156Y0008568D01*
X0341602Y0007501D02*
X0344804Y0007501D01*
X0345872Y0008568D01*
X0345872Y0010704D01*
X0344804Y0011771D01*
X0341602Y0011771D01*
X0341602Y0005366D01*
X0354493Y0007501D02*
X0354493Y0011771D01*
X0356628Y0011771D02*
X0357695Y0011771D01*
X0356628Y0011771D02*
X0354493Y0009636D01*
X0359864Y0009636D02*
X0364134Y0009636D01*
X0364134Y0010704D01*
X0363067Y0011771D01*
X0360931Y0011771D01*
X0359864Y0010704D01*
X0359864Y0008568D01*
X0360931Y0007501D01*
X0363067Y0007501D01*
X0366309Y0011771D02*
X0368444Y0007501D01*
X0370580Y0011771D01*
X0379200Y0012839D02*
X0380268Y0013906D01*
X0382403Y0013906D01*
X0383471Y0012839D01*
X0383471Y0011771D01*
X0379200Y0007501D01*
X0383471Y0007501D01*
X0385646Y0007501D02*
X0386713Y0007501D01*
X0386713Y0008568D01*
X0385646Y0008568D01*
X0385646Y0007501D01*
X0388869Y0008568D02*
X0393139Y0012839D01*
X0393139Y0008568D01*
X0392071Y0007501D01*
X0389936Y0007501D01*
X0388869Y0008568D01*
X0388869Y0012839D01*
X0389936Y0013906D01*
X0392071Y0013906D01*
X0393139Y0012839D01*
D14*
X0385926Y0121428D02*
X0385926Y0128264D01*
X0393352Y0128264D01*
X0393352Y0121428D01*
X0385926Y0121428D01*
X0385926Y0124356D02*
X0393352Y0124356D01*
X0393352Y0127284D02*
X0385926Y0127284D01*
X0385926Y0146428D02*
X0385926Y0153264D01*
X0393352Y0153264D01*
X0393352Y0146428D01*
X0385926Y0146428D01*
X0385926Y0149356D02*
X0393352Y0149356D01*
X0393352Y0152284D02*
X0385926Y0152284D01*
D15*
X0277189Y0187252D02*
X0277189Y0187748D01*
X0279359Y0187748D01*
X0279359Y0187252D01*
X0277189Y0187252D01*
X0277189Y0187464D02*
X0279359Y0187464D01*
X0279359Y0187676D02*
X0277189Y0187676D01*
X0277189Y0189221D02*
X0277189Y0189717D01*
X0279359Y0189717D01*
X0279359Y0189221D01*
X0277189Y0189221D01*
X0277189Y0189433D02*
X0279359Y0189433D01*
X0279359Y0189645D02*
X0277189Y0189645D01*
X0277189Y0191189D02*
X0277189Y0191685D01*
X0279359Y0191685D01*
X0279359Y0191189D01*
X0277189Y0191189D01*
X0277189Y0191401D02*
X0279359Y0191401D01*
X0279359Y0191613D02*
X0277189Y0191613D01*
X0276504Y0193354D02*
X0276008Y0193354D01*
X0276008Y0195524D01*
X0276504Y0195524D01*
X0276504Y0193354D01*
X0276504Y0193566D02*
X0276008Y0193566D01*
X0276008Y0193778D02*
X0276504Y0193778D01*
X0276504Y0193990D02*
X0276008Y0193990D01*
X0276008Y0194202D02*
X0276504Y0194202D01*
X0276504Y0194414D02*
X0276008Y0194414D01*
X0276008Y0194626D02*
X0276504Y0194626D01*
X0276504Y0194838D02*
X0276008Y0194838D01*
X0276008Y0195050D02*
X0276504Y0195050D01*
X0276504Y0195262D02*
X0276008Y0195262D01*
X0276008Y0195474D02*
X0276504Y0195474D01*
X0274536Y0193354D02*
X0274040Y0193354D01*
X0274040Y0195524D01*
X0274536Y0195524D01*
X0274536Y0193354D01*
X0274536Y0193566D02*
X0274040Y0193566D01*
X0274040Y0193778D02*
X0274536Y0193778D01*
X0274536Y0193990D02*
X0274040Y0193990D01*
X0274040Y0194202D02*
X0274536Y0194202D01*
X0274536Y0194414D02*
X0274040Y0194414D01*
X0274040Y0194626D02*
X0274536Y0194626D01*
X0274536Y0194838D02*
X0274040Y0194838D01*
X0274040Y0195050D02*
X0274536Y0195050D01*
X0274536Y0195262D02*
X0274040Y0195262D01*
X0274040Y0195474D02*
X0274536Y0195474D01*
X0272567Y0193354D02*
X0272071Y0193354D01*
X0272071Y0195524D01*
X0272567Y0195524D01*
X0272567Y0193354D01*
X0272567Y0193566D02*
X0272071Y0193566D01*
X0272071Y0193778D02*
X0272567Y0193778D01*
X0272567Y0193990D02*
X0272071Y0193990D01*
X0272071Y0194202D02*
X0272567Y0194202D01*
X0272567Y0194414D02*
X0272071Y0194414D01*
X0272071Y0194626D02*
X0272567Y0194626D01*
X0272567Y0194838D02*
X0272071Y0194838D01*
X0272071Y0195050D02*
X0272567Y0195050D01*
X0272567Y0195262D02*
X0272071Y0195262D01*
X0272071Y0195474D02*
X0272567Y0195474D01*
X0270599Y0193354D02*
X0270103Y0193354D01*
X0270103Y0195524D01*
X0270599Y0195524D01*
X0270599Y0193354D01*
X0270599Y0193566D02*
X0270103Y0193566D01*
X0270103Y0193778D02*
X0270599Y0193778D01*
X0270599Y0193990D02*
X0270103Y0193990D01*
X0270103Y0194202D02*
X0270599Y0194202D01*
X0270599Y0194414D02*
X0270103Y0194414D01*
X0270103Y0194626D02*
X0270599Y0194626D01*
X0270599Y0194838D02*
X0270103Y0194838D01*
X0270103Y0195050D02*
X0270599Y0195050D01*
X0270599Y0195262D02*
X0270103Y0195262D01*
X0270103Y0195474D02*
X0270599Y0195474D01*
X0268630Y0193354D02*
X0268134Y0193354D01*
X0268134Y0195524D01*
X0268630Y0195524D01*
X0268630Y0193354D01*
X0268630Y0193566D02*
X0268134Y0193566D01*
X0268134Y0193778D02*
X0268630Y0193778D01*
X0268630Y0193990D02*
X0268134Y0193990D01*
X0268134Y0194202D02*
X0268630Y0194202D01*
X0268630Y0194414D02*
X0268134Y0194414D01*
X0268134Y0194626D02*
X0268630Y0194626D01*
X0268630Y0194838D02*
X0268134Y0194838D01*
X0268134Y0195050D02*
X0268630Y0195050D01*
X0268630Y0195262D02*
X0268134Y0195262D01*
X0268134Y0195474D02*
X0268630Y0195474D01*
X0266662Y0193354D02*
X0266166Y0193354D01*
X0266166Y0195524D01*
X0266662Y0195524D01*
X0266662Y0193354D01*
X0266662Y0193566D02*
X0266166Y0193566D01*
X0266166Y0193778D02*
X0266662Y0193778D01*
X0266662Y0193990D02*
X0266166Y0193990D01*
X0266166Y0194202D02*
X0266662Y0194202D01*
X0266662Y0194414D02*
X0266166Y0194414D01*
X0266166Y0194626D02*
X0266662Y0194626D01*
X0266662Y0194838D02*
X0266166Y0194838D01*
X0266166Y0195050D02*
X0266662Y0195050D01*
X0266662Y0195262D02*
X0266166Y0195262D01*
X0266166Y0195474D02*
X0266662Y0195474D01*
X0264693Y0193354D02*
X0264197Y0193354D01*
X0264197Y0195524D01*
X0264693Y0195524D01*
X0264693Y0193354D01*
X0264693Y0193566D02*
X0264197Y0193566D01*
X0264197Y0193778D02*
X0264693Y0193778D01*
X0264693Y0193990D02*
X0264197Y0193990D01*
X0264197Y0194202D02*
X0264693Y0194202D01*
X0264693Y0194414D02*
X0264197Y0194414D01*
X0264197Y0194626D02*
X0264693Y0194626D01*
X0264693Y0194838D02*
X0264197Y0194838D01*
X0264197Y0195050D02*
X0264693Y0195050D01*
X0264693Y0195262D02*
X0264197Y0195262D01*
X0264197Y0195474D02*
X0264693Y0195474D01*
X0261343Y0191685D02*
X0261343Y0191189D01*
X0261343Y0191685D02*
X0263513Y0191685D01*
X0263513Y0191189D01*
X0261343Y0191189D01*
X0261343Y0191401D02*
X0263513Y0191401D01*
X0263513Y0191613D02*
X0261343Y0191613D01*
X0261343Y0189717D02*
X0261343Y0189221D01*
X0261343Y0189717D02*
X0263513Y0189717D01*
X0263513Y0189221D01*
X0261343Y0189221D01*
X0261343Y0189433D02*
X0263513Y0189433D01*
X0263513Y0189645D02*
X0261343Y0189645D01*
X0261343Y0187748D02*
X0261343Y0187252D01*
X0261343Y0187748D02*
X0263513Y0187748D01*
X0263513Y0187252D01*
X0261343Y0187252D01*
X0261343Y0187464D02*
X0263513Y0187464D01*
X0263513Y0187676D02*
X0261343Y0187676D01*
X0264197Y0183413D02*
X0264693Y0183413D01*
X0264197Y0183413D02*
X0264197Y0185583D01*
X0264693Y0185583D01*
X0264693Y0183413D01*
X0264693Y0183625D02*
X0264197Y0183625D01*
X0264197Y0183837D02*
X0264693Y0183837D01*
X0264693Y0184049D02*
X0264197Y0184049D01*
X0264197Y0184261D02*
X0264693Y0184261D01*
X0264693Y0184473D02*
X0264197Y0184473D01*
X0264197Y0184685D02*
X0264693Y0184685D01*
X0264693Y0184897D02*
X0264197Y0184897D01*
X0264197Y0185109D02*
X0264693Y0185109D01*
X0264693Y0185321D02*
X0264197Y0185321D01*
X0264197Y0185533D02*
X0264693Y0185533D01*
X0266166Y0183413D02*
X0266662Y0183413D01*
X0266166Y0183413D02*
X0266166Y0185583D01*
X0266662Y0185583D01*
X0266662Y0183413D01*
X0266662Y0183625D02*
X0266166Y0183625D01*
X0266166Y0183837D02*
X0266662Y0183837D01*
X0266662Y0184049D02*
X0266166Y0184049D01*
X0266166Y0184261D02*
X0266662Y0184261D01*
X0266662Y0184473D02*
X0266166Y0184473D01*
X0266166Y0184685D02*
X0266662Y0184685D01*
X0266662Y0184897D02*
X0266166Y0184897D01*
X0266166Y0185109D02*
X0266662Y0185109D01*
X0266662Y0185321D02*
X0266166Y0185321D01*
X0266166Y0185533D02*
X0266662Y0185533D01*
X0268134Y0183413D02*
X0268630Y0183413D01*
X0268134Y0183413D02*
X0268134Y0185583D01*
X0268630Y0185583D01*
X0268630Y0183413D01*
X0268630Y0183625D02*
X0268134Y0183625D01*
X0268134Y0183837D02*
X0268630Y0183837D01*
X0268630Y0184049D02*
X0268134Y0184049D01*
X0268134Y0184261D02*
X0268630Y0184261D01*
X0268630Y0184473D02*
X0268134Y0184473D01*
X0268134Y0184685D02*
X0268630Y0184685D01*
X0268630Y0184897D02*
X0268134Y0184897D01*
X0268134Y0185109D02*
X0268630Y0185109D01*
X0268630Y0185321D02*
X0268134Y0185321D01*
X0268134Y0185533D02*
X0268630Y0185533D01*
X0270103Y0183413D02*
X0270599Y0183413D01*
X0270103Y0183413D02*
X0270103Y0185583D01*
X0270599Y0185583D01*
X0270599Y0183413D01*
X0270599Y0183625D02*
X0270103Y0183625D01*
X0270103Y0183837D02*
X0270599Y0183837D01*
X0270599Y0184049D02*
X0270103Y0184049D01*
X0270103Y0184261D02*
X0270599Y0184261D01*
X0270599Y0184473D02*
X0270103Y0184473D01*
X0270103Y0184685D02*
X0270599Y0184685D01*
X0270599Y0184897D02*
X0270103Y0184897D01*
X0270103Y0185109D02*
X0270599Y0185109D01*
X0270599Y0185321D02*
X0270103Y0185321D01*
X0270103Y0185533D02*
X0270599Y0185533D01*
X0272071Y0183413D02*
X0272567Y0183413D01*
X0272071Y0183413D02*
X0272071Y0185583D01*
X0272567Y0185583D01*
X0272567Y0183413D01*
X0272567Y0183625D02*
X0272071Y0183625D01*
X0272071Y0183837D02*
X0272567Y0183837D01*
X0272567Y0184049D02*
X0272071Y0184049D01*
X0272071Y0184261D02*
X0272567Y0184261D01*
X0272567Y0184473D02*
X0272071Y0184473D01*
X0272071Y0184685D02*
X0272567Y0184685D01*
X0272567Y0184897D02*
X0272071Y0184897D01*
X0272071Y0185109D02*
X0272567Y0185109D01*
X0272567Y0185321D02*
X0272071Y0185321D01*
X0272071Y0185533D02*
X0272567Y0185533D01*
X0274040Y0183413D02*
X0274536Y0183413D01*
X0274040Y0183413D02*
X0274040Y0185583D01*
X0274536Y0185583D01*
X0274536Y0183413D01*
X0274536Y0183625D02*
X0274040Y0183625D01*
X0274040Y0183837D02*
X0274536Y0183837D01*
X0274536Y0184049D02*
X0274040Y0184049D01*
X0274040Y0184261D02*
X0274536Y0184261D01*
X0274536Y0184473D02*
X0274040Y0184473D01*
X0274040Y0184685D02*
X0274536Y0184685D01*
X0274536Y0184897D02*
X0274040Y0184897D01*
X0274040Y0185109D02*
X0274536Y0185109D01*
X0274536Y0185321D02*
X0274040Y0185321D01*
X0274040Y0185533D02*
X0274536Y0185533D01*
X0276008Y0183413D02*
X0276504Y0183413D01*
X0276008Y0183413D02*
X0276008Y0185583D01*
X0276504Y0185583D01*
X0276504Y0183413D01*
X0276504Y0183625D02*
X0276008Y0183625D01*
X0276008Y0183837D02*
X0276504Y0183837D01*
X0276504Y0184049D02*
X0276008Y0184049D01*
X0276008Y0184261D02*
X0276504Y0184261D01*
X0276504Y0184473D02*
X0276008Y0184473D01*
X0276008Y0184685D02*
X0276504Y0184685D01*
X0276504Y0184897D02*
X0276008Y0184897D01*
X0276008Y0185109D02*
X0276504Y0185109D01*
X0276504Y0185321D02*
X0276008Y0185321D01*
X0276008Y0185533D02*
X0276504Y0185533D01*
D16*
X0266657Y0199502D02*
X0266657Y0201514D01*
X0269063Y0201514D01*
X0269063Y0199502D01*
X0266657Y0199502D01*
X0266657Y0200363D02*
X0269063Y0200363D01*
X0269063Y0201224D02*
X0266657Y0201224D01*
X0266657Y0205801D02*
X0266657Y0207813D01*
X0269063Y0207813D01*
X0269063Y0205801D01*
X0266657Y0205801D01*
X0266657Y0206662D02*
X0269063Y0206662D01*
X0269063Y0207523D02*
X0266657Y0207523D01*
X0273547Y0230254D02*
X0275559Y0230254D01*
X0275559Y0227848D01*
X0273547Y0227848D01*
X0273547Y0230254D01*
X0273547Y0228709D02*
X0275559Y0228709D01*
X0275559Y0229570D02*
X0273547Y0229570D01*
X0279846Y0230254D02*
X0281858Y0230254D01*
X0281858Y0227848D01*
X0279846Y0227848D01*
X0279846Y0230254D01*
X0279846Y0228709D02*
X0281858Y0228709D01*
X0281858Y0229570D02*
X0279846Y0229570D01*
X0285161Y0241475D02*
X0287173Y0241475D01*
X0287173Y0239463D01*
X0285161Y0239463D01*
X0285161Y0241475D01*
X0285161Y0240324D02*
X0287173Y0240324D01*
X0287173Y0241185D02*
X0285161Y0241185D01*
X0285161Y0247380D02*
X0287173Y0247380D01*
X0287173Y0245368D01*
X0285161Y0245368D01*
X0285161Y0247380D01*
X0285161Y0246229D02*
X0287173Y0246229D01*
X0287173Y0247090D02*
X0285161Y0247090D01*
X0310948Y0245368D02*
X0312960Y0245368D01*
X0310948Y0245368D02*
X0310948Y0247380D01*
X0312960Y0247380D01*
X0312960Y0245368D01*
X0312960Y0246229D02*
X0310948Y0246229D01*
X0310948Y0247090D02*
X0312960Y0247090D01*
X0312960Y0239463D02*
X0310948Y0239463D01*
X0310948Y0241475D01*
X0312960Y0241475D01*
X0312960Y0239463D01*
X0312960Y0240324D02*
X0310948Y0240324D01*
X0310948Y0241185D02*
X0312960Y0241185D01*
X0312960Y0229620D02*
X0310948Y0229620D01*
X0310948Y0231632D01*
X0312960Y0231632D01*
X0312960Y0229620D01*
X0312960Y0230481D02*
X0310948Y0230481D01*
X0310948Y0231342D02*
X0312960Y0231342D01*
X0312960Y0223714D02*
X0310948Y0223714D01*
X0310948Y0225726D01*
X0312960Y0225726D01*
X0312960Y0223714D01*
X0312960Y0224575D02*
X0310948Y0224575D01*
X0310948Y0225436D02*
X0312960Y0225436D01*
X0312960Y0213872D02*
X0310948Y0213872D01*
X0310948Y0215884D01*
X0312960Y0215884D01*
X0312960Y0213872D01*
X0312960Y0214733D02*
X0310948Y0214733D01*
X0310948Y0215594D02*
X0312960Y0215594D01*
X0312960Y0207966D02*
X0310948Y0207966D01*
X0310948Y0209978D01*
X0312960Y0209978D01*
X0312960Y0207966D01*
X0312960Y0208827D02*
X0310948Y0208827D01*
X0310948Y0209688D02*
X0312960Y0209688D01*
X0312960Y0198124D02*
X0310948Y0198124D01*
X0310948Y0200136D01*
X0312960Y0200136D01*
X0312960Y0198124D01*
X0312960Y0198985D02*
X0310948Y0198985D01*
X0310948Y0199846D02*
X0312960Y0199846D01*
X0312960Y0192218D02*
X0310948Y0192218D01*
X0310948Y0194230D01*
X0312960Y0194230D01*
X0312960Y0192218D01*
X0312960Y0193079D02*
X0310948Y0193079D01*
X0310948Y0193940D02*
X0312960Y0193940D01*
X0312960Y0182376D02*
X0310948Y0182376D01*
X0310948Y0184388D01*
X0312960Y0184388D01*
X0312960Y0182376D01*
X0312960Y0183237D02*
X0310948Y0183237D01*
X0310948Y0184098D02*
X0312960Y0184098D01*
X0312960Y0176470D02*
X0310948Y0176470D01*
X0310948Y0178482D01*
X0312960Y0178482D01*
X0312960Y0176470D01*
X0312960Y0177331D02*
X0310948Y0177331D01*
X0310948Y0178192D02*
X0312960Y0178192D01*
X0326696Y0176470D02*
X0328708Y0176470D01*
X0326696Y0176470D02*
X0326696Y0178482D01*
X0328708Y0178482D01*
X0328708Y0176470D01*
X0328708Y0177331D02*
X0326696Y0177331D01*
X0326696Y0178192D02*
X0328708Y0178192D01*
X0328708Y0182376D02*
X0326696Y0182376D01*
X0326696Y0184388D01*
X0328708Y0184388D01*
X0328708Y0182376D01*
X0328708Y0183237D02*
X0326696Y0183237D01*
X0326696Y0184098D02*
X0328708Y0184098D01*
X0342444Y0182376D02*
X0344456Y0182376D01*
X0342444Y0182376D02*
X0342444Y0184388D01*
X0344456Y0184388D01*
X0344456Y0182376D01*
X0344456Y0183237D02*
X0342444Y0183237D01*
X0342444Y0184098D02*
X0344456Y0184098D01*
X0344456Y0176470D02*
X0342444Y0176470D01*
X0342444Y0178482D01*
X0344456Y0178482D01*
X0344456Y0176470D01*
X0344456Y0177331D02*
X0342444Y0177331D01*
X0342444Y0178192D02*
X0344456Y0178192D01*
X0358192Y0176470D02*
X0360204Y0176470D01*
X0358192Y0176470D02*
X0358192Y0178482D01*
X0360204Y0178482D01*
X0360204Y0176470D01*
X0360204Y0177331D02*
X0358192Y0177331D01*
X0358192Y0178192D02*
X0360204Y0178192D01*
X0360204Y0182376D02*
X0358192Y0182376D01*
X0358192Y0184388D01*
X0360204Y0184388D01*
X0360204Y0182376D01*
X0360204Y0183237D02*
X0358192Y0183237D01*
X0358192Y0184098D02*
X0360204Y0184098D01*
X0373940Y0182376D02*
X0375952Y0182376D01*
X0373940Y0182376D02*
X0373940Y0184388D01*
X0375952Y0184388D01*
X0375952Y0182376D01*
X0375952Y0183237D02*
X0373940Y0183237D01*
X0373940Y0184098D02*
X0375952Y0184098D01*
X0375952Y0176470D02*
X0373940Y0176470D01*
X0373940Y0178482D01*
X0375952Y0178482D01*
X0375952Y0176470D01*
X0375952Y0177331D02*
X0373940Y0177331D01*
X0373940Y0178192D02*
X0375952Y0178192D01*
X0375952Y0192218D02*
X0373940Y0192218D01*
X0373940Y0194230D01*
X0375952Y0194230D01*
X0375952Y0192218D01*
X0375952Y0193079D02*
X0373940Y0193079D01*
X0373940Y0193940D02*
X0375952Y0193940D01*
X0375952Y0198124D02*
X0373940Y0198124D01*
X0373940Y0200136D01*
X0375952Y0200136D01*
X0375952Y0198124D01*
X0375952Y0198985D02*
X0373940Y0198985D01*
X0373940Y0199846D02*
X0375952Y0199846D01*
X0375952Y0207966D02*
X0373940Y0207966D01*
X0373940Y0209978D01*
X0375952Y0209978D01*
X0375952Y0207966D01*
X0375952Y0208827D02*
X0373940Y0208827D01*
X0373940Y0209688D02*
X0375952Y0209688D01*
X0375952Y0213872D02*
X0373940Y0213872D01*
X0373940Y0215884D01*
X0375952Y0215884D01*
X0375952Y0213872D01*
X0375952Y0214733D02*
X0373940Y0214733D01*
X0373940Y0215594D02*
X0375952Y0215594D01*
X0375952Y0223714D02*
X0373940Y0223714D01*
X0373940Y0225726D01*
X0375952Y0225726D01*
X0375952Y0223714D01*
X0375952Y0224575D02*
X0373940Y0224575D01*
X0373940Y0225436D02*
X0375952Y0225436D01*
X0375952Y0229620D02*
X0373940Y0229620D01*
X0373940Y0231632D01*
X0375952Y0231632D01*
X0375952Y0229620D01*
X0375952Y0230481D02*
X0373940Y0230481D01*
X0373940Y0231342D02*
X0375952Y0231342D01*
X0375952Y0239463D02*
X0373940Y0239463D01*
X0373940Y0241475D01*
X0375952Y0241475D01*
X0375952Y0239463D01*
X0375952Y0240324D02*
X0373940Y0240324D01*
X0373940Y0241185D02*
X0375952Y0241185D01*
X0375952Y0245368D02*
X0373940Y0245368D01*
X0373940Y0247380D01*
X0375952Y0247380D01*
X0375952Y0245368D01*
X0375952Y0246229D02*
X0373940Y0246229D01*
X0373940Y0247090D02*
X0375952Y0247090D01*
X0363113Y0255014D02*
X0363113Y0257026D01*
X0365519Y0257026D01*
X0365519Y0255014D01*
X0363113Y0255014D01*
X0363113Y0255875D02*
X0365519Y0255875D01*
X0365519Y0256736D02*
X0363113Y0256736D01*
X0363113Y0261313D02*
X0363113Y0263325D01*
X0365519Y0263325D01*
X0365519Y0261313D01*
X0363113Y0261313D01*
X0363113Y0262174D02*
X0365519Y0262174D01*
X0365519Y0263035D02*
X0363113Y0263035D01*
X0372169Y0266825D02*
X0374181Y0266825D01*
X0372169Y0266825D02*
X0372169Y0269231D01*
X0374181Y0269231D01*
X0374181Y0266825D01*
X0374181Y0267686D02*
X0372169Y0267686D01*
X0372169Y0268547D02*
X0374181Y0268547D01*
X0378468Y0266825D02*
X0380480Y0266825D01*
X0378468Y0266825D02*
X0378468Y0269231D01*
X0380480Y0269231D01*
X0380480Y0266825D01*
X0380480Y0267686D02*
X0378468Y0267686D01*
X0378468Y0268547D02*
X0380480Y0268547D01*
X0360204Y0245368D02*
X0358192Y0245368D01*
X0358192Y0247380D01*
X0360204Y0247380D01*
X0360204Y0245368D01*
X0360204Y0246229D02*
X0358192Y0246229D01*
X0358192Y0247090D02*
X0360204Y0247090D01*
X0360204Y0239463D02*
X0358192Y0239463D01*
X0358192Y0241475D01*
X0360204Y0241475D01*
X0360204Y0239463D01*
X0360204Y0240324D02*
X0358192Y0240324D01*
X0358192Y0241185D02*
X0360204Y0241185D01*
X0360204Y0229620D02*
X0358192Y0229620D01*
X0358192Y0231632D01*
X0360204Y0231632D01*
X0360204Y0229620D01*
X0360204Y0230481D02*
X0358192Y0230481D01*
X0358192Y0231342D02*
X0360204Y0231342D01*
X0360204Y0223714D02*
X0358192Y0223714D01*
X0358192Y0225726D01*
X0360204Y0225726D01*
X0360204Y0223714D01*
X0360204Y0224575D02*
X0358192Y0224575D01*
X0358192Y0225436D02*
X0360204Y0225436D01*
X0360204Y0213872D02*
X0358192Y0213872D01*
X0358192Y0215884D01*
X0360204Y0215884D01*
X0360204Y0213872D01*
X0360204Y0214733D02*
X0358192Y0214733D01*
X0358192Y0215594D02*
X0360204Y0215594D01*
X0360204Y0207966D02*
X0358192Y0207966D01*
X0358192Y0209978D01*
X0360204Y0209978D01*
X0360204Y0207966D01*
X0360204Y0208827D02*
X0358192Y0208827D01*
X0358192Y0209688D02*
X0360204Y0209688D01*
X0360204Y0198124D02*
X0358192Y0198124D01*
X0358192Y0200136D01*
X0360204Y0200136D01*
X0360204Y0198124D01*
X0360204Y0198985D02*
X0358192Y0198985D01*
X0358192Y0199846D02*
X0360204Y0199846D01*
X0360204Y0192218D02*
X0358192Y0192218D01*
X0358192Y0194230D01*
X0360204Y0194230D01*
X0360204Y0192218D01*
X0360204Y0193079D02*
X0358192Y0193079D01*
X0358192Y0193940D02*
X0360204Y0193940D01*
X0344456Y0192218D02*
X0342444Y0192218D01*
X0342444Y0194230D01*
X0344456Y0194230D01*
X0344456Y0192218D01*
X0344456Y0193079D02*
X0342444Y0193079D01*
X0342444Y0193940D02*
X0344456Y0193940D01*
X0344456Y0198124D02*
X0342444Y0198124D01*
X0342444Y0200136D01*
X0344456Y0200136D01*
X0344456Y0198124D01*
X0344456Y0198985D02*
X0342444Y0198985D01*
X0342444Y0199846D02*
X0344456Y0199846D01*
X0328708Y0198124D02*
X0326696Y0198124D01*
X0326696Y0200136D01*
X0328708Y0200136D01*
X0328708Y0198124D01*
X0328708Y0198985D02*
X0326696Y0198985D01*
X0326696Y0199846D02*
X0328708Y0199846D01*
X0328708Y0192218D02*
X0326696Y0192218D01*
X0326696Y0194230D01*
X0328708Y0194230D01*
X0328708Y0192218D01*
X0328708Y0193079D02*
X0326696Y0193079D01*
X0326696Y0193940D02*
X0328708Y0193940D01*
X0328708Y0207966D02*
X0326696Y0207966D01*
X0326696Y0209978D01*
X0328708Y0209978D01*
X0328708Y0207966D01*
X0328708Y0208827D02*
X0326696Y0208827D01*
X0326696Y0209688D02*
X0328708Y0209688D01*
X0328708Y0213872D02*
X0326696Y0213872D01*
X0326696Y0215884D01*
X0328708Y0215884D01*
X0328708Y0213872D01*
X0328708Y0214733D02*
X0326696Y0214733D01*
X0326696Y0215594D02*
X0328708Y0215594D01*
X0342444Y0213872D02*
X0344456Y0213872D01*
X0342444Y0213872D02*
X0342444Y0215884D01*
X0344456Y0215884D01*
X0344456Y0213872D01*
X0344456Y0214733D02*
X0342444Y0214733D01*
X0342444Y0215594D02*
X0344456Y0215594D01*
X0344456Y0207966D02*
X0342444Y0207966D01*
X0342444Y0209978D01*
X0344456Y0209978D01*
X0344456Y0207966D01*
X0344456Y0208827D02*
X0342444Y0208827D01*
X0342444Y0209688D02*
X0344456Y0209688D01*
X0344456Y0223714D02*
X0342444Y0223714D01*
X0342444Y0225726D01*
X0344456Y0225726D01*
X0344456Y0223714D01*
X0344456Y0224575D02*
X0342444Y0224575D01*
X0342444Y0225436D02*
X0344456Y0225436D01*
X0344456Y0229620D02*
X0342444Y0229620D01*
X0342444Y0231632D01*
X0344456Y0231632D01*
X0344456Y0229620D01*
X0344456Y0230481D02*
X0342444Y0230481D01*
X0342444Y0231342D02*
X0344456Y0231342D01*
X0328708Y0229620D02*
X0326696Y0229620D01*
X0326696Y0231632D01*
X0328708Y0231632D01*
X0328708Y0229620D01*
X0328708Y0230481D02*
X0326696Y0230481D01*
X0326696Y0231342D02*
X0328708Y0231342D01*
X0328708Y0223714D02*
X0326696Y0223714D01*
X0326696Y0225726D01*
X0328708Y0225726D01*
X0328708Y0223714D01*
X0328708Y0224575D02*
X0326696Y0224575D01*
X0326696Y0225436D02*
X0328708Y0225436D01*
X0328708Y0239463D02*
X0326696Y0239463D01*
X0326696Y0241475D01*
X0328708Y0241475D01*
X0328708Y0239463D01*
X0328708Y0240324D02*
X0326696Y0240324D01*
X0326696Y0241185D02*
X0328708Y0241185D01*
X0328708Y0245368D02*
X0326696Y0245368D01*
X0326696Y0247380D01*
X0328708Y0247380D01*
X0328708Y0245368D01*
X0328708Y0246229D02*
X0326696Y0246229D01*
X0326696Y0247090D02*
X0328708Y0247090D01*
X0342444Y0245368D02*
X0344456Y0245368D01*
X0342444Y0245368D02*
X0342444Y0247380D01*
X0344456Y0247380D01*
X0344456Y0245368D01*
X0344456Y0246229D02*
X0342444Y0246229D01*
X0342444Y0247090D02*
X0344456Y0247090D01*
X0344456Y0239463D02*
X0342444Y0239463D01*
X0342444Y0241475D01*
X0344456Y0241475D01*
X0344456Y0239463D01*
X0344456Y0240324D02*
X0342444Y0240324D01*
X0342444Y0241185D02*
X0344456Y0241185D01*
X0328539Y0258954D02*
X0326527Y0258954D01*
X0328539Y0258954D02*
X0328539Y0256156D01*
X0326527Y0256156D01*
X0326527Y0258954D01*
X0326527Y0257017D02*
X0328539Y0257017D01*
X0328539Y0257878D02*
X0326527Y0257878D01*
X0326527Y0258739D02*
X0328539Y0258739D01*
X0328539Y0263875D02*
X0326527Y0263875D01*
X0328539Y0263875D02*
X0328539Y0261077D01*
X0326527Y0261077D01*
X0326527Y0263875D01*
X0326527Y0261938D02*
X0328539Y0261938D01*
X0328539Y0262799D02*
X0326527Y0262799D01*
X0326527Y0263660D02*
X0328539Y0263660D01*
X0322633Y0263875D02*
X0320621Y0263875D01*
X0322633Y0263875D02*
X0322633Y0261077D01*
X0320621Y0261077D01*
X0320621Y0263875D01*
X0320621Y0261938D02*
X0322633Y0261938D01*
X0322633Y0262799D02*
X0320621Y0262799D01*
X0320621Y0263660D02*
X0322633Y0263660D01*
X0322633Y0258954D02*
X0320621Y0258954D01*
X0322633Y0258954D02*
X0322633Y0256156D01*
X0320621Y0256156D01*
X0320621Y0258954D01*
X0320621Y0257017D02*
X0322633Y0257017D01*
X0322633Y0257878D02*
X0320621Y0257878D01*
X0320621Y0258739D02*
X0322633Y0258739D01*
X0312720Y0280604D02*
X0312720Y0282616D01*
X0315126Y0282616D01*
X0315126Y0280604D01*
X0312720Y0280604D01*
X0312720Y0281465D02*
X0315126Y0281465D01*
X0315126Y0282326D02*
X0312720Y0282326D01*
X0312720Y0286903D02*
X0312720Y0288915D01*
X0315126Y0288915D01*
X0315126Y0286903D01*
X0312720Y0286903D01*
X0312720Y0287764D02*
X0315126Y0287764D01*
X0315126Y0288625D02*
X0312720Y0288625D01*
X0354649Y0122380D02*
X0356661Y0122380D01*
X0356661Y0119974D01*
X0354649Y0119974D01*
X0354649Y0122380D01*
X0354649Y0120835D02*
X0356661Y0120835D01*
X0356661Y0121696D02*
X0354649Y0121696D01*
X0360948Y0122380D02*
X0362960Y0122380D01*
X0362960Y0119974D01*
X0360948Y0119974D01*
X0360948Y0122380D01*
X0360948Y0120835D02*
X0362960Y0120835D01*
X0362960Y0121696D02*
X0360948Y0121696D01*
D17*
X0360322Y0116313D02*
X0358862Y0116313D01*
X0358862Y0117773D01*
X0360322Y0117773D01*
X0360322Y0116313D01*
X0360322Y0116938D02*
X0358862Y0116938D01*
X0358862Y0117563D02*
X0360322Y0117563D01*
X0356385Y0116313D02*
X0354925Y0116313D01*
X0354925Y0117773D01*
X0356385Y0117773D01*
X0356385Y0116313D01*
X0356385Y0116938D02*
X0354925Y0116938D01*
X0354925Y0117563D02*
X0356385Y0117563D01*
X0342917Y0129896D02*
X0342917Y0131356D01*
X0344377Y0131356D01*
X0344377Y0129896D01*
X0342917Y0129896D01*
X0342917Y0130521D02*
X0344377Y0130521D01*
X0344377Y0131146D02*
X0342917Y0131146D01*
X0342917Y0133833D02*
X0342917Y0135293D01*
X0344377Y0135293D01*
X0344377Y0133833D01*
X0342917Y0133833D01*
X0342917Y0134458D02*
X0344377Y0134458D01*
X0344377Y0135083D02*
X0342917Y0135083D01*
X0321657Y0133915D02*
X0321657Y0132455D01*
X0321657Y0133915D02*
X0323117Y0133915D01*
X0323117Y0132455D01*
X0321657Y0132455D01*
X0321657Y0133080D02*
X0323117Y0133080D01*
X0323117Y0133705D02*
X0321657Y0133705D01*
X0321657Y0136392D02*
X0321657Y0137852D01*
X0323117Y0137852D01*
X0323117Y0136392D01*
X0321657Y0136392D01*
X0321657Y0137017D02*
X0323117Y0137017D01*
X0323117Y0137642D02*
X0321657Y0137642D01*
X0321963Y0156327D02*
X0321963Y0157787D01*
X0321963Y0156327D02*
X0320503Y0156327D01*
X0320503Y0157787D01*
X0321963Y0157787D01*
X0321963Y0156952D02*
X0320503Y0156952D01*
X0320503Y0157577D02*
X0321963Y0157577D01*
X0321963Y0160264D02*
X0321963Y0161724D01*
X0321963Y0160264D02*
X0320503Y0160264D01*
X0320503Y0161724D01*
X0321963Y0161724D01*
X0321963Y0160889D02*
X0320503Y0160889D01*
X0320503Y0161514D02*
X0321963Y0161514D01*
X0324593Y0164005D02*
X0324593Y0165465D01*
X0324593Y0164005D02*
X0323133Y0164005D01*
X0323133Y0165465D01*
X0324593Y0165465D01*
X0324593Y0164630D02*
X0323133Y0164630D01*
X0323133Y0165255D02*
X0324593Y0165255D01*
X0324593Y0167942D02*
X0324593Y0169402D01*
X0324593Y0167942D02*
X0323133Y0167942D01*
X0323133Y0169402D01*
X0324593Y0169402D01*
X0324593Y0168567D02*
X0323133Y0168567D01*
X0323133Y0169192D02*
X0324593Y0169192D01*
X0329853Y0169402D02*
X0329853Y0167942D01*
X0328393Y0167942D01*
X0328393Y0169402D01*
X0329853Y0169402D01*
X0329853Y0168567D02*
X0328393Y0168567D01*
X0328393Y0169192D02*
X0329853Y0169192D01*
X0335703Y0169402D02*
X0335703Y0167942D01*
X0334243Y0167942D01*
X0334243Y0169402D01*
X0335703Y0169402D01*
X0335703Y0168567D02*
X0334243Y0168567D01*
X0334243Y0169192D02*
X0335703Y0169192D01*
X0342073Y0169402D02*
X0342073Y0167942D01*
X0340613Y0167942D01*
X0340613Y0169402D01*
X0342073Y0169402D01*
X0342073Y0168567D02*
X0340613Y0168567D01*
X0340613Y0169192D02*
X0342073Y0169192D01*
X0342073Y0165465D02*
X0342073Y0164005D01*
X0340613Y0164005D01*
X0340613Y0165465D01*
X0342073Y0165465D01*
X0342073Y0164630D02*
X0340613Y0164630D01*
X0340613Y0165255D02*
X0342073Y0165255D01*
X0335703Y0165465D02*
X0335703Y0164005D01*
X0334243Y0164005D01*
X0334243Y0165465D01*
X0335703Y0165465D01*
X0335703Y0164630D02*
X0334243Y0164630D01*
X0334243Y0165255D02*
X0335703Y0165255D01*
X0329853Y0165465D02*
X0329853Y0164005D01*
X0328393Y0164005D01*
X0328393Y0165465D01*
X0329853Y0165465D01*
X0329853Y0164630D02*
X0328393Y0164630D01*
X0328393Y0165255D02*
X0329853Y0165255D01*
X0333073Y0161921D02*
X0333073Y0160461D01*
X0331613Y0160461D01*
X0331613Y0161921D01*
X0333073Y0161921D01*
X0333073Y0161086D02*
X0331613Y0161086D01*
X0331613Y0161711D02*
X0333073Y0161711D01*
X0327223Y0161724D02*
X0327223Y0160264D01*
X0325763Y0160264D01*
X0325763Y0161724D01*
X0327223Y0161724D01*
X0327223Y0160889D02*
X0325763Y0160889D01*
X0325763Y0161514D02*
X0327223Y0161514D01*
X0327223Y0157787D02*
X0327223Y0156327D01*
X0325763Y0156327D01*
X0325763Y0157787D01*
X0327223Y0157787D01*
X0327223Y0156952D02*
X0325763Y0156952D01*
X0325763Y0157577D02*
X0327223Y0157577D01*
X0333073Y0157984D02*
X0333073Y0156524D01*
X0331613Y0156524D01*
X0331613Y0157984D01*
X0333073Y0157984D01*
X0333073Y0157149D02*
X0331613Y0157149D01*
X0331613Y0157774D02*
X0333073Y0157774D01*
X0319333Y0164005D02*
X0319333Y0165465D01*
X0319333Y0164005D02*
X0317873Y0164005D01*
X0317873Y0165465D01*
X0319333Y0165465D01*
X0319333Y0164630D02*
X0317873Y0164630D01*
X0317873Y0165255D02*
X0319333Y0165255D01*
X0319333Y0167942D02*
X0319333Y0169402D01*
X0319333Y0167942D02*
X0317873Y0167942D01*
X0317873Y0169402D01*
X0319333Y0169402D01*
X0319333Y0168567D02*
X0317873Y0168567D01*
X0317873Y0169192D02*
X0319333Y0169192D01*
X0314073Y0169402D02*
X0314073Y0167942D01*
X0312613Y0167942D01*
X0312613Y0169402D01*
X0314073Y0169402D01*
X0314073Y0168567D02*
X0312613Y0168567D01*
X0312613Y0169192D02*
X0314073Y0169192D01*
X0308813Y0169402D02*
X0308813Y0167942D01*
X0307353Y0167942D01*
X0307353Y0169402D01*
X0308813Y0169402D01*
X0308813Y0168567D02*
X0307353Y0168567D01*
X0307353Y0169192D02*
X0308813Y0169192D01*
X0308813Y0165465D02*
X0308813Y0164005D01*
X0307353Y0164005D01*
X0307353Y0165465D01*
X0308813Y0165465D01*
X0308813Y0164630D02*
X0307353Y0164630D01*
X0307353Y0165255D02*
X0308813Y0165255D01*
X0314073Y0165465D02*
X0314073Y0164005D01*
X0312613Y0164005D01*
X0312613Y0165465D01*
X0314073Y0165465D01*
X0314073Y0164630D02*
X0312613Y0164630D01*
X0312613Y0165255D02*
X0314073Y0165255D01*
X0316703Y0161724D02*
X0316703Y0160264D01*
X0315243Y0160264D01*
X0315243Y0161724D01*
X0316703Y0161724D01*
X0316703Y0160889D02*
X0315243Y0160889D01*
X0315243Y0161514D02*
X0316703Y0161514D01*
X0311443Y0161724D02*
X0311443Y0160264D01*
X0309983Y0160264D01*
X0309983Y0161724D01*
X0311443Y0161724D01*
X0311443Y0160889D02*
X0309983Y0160889D01*
X0309983Y0161514D02*
X0311443Y0161514D01*
X0311443Y0157787D02*
X0311443Y0156327D01*
X0309983Y0156327D01*
X0309983Y0157787D01*
X0311443Y0157787D01*
X0311443Y0156952D02*
X0309983Y0156952D01*
X0309983Y0157577D02*
X0311443Y0157577D01*
X0316703Y0157787D02*
X0316703Y0156327D01*
X0315243Y0156327D01*
X0315243Y0157787D01*
X0316703Y0157787D01*
X0316703Y0156952D02*
X0315243Y0156952D01*
X0315243Y0157577D02*
X0316703Y0157577D01*
X0291937Y0156006D02*
X0290905Y0157038D01*
X0291937Y0156006D02*
X0290905Y0154974D01*
X0289873Y0156006D01*
X0290905Y0157038D01*
X0291530Y0155599D02*
X0290280Y0155599D01*
X0290091Y0156224D02*
X0291719Y0156224D01*
X0291094Y0156849D02*
X0290716Y0156849D01*
X0289153Y0158790D02*
X0288121Y0159822D01*
X0289153Y0158790D02*
X0288121Y0157758D01*
X0287089Y0158790D01*
X0288121Y0159822D01*
X0288746Y0158383D02*
X0287496Y0158383D01*
X0287307Y0159008D02*
X0288935Y0159008D01*
X0288310Y0159633D02*
X0287932Y0159633D01*
X0285759Y0157459D02*
X0286791Y0156427D01*
X0285759Y0155395D01*
X0284727Y0156427D01*
X0285759Y0157459D01*
X0286384Y0156020D02*
X0285134Y0156020D01*
X0284945Y0156645D02*
X0286573Y0156645D01*
X0285948Y0157270D02*
X0285570Y0157270D01*
X0283425Y0154703D02*
X0282393Y0153671D01*
X0283425Y0154703D02*
X0284457Y0153671D01*
X0283425Y0152639D01*
X0282393Y0153671D01*
X0282800Y0153264D02*
X0284050Y0153264D01*
X0284239Y0153889D02*
X0282611Y0153889D01*
X0283236Y0154514D02*
X0283614Y0154514D01*
X0287016Y0151309D02*
X0285984Y0150277D01*
X0284952Y0151309D01*
X0285984Y0152341D01*
X0287016Y0151309D01*
X0286609Y0150902D02*
X0285359Y0150902D01*
X0285170Y0151527D02*
X0286798Y0151527D01*
X0286173Y0152152D02*
X0285795Y0152152D01*
X0288543Y0154675D02*
X0289575Y0153643D01*
X0288543Y0152611D01*
X0287511Y0153643D01*
X0288543Y0154675D01*
X0289168Y0153236D02*
X0287918Y0153236D01*
X0287729Y0153861D02*
X0289357Y0153861D01*
X0288732Y0154486D02*
X0288354Y0154486D01*
X0284232Y0148525D02*
X0283200Y0147493D01*
X0282168Y0148525D01*
X0283200Y0149557D01*
X0284232Y0148525D01*
X0283825Y0148118D02*
X0282575Y0148118D01*
X0282386Y0148743D02*
X0284014Y0148743D01*
X0283389Y0149368D02*
X0283011Y0149368D01*
X0280641Y0151920D02*
X0279609Y0150888D01*
X0280641Y0151920D02*
X0281673Y0150888D01*
X0280641Y0149856D01*
X0279609Y0150888D01*
X0280016Y0150481D02*
X0281266Y0150481D01*
X0281455Y0151106D02*
X0279827Y0151106D01*
X0280452Y0151731D02*
X0280830Y0151731D01*
X0280472Y0147026D02*
X0279440Y0145994D01*
X0280472Y0147026D02*
X0281504Y0145994D01*
X0280472Y0144962D01*
X0279440Y0145994D01*
X0279847Y0145587D02*
X0281097Y0145587D01*
X0281286Y0146212D02*
X0279658Y0146212D01*
X0280283Y0146837D02*
X0280661Y0146837D01*
X0281850Y0143680D02*
X0280818Y0142648D01*
X0281850Y0143680D02*
X0282882Y0142648D01*
X0281850Y0141616D01*
X0280818Y0142648D01*
X0281225Y0142241D02*
X0282475Y0142241D01*
X0282664Y0142866D02*
X0281036Y0142866D01*
X0281661Y0143491D02*
X0282039Y0143491D01*
X0277688Y0144242D02*
X0276656Y0143210D01*
X0277688Y0144242D02*
X0278720Y0143210D01*
X0277688Y0142178D01*
X0276656Y0143210D01*
X0277063Y0142803D02*
X0278313Y0142803D01*
X0278502Y0143428D02*
X0276874Y0143428D01*
X0277499Y0144053D02*
X0277877Y0144053D01*
X0276189Y0145769D02*
X0275157Y0146801D01*
X0276189Y0145769D02*
X0275157Y0144737D01*
X0274125Y0145769D01*
X0275157Y0146801D01*
X0275782Y0145362D02*
X0274532Y0145362D01*
X0274343Y0145987D02*
X0275971Y0145987D01*
X0275346Y0146612D02*
X0274968Y0146612D01*
X0273405Y0148553D02*
X0272373Y0149585D01*
X0273405Y0148553D02*
X0272373Y0147521D01*
X0271341Y0148553D01*
X0272373Y0149585D01*
X0272998Y0148146D02*
X0271748Y0148146D01*
X0271559Y0148771D02*
X0273187Y0148771D01*
X0272562Y0149396D02*
X0272184Y0149396D01*
X0275157Y0141711D02*
X0274125Y0140679D01*
X0275157Y0141711D02*
X0276189Y0140679D01*
X0275157Y0139647D01*
X0274125Y0140679D01*
X0274532Y0140272D02*
X0275782Y0140272D01*
X0275971Y0140897D02*
X0274343Y0140897D01*
X0274968Y0141522D02*
X0275346Y0141522D01*
X0278034Y0139864D02*
X0279066Y0140896D01*
X0280098Y0139864D01*
X0279066Y0138832D01*
X0278034Y0139864D01*
X0278441Y0139457D02*
X0279691Y0139457D01*
X0279880Y0140082D02*
X0278252Y0140082D01*
X0278877Y0140707D02*
X0279255Y0140707D01*
X0277567Y0137333D02*
X0276535Y0136301D01*
X0275503Y0137333D01*
X0276535Y0138365D01*
X0277567Y0137333D01*
X0277160Y0136926D02*
X0275910Y0136926D01*
X0275721Y0137551D02*
X0277349Y0137551D01*
X0276724Y0138176D02*
X0276346Y0138176D01*
X0272373Y0138927D02*
X0271341Y0137895D01*
X0272373Y0138927D02*
X0273405Y0137895D01*
X0272373Y0136863D01*
X0271341Y0137895D01*
X0271748Y0137488D02*
X0272998Y0137488D01*
X0273187Y0138113D02*
X0271559Y0138113D01*
X0272184Y0138738D02*
X0272562Y0138738D01*
X0269842Y0136396D02*
X0268810Y0135364D01*
X0269842Y0136396D02*
X0270874Y0135364D01*
X0269842Y0134332D01*
X0268810Y0135364D01*
X0269217Y0134957D02*
X0270467Y0134957D01*
X0270656Y0135582D02*
X0269028Y0135582D01*
X0269653Y0136207D02*
X0270031Y0136207D01*
X0273751Y0133517D02*
X0274783Y0134549D01*
X0273751Y0133517D02*
X0272719Y0134549D01*
X0273751Y0135581D01*
X0274783Y0134549D01*
X0274376Y0134142D02*
X0273126Y0134142D01*
X0272937Y0134767D02*
X0274565Y0134767D01*
X0273940Y0135392D02*
X0273562Y0135392D01*
X0271220Y0133050D02*
X0270188Y0132018D01*
X0271220Y0133050D02*
X0272252Y0132018D01*
X0271220Y0130986D01*
X0270188Y0132018D01*
X0270595Y0131611D02*
X0271845Y0131611D01*
X0272034Y0132236D02*
X0270406Y0132236D01*
X0271031Y0132861D02*
X0271409Y0132861D01*
X0267058Y0133612D02*
X0266026Y0132580D01*
X0267058Y0133612D02*
X0268090Y0132580D01*
X0267058Y0131548D01*
X0266026Y0132580D01*
X0266433Y0132173D02*
X0267683Y0132173D01*
X0267872Y0132798D02*
X0266244Y0132798D01*
X0266869Y0133423D02*
X0267247Y0133423D01*
X0268436Y0130266D02*
X0267404Y0129234D01*
X0268436Y0130266D02*
X0269468Y0129234D01*
X0268436Y0128202D01*
X0267404Y0129234D01*
X0267811Y0128827D02*
X0269061Y0128827D01*
X0269250Y0129452D02*
X0267622Y0129452D01*
X0268247Y0130077D02*
X0268625Y0130077D01*
X0277078Y0128868D02*
X0278110Y0129900D01*
X0279142Y0128868D01*
X0278110Y0127836D01*
X0277078Y0128868D01*
X0277485Y0128461D02*
X0278735Y0128461D01*
X0278924Y0129086D02*
X0277296Y0129086D01*
X0277921Y0129711D02*
X0278299Y0129711D01*
X0280621Y0127294D02*
X0281653Y0128326D01*
X0282685Y0127294D01*
X0281653Y0126262D01*
X0280621Y0127294D01*
X0281028Y0126887D02*
X0282278Y0126887D01*
X0282467Y0127512D02*
X0280839Y0127512D01*
X0281464Y0128137D02*
X0281842Y0128137D01*
X0278869Y0125542D02*
X0277837Y0124510D01*
X0278869Y0125542D02*
X0279901Y0124510D01*
X0278869Y0123478D01*
X0277837Y0124510D01*
X0278244Y0124103D02*
X0279494Y0124103D01*
X0279683Y0124728D02*
X0278055Y0124728D01*
X0278680Y0125353D02*
X0279058Y0125353D01*
X0275326Y0127116D02*
X0274294Y0126084D01*
X0275326Y0127116D02*
X0276358Y0126084D01*
X0275326Y0125052D01*
X0274294Y0126084D01*
X0274701Y0125677D02*
X0275951Y0125677D01*
X0276140Y0126302D02*
X0274512Y0126302D01*
X0275137Y0126927D02*
X0275515Y0126927D01*
X0287996Y0120923D02*
X0287996Y0119463D01*
X0287996Y0120923D02*
X0289456Y0120923D01*
X0289456Y0119463D01*
X0287996Y0119463D01*
X0287996Y0120088D02*
X0289456Y0120088D01*
X0289456Y0120713D02*
X0287996Y0120713D01*
X0287996Y0116986D02*
X0287996Y0115526D01*
X0287996Y0116986D02*
X0289456Y0116986D01*
X0289456Y0115526D01*
X0287996Y0115526D01*
X0287996Y0116151D02*
X0289456Y0116151D01*
X0289456Y0116776D02*
X0287996Y0116776D01*
X0291736Y0116510D02*
X0291736Y0117970D01*
X0293196Y0117970D01*
X0293196Y0116510D01*
X0291736Y0116510D01*
X0291736Y0117135D02*
X0293196Y0117135D01*
X0293196Y0117760D02*
X0291736Y0117760D01*
X0294886Y0117970D02*
X0294886Y0116510D01*
X0294886Y0117970D02*
X0296346Y0117970D01*
X0296346Y0116510D01*
X0294886Y0116510D01*
X0294886Y0117135D02*
X0296346Y0117135D01*
X0296346Y0117760D02*
X0294886Y0117760D01*
X0298232Y0116789D02*
X0299692Y0116789D01*
X0299692Y0115329D01*
X0298232Y0115329D01*
X0298232Y0116789D01*
X0298232Y0115954D02*
X0299692Y0115954D01*
X0299692Y0116579D02*
X0298232Y0116579D01*
X0294886Y0114033D02*
X0294886Y0112573D01*
X0294886Y0114033D02*
X0296346Y0114033D01*
X0296346Y0112573D01*
X0294886Y0112573D01*
X0294886Y0113198D02*
X0296346Y0113198D01*
X0296346Y0113823D02*
X0294886Y0113823D01*
X0291736Y0114033D02*
X0291736Y0112573D01*
X0291736Y0114033D02*
X0293196Y0114033D01*
X0293196Y0112573D01*
X0291736Y0112573D01*
X0291736Y0113198D02*
X0293196Y0113198D01*
X0293196Y0113823D02*
X0291736Y0113823D01*
X0292523Y0110490D02*
X0292523Y0109030D01*
X0292523Y0110490D02*
X0293983Y0110490D01*
X0293983Y0109030D01*
X0292523Y0109030D01*
X0292523Y0109655D02*
X0293983Y0109655D01*
X0293983Y0110280D02*
X0292523Y0110280D01*
X0292523Y0106553D02*
X0292523Y0105093D01*
X0292523Y0106553D02*
X0293983Y0106553D01*
X0293983Y0105093D01*
X0292523Y0105093D01*
X0292523Y0105718D02*
X0293983Y0105718D01*
X0293983Y0106343D02*
X0292523Y0106343D01*
X0300694Y0106601D02*
X0300694Y0105141D01*
X0299234Y0105141D01*
X0299234Y0106601D01*
X0300694Y0106601D01*
X0300694Y0105766D02*
X0299234Y0105766D01*
X0299234Y0106391D02*
X0300694Y0106391D01*
X0300694Y0109078D02*
X0300694Y0110538D01*
X0300694Y0109078D02*
X0299234Y0109078D01*
X0299234Y0110538D01*
X0300694Y0110538D01*
X0300694Y0109703D02*
X0299234Y0109703D01*
X0299234Y0110328D02*
X0300694Y0110328D01*
X0302169Y0116789D02*
X0303629Y0116789D01*
X0303629Y0115329D01*
X0302169Y0115329D01*
X0302169Y0116789D01*
X0302169Y0115954D02*
X0303629Y0115954D01*
X0303629Y0116579D02*
X0302169Y0116579D01*
X0308454Y0114477D02*
X0308454Y0113017D01*
X0308454Y0114477D02*
X0309914Y0114477D01*
X0309914Y0113017D01*
X0308454Y0113017D01*
X0308454Y0113642D02*
X0309914Y0113642D01*
X0309914Y0114267D02*
X0308454Y0114267D01*
X0308454Y0110540D02*
X0308454Y0109080D01*
X0308454Y0110540D02*
X0309914Y0110540D01*
X0309914Y0109080D01*
X0308454Y0109080D01*
X0308454Y0109705D02*
X0309914Y0109705D01*
X0309914Y0110330D02*
X0308454Y0110330D01*
X0397641Y0116510D02*
X0397641Y0117970D01*
X0399101Y0117970D01*
X0399101Y0116510D01*
X0397641Y0116510D01*
X0397641Y0117135D02*
X0399101Y0117135D01*
X0399101Y0117760D02*
X0397641Y0117760D01*
X0397641Y0120447D02*
X0397641Y0121907D01*
X0399101Y0121907D01*
X0399101Y0120447D01*
X0397641Y0120447D01*
X0397641Y0121072D02*
X0399101Y0121072D01*
X0399101Y0121697D02*
X0397641Y0121697D01*
X0401972Y0121907D02*
X0401972Y0120447D01*
X0401972Y0121907D02*
X0403432Y0121907D01*
X0403432Y0120447D01*
X0401972Y0120447D01*
X0401972Y0121072D02*
X0403432Y0121072D01*
X0403432Y0121697D02*
X0401972Y0121697D01*
X0401972Y0117970D02*
X0401972Y0116510D01*
X0401972Y0117970D02*
X0403432Y0117970D01*
X0403432Y0116510D01*
X0401972Y0116510D01*
X0401972Y0117135D02*
X0403432Y0117135D01*
X0403432Y0117760D02*
X0401972Y0117760D01*
X0413980Y0149187D02*
X0415440Y0149187D01*
X0413980Y0149187D02*
X0413980Y0150647D01*
X0415440Y0150647D01*
X0415440Y0149187D01*
X0415440Y0149812D02*
X0413980Y0149812D01*
X0413980Y0150437D02*
X0415440Y0150437D01*
X0417917Y0149187D02*
X0419377Y0149187D01*
X0417917Y0149187D02*
X0417917Y0150647D01*
X0419377Y0150647D01*
X0419377Y0149187D01*
X0419377Y0149812D02*
X0417917Y0149812D01*
X0417917Y0150437D02*
X0419377Y0150437D01*
X0459649Y0175292D02*
X0460972Y0174675D01*
X0460355Y0173352D01*
X0459032Y0173969D01*
X0459649Y0175292D01*
X0459036Y0173977D02*
X0460646Y0173977D01*
X0460938Y0174602D02*
X0459327Y0174602D01*
X0459619Y0175227D02*
X0459788Y0175227D01*
X0463217Y0173629D02*
X0464540Y0173012D01*
X0463923Y0171689D01*
X0462600Y0172306D01*
X0463217Y0173629D01*
X0462604Y0172314D02*
X0464214Y0172314D01*
X0464506Y0172939D02*
X0462895Y0172939D01*
X0463187Y0173564D02*
X0463356Y0173564D01*
X0430096Y0187741D02*
X0429479Y0186418D01*
X0430096Y0187741D02*
X0431419Y0187124D01*
X0430802Y0185801D01*
X0429479Y0186418D01*
X0429483Y0186426D02*
X0431093Y0186426D01*
X0431385Y0187051D02*
X0429774Y0187051D01*
X0430066Y0187676D02*
X0430235Y0187676D01*
X0428432Y0184173D02*
X0427815Y0182850D01*
X0428432Y0184173D02*
X0429755Y0183556D01*
X0429138Y0182233D01*
X0427815Y0182850D01*
X0427819Y0182858D02*
X0429429Y0182858D01*
X0429721Y0183483D02*
X0428110Y0183483D01*
X0428402Y0184108D02*
X0428571Y0184108D01*
X0427842Y0192970D02*
X0426382Y0192970D01*
X0427842Y0192970D02*
X0427842Y0191510D01*
X0426382Y0191510D01*
X0426382Y0192970D01*
X0426382Y0192135D02*
X0427842Y0192135D01*
X0427842Y0192760D02*
X0426382Y0192760D01*
X0423905Y0192970D02*
X0422445Y0192970D01*
X0423905Y0192970D02*
X0423905Y0191510D01*
X0422445Y0191510D01*
X0422445Y0192970D01*
X0422445Y0192135D02*
X0423905Y0192135D01*
X0423905Y0192760D02*
X0422445Y0192760D01*
X0417015Y0183521D02*
X0415555Y0183521D01*
X0417015Y0183521D02*
X0417015Y0182061D01*
X0415555Y0182061D01*
X0415555Y0183521D01*
X0415555Y0182686D02*
X0417015Y0182686D01*
X0417015Y0183311D02*
X0415555Y0183311D01*
X0413078Y0183521D02*
X0411618Y0183521D01*
X0413078Y0183521D02*
X0413078Y0182061D01*
X0411618Y0182061D01*
X0411618Y0183521D01*
X0411618Y0182686D02*
X0413078Y0182686D01*
X0413078Y0183311D02*
X0411618Y0183311D01*
X0412012Y0206750D02*
X0413472Y0206750D01*
X0413472Y0205290D01*
X0412012Y0205290D01*
X0412012Y0206750D01*
X0412012Y0205915D02*
X0413472Y0205915D01*
X0413472Y0206540D02*
X0412012Y0206540D01*
X0409535Y0206750D02*
X0408075Y0206750D01*
X0409535Y0206750D02*
X0409535Y0205290D01*
X0408075Y0205290D01*
X0408075Y0206750D01*
X0408075Y0205915D02*
X0409535Y0205915D01*
X0409535Y0206540D02*
X0408075Y0206540D01*
X0405794Y0206750D02*
X0404334Y0206750D01*
X0405794Y0206750D02*
X0405794Y0205290D01*
X0404334Y0205290D01*
X0404334Y0206750D01*
X0404334Y0205915D02*
X0405794Y0205915D01*
X0405794Y0206540D02*
X0404334Y0206540D01*
X0401857Y0206750D02*
X0400397Y0206750D01*
X0401857Y0206750D02*
X0401857Y0205290D01*
X0400397Y0205290D01*
X0400397Y0206750D01*
X0400397Y0205915D02*
X0401857Y0205915D01*
X0401857Y0206540D02*
X0400397Y0206540D01*
X0400873Y0209817D02*
X0400873Y0211277D01*
X0400873Y0209817D02*
X0399413Y0209817D01*
X0399413Y0211277D01*
X0400873Y0211277D01*
X0400873Y0210442D02*
X0399413Y0210442D01*
X0399413Y0211067D02*
X0400873Y0211067D01*
X0400873Y0213754D02*
X0400873Y0215214D01*
X0400873Y0213754D02*
X0399413Y0213754D01*
X0399413Y0215214D01*
X0400873Y0215214D01*
X0400873Y0214379D02*
X0399413Y0214379D01*
X0399413Y0215004D02*
X0400873Y0215004D01*
X0395476Y0215214D02*
X0395476Y0213754D01*
X0395476Y0215214D02*
X0396936Y0215214D01*
X0396936Y0213754D01*
X0395476Y0213754D01*
X0395476Y0214379D02*
X0396936Y0214379D01*
X0396936Y0215004D02*
X0395476Y0215004D01*
X0392999Y0215214D02*
X0392999Y0213754D01*
X0391539Y0213754D01*
X0391539Y0215214D01*
X0392999Y0215214D01*
X0392999Y0214379D02*
X0391539Y0214379D01*
X0391539Y0215004D02*
X0392999Y0215004D01*
X0392999Y0211277D02*
X0392999Y0209817D01*
X0391539Y0209817D01*
X0391539Y0211277D01*
X0392999Y0211277D01*
X0392999Y0210442D02*
X0391539Y0210442D01*
X0391539Y0211067D02*
X0392999Y0211067D01*
X0395476Y0211277D02*
X0395476Y0209817D01*
X0395476Y0211277D02*
X0396936Y0211277D01*
X0396936Y0209817D01*
X0395476Y0209817D01*
X0395476Y0210442D02*
X0396936Y0210442D01*
X0396936Y0211067D02*
X0395476Y0211067D01*
X0404334Y0209226D02*
X0405794Y0209226D01*
X0404334Y0209226D02*
X0404334Y0211868D01*
X0405794Y0211868D01*
X0405794Y0209226D01*
X0405794Y0209851D02*
X0404334Y0209851D01*
X0404334Y0210476D02*
X0405794Y0210476D01*
X0405794Y0211101D02*
X0404334Y0211101D01*
X0404334Y0211726D02*
X0405794Y0211726D01*
X0408075Y0209226D02*
X0409535Y0209226D01*
X0408075Y0209226D02*
X0408075Y0211868D01*
X0409535Y0211868D01*
X0409535Y0209226D01*
X0409535Y0209851D02*
X0408075Y0209851D01*
X0408075Y0210476D02*
X0409535Y0210476D01*
X0409535Y0211101D02*
X0408075Y0211101D01*
X0408075Y0211726D02*
X0409535Y0211726D01*
X0411815Y0209226D02*
X0413275Y0209226D01*
X0411815Y0209226D02*
X0411815Y0211868D01*
X0413275Y0211868D01*
X0413275Y0209226D01*
X0413275Y0209851D02*
X0411815Y0209851D01*
X0411815Y0210476D02*
X0413275Y0210476D01*
X0413275Y0211101D02*
X0411815Y0211101D01*
X0411815Y0211726D02*
X0413275Y0211726D01*
X0417999Y0211277D02*
X0417999Y0209817D01*
X0416539Y0209817D01*
X0416539Y0211277D01*
X0417999Y0211277D01*
X0417999Y0210442D02*
X0416539Y0210442D01*
X0416539Y0211067D02*
X0417999Y0211067D01*
X0417999Y0213361D02*
X0417999Y0214821D01*
X0417999Y0213361D02*
X0416539Y0213361D01*
X0416539Y0214821D01*
X0417999Y0214821D01*
X0417999Y0213986D02*
X0416539Y0213986D01*
X0416539Y0214611D02*
X0417999Y0214611D01*
X0417999Y0217298D02*
X0417999Y0218758D01*
X0417999Y0217298D02*
X0416539Y0217298D01*
X0416539Y0218758D01*
X0417999Y0218758D01*
X0417999Y0217923D02*
X0416539Y0217923D01*
X0416539Y0218548D02*
X0417999Y0218548D01*
X0413275Y0218281D02*
X0411815Y0218281D01*
X0411815Y0220923D01*
X0413275Y0220923D01*
X0413275Y0218281D01*
X0413275Y0218906D02*
X0411815Y0218906D01*
X0411815Y0219531D02*
X0413275Y0219531D01*
X0413275Y0220156D02*
X0411815Y0220156D01*
X0411815Y0220781D02*
X0413275Y0220781D01*
X0412602Y0228010D02*
X0414062Y0228010D01*
X0414062Y0226550D01*
X0412602Y0226550D01*
X0412602Y0228010D01*
X0412602Y0227175D02*
X0414062Y0227175D01*
X0414062Y0227800D02*
X0412602Y0227800D01*
X0416539Y0228010D02*
X0417999Y0228010D01*
X0417999Y0226550D01*
X0416539Y0226550D01*
X0416539Y0228010D01*
X0416539Y0227175D02*
X0417999Y0227175D01*
X0417999Y0227800D02*
X0416539Y0227800D01*
X0406975Y0227025D02*
X0406975Y0225565D01*
X0405515Y0225565D01*
X0405515Y0227025D01*
X0406975Y0227025D01*
X0406975Y0226190D02*
X0405515Y0226190D01*
X0405515Y0226815D02*
X0406975Y0226815D01*
X0406975Y0229502D02*
X0406975Y0230962D01*
X0406975Y0229502D02*
X0405515Y0229502D01*
X0405515Y0230962D01*
X0406975Y0230962D01*
X0406975Y0230127D02*
X0405515Y0230127D01*
X0405515Y0230752D02*
X0406975Y0230752D01*
X0395164Y0235293D02*
X0393704Y0235293D01*
X0395164Y0235293D02*
X0395164Y0233833D01*
X0393704Y0233833D01*
X0393704Y0235293D01*
X0393704Y0234458D02*
X0395164Y0234458D01*
X0395164Y0235083D02*
X0393704Y0235083D01*
X0391227Y0235293D02*
X0389767Y0235293D01*
X0391227Y0235293D02*
X0391227Y0233833D01*
X0389767Y0233833D01*
X0389767Y0235293D01*
X0389767Y0234458D02*
X0391227Y0234458D01*
X0391227Y0235083D02*
X0389767Y0235083D01*
X0407763Y0237967D02*
X0407763Y0239427D01*
X0407763Y0237967D02*
X0406303Y0237967D01*
X0406303Y0239427D01*
X0407763Y0239427D01*
X0407763Y0238592D02*
X0406303Y0238592D01*
X0406303Y0239217D02*
X0407763Y0239217D01*
X0411700Y0239427D02*
X0411700Y0237967D01*
X0410240Y0237967D01*
X0410240Y0239427D01*
X0411700Y0239427D01*
X0411700Y0238592D02*
X0410240Y0238592D01*
X0410240Y0239217D02*
X0411700Y0239217D01*
X0411700Y0241904D02*
X0411700Y0243364D01*
X0411700Y0241904D02*
X0410240Y0241904D01*
X0410240Y0243364D01*
X0411700Y0243364D01*
X0411700Y0242529D02*
X0410240Y0242529D01*
X0410240Y0243154D02*
X0411700Y0243154D01*
X0407763Y0243364D02*
X0407763Y0241904D01*
X0406303Y0241904D01*
X0406303Y0243364D01*
X0407763Y0243364D01*
X0407763Y0242529D02*
X0406303Y0242529D01*
X0406303Y0243154D02*
X0407763Y0243154D01*
X0379613Y0255487D02*
X0378153Y0255487D01*
X0378153Y0256947D01*
X0379613Y0256947D01*
X0379613Y0255487D01*
X0379613Y0256112D02*
X0378153Y0256112D01*
X0378153Y0256737D02*
X0379613Y0256737D01*
X0380007Y0260490D02*
X0378547Y0260490D01*
X0380007Y0260490D02*
X0380007Y0259030D01*
X0378547Y0259030D01*
X0378547Y0260490D01*
X0378547Y0259655D02*
X0380007Y0259655D01*
X0380007Y0260280D02*
X0378547Y0260280D01*
X0376070Y0260490D02*
X0374610Y0260490D01*
X0376070Y0260490D02*
X0376070Y0259030D01*
X0374610Y0259030D01*
X0374610Y0260490D01*
X0374610Y0259655D02*
X0376070Y0259655D01*
X0376070Y0260280D02*
X0374610Y0260280D01*
X0374610Y0262967D02*
X0376070Y0262967D01*
X0374610Y0262967D02*
X0374610Y0264427D01*
X0376070Y0264427D01*
X0376070Y0262967D01*
X0376070Y0263592D02*
X0374610Y0263592D01*
X0374610Y0264217D02*
X0376070Y0264217D01*
X0378547Y0262967D02*
X0380007Y0262967D01*
X0378547Y0262967D02*
X0378547Y0264427D01*
X0380007Y0264427D01*
X0380007Y0262967D01*
X0380007Y0263592D02*
X0378547Y0263592D01*
X0378547Y0264217D02*
X0380007Y0264217D01*
X0369180Y0260687D02*
X0369180Y0259227D01*
X0367720Y0259227D01*
X0367720Y0260687D01*
X0369180Y0260687D01*
X0369180Y0259852D02*
X0367720Y0259852D01*
X0367720Y0260477D02*
X0369180Y0260477D01*
X0369180Y0256750D02*
X0369180Y0255290D01*
X0367720Y0255290D01*
X0367720Y0256750D01*
X0369180Y0256750D01*
X0369180Y0255915D02*
X0367720Y0255915D01*
X0367720Y0256540D02*
X0369180Y0256540D01*
X0374216Y0255487D02*
X0375676Y0255487D01*
X0374216Y0255487D02*
X0374216Y0256947D01*
X0375676Y0256947D01*
X0375676Y0255487D01*
X0375676Y0256112D02*
X0374216Y0256112D01*
X0374216Y0256737D02*
X0375676Y0256737D01*
X0323932Y0254151D02*
X0322472Y0254151D01*
X0323932Y0254151D02*
X0323932Y0252691D01*
X0322472Y0252691D01*
X0322472Y0254151D01*
X0322472Y0253316D02*
X0323932Y0253316D01*
X0323932Y0253941D02*
X0322472Y0253941D01*
X0319995Y0254151D02*
X0318535Y0254151D01*
X0319995Y0254151D02*
X0319995Y0252691D01*
X0318535Y0252691D01*
X0318535Y0254151D01*
X0318535Y0253316D02*
X0319995Y0253316D01*
X0319995Y0253941D02*
X0318535Y0253941D01*
X0313865Y0253518D02*
X0313865Y0254978D01*
X0313865Y0253518D02*
X0312405Y0253518D01*
X0312405Y0254978D01*
X0313865Y0254978D01*
X0313865Y0254143D02*
X0312405Y0254143D01*
X0312405Y0254768D02*
X0313865Y0254768D01*
X0313865Y0257061D02*
X0313865Y0258521D01*
X0313865Y0257061D02*
X0312405Y0257061D01*
X0312405Y0258521D01*
X0313865Y0258521D01*
X0313865Y0257686D02*
X0312405Y0257686D01*
X0312405Y0258311D02*
X0313865Y0258311D01*
X0316382Y0258861D02*
X0316382Y0260321D01*
X0317842Y0260321D01*
X0317842Y0258861D01*
X0316382Y0258861D01*
X0316382Y0259486D02*
X0317842Y0259486D01*
X0317842Y0260111D02*
X0316382Y0260111D01*
X0316382Y0262798D02*
X0316382Y0264258D01*
X0317842Y0264258D01*
X0317842Y0262798D01*
X0316382Y0262798D01*
X0316382Y0263423D02*
X0317842Y0263423D01*
X0317842Y0264048D02*
X0316382Y0264048D01*
X0313865Y0262458D02*
X0313865Y0260998D01*
X0312405Y0260998D01*
X0312405Y0262458D01*
X0313865Y0262458D01*
X0313865Y0261623D02*
X0312405Y0261623D01*
X0312405Y0262248D02*
X0313865Y0262248D01*
X0309928Y0259112D02*
X0308468Y0259112D01*
X0309928Y0259112D02*
X0309928Y0257652D01*
X0308468Y0257652D01*
X0308468Y0259112D01*
X0308468Y0258277D02*
X0309928Y0258277D01*
X0309928Y0258902D02*
X0308468Y0258902D01*
X0305991Y0259112D02*
X0304531Y0259112D01*
X0305991Y0259112D02*
X0305991Y0257652D01*
X0304531Y0257652D01*
X0304531Y0259112D01*
X0304531Y0258277D02*
X0305991Y0258277D01*
X0305991Y0258902D02*
X0304531Y0258902D01*
X0308271Y0254978D02*
X0308271Y0253518D01*
X0308271Y0254978D02*
X0309731Y0254978D01*
X0309731Y0253518D01*
X0308271Y0253518D01*
X0308271Y0254143D02*
X0309731Y0254143D01*
X0309731Y0254768D02*
X0308271Y0254768D01*
X0308271Y0251041D02*
X0308271Y0249581D01*
X0308271Y0251041D02*
X0309731Y0251041D01*
X0309731Y0249581D01*
X0308271Y0249581D01*
X0308271Y0250206D02*
X0309731Y0250206D01*
X0309731Y0250831D02*
X0308271Y0250831D01*
X0313865Y0251041D02*
X0313865Y0249581D01*
X0312405Y0249581D01*
X0312405Y0251041D01*
X0313865Y0251041D01*
X0313865Y0250206D02*
X0312405Y0250206D01*
X0312405Y0250831D02*
X0313865Y0250831D01*
X0293901Y0242576D02*
X0293901Y0241116D01*
X0293901Y0242576D02*
X0295361Y0242576D01*
X0295361Y0241116D01*
X0293901Y0241116D01*
X0293901Y0241741D02*
X0295361Y0241741D01*
X0295361Y0242366D02*
X0293901Y0242366D01*
X0290161Y0242576D02*
X0290161Y0241116D01*
X0290161Y0242576D02*
X0291621Y0242576D01*
X0291621Y0241116D01*
X0290161Y0241116D01*
X0290161Y0241741D02*
X0291621Y0241741D01*
X0291621Y0242366D02*
X0290161Y0242366D01*
X0282566Y0242773D02*
X0282566Y0241313D01*
X0281106Y0241313D01*
X0281106Y0242773D01*
X0282566Y0242773D01*
X0282566Y0241938D02*
X0281106Y0241938D01*
X0281106Y0242563D02*
X0282566Y0242563D01*
X0282566Y0238836D02*
X0282566Y0237376D01*
X0281106Y0237376D01*
X0281106Y0238836D01*
X0282566Y0238836D01*
X0282566Y0238001D02*
X0281106Y0238001D01*
X0281106Y0238626D02*
X0282566Y0238626D01*
X0290161Y0238639D02*
X0290161Y0237179D01*
X0290161Y0238639D02*
X0291621Y0238639D01*
X0291621Y0237179D01*
X0290161Y0237179D01*
X0290161Y0237804D02*
X0291621Y0237804D01*
X0291621Y0238429D02*
X0290161Y0238429D01*
X0293901Y0238639D02*
X0293901Y0237179D01*
X0293901Y0238639D02*
X0295361Y0238639D01*
X0295361Y0237179D01*
X0293901Y0237179D01*
X0293901Y0237804D02*
X0295361Y0237804D01*
X0295361Y0238429D02*
X0293901Y0238429D01*
X0279220Y0223990D02*
X0277760Y0223990D01*
X0277760Y0225450D01*
X0279220Y0225450D01*
X0279220Y0223990D01*
X0279220Y0224615D02*
X0277760Y0224615D01*
X0277760Y0225240D02*
X0279220Y0225240D01*
X0275283Y0223990D02*
X0273823Y0223990D01*
X0273823Y0225450D01*
X0275283Y0225450D01*
X0275283Y0223990D01*
X0275283Y0224615D02*
X0273823Y0224615D01*
X0273823Y0225240D02*
X0275283Y0225240D01*
X0264653Y0206553D02*
X0264653Y0205093D01*
X0263193Y0205093D01*
X0263193Y0206553D01*
X0264653Y0206553D01*
X0264653Y0205718D02*
X0263193Y0205718D01*
X0263193Y0206343D02*
X0264653Y0206343D01*
X0264653Y0202616D02*
X0264653Y0201156D01*
X0263193Y0201156D01*
X0263193Y0202616D01*
X0264653Y0202616D01*
X0264653Y0201781D02*
X0263193Y0201781D01*
X0263193Y0202406D02*
X0264653Y0202406D01*
X0271263Y0200844D02*
X0272723Y0200844D01*
X0272723Y0199384D01*
X0271263Y0199384D01*
X0271263Y0200844D01*
X0271263Y0200009D02*
X0272723Y0200009D01*
X0272723Y0200634D02*
X0271263Y0200634D01*
X0275200Y0200844D02*
X0276660Y0200844D01*
X0276660Y0199384D01*
X0275200Y0199384D01*
X0275200Y0200844D01*
X0275200Y0200009D02*
X0276660Y0200009D01*
X0276660Y0200634D02*
X0275200Y0200634D01*
X0291145Y0192576D02*
X0292605Y0192576D01*
X0292605Y0191116D01*
X0291145Y0191116D01*
X0291145Y0192576D01*
X0291145Y0191741D02*
X0292605Y0191741D01*
X0292605Y0192366D02*
X0291145Y0192366D01*
X0288275Y0190214D02*
X0286815Y0190214D01*
X0288275Y0190214D02*
X0288275Y0188754D01*
X0286815Y0188754D01*
X0286815Y0190214D01*
X0286815Y0189379D02*
X0288275Y0189379D01*
X0288275Y0190004D02*
X0286815Y0190004D01*
X0284338Y0190214D02*
X0282878Y0190214D01*
X0284338Y0190214D02*
X0284338Y0188754D01*
X0282878Y0188754D01*
X0282878Y0190214D01*
X0282878Y0189379D02*
X0284338Y0189379D01*
X0284338Y0190004D02*
X0282878Y0190004D01*
X0295082Y0192576D02*
X0296542Y0192576D01*
X0296542Y0191116D01*
X0295082Y0191116D01*
X0295082Y0192576D01*
X0295082Y0191741D02*
X0296542Y0191741D01*
X0296542Y0192366D02*
X0295082Y0192366D01*
X0262799Y0180962D02*
X0262799Y0179502D01*
X0262799Y0180962D02*
X0264259Y0180962D01*
X0264259Y0179502D01*
X0262799Y0179502D01*
X0262799Y0180127D02*
X0264259Y0180127D01*
X0264259Y0180752D02*
X0262799Y0180752D01*
X0260322Y0179109D02*
X0258862Y0179109D01*
X0258862Y0180569D01*
X0260322Y0180569D01*
X0260322Y0179109D01*
X0260322Y0179734D02*
X0258862Y0179734D01*
X0258862Y0180359D02*
X0260322Y0180359D01*
X0260375Y0175213D02*
X0258915Y0175213D01*
X0258915Y0176673D01*
X0260375Y0176673D01*
X0260375Y0175213D01*
X0260375Y0175838D02*
X0258915Y0175838D01*
X0258915Y0176463D02*
X0260375Y0176463D01*
X0262799Y0177025D02*
X0262799Y0175565D01*
X0262799Y0177025D02*
X0264259Y0177025D01*
X0264259Y0175565D01*
X0262799Y0175565D01*
X0262799Y0176190D02*
X0264259Y0176190D01*
X0264259Y0176815D02*
X0262799Y0176815D01*
X0260412Y0171740D02*
X0258952Y0171740D01*
X0258952Y0173200D01*
X0260412Y0173200D01*
X0260412Y0171740D01*
X0260412Y0172365D02*
X0258952Y0172365D01*
X0258952Y0172990D02*
X0260412Y0172990D01*
X0256475Y0171740D02*
X0255015Y0171740D01*
X0255015Y0173200D01*
X0256475Y0173200D01*
X0256475Y0171740D01*
X0256475Y0172365D02*
X0255015Y0172365D01*
X0255015Y0172990D02*
X0256475Y0172990D01*
X0256438Y0175213D02*
X0254978Y0175213D01*
X0254978Y0176673D01*
X0256438Y0176673D01*
X0256438Y0175213D01*
X0256438Y0175838D02*
X0254978Y0175838D01*
X0254978Y0176463D02*
X0256438Y0176463D01*
X0256385Y0179109D02*
X0254925Y0179109D01*
X0254925Y0180569D01*
X0256385Y0180569D01*
X0256385Y0179109D01*
X0256385Y0179734D02*
X0254925Y0179734D01*
X0254925Y0180359D02*
X0256385Y0180359D01*
X0273232Y0172301D02*
X0273232Y0170841D01*
X0273232Y0172301D02*
X0274692Y0172301D01*
X0274692Y0170841D01*
X0273232Y0170841D01*
X0273232Y0171466D02*
X0274692Y0171466D01*
X0274692Y0172091D02*
X0273232Y0172091D01*
X0278629Y0172301D02*
X0278629Y0170841D01*
X0277169Y0170841D01*
X0277169Y0172301D01*
X0278629Y0172301D01*
X0278629Y0171466D02*
X0277169Y0171466D01*
X0277169Y0172091D02*
X0278629Y0172091D01*
X0282566Y0172301D02*
X0282566Y0170841D01*
X0281106Y0170841D01*
X0281106Y0172301D01*
X0282566Y0172301D01*
X0282566Y0171466D02*
X0281106Y0171466D01*
X0281106Y0172091D02*
X0282566Y0172091D01*
X0285043Y0172301D02*
X0285043Y0170841D01*
X0285043Y0172301D02*
X0286503Y0172301D01*
X0286503Y0170841D01*
X0285043Y0170841D01*
X0285043Y0171466D02*
X0286503Y0171466D01*
X0286503Y0172091D02*
X0285043Y0172091D01*
X0285043Y0168364D02*
X0285043Y0166904D01*
X0285043Y0168364D02*
X0286503Y0168364D01*
X0286503Y0166904D01*
X0285043Y0166904D01*
X0285043Y0167529D02*
X0286503Y0167529D01*
X0286503Y0168154D02*
X0285043Y0168154D01*
X0282566Y0168364D02*
X0282566Y0166904D01*
X0281106Y0166904D01*
X0281106Y0168364D01*
X0282566Y0168364D01*
X0282566Y0167529D02*
X0281106Y0167529D01*
X0281106Y0168154D02*
X0282566Y0168154D01*
X0278629Y0168364D02*
X0278629Y0166904D01*
X0277169Y0166904D01*
X0277169Y0168364D01*
X0278629Y0168364D01*
X0278629Y0167529D02*
X0277169Y0167529D01*
X0277169Y0168154D02*
X0278629Y0168154D01*
X0273232Y0168364D02*
X0273232Y0166904D01*
X0273232Y0168364D02*
X0274692Y0168364D01*
X0274692Y0166904D01*
X0273232Y0166904D01*
X0273232Y0167529D02*
X0274692Y0167529D01*
X0274692Y0168154D02*
X0273232Y0168154D01*
X0404334Y0218281D02*
X0405794Y0218281D01*
X0404334Y0218281D02*
X0404334Y0220923D01*
X0405794Y0220923D01*
X0405794Y0218281D01*
X0405794Y0218906D02*
X0404334Y0218906D01*
X0404334Y0219531D02*
X0405794Y0219531D01*
X0405794Y0220156D02*
X0404334Y0220156D01*
X0404334Y0220781D02*
X0405794Y0220781D01*
X0417999Y0207340D02*
X0417999Y0205880D01*
X0416539Y0205880D01*
X0416539Y0207340D01*
X0417999Y0207340D01*
X0417999Y0206505D02*
X0416539Y0206505D01*
X0416539Y0207130D02*
X0417999Y0207130D01*
X0313586Y0271038D02*
X0313586Y0272498D01*
X0315046Y0272498D01*
X0315046Y0271038D01*
X0313586Y0271038D01*
X0313586Y0271663D02*
X0315046Y0271663D01*
X0315046Y0272288D02*
X0313586Y0272288D01*
X0313586Y0274975D02*
X0313586Y0276435D01*
X0315046Y0276435D01*
X0315046Y0274975D01*
X0313586Y0274975D01*
X0313586Y0275600D02*
X0315046Y0275600D01*
X0315046Y0276225D02*
X0313586Y0276225D01*
X0295164Y0290214D02*
X0293704Y0290214D01*
X0295164Y0290214D02*
X0295164Y0288754D01*
X0293704Y0288754D01*
X0293704Y0290214D01*
X0293704Y0289379D02*
X0295164Y0289379D01*
X0295164Y0290004D02*
X0293704Y0290004D01*
X0291227Y0290214D02*
X0289767Y0290214D01*
X0291227Y0290214D02*
X0291227Y0288754D01*
X0289767Y0288754D01*
X0289767Y0290214D01*
X0289767Y0289379D02*
X0291227Y0289379D01*
X0291227Y0290004D02*
X0289767Y0290004D01*
X0284731Y0279978D02*
X0283271Y0279978D01*
X0284731Y0279978D02*
X0284731Y0278518D01*
X0283271Y0278518D01*
X0283271Y0279978D01*
X0283271Y0279143D02*
X0284731Y0279143D01*
X0284731Y0279768D02*
X0283271Y0279768D01*
X0280794Y0279978D02*
X0279334Y0279978D01*
X0280794Y0279978D02*
X0280794Y0278518D01*
X0279334Y0278518D01*
X0279334Y0279978D01*
X0279334Y0279143D02*
X0280794Y0279143D01*
X0280794Y0279768D02*
X0279334Y0279768D01*
X0266512Y0278629D02*
X0265895Y0277306D01*
X0264572Y0277923D01*
X0265189Y0279246D01*
X0266512Y0278629D01*
X0266186Y0277931D02*
X0264576Y0277931D01*
X0264867Y0278556D02*
X0266478Y0278556D01*
X0265328Y0279181D02*
X0265159Y0279181D01*
X0264848Y0275061D02*
X0264231Y0273738D01*
X0262908Y0274355D01*
X0263525Y0275678D01*
X0264848Y0275061D01*
X0264522Y0274363D02*
X0262912Y0274363D01*
X0263203Y0274988D02*
X0264814Y0274988D01*
X0263664Y0275613D02*
X0263495Y0275613D01*
X0283299Y0260742D02*
X0282682Y0259419D01*
X0283299Y0260742D02*
X0284622Y0260125D01*
X0284005Y0258802D01*
X0282682Y0259419D01*
X0282686Y0259427D02*
X0284296Y0259427D01*
X0284588Y0260052D02*
X0282977Y0260052D01*
X0283269Y0260677D02*
X0283438Y0260677D01*
X0281635Y0257174D02*
X0281018Y0255851D01*
X0281635Y0257174D02*
X0282958Y0256557D01*
X0282341Y0255234D01*
X0281018Y0255851D01*
X0281022Y0255859D02*
X0282632Y0255859D01*
X0282924Y0256484D02*
X0281313Y0256484D01*
X0281605Y0257109D02*
X0281774Y0257109D01*
X0312684Y0292298D02*
X0312684Y0293758D01*
X0312684Y0292298D02*
X0311224Y0292298D01*
X0311224Y0293758D01*
X0312684Y0293758D01*
X0312684Y0292923D02*
X0311224Y0292923D01*
X0311224Y0293548D02*
X0312684Y0293548D01*
X0312684Y0300959D02*
X0312684Y0302419D01*
X0312684Y0300959D02*
X0311224Y0300959D01*
X0311224Y0302419D01*
X0312684Y0302419D01*
X0312684Y0301584D02*
X0311224Y0301584D01*
X0311224Y0302209D02*
X0312684Y0302209D01*
D18*
X0273437Y0278779D02*
X0272121Y0275958D01*
X0268943Y0277441D01*
X0270259Y0280262D01*
X0273437Y0278779D01*
X0272743Y0277292D02*
X0269262Y0277292D01*
X0269496Y0278626D02*
X0273366Y0278626D01*
X0270906Y0279960D02*
X0270118Y0279960D01*
X0270775Y0273070D02*
X0269459Y0270249D01*
X0266281Y0271732D01*
X0267597Y0274553D01*
X0270775Y0273070D01*
X0270081Y0271583D02*
X0266600Y0271583D01*
X0266834Y0272917D02*
X0270704Y0272917D01*
X0268244Y0274251D02*
X0267456Y0274251D01*
X0278981Y0269244D02*
X0277665Y0266423D01*
X0274487Y0267906D01*
X0275803Y0270727D01*
X0278981Y0269244D01*
X0278287Y0267757D02*
X0274806Y0267757D01*
X0275040Y0269091D02*
X0278910Y0269091D01*
X0276450Y0270425D02*
X0275662Y0270425D01*
X0280327Y0272132D02*
X0281643Y0274953D01*
X0280327Y0272132D02*
X0277149Y0273615D01*
X0278465Y0276436D01*
X0281643Y0274953D01*
X0280949Y0273466D02*
X0277468Y0273466D01*
X0277702Y0274800D02*
X0281572Y0274800D01*
X0279112Y0276134D02*
X0278324Y0276134D01*
X0227187Y0221264D02*
X0224985Y0219062D01*
X0227187Y0221264D02*
X0230891Y0217560D01*
X0228689Y0215358D01*
X0224985Y0219062D01*
X0227355Y0216692D02*
X0230023Y0216692D01*
X0230425Y0218026D02*
X0226021Y0218026D01*
X0225283Y0219360D02*
X0229091Y0219360D01*
X0227757Y0220694D02*
X0226617Y0220694D01*
X0214660Y0208736D02*
X0212458Y0206534D01*
X0214660Y0208736D02*
X0218364Y0205032D01*
X0216162Y0202830D01*
X0212458Y0206534D01*
X0214828Y0204164D02*
X0217496Y0204164D01*
X0217898Y0205498D02*
X0213494Y0205498D01*
X0212756Y0206832D02*
X0216564Y0206832D01*
X0215230Y0208166D02*
X0214090Y0208166D01*
X0248064Y0195983D02*
X0250266Y0198185D01*
X0253970Y0194481D01*
X0251768Y0192279D01*
X0248064Y0195983D01*
X0250434Y0193613D02*
X0253102Y0193613D01*
X0253504Y0194947D02*
X0249100Y0194947D01*
X0248362Y0196281D02*
X0252170Y0196281D01*
X0250836Y0197615D02*
X0249696Y0197615D01*
X0237738Y0185658D02*
X0235536Y0183456D01*
X0237738Y0185658D02*
X0241442Y0181954D01*
X0239240Y0179752D01*
X0235536Y0183456D01*
X0237906Y0181086D02*
X0240574Y0181086D01*
X0240976Y0182420D02*
X0236572Y0182420D01*
X0235834Y0183754D02*
X0239642Y0183754D01*
X0238308Y0185088D02*
X0237168Y0185088D01*
X0279878Y0119539D02*
X0282574Y0121096D01*
X0284328Y0118059D01*
X0281632Y0116502D01*
X0279878Y0119539D01*
X0280862Y0117836D02*
X0283942Y0117836D01*
X0283686Y0119170D02*
X0280091Y0119170D01*
X0281549Y0120504D02*
X0282916Y0120504D01*
X0277119Y0117946D02*
X0274423Y0116389D01*
X0277119Y0117946D02*
X0278873Y0114909D01*
X0276177Y0113352D01*
X0274423Y0116389D01*
X0275407Y0114686D02*
X0278487Y0114686D01*
X0278231Y0116020D02*
X0274636Y0116020D01*
X0276094Y0117354D02*
X0277461Y0117354D01*
X0284406Y0111697D02*
X0287102Y0113254D01*
X0288856Y0110217D01*
X0286160Y0108660D01*
X0284406Y0111697D01*
X0285390Y0109994D02*
X0288470Y0109994D01*
X0288214Y0111328D02*
X0284619Y0111328D01*
X0286077Y0112662D02*
X0287444Y0112662D01*
X0281646Y0110104D02*
X0278950Y0108547D01*
X0281646Y0110104D02*
X0283400Y0107067D01*
X0280704Y0105510D01*
X0278950Y0108547D01*
X0279934Y0106844D02*
X0283014Y0106844D01*
X0282758Y0108178D02*
X0279163Y0108178D01*
X0280621Y0109512D02*
X0281988Y0109512D01*
X0432930Y0194481D02*
X0435132Y0192279D01*
X0432930Y0194481D02*
X0436634Y0198185D01*
X0438836Y0195983D01*
X0435132Y0192279D01*
X0436466Y0193613D02*
X0433798Y0193613D01*
X0433396Y0194947D02*
X0437800Y0194947D01*
X0438538Y0196281D02*
X0434730Y0196281D01*
X0436064Y0197615D02*
X0437204Y0197615D01*
X0445458Y0181954D02*
X0447660Y0179752D01*
X0445458Y0181954D02*
X0449162Y0185658D01*
X0451364Y0183456D01*
X0447660Y0179752D01*
X0448994Y0181086D02*
X0446326Y0181086D01*
X0445924Y0182420D02*
X0450328Y0182420D01*
X0451066Y0183754D02*
X0447258Y0183754D01*
X0448592Y0185088D02*
X0449732Y0185088D01*
X0468536Y0205032D02*
X0470738Y0202830D01*
X0468536Y0205032D02*
X0472240Y0208736D01*
X0474442Y0206534D01*
X0470738Y0202830D01*
X0472072Y0204164D02*
X0469404Y0204164D01*
X0469002Y0205498D02*
X0473406Y0205498D01*
X0474144Y0206832D02*
X0470336Y0206832D01*
X0471670Y0208166D02*
X0472810Y0208166D01*
X0458211Y0215358D02*
X0456009Y0217560D01*
X0459713Y0221264D01*
X0461915Y0219062D01*
X0458211Y0215358D01*
X0459545Y0216692D02*
X0456877Y0216692D01*
X0456475Y0218026D02*
X0460879Y0218026D01*
X0461617Y0219360D02*
X0457809Y0219360D01*
X0459143Y0220694D02*
X0460283Y0220694D01*
D19*
X0315651Y0141956D02*
X0313981Y0140286D01*
X0312868Y0141399D02*
X0314538Y0143069D01*
X0313424Y0144183D02*
X0311754Y0142513D01*
X0310640Y0143626D02*
X0312310Y0145296D01*
X0311197Y0146410D02*
X0309527Y0144740D01*
X0308413Y0145854D02*
X0310083Y0147524D01*
X0308970Y0148637D02*
X0307300Y0146967D01*
X0306186Y0148081D02*
X0307856Y0149751D01*
X0306743Y0150864D02*
X0305073Y0149194D01*
X0303959Y0150308D02*
X0305629Y0151978D01*
X0304516Y0153091D02*
X0302846Y0151421D01*
X0301732Y0152535D02*
X0303402Y0154205D01*
X0298948Y0152535D02*
X0297278Y0154205D01*
X0296164Y0153091D02*
X0297834Y0151421D01*
X0296721Y0150308D02*
X0295051Y0151978D01*
X0293937Y0150864D02*
X0295607Y0149194D01*
X0294494Y0148081D02*
X0292824Y0149751D01*
X0291710Y0148637D02*
X0293380Y0146967D01*
X0292267Y0145854D02*
X0290597Y0147524D01*
X0289483Y0146410D02*
X0291153Y0144740D01*
X0290039Y0143626D02*
X0288369Y0145296D01*
X0287256Y0144183D02*
X0288926Y0142513D01*
X0287812Y0141399D02*
X0286142Y0143069D01*
X0285029Y0141956D02*
X0286699Y0140286D01*
X0286699Y0137502D02*
X0285029Y0135832D01*
X0286142Y0134718D02*
X0287812Y0136388D01*
X0288926Y0135274D02*
X0287256Y0133604D01*
X0288369Y0132491D02*
X0290039Y0134161D01*
X0291153Y0133047D02*
X0289483Y0131377D01*
X0290597Y0130264D02*
X0292267Y0131934D01*
X0293380Y0130820D02*
X0291710Y0129150D01*
X0292824Y0128037D02*
X0294494Y0129707D01*
X0295607Y0128593D02*
X0293937Y0126923D01*
X0295051Y0125810D02*
X0296721Y0127480D01*
X0297834Y0126366D02*
X0296164Y0124696D01*
X0297278Y0123582D02*
X0298948Y0125252D01*
X0301732Y0125252D02*
X0303402Y0123582D01*
X0304516Y0124696D02*
X0302846Y0126366D01*
X0303959Y0127480D02*
X0305629Y0125810D01*
X0306743Y0126923D02*
X0305073Y0128593D01*
X0306186Y0129707D02*
X0307856Y0128037D01*
X0308970Y0129150D02*
X0307300Y0130820D01*
X0308413Y0131934D02*
X0310083Y0130264D01*
X0311197Y0131377D02*
X0309527Y0133047D01*
X0310640Y0134161D02*
X0312310Y0132491D01*
X0313424Y0133604D02*
X0311754Y0135274D01*
X0312868Y0136388D02*
X0314538Y0134718D01*
X0315651Y0135832D02*
X0313981Y0137502D01*
D20*
X0308339Y0138690D02*
X0308260Y0138500D01*
X0308135Y0138337D01*
X0306186Y0136388D01*
X0306023Y0136263D01*
X0305833Y0136184D01*
X0305629Y0136158D01*
X0305426Y0136184D01*
X0305236Y0136263D01*
X0305073Y0136388D01*
X0303124Y0138337D01*
X0302999Y0138500D01*
X0302920Y0138690D01*
X0302893Y0138894D01*
X0302920Y0139097D01*
X0302999Y0139287D01*
X0303124Y0139450D01*
X0305073Y0141399D01*
X0305236Y0141524D01*
X0305426Y0141603D01*
X0305629Y0141630D01*
X0305833Y0141603D01*
X0306023Y0141524D01*
X0306186Y0141399D01*
X0308135Y0139450D01*
X0308260Y0139287D01*
X0308339Y0139097D01*
X0308365Y0138894D01*
X0308339Y0138690D01*
X0308320Y0138644D02*
X0302939Y0138644D01*
X0302939Y0139143D02*
X0308320Y0139143D01*
X0307944Y0139641D02*
X0303314Y0139641D01*
X0303813Y0140140D02*
X0307446Y0140140D01*
X0306947Y0140638D02*
X0304311Y0140638D01*
X0304810Y0141137D02*
X0306449Y0141137D01*
X0307943Y0138146D02*
X0303315Y0138146D01*
X0303814Y0137647D02*
X0307445Y0137647D01*
X0306946Y0137148D02*
X0304312Y0137148D01*
X0304811Y0136650D02*
X0306448Y0136650D01*
X0302971Y0133998D02*
X0303049Y0133808D01*
X0303076Y0133604D01*
X0303049Y0133401D01*
X0302971Y0133211D01*
X0302845Y0133048D01*
X0300897Y0131099D01*
X0300734Y0130974D01*
X0300544Y0130895D01*
X0300340Y0130868D01*
X0300136Y0130895D01*
X0299946Y0130974D01*
X0299783Y0131099D01*
X0297834Y0133048D01*
X0297709Y0133211D01*
X0297631Y0133401D01*
X0297604Y0133604D01*
X0297631Y0133808D01*
X0297709Y0133998D01*
X0297834Y0134161D01*
X0299783Y0136110D01*
X0299946Y0136235D01*
X0300136Y0136314D01*
X0300340Y0136340D01*
X0300544Y0136314D01*
X0300734Y0136235D01*
X0300897Y0136110D01*
X0302845Y0134161D01*
X0302971Y0133998D01*
X0302848Y0134157D02*
X0297832Y0134157D01*
X0297611Y0133659D02*
X0303069Y0133659D01*
X0302932Y0133160D02*
X0297748Y0133160D01*
X0298220Y0132662D02*
X0302460Y0132662D01*
X0301961Y0132163D02*
X0298719Y0132163D01*
X0299217Y0131665D02*
X0301463Y0131665D01*
X0300964Y0131166D02*
X0299716Y0131166D01*
X0298329Y0134656D02*
X0302351Y0134656D01*
X0301852Y0135154D02*
X0298828Y0135154D01*
X0299326Y0135653D02*
X0301354Y0135653D01*
X0300842Y0136151D02*
X0299837Y0136151D01*
X0297556Y0138337D02*
X0295607Y0136388D01*
X0295444Y0136263D01*
X0295254Y0136184D01*
X0295051Y0136158D01*
X0294847Y0136184D01*
X0294657Y0136263D01*
X0294494Y0136388D01*
X0292545Y0138337D01*
X0292420Y0138500D01*
X0292341Y0138690D01*
X0292314Y0138894D01*
X0292341Y0139097D01*
X0292420Y0139287D01*
X0292545Y0139450D01*
X0294494Y0141399D01*
X0294657Y0141524D01*
X0294847Y0141603D01*
X0295051Y0141630D01*
X0295254Y0141603D01*
X0295444Y0141524D01*
X0295607Y0141399D01*
X0297556Y0139450D01*
X0297681Y0139287D01*
X0297760Y0139097D01*
X0297787Y0138894D01*
X0297760Y0138690D01*
X0297681Y0138500D01*
X0297556Y0138337D01*
X0297365Y0138146D02*
X0292736Y0138146D01*
X0292360Y0138644D02*
X0297741Y0138644D01*
X0297741Y0139143D02*
X0292360Y0139143D01*
X0292736Y0139641D02*
X0297365Y0139641D01*
X0296867Y0140140D02*
X0293234Y0140140D01*
X0293733Y0140638D02*
X0296368Y0140638D01*
X0295870Y0141137D02*
X0294231Y0141137D01*
X0293235Y0137647D02*
X0296866Y0137647D01*
X0296368Y0137148D02*
X0293733Y0137148D01*
X0294232Y0136650D02*
X0295869Y0136650D01*
X0299783Y0141678D02*
X0297834Y0143626D01*
X0297709Y0143789D01*
X0297631Y0143979D01*
X0297604Y0144183D01*
X0297631Y0144387D01*
X0297709Y0144577D01*
X0297834Y0144740D01*
X0299783Y0146689D01*
X0299946Y0146814D01*
X0300136Y0146892D01*
X0300340Y0146919D01*
X0300544Y0146892D01*
X0300734Y0146814D01*
X0300897Y0146689D01*
X0302845Y0144740D01*
X0302971Y0144577D01*
X0303049Y0144387D01*
X0303076Y0144183D01*
X0303049Y0143979D01*
X0302971Y0143789D01*
X0302845Y0143626D01*
X0300897Y0141678D01*
X0300734Y0141552D01*
X0300544Y0141474D01*
X0300340Y0141447D01*
X0300136Y0141474D01*
X0299946Y0141552D01*
X0299783Y0141678D01*
X0299839Y0141635D02*
X0300841Y0141635D01*
X0301353Y0142134D02*
X0299327Y0142134D01*
X0298829Y0142632D02*
X0301851Y0142632D01*
X0302350Y0143131D02*
X0298330Y0143131D01*
X0297832Y0143629D02*
X0302848Y0143629D01*
X0303069Y0144128D02*
X0297611Y0144128D01*
X0297747Y0144626D02*
X0302933Y0144626D01*
X0302461Y0145125D02*
X0298219Y0145125D01*
X0298718Y0145623D02*
X0301962Y0145623D01*
X0301464Y0146122D02*
X0299216Y0146122D01*
X0299715Y0146620D02*
X0300965Y0146620D01*
X0342348Y0126177D02*
X0342348Y0121374D01*
X0344553Y0121374D01*
X0344553Y0126177D01*
X0342348Y0126177D01*
X0342348Y0125683D02*
X0344553Y0125683D01*
X0344553Y0125184D02*
X0342348Y0125184D01*
X0342348Y0124686D02*
X0344553Y0124686D01*
X0344553Y0124187D02*
X0342348Y0124187D01*
X0342348Y0123689D02*
X0344553Y0123689D01*
X0344553Y0123190D02*
X0342348Y0123190D01*
X0342348Y0122692D02*
X0344553Y0122692D01*
X0344553Y0122193D02*
X0342348Y0122193D01*
X0342348Y0121695D02*
X0344553Y0121695D01*
X0301725Y0269039D02*
X0301521Y0269012D01*
X0299553Y0269012D01*
X0299349Y0269039D01*
X0299159Y0269117D01*
X0298996Y0269242D01*
X0298871Y0269406D01*
X0298792Y0269595D01*
X0298765Y0269799D01*
X0298765Y0271768D01*
X0298792Y0271972D01*
X0298871Y0272161D01*
X0298996Y0272324D01*
X0299159Y0272450D01*
X0299349Y0272528D01*
X0299553Y0272555D01*
X0301521Y0272555D01*
X0301725Y0272528D01*
X0301915Y0272450D01*
X0302078Y0272324D01*
X0302203Y0272161D01*
X0302282Y0271972D01*
X0302308Y0271768D01*
X0302308Y0269799D01*
X0302282Y0269595D01*
X0302203Y0269406D01*
X0302078Y0269242D01*
X0301915Y0269117D01*
X0301725Y0269039D01*
X0302087Y0269254D02*
X0298987Y0269254D01*
X0298771Y0269753D02*
X0302302Y0269753D01*
X0302308Y0270251D02*
X0298765Y0270251D01*
X0298765Y0270750D02*
X0302308Y0270750D01*
X0302308Y0271248D02*
X0298765Y0271248D01*
X0298765Y0271747D02*
X0302308Y0271747D01*
X0302139Y0272245D02*
X0298935Y0272245D01*
X0296376Y0271972D02*
X0296403Y0271768D01*
X0296403Y0269799D01*
X0296376Y0269595D01*
X0296297Y0269406D01*
X0296172Y0269242D01*
X0296009Y0269117D01*
X0295819Y0269039D01*
X0295616Y0269012D01*
X0293647Y0269012D01*
X0293443Y0269039D01*
X0293253Y0269117D01*
X0293090Y0269242D01*
X0292965Y0269406D01*
X0292886Y0269595D01*
X0292860Y0269799D01*
X0292860Y0271768D01*
X0292886Y0271972D01*
X0292965Y0272161D01*
X0293090Y0272324D01*
X0293253Y0272450D01*
X0293443Y0272528D01*
X0293647Y0272555D01*
X0295616Y0272555D01*
X0295819Y0272528D01*
X0296009Y0272450D01*
X0296172Y0272324D01*
X0296297Y0272161D01*
X0296376Y0271972D01*
X0296403Y0271747D02*
X0292860Y0271747D01*
X0292860Y0271248D02*
X0296403Y0271248D01*
X0296403Y0270750D02*
X0292860Y0270750D01*
X0292860Y0270251D02*
X0296403Y0270251D01*
X0296397Y0269753D02*
X0292866Y0269753D01*
X0293081Y0269254D02*
X0296181Y0269254D01*
X0296233Y0272245D02*
X0293029Y0272245D01*
X0293443Y0274944D02*
X0293253Y0275023D01*
X0293090Y0275148D01*
X0292965Y0275311D01*
X0292886Y0275501D01*
X0292860Y0275705D01*
X0292860Y0277673D01*
X0292886Y0277877D01*
X0292965Y0278067D01*
X0293090Y0278230D01*
X0293253Y0278355D01*
X0293443Y0278434D01*
X0293647Y0278461D01*
X0295616Y0278461D01*
X0295819Y0278434D01*
X0296009Y0278355D01*
X0296172Y0278230D01*
X0296297Y0278067D01*
X0296376Y0277877D01*
X0296403Y0277673D01*
X0296403Y0275705D01*
X0296376Y0275501D01*
X0296297Y0275311D01*
X0296172Y0275148D01*
X0296009Y0275023D01*
X0295819Y0274944D01*
X0295616Y0274917D01*
X0293647Y0274917D01*
X0293443Y0274944D01*
X0293023Y0275236D02*
X0296240Y0275236D01*
X0296403Y0275735D02*
X0292860Y0275735D01*
X0292860Y0276233D02*
X0296403Y0276233D01*
X0296403Y0276732D02*
X0292860Y0276732D01*
X0292860Y0277230D02*
X0296403Y0277230D01*
X0296396Y0277729D02*
X0292867Y0277729D01*
X0293088Y0278227D02*
X0296174Y0278227D01*
X0298792Y0277877D02*
X0298871Y0278067D01*
X0298996Y0278230D01*
X0299159Y0278355D01*
X0299349Y0278434D01*
X0299553Y0278461D01*
X0301521Y0278461D01*
X0301725Y0278434D01*
X0301915Y0278355D01*
X0302078Y0278230D01*
X0302203Y0278067D01*
X0302282Y0277877D01*
X0302308Y0277673D01*
X0302308Y0275705D01*
X0302282Y0275501D01*
X0302203Y0275311D01*
X0302078Y0275148D01*
X0301915Y0275023D01*
X0301725Y0274944D01*
X0301521Y0274917D01*
X0299553Y0274917D01*
X0299349Y0274944D01*
X0299159Y0275023D01*
X0298996Y0275148D01*
X0298871Y0275311D01*
X0298792Y0275501D01*
X0298765Y0275705D01*
X0298765Y0277673D01*
X0298792Y0277877D01*
X0298772Y0277729D02*
X0302301Y0277729D01*
X0302308Y0277230D02*
X0298765Y0277230D01*
X0298765Y0276732D02*
X0302308Y0276732D01*
X0302308Y0276233D02*
X0298765Y0276233D01*
X0298765Y0275735D02*
X0302308Y0275735D01*
X0302146Y0275236D02*
X0298928Y0275236D01*
X0298994Y0278227D02*
X0302080Y0278227D01*
D21*
X0337930Y0148925D02*
X0337930Y0146775D01*
X0335190Y0146775D01*
X0335190Y0148925D01*
X0337930Y0148925D01*
X0337930Y0147695D02*
X0335190Y0147695D01*
X0335190Y0148615D02*
X0337930Y0148615D01*
X0337930Y0142036D02*
X0337930Y0139886D01*
X0335190Y0139886D01*
X0335190Y0142036D01*
X0337930Y0142036D01*
X0337930Y0140806D02*
X0335190Y0140806D01*
X0335190Y0141726D02*
X0337930Y0141726D01*
X0351710Y0142036D02*
X0351710Y0139886D01*
X0348970Y0139886D01*
X0348970Y0142036D01*
X0351710Y0142036D01*
X0351710Y0140806D02*
X0348970Y0140806D01*
X0348970Y0141726D02*
X0351710Y0141726D01*
X0351710Y0146775D02*
X0351710Y0148925D01*
X0351710Y0146775D02*
X0348970Y0146775D01*
X0348970Y0148925D01*
X0351710Y0148925D01*
X0351710Y0147695D02*
X0348970Y0147695D01*
X0348970Y0148615D02*
X0351710Y0148615D01*
D22*
X0386657Y0115962D02*
X0386657Y0113400D01*
X0386657Y0115962D02*
X0390795Y0115962D01*
X0390795Y0113400D01*
X0386657Y0113400D01*
X0386657Y0114497D02*
X0390795Y0114497D01*
X0390795Y0115594D02*
X0386657Y0115594D01*
X0386657Y0108482D02*
X0386657Y0105920D01*
X0386657Y0108482D02*
X0390795Y0108482D01*
X0390795Y0105920D01*
X0386657Y0105920D01*
X0386657Y0107017D02*
X0390795Y0107017D01*
X0390795Y0108114D02*
X0386657Y0108114D01*
X0395318Y0109660D02*
X0395318Y0112222D01*
X0399456Y0112222D01*
X0399456Y0109660D01*
X0395318Y0109660D01*
X0395318Y0110757D02*
X0399456Y0110757D01*
X0399456Y0111854D02*
X0395318Y0111854D01*
X0410656Y0121495D02*
X0411739Y0123817D01*
X0426906Y0116745D01*
X0425823Y0114423D01*
X0410656Y0121495D01*
X0423470Y0115520D02*
X0426335Y0115520D01*
X0426846Y0116617D02*
X0421118Y0116617D01*
X0418765Y0117714D02*
X0424828Y0117714D01*
X0422475Y0118811D02*
X0416412Y0118811D01*
X0414060Y0119908D02*
X0420122Y0119908D01*
X0417770Y0121005D02*
X0411707Y0121005D01*
X0410939Y0122102D02*
X0415417Y0122102D01*
X0413064Y0123199D02*
X0411451Y0123199D01*
X0413984Y0128631D02*
X0415067Y0130953D01*
X0430234Y0123881D01*
X0429151Y0121559D01*
X0413984Y0128631D01*
X0426798Y0122656D02*
X0429663Y0122656D01*
X0430174Y0123753D02*
X0424446Y0123753D01*
X0422093Y0124850D02*
X0428156Y0124850D01*
X0425803Y0125947D02*
X0419740Y0125947D01*
X0417388Y0127044D02*
X0423450Y0127044D01*
X0421098Y0128141D02*
X0415035Y0128141D01*
X0414267Y0129238D02*
X0418745Y0129238D01*
X0416392Y0130335D02*
X0414779Y0130335D01*
X0416382Y0186628D02*
X0418944Y0186628D01*
X0416382Y0186628D02*
X0416382Y0190766D01*
X0418944Y0190766D01*
X0418944Y0186628D01*
X0418944Y0187725D02*
X0416382Y0187725D01*
X0416382Y0188822D02*
X0418944Y0188822D01*
X0418944Y0189919D02*
X0416382Y0189919D01*
X0411463Y0186628D02*
X0408901Y0186628D01*
X0408901Y0190766D01*
X0411463Y0190766D01*
X0411463Y0186628D01*
X0411463Y0187725D02*
X0408901Y0187725D01*
X0408901Y0188822D02*
X0411463Y0188822D01*
X0411463Y0189919D02*
X0408901Y0189919D01*
X0412642Y0195289D02*
X0415204Y0195289D01*
X0412642Y0195289D02*
X0412642Y0199427D01*
X0415204Y0199427D01*
X0415204Y0195289D01*
X0415204Y0196386D02*
X0412642Y0196386D01*
X0412642Y0197483D02*
X0415204Y0197483D01*
X0415204Y0198580D02*
X0412642Y0198580D01*
X0422432Y0224855D02*
X0430105Y0228433D01*
X0431188Y0226111D01*
X0423515Y0222533D01*
X0422432Y0224855D01*
X0423003Y0223630D02*
X0425868Y0223630D01*
X0428220Y0224727D02*
X0422492Y0224727D01*
X0424510Y0225824D02*
X0430573Y0225824D01*
X0430810Y0226921D02*
X0426863Y0226921D01*
X0429215Y0228018D02*
X0430299Y0228018D01*
X0426777Y0235569D02*
X0419104Y0231991D01*
X0426777Y0235569D02*
X0427860Y0233247D01*
X0420187Y0229669D01*
X0419104Y0231991D01*
X0419675Y0230766D02*
X0422540Y0230766D01*
X0424892Y0231863D02*
X0419164Y0231863D01*
X0421182Y0232960D02*
X0427245Y0232960D01*
X0427482Y0234057D02*
X0423535Y0234057D01*
X0425887Y0235154D02*
X0426971Y0235154D01*
X0423449Y0242706D02*
X0415776Y0239128D01*
X0423449Y0242706D02*
X0424532Y0240384D01*
X0416859Y0236806D01*
X0415776Y0239128D01*
X0416347Y0237903D02*
X0419212Y0237903D01*
X0421564Y0239000D02*
X0415836Y0239000D01*
X0417854Y0240097D02*
X0423917Y0240097D01*
X0424154Y0241194D02*
X0420207Y0241194D01*
X0422559Y0242291D02*
X0423643Y0242291D01*
X0420122Y0249842D02*
X0412449Y0246264D01*
X0420122Y0249842D02*
X0421205Y0247520D01*
X0413532Y0243942D01*
X0412449Y0246264D01*
X0413020Y0245039D02*
X0415885Y0245039D01*
X0418237Y0246136D02*
X0412509Y0246136D01*
X0414527Y0247233D02*
X0420590Y0247233D01*
X0420827Y0248330D02*
X0416880Y0248330D01*
X0419232Y0249427D02*
X0420316Y0249427D01*
X0356381Y0253388D02*
X0356381Y0255950D01*
X0360519Y0255950D01*
X0360519Y0253388D01*
X0356381Y0253388D01*
X0356381Y0254485D02*
X0360519Y0254485D01*
X0360519Y0255582D02*
X0356381Y0255582D01*
X0356381Y0261262D02*
X0356381Y0263824D01*
X0360519Y0263824D01*
X0360519Y0261262D01*
X0356381Y0261262D01*
X0356381Y0262359D02*
X0360519Y0262359D01*
X0360519Y0263456D02*
X0356381Y0263456D01*
X0273369Y0243942D02*
X0265696Y0247520D01*
X0266779Y0249842D01*
X0274452Y0246264D01*
X0273369Y0243942D01*
X0273881Y0245039D02*
X0271016Y0245039D01*
X0268664Y0246136D02*
X0274392Y0246136D01*
X0272374Y0247233D02*
X0266311Y0247233D01*
X0266074Y0248330D02*
X0270021Y0248330D01*
X0267669Y0249427D02*
X0266585Y0249427D01*
X0262368Y0240384D02*
X0270041Y0236806D01*
X0262368Y0240384D02*
X0263451Y0242706D01*
X0271124Y0239128D01*
X0270041Y0236806D01*
X0270553Y0237903D02*
X0267688Y0237903D01*
X0265336Y0239000D02*
X0271064Y0239000D01*
X0269046Y0240097D02*
X0262983Y0240097D01*
X0262746Y0241194D02*
X0266693Y0241194D01*
X0264341Y0242291D02*
X0263257Y0242291D01*
X0259040Y0233247D02*
X0266713Y0229669D01*
X0259040Y0233247D02*
X0260123Y0235569D01*
X0267796Y0231991D01*
X0266713Y0229669D01*
X0267225Y0230766D02*
X0264360Y0230766D01*
X0262008Y0231863D02*
X0267736Y0231863D01*
X0265718Y0232960D02*
X0259655Y0232960D01*
X0259418Y0234057D02*
X0263365Y0234057D01*
X0261013Y0235154D02*
X0259929Y0235154D01*
X0255713Y0226111D02*
X0263386Y0222533D01*
X0255713Y0226111D02*
X0256796Y0228433D01*
X0264469Y0224855D01*
X0263386Y0222533D01*
X0263898Y0223630D02*
X0261033Y0223630D01*
X0258681Y0224727D02*
X0264409Y0224727D01*
X0262391Y0225824D02*
X0256328Y0225824D01*
X0256091Y0226921D02*
X0260038Y0226921D01*
X0257686Y0228018D02*
X0256602Y0228018D01*
D23*
X0395674Y0289388D02*
X0398905Y0286677D01*
X0393412Y0280130D01*
X0390181Y0282841D01*
X0395674Y0289388D01*
X0394927Y0281936D02*
X0391260Y0281936D01*
X0390937Y0283742D02*
X0396443Y0283742D01*
X0397958Y0285548D02*
X0392452Y0285548D01*
X0393967Y0287354D02*
X0398098Y0287354D01*
X0395946Y0289160D02*
X0395483Y0289160D01*
X0404118Y0282303D02*
X0407349Y0279592D01*
X0401856Y0273045D01*
X0398625Y0275756D01*
X0404118Y0282303D01*
X0403371Y0274851D02*
X0399704Y0274851D01*
X0399381Y0276657D02*
X0404887Y0276657D01*
X0406402Y0278463D02*
X0400896Y0278463D01*
X0402411Y0280269D02*
X0406542Y0280269D01*
X0404390Y0282075D02*
X0403927Y0282075D01*
X0438643Y0126644D02*
X0448887Y0121867D01*
X0438643Y0126644D02*
X0440425Y0130467D01*
X0450669Y0125690D01*
X0448887Y0121867D01*
X0449729Y0123673D02*
X0445014Y0123673D01*
X0441141Y0125479D02*
X0450571Y0125479D01*
X0447249Y0127285D02*
X0438942Y0127285D01*
X0439784Y0129091D02*
X0443376Y0129091D01*
X0427329Y0102381D02*
X0437573Y0097604D01*
X0427329Y0102381D02*
X0429111Y0106204D01*
X0439355Y0101427D01*
X0437573Y0097604D01*
X0438415Y0099410D02*
X0433700Y0099410D01*
X0429827Y0101216D02*
X0439257Y0101216D01*
X0435935Y0103022D02*
X0427628Y0103022D01*
X0428470Y0104828D02*
X0432062Y0104828D01*
D24*
X0347814Y0120494D02*
X0347814Y0121072D01*
X0347814Y0120494D02*
X0346370Y0120494D01*
X0346370Y0121072D01*
X0347814Y0121072D01*
X0347814Y0120741D02*
X0346370Y0120741D01*
X0346370Y0120988D02*
X0347814Y0120988D01*
X0347814Y0122463D02*
X0347814Y0123041D01*
X0347814Y0122463D02*
X0346370Y0122463D01*
X0346370Y0123041D01*
X0347814Y0123041D01*
X0347814Y0122710D02*
X0346370Y0122710D01*
X0346370Y0122957D02*
X0347814Y0122957D01*
X0347814Y0124431D02*
X0347814Y0125009D01*
X0347814Y0124431D02*
X0346370Y0124431D01*
X0346370Y0125009D01*
X0347814Y0125009D01*
X0347814Y0124678D02*
X0346370Y0124678D01*
X0346370Y0124925D02*
X0347814Y0124925D01*
X0347814Y0126400D02*
X0347814Y0126978D01*
X0347814Y0126400D02*
X0346370Y0126400D01*
X0346370Y0126978D01*
X0347814Y0126978D01*
X0347814Y0126647D02*
X0346370Y0126647D01*
X0346370Y0126894D02*
X0347814Y0126894D01*
X0340334Y0126978D02*
X0340334Y0126400D01*
X0338890Y0126400D01*
X0338890Y0126978D01*
X0340334Y0126978D01*
X0340334Y0126647D02*
X0338890Y0126647D01*
X0338890Y0126894D02*
X0340334Y0126894D01*
X0340334Y0125009D02*
X0340334Y0124431D01*
X0338890Y0124431D01*
X0338890Y0125009D01*
X0340334Y0125009D01*
X0340334Y0124678D02*
X0338890Y0124678D01*
X0338890Y0124925D02*
X0340334Y0124925D01*
X0340334Y0123041D02*
X0340334Y0122463D01*
X0338890Y0122463D01*
X0338890Y0123041D01*
X0340334Y0123041D01*
X0340334Y0122710D02*
X0338890Y0122710D01*
X0338890Y0122957D02*
X0340334Y0122957D01*
X0340334Y0121072D02*
X0340334Y0120494D01*
X0338890Y0120494D01*
X0338890Y0121072D01*
X0340334Y0121072D01*
X0340334Y0120741D02*
X0338890Y0120741D01*
X0338890Y0120988D02*
X0340334Y0120988D01*
D25*
X0355728Y0125315D02*
X0358042Y0125315D01*
X0355728Y0125315D02*
X0355728Y0128851D01*
X0358042Y0128851D01*
X0358042Y0125315D01*
X0358042Y0126306D02*
X0355728Y0126306D01*
X0355728Y0127297D02*
X0358042Y0127297D01*
X0358042Y0128288D02*
X0355728Y0128288D01*
X0368622Y0125315D02*
X0370936Y0125315D01*
X0368622Y0125315D02*
X0368622Y0128851D01*
X0370936Y0128851D01*
X0370936Y0125315D01*
X0370936Y0126306D02*
X0368622Y0126306D01*
X0368622Y0127297D02*
X0370936Y0127297D01*
X0370936Y0128288D02*
X0368622Y0128288D01*
D26*
X0304705Y0263047D02*
X0304243Y0263047D01*
X0304243Y0265509D01*
X0304705Y0265509D01*
X0304705Y0263047D01*
X0304705Y0263508D02*
X0304243Y0263508D01*
X0304243Y0263969D02*
X0304705Y0263969D01*
X0304705Y0264430D02*
X0304243Y0264430D01*
X0304243Y0264891D02*
X0304705Y0264891D01*
X0304705Y0265352D02*
X0304243Y0265352D01*
X0302736Y0263047D02*
X0302274Y0263047D01*
X0302274Y0265509D01*
X0302736Y0265509D01*
X0302736Y0263047D01*
X0302736Y0263508D02*
X0302274Y0263508D01*
X0302274Y0263969D02*
X0302736Y0263969D01*
X0302736Y0264430D02*
X0302274Y0264430D01*
X0302274Y0264891D02*
X0302736Y0264891D01*
X0302736Y0265352D02*
X0302274Y0265352D01*
X0300768Y0263047D02*
X0300306Y0263047D01*
X0300306Y0265509D01*
X0300768Y0265509D01*
X0300768Y0263047D01*
X0300768Y0263508D02*
X0300306Y0263508D01*
X0300306Y0263969D02*
X0300768Y0263969D01*
X0300768Y0264430D02*
X0300306Y0264430D01*
X0300306Y0264891D02*
X0300768Y0264891D01*
X0300768Y0265352D02*
X0300306Y0265352D01*
X0298799Y0263047D02*
X0298337Y0263047D01*
X0298337Y0265509D01*
X0298799Y0265509D01*
X0298799Y0263047D01*
X0298799Y0263508D02*
X0298337Y0263508D01*
X0298337Y0263969D02*
X0298799Y0263969D01*
X0298799Y0264430D02*
X0298337Y0264430D01*
X0298337Y0264891D02*
X0298799Y0264891D01*
X0298799Y0265352D02*
X0298337Y0265352D01*
X0296831Y0263047D02*
X0296369Y0263047D01*
X0296369Y0265509D01*
X0296831Y0265509D01*
X0296831Y0263047D01*
X0296831Y0263508D02*
X0296369Y0263508D01*
X0296369Y0263969D02*
X0296831Y0263969D01*
X0296831Y0264430D02*
X0296369Y0264430D01*
X0296369Y0264891D02*
X0296831Y0264891D01*
X0296831Y0265352D02*
X0296369Y0265352D01*
X0294862Y0263047D02*
X0294400Y0263047D01*
X0294400Y0265509D01*
X0294862Y0265509D01*
X0294862Y0263047D01*
X0294862Y0263508D02*
X0294400Y0263508D01*
X0294400Y0263969D02*
X0294862Y0263969D01*
X0294862Y0264430D02*
X0294400Y0264430D01*
X0294400Y0264891D02*
X0294862Y0264891D01*
X0294862Y0265352D02*
X0294400Y0265352D01*
X0292894Y0263047D02*
X0292432Y0263047D01*
X0292432Y0265509D01*
X0292894Y0265509D01*
X0292894Y0263047D01*
X0292894Y0263508D02*
X0292432Y0263508D01*
X0292432Y0263969D02*
X0292894Y0263969D01*
X0292894Y0264430D02*
X0292432Y0264430D01*
X0292432Y0264891D02*
X0292894Y0264891D01*
X0292894Y0265352D02*
X0292432Y0265352D01*
X0290925Y0263047D02*
X0290463Y0263047D01*
X0290463Y0265509D01*
X0290925Y0265509D01*
X0290925Y0263047D01*
X0290925Y0263508D02*
X0290463Y0263508D01*
X0290463Y0263969D02*
X0290925Y0263969D01*
X0290925Y0264430D02*
X0290463Y0264430D01*
X0290463Y0264891D02*
X0290925Y0264891D01*
X0290925Y0265352D02*
X0290463Y0265352D01*
X0289357Y0266615D02*
X0289357Y0267077D01*
X0289357Y0266615D02*
X0286895Y0266615D01*
X0286895Y0267077D01*
X0289357Y0267077D01*
X0289357Y0267076D02*
X0286895Y0267076D01*
X0289357Y0268584D02*
X0289357Y0269046D01*
X0289357Y0268584D02*
X0286895Y0268584D01*
X0286895Y0269046D01*
X0289357Y0269046D01*
X0289357Y0269045D02*
X0286895Y0269045D01*
X0289357Y0270552D02*
X0289357Y0271014D01*
X0289357Y0270552D02*
X0286895Y0270552D01*
X0286895Y0271014D01*
X0289357Y0271014D01*
X0289357Y0271013D02*
X0286895Y0271013D01*
X0289357Y0272521D02*
X0289357Y0272983D01*
X0289357Y0272521D02*
X0286895Y0272521D01*
X0286895Y0272983D01*
X0289357Y0272983D01*
X0289357Y0272982D02*
X0286895Y0272982D01*
X0289357Y0274489D02*
X0289357Y0274951D01*
X0289357Y0274489D02*
X0286895Y0274489D01*
X0286895Y0274951D01*
X0289357Y0274951D01*
X0289357Y0274950D02*
X0286895Y0274950D01*
X0289357Y0276458D02*
X0289357Y0276920D01*
X0289357Y0276458D02*
X0286895Y0276458D01*
X0286895Y0276920D01*
X0289357Y0276920D01*
X0289357Y0276919D02*
X0286895Y0276919D01*
X0289357Y0278427D02*
X0289357Y0278889D01*
X0289357Y0278427D02*
X0286895Y0278427D01*
X0286895Y0278889D01*
X0289357Y0278889D01*
X0289357Y0278888D02*
X0286895Y0278888D01*
X0289357Y0280395D02*
X0289357Y0280857D01*
X0289357Y0280395D02*
X0286895Y0280395D01*
X0286895Y0280857D01*
X0289357Y0280857D01*
X0289357Y0280856D02*
X0286895Y0280856D01*
X0290463Y0281964D02*
X0290925Y0281964D01*
X0290463Y0281964D02*
X0290463Y0284426D01*
X0290925Y0284426D01*
X0290925Y0281964D01*
X0290925Y0282425D02*
X0290463Y0282425D01*
X0290463Y0282886D02*
X0290925Y0282886D01*
X0290925Y0283347D02*
X0290463Y0283347D01*
X0290463Y0283808D02*
X0290925Y0283808D01*
X0290925Y0284269D02*
X0290463Y0284269D01*
X0292432Y0281964D02*
X0292894Y0281964D01*
X0292432Y0281964D02*
X0292432Y0284426D01*
X0292894Y0284426D01*
X0292894Y0281964D01*
X0292894Y0282425D02*
X0292432Y0282425D01*
X0292432Y0282886D02*
X0292894Y0282886D01*
X0292894Y0283347D02*
X0292432Y0283347D01*
X0292432Y0283808D02*
X0292894Y0283808D01*
X0292894Y0284269D02*
X0292432Y0284269D01*
X0294400Y0281964D02*
X0294862Y0281964D01*
X0294400Y0281964D02*
X0294400Y0284426D01*
X0294862Y0284426D01*
X0294862Y0281964D01*
X0294862Y0282425D02*
X0294400Y0282425D01*
X0294400Y0282886D02*
X0294862Y0282886D01*
X0294862Y0283347D02*
X0294400Y0283347D01*
X0294400Y0283808D02*
X0294862Y0283808D01*
X0294862Y0284269D02*
X0294400Y0284269D01*
X0296369Y0281964D02*
X0296831Y0281964D01*
X0296369Y0281964D02*
X0296369Y0284426D01*
X0296831Y0284426D01*
X0296831Y0281964D01*
X0296831Y0282425D02*
X0296369Y0282425D01*
X0296369Y0282886D02*
X0296831Y0282886D01*
X0296831Y0283347D02*
X0296369Y0283347D01*
X0296369Y0283808D02*
X0296831Y0283808D01*
X0296831Y0284269D02*
X0296369Y0284269D01*
X0298337Y0281964D02*
X0298799Y0281964D01*
X0298337Y0281964D02*
X0298337Y0284426D01*
X0298799Y0284426D01*
X0298799Y0281964D01*
X0298799Y0282425D02*
X0298337Y0282425D01*
X0298337Y0282886D02*
X0298799Y0282886D01*
X0298799Y0283347D02*
X0298337Y0283347D01*
X0298337Y0283808D02*
X0298799Y0283808D01*
X0298799Y0284269D02*
X0298337Y0284269D01*
X0300306Y0281964D02*
X0300768Y0281964D01*
X0300306Y0281964D02*
X0300306Y0284426D01*
X0300768Y0284426D01*
X0300768Y0281964D01*
X0300768Y0282425D02*
X0300306Y0282425D01*
X0300306Y0282886D02*
X0300768Y0282886D01*
X0300768Y0283347D02*
X0300306Y0283347D01*
X0300306Y0283808D02*
X0300768Y0283808D01*
X0300768Y0284269D02*
X0300306Y0284269D01*
X0302274Y0281964D02*
X0302736Y0281964D01*
X0302274Y0281964D02*
X0302274Y0284426D01*
X0302736Y0284426D01*
X0302736Y0281964D01*
X0302736Y0282425D02*
X0302274Y0282425D01*
X0302274Y0282886D02*
X0302736Y0282886D01*
X0302736Y0283347D02*
X0302274Y0283347D01*
X0302274Y0283808D02*
X0302736Y0283808D01*
X0302736Y0284269D02*
X0302274Y0284269D01*
X0304243Y0281964D02*
X0304705Y0281964D01*
X0304243Y0281964D02*
X0304243Y0284426D01*
X0304705Y0284426D01*
X0304705Y0281964D01*
X0304705Y0282425D02*
X0304243Y0282425D01*
X0304243Y0282886D02*
X0304705Y0282886D01*
X0304705Y0283347D02*
X0304243Y0283347D01*
X0304243Y0283808D02*
X0304705Y0283808D01*
X0304705Y0284269D02*
X0304243Y0284269D01*
X0308273Y0280857D02*
X0308273Y0280395D01*
X0305811Y0280395D01*
X0305811Y0280857D01*
X0308273Y0280857D01*
X0308273Y0280856D02*
X0305811Y0280856D01*
X0308273Y0278889D02*
X0308273Y0278427D01*
X0305811Y0278427D01*
X0305811Y0278889D01*
X0308273Y0278889D01*
X0308273Y0278888D02*
X0305811Y0278888D01*
X0308273Y0276920D02*
X0308273Y0276458D01*
X0305811Y0276458D01*
X0305811Y0276920D01*
X0308273Y0276920D01*
X0308273Y0276919D02*
X0305811Y0276919D01*
X0308273Y0274951D02*
X0308273Y0274489D01*
X0305811Y0274489D01*
X0305811Y0274951D01*
X0308273Y0274951D01*
X0308273Y0274950D02*
X0305811Y0274950D01*
X0308273Y0272983D02*
X0308273Y0272521D01*
X0305811Y0272521D01*
X0305811Y0272983D01*
X0308273Y0272983D01*
X0308273Y0272982D02*
X0305811Y0272982D01*
X0308273Y0271014D02*
X0308273Y0270552D01*
X0305811Y0270552D01*
X0305811Y0271014D01*
X0308273Y0271014D01*
X0308273Y0271013D02*
X0305811Y0271013D01*
X0308273Y0269046D02*
X0308273Y0268584D01*
X0305811Y0268584D01*
X0305811Y0269046D01*
X0308273Y0269046D01*
X0308273Y0269045D02*
X0305811Y0269045D01*
X0308273Y0267077D02*
X0308273Y0266615D01*
X0305811Y0266615D01*
X0305811Y0267077D01*
X0308273Y0267077D01*
X0308273Y0267076D02*
X0305811Y0267076D01*
D27*
X0371710Y0277759D02*
X0371710Y0280933D01*
X0371710Y0277759D02*
X0370112Y0277759D01*
X0370112Y0280933D01*
X0371710Y0280933D01*
X0371710Y0278443D02*
X0370112Y0278443D01*
X0370112Y0279127D02*
X0371710Y0279127D01*
X0371710Y0279811D02*
X0370112Y0279811D01*
X0370112Y0280495D02*
X0371710Y0280495D01*
X0380174Y0280933D02*
X0380174Y0277759D01*
X0378576Y0277759D01*
X0378576Y0280933D01*
X0380174Y0280933D01*
X0380174Y0278443D02*
X0378576Y0278443D01*
X0378576Y0279127D02*
X0380174Y0279127D01*
X0380174Y0279811D02*
X0378576Y0279811D01*
X0378576Y0280495D02*
X0380174Y0280495D01*
X0380174Y0294098D02*
X0380174Y0297272D01*
X0380174Y0294098D02*
X0378576Y0294098D01*
X0378576Y0297272D01*
X0380174Y0297272D01*
X0380174Y0294782D02*
X0378576Y0294782D01*
X0378576Y0295466D02*
X0380174Y0295466D01*
X0380174Y0296150D02*
X0378576Y0296150D01*
X0378576Y0296834D02*
X0380174Y0296834D01*
X0371710Y0297272D02*
X0371710Y0294098D01*
X0370112Y0294098D01*
X0370112Y0297272D01*
X0371710Y0297272D01*
X0371710Y0294782D02*
X0370112Y0294782D01*
X0370112Y0295466D02*
X0371710Y0295466D01*
X0371710Y0296150D02*
X0370112Y0296150D01*
X0370112Y0296834D02*
X0371710Y0296834D01*
D28*
X0389789Y0229248D03*
X0399474Y0229248D03*
X0399474Y0222555D03*
X0389789Y0222555D03*
D29*
X0425229Y0160069D02*
X0428301Y0158636D01*
X0425229Y0160069D02*
X0430155Y0170634D01*
X0433227Y0169201D01*
X0428301Y0158636D01*
X0428978Y0160088D02*
X0425238Y0160088D01*
X0425915Y0161540D02*
X0429655Y0161540D01*
X0430332Y0162992D02*
X0426592Y0162992D01*
X0427269Y0164444D02*
X0431009Y0164444D01*
X0431686Y0165896D02*
X0427946Y0165896D01*
X0428623Y0167348D02*
X0432363Y0167348D01*
X0433040Y0168800D02*
X0429300Y0168800D01*
X0429977Y0170252D02*
X0430974Y0170252D01*
X0456272Y0145594D02*
X0459344Y0144161D01*
X0456272Y0145594D02*
X0461198Y0156159D01*
X0464270Y0154726D01*
X0459344Y0144161D01*
X0460021Y0145613D02*
X0456281Y0145613D01*
X0456958Y0147065D02*
X0460698Y0147065D01*
X0461375Y0148517D02*
X0457635Y0148517D01*
X0458312Y0149969D02*
X0462052Y0149969D01*
X0462729Y0151421D02*
X0458989Y0151421D01*
X0459666Y0152873D02*
X0463406Y0152873D01*
X0464083Y0154325D02*
X0460343Y0154325D01*
X0461020Y0155777D02*
X0462017Y0155777D01*
D30*
X0341210Y0257878D02*
X0337998Y0257878D01*
X0337998Y0258926D01*
X0341210Y0258926D01*
X0341210Y0257878D01*
X0341210Y0258326D02*
X0337998Y0258326D01*
X0337998Y0258774D02*
X0341210Y0258774D01*
X0341210Y0261067D02*
X0337998Y0261067D01*
X0337998Y0262115D01*
X0341210Y0262115D01*
X0341210Y0261067D01*
X0341210Y0261515D02*
X0337998Y0261515D01*
X0337998Y0261963D02*
X0341210Y0261963D01*
X0334281Y0261067D02*
X0331069Y0261067D01*
X0331069Y0262115D01*
X0334281Y0262115D01*
X0334281Y0261067D01*
X0334281Y0261515D02*
X0331069Y0261515D01*
X0331069Y0261963D02*
X0334281Y0261963D01*
X0334281Y0257878D02*
X0331069Y0257878D01*
X0331069Y0258926D01*
X0334281Y0258926D01*
X0334281Y0257878D01*
X0334281Y0258326D02*
X0331069Y0258326D01*
X0331069Y0258774D02*
X0334281Y0258774D01*
X0337808Y0277429D02*
X0338856Y0277429D01*
X0338856Y0273823D01*
X0337808Y0273823D01*
X0337808Y0277429D01*
X0337808Y0274271D02*
X0338856Y0274271D01*
X0338856Y0274719D02*
X0337808Y0274719D01*
X0337808Y0275167D02*
X0338856Y0275167D01*
X0338856Y0275615D02*
X0337808Y0275615D01*
X0337808Y0276063D02*
X0338856Y0276063D01*
X0338856Y0276511D02*
X0337808Y0276511D01*
X0337808Y0276959D02*
X0338856Y0276959D01*
X0338856Y0277407D02*
X0337808Y0277407D01*
X0340367Y0277429D02*
X0341415Y0277429D01*
X0341415Y0273823D01*
X0340367Y0273823D01*
X0340367Y0277429D01*
X0340367Y0274271D02*
X0341415Y0274271D01*
X0341415Y0274719D02*
X0340367Y0274719D01*
X0340367Y0275167D02*
X0341415Y0275167D01*
X0341415Y0275615D02*
X0340367Y0275615D01*
X0340367Y0276063D02*
X0341415Y0276063D01*
X0341415Y0276511D02*
X0340367Y0276511D01*
X0340367Y0276959D02*
X0341415Y0276959D01*
X0341415Y0277407D02*
X0340367Y0277407D01*
X0342926Y0277429D02*
X0343974Y0277429D01*
X0343974Y0273823D01*
X0342926Y0273823D01*
X0342926Y0277429D01*
X0342926Y0274271D02*
X0343974Y0274271D01*
X0343974Y0274719D02*
X0342926Y0274719D01*
X0342926Y0275167D02*
X0343974Y0275167D01*
X0343974Y0275615D02*
X0342926Y0275615D01*
X0342926Y0276063D02*
X0343974Y0276063D01*
X0343974Y0276511D02*
X0342926Y0276511D01*
X0342926Y0276959D02*
X0343974Y0276959D01*
X0343974Y0277407D02*
X0342926Y0277407D01*
X0345485Y0277429D02*
X0346533Y0277429D01*
X0346533Y0273823D01*
X0345485Y0273823D01*
X0345485Y0277429D01*
X0345485Y0274271D02*
X0346533Y0274271D01*
X0346533Y0274719D02*
X0345485Y0274719D01*
X0345485Y0275167D02*
X0346533Y0275167D01*
X0346533Y0275615D02*
X0345485Y0275615D01*
X0345485Y0276063D02*
X0346533Y0276063D01*
X0346533Y0276511D02*
X0345485Y0276511D01*
X0345485Y0276959D02*
X0346533Y0276959D01*
X0346533Y0277407D02*
X0345485Y0277407D01*
X0348044Y0277429D02*
X0349092Y0277429D01*
X0349092Y0273823D01*
X0348044Y0273823D01*
X0348044Y0277429D01*
X0348044Y0274271D02*
X0349092Y0274271D01*
X0349092Y0274719D02*
X0348044Y0274719D01*
X0348044Y0275167D02*
X0349092Y0275167D01*
X0349092Y0275615D02*
X0348044Y0275615D01*
X0348044Y0276063D02*
X0349092Y0276063D01*
X0349092Y0276511D02*
X0348044Y0276511D01*
X0348044Y0276959D02*
X0349092Y0276959D01*
X0349092Y0277407D02*
X0348044Y0277407D01*
D31*
X0361757Y0278025D02*
X0364119Y0278025D01*
X0364119Y0279445D02*
X0364090Y0279708D01*
X0364003Y0279957D01*
X0363862Y0280181D01*
X0363675Y0280368D01*
X0363451Y0280509D01*
X0363201Y0280596D01*
X0362938Y0280626D01*
X0362676Y0280596D01*
X0362426Y0280509D01*
X0362202Y0280368D01*
X0362015Y0280181D01*
X0361874Y0279957D01*
X0361787Y0279708D01*
X0361757Y0279445D01*
X0361757Y0275902D01*
X0361787Y0275639D01*
X0361874Y0275389D01*
X0362015Y0275165D01*
X0362202Y0274978D01*
X0362426Y0274837D01*
X0362676Y0274750D01*
X0362938Y0274720D01*
X0363201Y0274750D01*
X0363451Y0274837D01*
X0363675Y0274978D01*
X0363862Y0275165D01*
X0364003Y0275389D01*
X0364090Y0275639D01*
X0364119Y0275902D01*
X0364119Y0279445D01*
X0363647Y0280386D02*
X0362230Y0280386D01*
X0361784Y0275665D02*
X0364093Y0275665D01*
X0362938Y0289878D02*
X0362676Y0289908D01*
X0362426Y0289995D01*
X0362202Y0290136D01*
X0362015Y0290323D01*
X0361874Y0290547D01*
X0361787Y0290796D01*
X0361757Y0291059D01*
X0361757Y0295783D01*
X0361787Y0296046D01*
X0361874Y0296296D01*
X0362015Y0296520D01*
X0362202Y0296707D01*
X0362426Y0296848D01*
X0362676Y0296935D01*
X0362938Y0296965D01*
X0363201Y0296935D01*
X0363451Y0296848D01*
X0363675Y0296707D01*
X0363862Y0296520D01*
X0364003Y0296296D01*
X0364090Y0296046D01*
X0364119Y0295783D01*
X0364119Y0291059D01*
X0364090Y0290796D01*
X0364003Y0290547D01*
X0363862Y0290323D01*
X0363675Y0290136D01*
X0363451Y0289995D01*
X0363201Y0289908D01*
X0362938Y0289878D01*
X0361757Y0292190D02*
X0364119Y0292190D01*
X0364119Y0294550D02*
X0361757Y0294550D01*
X0362607Y0296911D02*
X0363270Y0296911D01*
X0325143Y0295783D02*
X0325143Y0291059D01*
X0325113Y0290796D01*
X0325026Y0290547D01*
X0324885Y0290323D01*
X0324698Y0290136D01*
X0324474Y0289995D01*
X0324225Y0289908D01*
X0323962Y0289878D01*
X0323699Y0289908D01*
X0323450Y0289995D01*
X0323226Y0290136D01*
X0323039Y0290323D01*
X0322898Y0290547D01*
X0322811Y0290796D01*
X0322781Y0291059D01*
X0322781Y0295783D01*
X0322811Y0296046D01*
X0322898Y0296296D01*
X0323039Y0296520D01*
X0323226Y0296707D01*
X0323450Y0296848D01*
X0323699Y0296935D01*
X0323962Y0296965D01*
X0324225Y0296935D01*
X0324474Y0296848D01*
X0324698Y0296707D01*
X0324885Y0296520D01*
X0325026Y0296296D01*
X0325113Y0296046D01*
X0325143Y0295783D01*
X0325143Y0294550D02*
X0322781Y0294550D01*
X0322781Y0292190D02*
X0325143Y0292190D01*
X0324293Y0296911D02*
X0323631Y0296911D01*
X0323962Y0280626D02*
X0324225Y0280596D01*
X0324474Y0280509D01*
X0324698Y0280368D01*
X0324885Y0280181D01*
X0325026Y0279957D01*
X0325113Y0279708D01*
X0325143Y0279445D01*
X0325143Y0275902D01*
X0325113Y0275639D01*
X0325026Y0275389D01*
X0324885Y0275165D01*
X0324698Y0274978D01*
X0324474Y0274837D01*
X0324225Y0274750D01*
X0323962Y0274720D01*
X0323699Y0274750D01*
X0323450Y0274837D01*
X0323226Y0274978D01*
X0323039Y0275165D01*
X0322898Y0275389D01*
X0322811Y0275639D01*
X0322781Y0275902D01*
X0322781Y0279445D01*
X0322811Y0279708D01*
X0322898Y0279957D01*
X0323039Y0280181D01*
X0323226Y0280368D01*
X0323450Y0280509D01*
X0323699Y0280596D01*
X0323962Y0280626D01*
X0323254Y0280386D02*
X0324670Y0280386D01*
X0325143Y0278025D02*
X0322781Y0278025D01*
X0322808Y0275665D02*
X0325116Y0275665D01*
D32*
X0347032Y0261642D02*
X0347032Y0260874D01*
X0346482Y0260874D01*
X0346482Y0261642D01*
X0347032Y0261642D01*
X0347032Y0261109D02*
X0346482Y0261109D01*
X0346482Y0261344D02*
X0347032Y0261344D01*
X0347032Y0261579D02*
X0346482Y0261579D01*
X0349001Y0261642D02*
X0349001Y0260874D01*
X0348451Y0260874D01*
X0348451Y0261642D01*
X0349001Y0261642D01*
X0349001Y0261109D02*
X0348451Y0261109D01*
X0348451Y0261344D02*
X0349001Y0261344D01*
X0349001Y0261579D02*
X0348451Y0261579D01*
X0350969Y0261642D02*
X0350969Y0260874D01*
X0350419Y0260874D01*
X0350419Y0261642D01*
X0350969Y0261642D01*
X0350969Y0261109D02*
X0350419Y0261109D01*
X0350419Y0261344D02*
X0350969Y0261344D01*
X0350969Y0261579D02*
X0350419Y0261579D01*
X0350969Y0258984D02*
X0350969Y0258216D01*
X0350419Y0258216D01*
X0350419Y0258984D01*
X0350969Y0258984D01*
X0350969Y0258451D02*
X0350419Y0258451D01*
X0350419Y0258686D02*
X0350969Y0258686D01*
X0350969Y0258921D02*
X0350419Y0258921D01*
X0349001Y0258984D02*
X0349001Y0258216D01*
X0348451Y0258216D01*
X0348451Y0258984D01*
X0349001Y0258984D01*
X0349001Y0258451D02*
X0348451Y0258451D01*
X0348451Y0258686D02*
X0349001Y0258686D01*
X0349001Y0258921D02*
X0348451Y0258921D01*
X0347032Y0258984D02*
X0347032Y0258216D01*
X0346482Y0258216D01*
X0346482Y0258984D01*
X0347032Y0258984D01*
X0347032Y0258451D02*
X0346482Y0258451D01*
X0346482Y0258686D02*
X0347032Y0258686D01*
X0347032Y0258921D02*
X0346482Y0258921D01*
D33*
X0420269Y0261932D02*
X0427711Y0265403D01*
X0429435Y0261708D01*
X0421993Y0258237D01*
X0420269Y0261932D01*
X0421178Y0259984D02*
X0425739Y0259984D01*
X0429424Y0261731D02*
X0420363Y0261731D01*
X0423584Y0263478D02*
X0428609Y0263478D01*
X0427794Y0265225D02*
X0427329Y0265225D01*
X0446263Y0225618D02*
X0438821Y0222147D01*
X0446263Y0225618D02*
X0447987Y0221923D01*
X0440545Y0218452D01*
X0438821Y0222147D01*
X0439730Y0220199D02*
X0444291Y0220199D01*
X0447976Y0221946D02*
X0438915Y0221946D01*
X0442136Y0223693D02*
X0447161Y0223693D01*
X0446346Y0225440D02*
X0445881Y0225440D01*
X0264907Y0258237D02*
X0257465Y0261708D01*
X0259189Y0265403D01*
X0266631Y0261932D01*
X0264907Y0258237D01*
X0265722Y0259984D02*
X0261161Y0259984D01*
X0257476Y0261731D02*
X0266537Y0261731D01*
X0263316Y0263478D02*
X0258291Y0263478D01*
X0259106Y0265225D02*
X0259571Y0265225D01*
X0238913Y0221923D02*
X0246355Y0218452D01*
X0238913Y0221923D02*
X0240637Y0225618D01*
X0248079Y0222147D01*
X0246355Y0218452D01*
X0247170Y0220199D02*
X0242609Y0220199D01*
X0238924Y0221946D02*
X0247985Y0221946D01*
X0244764Y0223693D02*
X0239739Y0223693D01*
X0240554Y0225440D02*
X0241019Y0225440D01*
D34*
X0386738Y0241748D02*
X0386738Y0244700D01*
X0391738Y0244700D02*
X0391738Y0241748D01*
X0396738Y0241748D02*
X0396738Y0244700D01*
X0401738Y0244700D02*
X0401738Y0241748D01*
X0401738Y0265370D02*
X0401738Y0268322D01*
X0396738Y0268322D02*
X0396738Y0265370D01*
X0391738Y0265370D02*
X0391738Y0268322D01*
X0386738Y0268322D02*
X0386738Y0265370D01*
D35*
X0400008Y0259624D02*
X0400008Y0250446D01*
X0388468Y0250446D01*
X0388468Y0259624D01*
X0400008Y0259624D01*
X0400008Y0254378D02*
X0388468Y0254378D01*
X0388468Y0258310D02*
X0400008Y0258310D01*
M02*
