G75*
%MOIN*%
%OFA0B0*%
%FSLAX25Y25*%
%IPPOS*%
%LPD*%
%AMOC8*
5,1,8,0,0,1.08239X$1,22.5*
%
%ADD10C,0.00000*%
%ADD11C,0.02362*%
D10*
X0188454Y0160635D02*
X0190860Y0159556D01*
X0193240Y0158420D01*
X0195593Y0157229D01*
X0197916Y0155982D01*
X0200209Y0154680D01*
X0202471Y0153324D01*
X0204700Y0151915D01*
X0206895Y0150453D01*
X0209054Y0148940D01*
X0211177Y0147376D01*
X0213263Y0145762D01*
X0215309Y0144100D01*
X0217316Y0142389D01*
X0219281Y0140631D01*
X0221205Y0138827D01*
X0223084Y0136978D01*
X0224920Y0135084D01*
X0226710Y0133148D01*
X0228454Y0131170D01*
X0230150Y0129151D01*
X0231798Y0127093D01*
X0233397Y0124995D01*
X0234945Y0122861D01*
X0236443Y0120691D01*
X0237888Y0118485D01*
X0237889Y0118486D02*
X0238900Y0116734D01*
X0238901Y0116734D02*
X0240068Y0114461D01*
X0241180Y0112160D01*
X0242237Y0109833D01*
X0243238Y0107482D01*
X0244183Y0105107D01*
X0245071Y0102711D01*
X0245901Y0100294D01*
X0246673Y0097858D01*
X0247386Y0095404D01*
X0248041Y0092934D01*
X0248637Y0090449D01*
X0249172Y0087950D01*
X0249648Y0085439D01*
X0250064Y0082918D01*
X0250420Y0080387D01*
X0250715Y0077848D01*
X0250949Y0075304D01*
X0251122Y0072754D01*
X0251234Y0070201D01*
X0251286Y0067646D01*
X0251276Y0065090D01*
X0251205Y0062536D01*
X0251073Y0059984D01*
X0250880Y0057435D01*
X0250626Y0054892D01*
X0250311Y0052356D01*
X0250310Y0052356D02*
X0250221Y0051912D01*
X0250143Y0051466D01*
X0250076Y0051018D01*
X0250019Y0050569D01*
X0249974Y0050118D01*
X0249940Y0049667D01*
X0249917Y0049214D01*
X0249905Y0048762D01*
X0249904Y0048309D01*
X0249914Y0047856D01*
X0249935Y0047403D01*
X0249968Y0046952D01*
X0250011Y0046501D01*
X0250066Y0046051D01*
X0250131Y0045603D01*
X0250208Y0045157D01*
X0250295Y0044712D01*
X0250393Y0044270D01*
X0250502Y0043830D01*
X0250622Y0043394D01*
X0250753Y0042960D01*
X0250894Y0042530D01*
X0251045Y0042103D01*
X0251207Y0041680D01*
X0251380Y0041261D01*
X0251562Y0040846D01*
X0251755Y0040437D01*
X0251957Y0040031D01*
X0252170Y0039632D01*
X0252392Y0039237D01*
X0252624Y0038848D01*
X0252865Y0038465D01*
X0253116Y0038087D01*
X0253376Y0037716D01*
X0253645Y0037352D01*
X0253922Y0036994D01*
X0254209Y0036643D01*
X0254504Y0036299D01*
X0254807Y0035963D01*
X0255118Y0035634D01*
X0255438Y0035313D01*
X0255765Y0035000D01*
X0256099Y0034694D01*
X0256442Y0034398D01*
X0256791Y0034109D01*
X0257147Y0033830D01*
X0257510Y0033559D01*
X0257880Y0033297D01*
X0258255Y0033044D01*
X0258637Y0032801D01*
X0259025Y0032567D01*
X0259418Y0032342D01*
X0259817Y0032127D01*
X0260221Y0031922D01*
X0260630Y0031727D01*
X0261043Y0031543D01*
X0261461Y0031368D01*
X0261883Y0031204D01*
X0262309Y0031050D01*
X0262739Y0030906D01*
X0263172Y0030773D01*
X0263608Y0030651D01*
X0264047Y0030539D01*
X0264488Y0030439D01*
X0264932Y0030349D01*
X0265378Y0030270D01*
X0265826Y0030202D01*
X0266275Y0030145D01*
X0266726Y0030099D01*
X0267178Y0030064D01*
X0267630Y0030040D01*
X0268083Y0030027D01*
X0268536Y0030026D01*
X0268988Y0030035D01*
X0269441Y0030056D01*
X0269893Y0030087D01*
X0270344Y0030130D01*
X0270793Y0030184D01*
X0271242Y0030249D01*
X0271688Y0030324D01*
X0272133Y0030411D01*
X0272575Y0030509D01*
X0273015Y0030617D01*
X0273452Y0030736D01*
X0273886Y0030866D01*
X0274316Y0031006D01*
X0274743Y0031157D01*
X0275166Y0031318D01*
X0275586Y0031490D01*
X0276000Y0031672D01*
X0276411Y0031864D01*
X0276816Y0032066D01*
X0277216Y0032278D01*
X0277611Y0032499D01*
X0278001Y0032730D01*
X0278384Y0032971D01*
X0278762Y0033221D01*
X0279134Y0033480D01*
X0279498Y0033749D01*
X0279857Y0034026D01*
X0280208Y0034312D01*
X0280552Y0034606D01*
X0280889Y0034909D01*
X0281219Y0035219D01*
X0330537Y0055779D02*
X0330658Y0055799D01*
X0330779Y0055824D01*
X0330899Y0055852D01*
X0331018Y0055884D01*
X0331136Y0055919D01*
X0331253Y0055959D01*
X0331368Y0056002D01*
X0331482Y0056048D01*
X0331595Y0056098D01*
X0331706Y0056152D01*
X0331815Y0056209D01*
X0331922Y0056269D01*
X0332028Y0056333D01*
X0332131Y0056400D01*
X0332233Y0056470D01*
X0332332Y0056543D01*
X0332428Y0056620D01*
X0332523Y0056699D01*
X0332614Y0056782D01*
X0332703Y0056867D01*
X0332790Y0056955D01*
X0332873Y0057045D01*
X0332954Y0057138D01*
X0333032Y0057234D01*
X0333107Y0057332D01*
X0333178Y0057432D01*
X0333247Y0057535D01*
X0333312Y0057639D01*
X0333374Y0057746D01*
X0333432Y0057854D01*
X0333487Y0057964D01*
X0333539Y0058076D01*
X0333587Y0058190D01*
X0333632Y0058305D01*
X0333673Y0058421D01*
X0333710Y0058538D01*
X0333743Y0058657D01*
X0333773Y0058777D01*
X0333799Y0058897D01*
X0333799Y0058898D02*
X0333849Y0059133D01*
X0333905Y0059368D01*
X0333966Y0059601D01*
X0334034Y0059832D01*
X0334107Y0060062D01*
X0334185Y0060289D01*
X0334269Y0060515D01*
X0334359Y0060739D01*
X0334454Y0060960D01*
X0334555Y0061179D01*
X0334660Y0061395D01*
X0334772Y0061609D01*
X0334888Y0061820D01*
X0335009Y0062028D01*
X0335136Y0062233D01*
X0335267Y0062435D01*
X0335403Y0062634D01*
X0335545Y0062829D01*
X0335691Y0063021D01*
X0335841Y0063209D01*
X0335996Y0063393D01*
X0336156Y0063574D01*
X0336320Y0063751D01*
X0336488Y0063923D01*
X0336660Y0064091D01*
X0336837Y0064255D01*
X0337017Y0064415D01*
X0337201Y0064570D01*
X0337389Y0064721D01*
X0337581Y0064867D01*
X0337776Y0065008D01*
X0337975Y0065145D01*
X0338177Y0065276D01*
X0338382Y0065403D01*
X0338590Y0065524D01*
X0338801Y0065641D01*
X0339014Y0065752D01*
X0339231Y0065858D01*
X0339450Y0065958D01*
X0339671Y0066054D01*
X0339895Y0066143D01*
X0340120Y0066228D01*
X0340348Y0066306D01*
X0340578Y0066380D01*
X0340809Y0066447D01*
X0341042Y0066509D01*
X0341276Y0066565D01*
X0341512Y0066615D01*
X0341748Y0066660D01*
X0341986Y0066699D01*
X0342225Y0066731D01*
X0342464Y0066759D01*
X0342704Y0066780D01*
X0342945Y0066795D01*
X0343185Y0066804D01*
X0343426Y0066808D01*
X0343667Y0066806D01*
X0343908Y0066797D01*
X0344149Y0066783D01*
X0344389Y0066763D01*
X0344628Y0066737D01*
X0344867Y0066705D01*
X0345105Y0066668D01*
X0345342Y0066624D01*
X0345578Y0066575D01*
X0345812Y0066520D01*
X0346046Y0066460D01*
X0346277Y0066393D01*
X0346507Y0066321D01*
X0346735Y0066244D01*
X0346961Y0066160D01*
X0347185Y0066072D01*
X0347407Y0065978D01*
X0347627Y0065878D01*
X0347843Y0065773D01*
X0348058Y0065663D01*
X0348269Y0065548D01*
X0348478Y0065427D01*
X0348683Y0065301D01*
X0348886Y0065171D01*
X0349085Y0065035D01*
X0349281Y0064895D01*
X0349473Y0064750D01*
X0349662Y0064600D01*
X0349847Y0064446D01*
X0350028Y0064287D01*
X0350205Y0064124D01*
X0350379Y0063956D01*
X0350548Y0063785D01*
X0350712Y0063609D01*
X0350873Y0063429D01*
X0351029Y0063246D01*
X0351180Y0063058D01*
X0351327Y0062867D01*
X0351469Y0062673D01*
X0351607Y0062475D01*
X0351739Y0062273D01*
X0351866Y0062069D01*
X0351989Y0061861D01*
X0352106Y0061651D01*
X0352218Y0061438D01*
X0352325Y0061222D01*
X0352427Y0061003D01*
X0352523Y0060782D01*
X0352613Y0060559D01*
X0352699Y0060334D01*
X0352778Y0060106D01*
X0352852Y0059877D01*
X0352921Y0059646D01*
X0352984Y0059413D01*
X0353041Y0059179D01*
X0353092Y0058944D01*
X0353091Y0058943D02*
X0353118Y0058823D01*
X0353148Y0058704D01*
X0353182Y0058586D01*
X0353220Y0058469D01*
X0353262Y0058353D01*
X0353307Y0058238D01*
X0353355Y0058125D01*
X0353407Y0058014D01*
X0353463Y0057904D01*
X0353522Y0057796D01*
X0353584Y0057690D01*
X0353650Y0057586D01*
X0353718Y0057483D01*
X0353790Y0057384D01*
X0353865Y0057286D01*
X0353943Y0057191D01*
X0354024Y0057098D01*
X0354108Y0057008D01*
X0354195Y0056921D01*
X0354284Y0056836D01*
X0354376Y0056754D01*
X0354470Y0056675D01*
X0354567Y0056599D01*
X0354666Y0056527D01*
X0354768Y0056457D01*
X0354871Y0056390D01*
X0354977Y0056327D01*
X0355084Y0056267D01*
X0355194Y0056210D01*
X0355305Y0056157D01*
X0355417Y0056108D01*
X0355531Y0056062D01*
X0355647Y0056019D01*
X0355764Y0055980D01*
X0355882Y0055945D01*
X0356001Y0055914D01*
X0356120Y0055886D01*
X0356241Y0055862D01*
X0356362Y0055842D01*
X0405920Y0034649D02*
X0406260Y0034350D01*
X0406607Y0034059D01*
X0406961Y0033777D01*
X0407322Y0033503D01*
X0407690Y0033239D01*
X0408064Y0032983D01*
X0408444Y0032737D01*
X0408830Y0032500D01*
X0409222Y0032273D01*
X0409619Y0032055D01*
X0410022Y0031848D01*
X0410429Y0031650D01*
X0410841Y0031462D01*
X0411258Y0031284D01*
X0411679Y0031117D01*
X0412104Y0030960D01*
X0412532Y0030814D01*
X0412964Y0030678D01*
X0413399Y0030552D01*
X0413838Y0030438D01*
X0414278Y0030334D01*
X0414722Y0030241D01*
X0415167Y0030159D01*
X0415614Y0030087D01*
X0416063Y0030027D01*
X0416514Y0029978D01*
X0416965Y0029940D01*
X0417417Y0029913D01*
X0417870Y0029897D01*
X0418322Y0029892D01*
X0418775Y0029898D01*
X0419228Y0029916D01*
X0419680Y0029944D01*
X0420131Y0029984D01*
X0420581Y0030034D01*
X0421030Y0030096D01*
X0421477Y0030168D01*
X0421922Y0030252D01*
X0422365Y0030346D01*
X0422806Y0030451D01*
X0423243Y0030567D01*
X0423678Y0030694D01*
X0424110Y0030831D01*
X0424538Y0030979D01*
X0424962Y0031138D01*
X0425383Y0031306D01*
X0425799Y0031485D01*
X0426210Y0031674D01*
X0426617Y0031873D01*
X0427019Y0032082D01*
X0427416Y0032301D01*
X0427807Y0032530D01*
X0428192Y0032768D01*
X0428571Y0033015D01*
X0428945Y0033271D01*
X0429311Y0033537D01*
X0429672Y0033812D01*
X0430025Y0034095D01*
X0430371Y0034387D01*
X0430710Y0034687D01*
X0431042Y0034996D01*
X0431366Y0035312D01*
X0431682Y0035637D01*
X0431990Y0035969D01*
X0432290Y0036308D01*
X0432581Y0036655D01*
X0432864Y0037009D01*
X0433138Y0037369D01*
X0433403Y0037737D01*
X0433659Y0038110D01*
X0433906Y0038490D01*
X0434143Y0038876D01*
X0434371Y0039267D01*
X0434589Y0039664D01*
X0434798Y0040066D01*
X0434996Y0040473D01*
X0435185Y0040885D01*
X0435363Y0041301D01*
X0435531Y0041722D01*
X0435689Y0042147D01*
X0435836Y0042575D01*
X0435973Y0043007D01*
X0436099Y0043442D01*
X0436214Y0043880D01*
X0436319Y0044320D01*
X0436413Y0044763D01*
X0436495Y0045209D01*
X0436567Y0045656D01*
X0436628Y0046105D01*
X0436678Y0046555D01*
X0436717Y0047006D01*
X0436745Y0047458D01*
X0436761Y0047911D01*
X0436767Y0048364D01*
X0436761Y0048817D01*
X0436745Y0049269D01*
X0436717Y0049721D01*
X0436678Y0050173D01*
X0436629Y0050623D01*
X0436568Y0051071D01*
X0436496Y0051519D01*
X0436413Y0051964D01*
X0436319Y0052407D01*
X0436215Y0052848D01*
X0330537Y0055779D02*
X0327875Y0055337D01*
X0325225Y0054831D01*
X0322589Y0054260D01*
X0319966Y0053626D01*
X0317360Y0052928D01*
X0314772Y0052168D01*
X0312202Y0051345D01*
X0309654Y0050459D01*
X0307128Y0049512D01*
X0304625Y0048505D01*
X0302148Y0047436D01*
X0299697Y0046308D01*
X0297274Y0045121D01*
X0294881Y0043876D01*
X0292519Y0042572D01*
X0290189Y0041212D01*
X0287893Y0039796D01*
X0285632Y0038324D01*
X0283407Y0036798D01*
X0281220Y0035219D01*
X0356363Y0055842D02*
X0358924Y0055425D01*
X0361473Y0054946D01*
X0364011Y0054406D01*
X0366535Y0053803D01*
X0369043Y0053140D01*
X0371534Y0052416D01*
X0374008Y0051632D01*
X0376461Y0050788D01*
X0378893Y0049885D01*
X0381303Y0048923D01*
X0383688Y0047903D01*
X0386048Y0046825D01*
X0388382Y0045690D01*
X0390687Y0044499D01*
X0392962Y0043253D01*
X0395206Y0041951D01*
X0397419Y0040596D01*
X0399597Y0039187D01*
X0401741Y0037725D01*
X0403849Y0036213D01*
X0405919Y0034649D01*
X0449012Y0118486D02*
X0450397Y0120633D01*
X0451833Y0122747D01*
X0453320Y0124826D01*
X0454855Y0126869D01*
X0456440Y0128874D01*
X0458071Y0130841D01*
X0459749Y0132768D01*
X0461473Y0134655D01*
X0463241Y0136500D01*
X0465053Y0138302D01*
X0466908Y0140060D01*
X0468804Y0141774D01*
X0470740Y0143441D01*
X0472716Y0145062D01*
X0474730Y0146636D01*
X0476781Y0148160D01*
X0478868Y0149635D01*
X0480989Y0151060D01*
X0483144Y0152434D01*
X0485331Y0153756D01*
X0487549Y0155025D01*
X0489797Y0156241D01*
X0492073Y0157402D01*
X0494377Y0158509D01*
X0496706Y0159561D01*
X0499059Y0160557D01*
X0499488Y0160701D01*
X0499914Y0160857D01*
X0500335Y0161022D01*
X0500753Y0161198D01*
X0501166Y0161384D01*
X0501574Y0161581D01*
X0501977Y0161787D01*
X0502375Y0162003D01*
X0502768Y0162228D01*
X0503155Y0162464D01*
X0503536Y0162708D01*
X0503911Y0162962D01*
X0504280Y0163225D01*
X0504642Y0163497D01*
X0504997Y0163778D01*
X0505346Y0164067D01*
X0505687Y0164365D01*
X0506021Y0164672D01*
X0506347Y0164986D01*
X0506665Y0165308D01*
X0506976Y0165638D01*
X0507278Y0165975D01*
X0507572Y0166320D01*
X0507857Y0166672D01*
X0508134Y0167030D01*
X0508401Y0167396D01*
X0508660Y0167767D01*
X0508910Y0168145D01*
X0509150Y0168529D01*
X0509380Y0168919D01*
X0509601Y0169314D01*
X0509813Y0169715D01*
X0510014Y0170121D01*
X0510205Y0170531D01*
X0510387Y0170946D01*
X0510558Y0171366D01*
X0510718Y0171789D01*
X0510869Y0172216D01*
X0511008Y0172647D01*
X0511137Y0173081D01*
X0511256Y0173519D01*
X0511364Y0173958D01*
X0511460Y0174401D01*
X0511547Y0174846D01*
X0511622Y0175292D01*
X0511686Y0175741D01*
X0511739Y0176190D01*
X0511781Y0176641D01*
X0511812Y0177093D01*
X0511832Y0177546D01*
X0511841Y0177999D01*
X0511838Y0178451D01*
X0511825Y0178904D01*
X0511800Y0179356D01*
X0511765Y0179808D01*
X0511718Y0180258D01*
X0511660Y0180708D01*
X0511592Y0181155D01*
X0511512Y0181601D01*
X0511422Y0182045D01*
X0511320Y0182486D01*
X0511208Y0182925D01*
X0511085Y0183361D01*
X0510952Y0183794D01*
X0510807Y0184223D01*
X0510653Y0184649D01*
X0510488Y0185071D01*
X0510313Y0185488D01*
X0510127Y0185902D01*
X0509932Y0186310D01*
X0509726Y0186714D01*
X0509511Y0187112D01*
X0509286Y0187505D01*
X0509051Y0187893D01*
X0508807Y0188274D01*
X0508554Y0188650D01*
X0508291Y0189019D01*
X0508020Y0189382D01*
X0507740Y0189737D01*
X0507451Y0190086D01*
X0507153Y0190428D01*
X0506848Y0190762D01*
X0506534Y0191089D01*
X0506213Y0191408D01*
X0505883Y0191719D01*
X0505546Y0192021D01*
X0505202Y0192316D01*
X0504851Y0192602D01*
X0504493Y0192879D01*
X0504128Y0193147D01*
X0503756Y0193406D01*
X0503379Y0193656D01*
X0502995Y0193897D01*
X0502606Y0194128D01*
X0502211Y0194350D01*
X0501810Y0194562D01*
X0501405Y0194764D01*
X0500995Y0194956D01*
X0500580Y0195138D01*
X0500161Y0195310D01*
X0499738Y0195471D01*
X0499311Y0195622D01*
X0498880Y0195762D01*
X0498446Y0195892D01*
X0449012Y0238042D02*
X0448000Y0239794D01*
X0364119Y0275902D02*
X0364119Y0279445D01*
X0364117Y0279511D01*
X0364112Y0279577D01*
X0364102Y0279643D01*
X0364089Y0279708D01*
X0364073Y0279772D01*
X0364053Y0279835D01*
X0364029Y0279897D01*
X0364002Y0279957D01*
X0363972Y0280016D01*
X0363938Y0280073D01*
X0363901Y0280128D01*
X0363861Y0280181D01*
X0363819Y0280232D01*
X0363773Y0280280D01*
X0363725Y0280326D01*
X0363674Y0280368D01*
X0363621Y0280408D01*
X0363566Y0280445D01*
X0363509Y0280479D01*
X0363450Y0280509D01*
X0363390Y0280536D01*
X0363328Y0280560D01*
X0363265Y0280580D01*
X0363201Y0280596D01*
X0363136Y0280609D01*
X0363070Y0280619D01*
X0363004Y0280624D01*
X0362938Y0280626D01*
X0362872Y0280624D01*
X0362806Y0280619D01*
X0362740Y0280609D01*
X0362675Y0280596D01*
X0362611Y0280580D01*
X0362548Y0280560D01*
X0362486Y0280536D01*
X0362426Y0280509D01*
X0362367Y0280479D01*
X0362310Y0280445D01*
X0362255Y0280408D01*
X0362202Y0280368D01*
X0362151Y0280326D01*
X0362103Y0280280D01*
X0362057Y0280232D01*
X0362015Y0280181D01*
X0361975Y0280128D01*
X0361938Y0280073D01*
X0361904Y0280016D01*
X0361874Y0279957D01*
X0361847Y0279897D01*
X0361823Y0279835D01*
X0361803Y0279772D01*
X0361787Y0279708D01*
X0361774Y0279643D01*
X0361764Y0279577D01*
X0361759Y0279511D01*
X0361757Y0279445D01*
X0361757Y0275902D01*
X0361759Y0275836D01*
X0361764Y0275770D01*
X0361774Y0275704D01*
X0361787Y0275639D01*
X0361803Y0275575D01*
X0361823Y0275512D01*
X0361847Y0275450D01*
X0361874Y0275390D01*
X0361904Y0275331D01*
X0361938Y0275274D01*
X0361975Y0275219D01*
X0362015Y0275166D01*
X0362057Y0275115D01*
X0362103Y0275067D01*
X0362151Y0275021D01*
X0362202Y0274979D01*
X0362255Y0274939D01*
X0362310Y0274902D01*
X0362367Y0274868D01*
X0362426Y0274838D01*
X0362486Y0274811D01*
X0362548Y0274787D01*
X0362611Y0274767D01*
X0362675Y0274751D01*
X0362740Y0274738D01*
X0362806Y0274728D01*
X0362872Y0274723D01*
X0362938Y0274721D01*
X0363004Y0274723D01*
X0363070Y0274728D01*
X0363136Y0274738D01*
X0363201Y0274751D01*
X0363265Y0274767D01*
X0363328Y0274787D01*
X0363390Y0274811D01*
X0363450Y0274838D01*
X0363509Y0274868D01*
X0363566Y0274902D01*
X0363621Y0274939D01*
X0363674Y0274979D01*
X0363725Y0275021D01*
X0363773Y0275067D01*
X0363819Y0275115D01*
X0363861Y0275166D01*
X0363901Y0275219D01*
X0363938Y0275274D01*
X0363972Y0275331D01*
X0364002Y0275390D01*
X0364029Y0275450D01*
X0364053Y0275512D01*
X0364073Y0275575D01*
X0364089Y0275639D01*
X0364102Y0275704D01*
X0364112Y0275770D01*
X0364117Y0275836D01*
X0364119Y0275902D01*
X0362938Y0274721D02*
X0362872Y0274723D01*
X0362806Y0274728D01*
X0362740Y0274738D01*
X0362675Y0274751D01*
X0362611Y0274767D01*
X0362548Y0274787D01*
X0362486Y0274811D01*
X0362426Y0274838D01*
X0362367Y0274868D01*
X0362310Y0274902D01*
X0362255Y0274939D01*
X0362202Y0274979D01*
X0362151Y0275021D01*
X0362103Y0275067D01*
X0362057Y0275115D01*
X0362015Y0275166D01*
X0361975Y0275219D01*
X0361938Y0275274D01*
X0361904Y0275331D01*
X0361874Y0275390D01*
X0361847Y0275450D01*
X0361823Y0275512D01*
X0361803Y0275575D01*
X0361787Y0275639D01*
X0361774Y0275704D01*
X0361764Y0275770D01*
X0361759Y0275836D01*
X0361757Y0275902D01*
X0362938Y0274721D02*
X0363004Y0274723D01*
X0363070Y0274728D01*
X0363136Y0274738D01*
X0363201Y0274751D01*
X0363265Y0274767D01*
X0363328Y0274787D01*
X0363390Y0274811D01*
X0363450Y0274838D01*
X0363509Y0274868D01*
X0363566Y0274902D01*
X0363621Y0274939D01*
X0363674Y0274979D01*
X0363725Y0275021D01*
X0363773Y0275067D01*
X0363819Y0275115D01*
X0363861Y0275166D01*
X0363901Y0275219D01*
X0363938Y0275274D01*
X0363972Y0275331D01*
X0364002Y0275390D01*
X0364029Y0275450D01*
X0364053Y0275512D01*
X0364073Y0275575D01*
X0364089Y0275639D01*
X0364102Y0275704D01*
X0364112Y0275770D01*
X0364117Y0275836D01*
X0364119Y0275902D01*
X0364119Y0279445D02*
X0364117Y0279511D01*
X0364112Y0279577D01*
X0364102Y0279643D01*
X0364089Y0279708D01*
X0364073Y0279772D01*
X0364053Y0279835D01*
X0364029Y0279897D01*
X0364002Y0279957D01*
X0363972Y0280016D01*
X0363938Y0280073D01*
X0363901Y0280128D01*
X0363861Y0280181D01*
X0363819Y0280232D01*
X0363773Y0280280D01*
X0363725Y0280326D01*
X0363674Y0280368D01*
X0363621Y0280408D01*
X0363566Y0280445D01*
X0363509Y0280479D01*
X0363450Y0280509D01*
X0363390Y0280536D01*
X0363328Y0280560D01*
X0363265Y0280580D01*
X0363201Y0280596D01*
X0363136Y0280609D01*
X0363070Y0280619D01*
X0363004Y0280624D01*
X0362938Y0280626D01*
X0362872Y0280624D01*
X0362806Y0280619D01*
X0362740Y0280609D01*
X0362675Y0280596D01*
X0362611Y0280580D01*
X0362548Y0280560D01*
X0362486Y0280536D01*
X0362426Y0280509D01*
X0362367Y0280479D01*
X0362310Y0280445D01*
X0362255Y0280408D01*
X0362202Y0280368D01*
X0362151Y0280326D01*
X0362103Y0280280D01*
X0362057Y0280232D01*
X0362015Y0280181D01*
X0361975Y0280128D01*
X0361938Y0280073D01*
X0361904Y0280016D01*
X0361874Y0279957D01*
X0361847Y0279897D01*
X0361823Y0279835D01*
X0361803Y0279772D01*
X0361787Y0279708D01*
X0361774Y0279643D01*
X0361764Y0279577D01*
X0361759Y0279511D01*
X0361757Y0279445D01*
X0359001Y0282398D02*
X0359001Y0301098D01*
X0359001Y0301100D02*
X0359001Y0301187D01*
X0361757Y0295783D02*
X0361757Y0291059D01*
X0361759Y0290993D01*
X0361764Y0290927D01*
X0361774Y0290861D01*
X0361787Y0290796D01*
X0361803Y0290732D01*
X0361823Y0290669D01*
X0361847Y0290607D01*
X0361874Y0290547D01*
X0361904Y0290488D01*
X0361938Y0290431D01*
X0361975Y0290376D01*
X0362015Y0290323D01*
X0362057Y0290272D01*
X0362103Y0290224D01*
X0362151Y0290178D01*
X0362202Y0290136D01*
X0362255Y0290096D01*
X0362310Y0290059D01*
X0362367Y0290025D01*
X0362426Y0289995D01*
X0362486Y0289968D01*
X0362548Y0289944D01*
X0362611Y0289924D01*
X0362675Y0289908D01*
X0362740Y0289895D01*
X0362806Y0289885D01*
X0362872Y0289880D01*
X0362938Y0289878D01*
X0363004Y0289880D01*
X0363070Y0289885D01*
X0363136Y0289895D01*
X0363201Y0289908D01*
X0363265Y0289924D01*
X0363328Y0289944D01*
X0363390Y0289968D01*
X0363450Y0289995D01*
X0363509Y0290025D01*
X0363566Y0290059D01*
X0363621Y0290096D01*
X0363674Y0290136D01*
X0363725Y0290178D01*
X0363773Y0290224D01*
X0363819Y0290272D01*
X0363861Y0290323D01*
X0363901Y0290376D01*
X0363938Y0290431D01*
X0363972Y0290488D01*
X0364002Y0290547D01*
X0364029Y0290607D01*
X0364053Y0290669D01*
X0364073Y0290732D01*
X0364089Y0290796D01*
X0364102Y0290861D01*
X0364112Y0290927D01*
X0364117Y0290993D01*
X0364119Y0291059D01*
X0364119Y0295783D01*
X0364117Y0295849D01*
X0364112Y0295915D01*
X0364102Y0295981D01*
X0364089Y0296046D01*
X0364073Y0296110D01*
X0364053Y0296173D01*
X0364029Y0296235D01*
X0364002Y0296295D01*
X0363972Y0296354D01*
X0363938Y0296411D01*
X0363901Y0296466D01*
X0363861Y0296519D01*
X0363819Y0296570D01*
X0363773Y0296618D01*
X0363725Y0296664D01*
X0363674Y0296706D01*
X0363621Y0296746D01*
X0363566Y0296783D01*
X0363509Y0296817D01*
X0363450Y0296847D01*
X0363390Y0296874D01*
X0363328Y0296898D01*
X0363265Y0296918D01*
X0363201Y0296934D01*
X0363136Y0296947D01*
X0363070Y0296957D01*
X0363004Y0296962D01*
X0362938Y0296964D01*
X0362872Y0296962D01*
X0362806Y0296957D01*
X0362740Y0296947D01*
X0362675Y0296934D01*
X0362611Y0296918D01*
X0362548Y0296898D01*
X0362486Y0296874D01*
X0362426Y0296847D01*
X0362367Y0296817D01*
X0362310Y0296783D01*
X0362255Y0296746D01*
X0362202Y0296706D01*
X0362151Y0296664D01*
X0362103Y0296618D01*
X0362057Y0296570D01*
X0362015Y0296519D01*
X0361975Y0296466D01*
X0361938Y0296411D01*
X0361904Y0296354D01*
X0361874Y0296295D01*
X0361847Y0296235D01*
X0361823Y0296173D01*
X0361803Y0296110D01*
X0361787Y0296046D01*
X0361774Y0295981D01*
X0361764Y0295915D01*
X0361759Y0295849D01*
X0361757Y0295783D01*
X0362938Y0296964D02*
X0363004Y0296962D01*
X0363070Y0296957D01*
X0363136Y0296947D01*
X0363201Y0296934D01*
X0363265Y0296918D01*
X0363328Y0296898D01*
X0363390Y0296874D01*
X0363450Y0296847D01*
X0363509Y0296817D01*
X0363566Y0296783D01*
X0363621Y0296746D01*
X0363674Y0296706D01*
X0363725Y0296664D01*
X0363773Y0296618D01*
X0363819Y0296570D01*
X0363861Y0296519D01*
X0363901Y0296466D01*
X0363938Y0296411D01*
X0363972Y0296354D01*
X0364002Y0296295D01*
X0364029Y0296235D01*
X0364053Y0296173D01*
X0364073Y0296110D01*
X0364089Y0296046D01*
X0364102Y0295981D01*
X0364112Y0295915D01*
X0364117Y0295849D01*
X0364119Y0295783D01*
X0362938Y0296964D02*
X0362872Y0296962D01*
X0362806Y0296957D01*
X0362740Y0296947D01*
X0362675Y0296934D01*
X0362611Y0296918D01*
X0362548Y0296898D01*
X0362486Y0296874D01*
X0362426Y0296847D01*
X0362367Y0296817D01*
X0362310Y0296783D01*
X0362255Y0296746D01*
X0362202Y0296706D01*
X0362151Y0296664D01*
X0362103Y0296618D01*
X0362057Y0296570D01*
X0362015Y0296519D01*
X0361975Y0296466D01*
X0361938Y0296411D01*
X0361904Y0296354D01*
X0361874Y0296295D01*
X0361847Y0296235D01*
X0361823Y0296173D01*
X0361803Y0296110D01*
X0361787Y0296046D01*
X0361774Y0295981D01*
X0361764Y0295915D01*
X0361759Y0295849D01*
X0361757Y0295783D01*
X0361757Y0291059D02*
X0361759Y0290993D01*
X0361764Y0290927D01*
X0361774Y0290861D01*
X0361787Y0290796D01*
X0361803Y0290732D01*
X0361823Y0290669D01*
X0361847Y0290607D01*
X0361874Y0290547D01*
X0361904Y0290488D01*
X0361938Y0290431D01*
X0361975Y0290376D01*
X0362015Y0290323D01*
X0362057Y0290272D01*
X0362103Y0290224D01*
X0362151Y0290178D01*
X0362202Y0290136D01*
X0362255Y0290096D01*
X0362310Y0290059D01*
X0362367Y0290025D01*
X0362426Y0289995D01*
X0362486Y0289968D01*
X0362548Y0289944D01*
X0362611Y0289924D01*
X0362675Y0289908D01*
X0362740Y0289895D01*
X0362806Y0289885D01*
X0362872Y0289880D01*
X0362938Y0289878D01*
X0363004Y0289880D01*
X0363070Y0289885D01*
X0363136Y0289895D01*
X0363201Y0289908D01*
X0363265Y0289924D01*
X0363328Y0289944D01*
X0363390Y0289968D01*
X0363450Y0289995D01*
X0363509Y0290025D01*
X0363566Y0290059D01*
X0363621Y0290096D01*
X0363674Y0290136D01*
X0363725Y0290178D01*
X0363773Y0290224D01*
X0363819Y0290272D01*
X0363861Y0290323D01*
X0363901Y0290376D01*
X0363938Y0290431D01*
X0363972Y0290488D01*
X0364002Y0290547D01*
X0364029Y0290607D01*
X0364053Y0290669D01*
X0364073Y0290732D01*
X0364089Y0290796D01*
X0364102Y0290861D01*
X0364112Y0290927D01*
X0364117Y0290993D01*
X0364119Y0291059D01*
X0359002Y0282398D02*
X0359000Y0282288D01*
X0358994Y0282178D01*
X0358985Y0282069D01*
X0358971Y0281960D01*
X0358954Y0281851D01*
X0358933Y0281743D01*
X0358908Y0281636D01*
X0358880Y0281530D01*
X0358848Y0281425D01*
X0358812Y0281321D01*
X0358773Y0281218D01*
X0358730Y0281117D01*
X0358683Y0281017D01*
X0358633Y0280919D01*
X0358580Y0280823D01*
X0358523Y0280729D01*
X0358463Y0280637D01*
X0358400Y0280546D01*
X0358334Y0280459D01*
X0358265Y0280373D01*
X0358193Y0280290D01*
X0358118Y0280210D01*
X0358040Y0280132D01*
X0357960Y0280057D01*
X0357877Y0279985D01*
X0357791Y0279916D01*
X0357704Y0279850D01*
X0357613Y0279787D01*
X0357521Y0279727D01*
X0357427Y0279670D01*
X0357331Y0279617D01*
X0357233Y0279567D01*
X0357133Y0279520D01*
X0357032Y0279477D01*
X0356929Y0279438D01*
X0356825Y0279402D01*
X0356720Y0279370D01*
X0356614Y0279342D01*
X0356507Y0279317D01*
X0356399Y0279296D01*
X0356290Y0279279D01*
X0356181Y0279265D01*
X0356072Y0279256D01*
X0355962Y0279250D01*
X0355852Y0279248D01*
X0331049Y0279248D01*
X0355852Y0279248D01*
X0355962Y0279250D01*
X0356072Y0279256D01*
X0356181Y0279265D01*
X0356290Y0279279D01*
X0356399Y0279296D01*
X0356507Y0279317D01*
X0356614Y0279342D01*
X0356720Y0279370D01*
X0356825Y0279402D01*
X0356929Y0279438D01*
X0357032Y0279477D01*
X0357133Y0279520D01*
X0357233Y0279567D01*
X0357331Y0279617D01*
X0357427Y0279670D01*
X0357521Y0279727D01*
X0357613Y0279787D01*
X0357704Y0279850D01*
X0357791Y0279916D01*
X0357877Y0279985D01*
X0357960Y0280057D01*
X0358040Y0280132D01*
X0358118Y0280210D01*
X0358193Y0280290D01*
X0358265Y0280373D01*
X0358334Y0280459D01*
X0358400Y0280546D01*
X0358463Y0280637D01*
X0358523Y0280729D01*
X0358580Y0280823D01*
X0358633Y0280919D01*
X0358683Y0281017D01*
X0358730Y0281117D01*
X0358773Y0281218D01*
X0358812Y0281321D01*
X0358848Y0281425D01*
X0358880Y0281530D01*
X0358908Y0281636D01*
X0358933Y0281743D01*
X0358954Y0281851D01*
X0358971Y0281960D01*
X0358985Y0282069D01*
X0358994Y0282178D01*
X0359000Y0282288D01*
X0359002Y0282398D01*
X0331049Y0279248D02*
X0330939Y0279250D01*
X0330829Y0279256D01*
X0330720Y0279265D01*
X0330611Y0279279D01*
X0330502Y0279296D01*
X0330394Y0279317D01*
X0330287Y0279342D01*
X0330181Y0279370D01*
X0330076Y0279402D01*
X0329972Y0279438D01*
X0329869Y0279477D01*
X0329768Y0279520D01*
X0329668Y0279567D01*
X0329570Y0279617D01*
X0329474Y0279670D01*
X0329380Y0279727D01*
X0329288Y0279787D01*
X0329197Y0279850D01*
X0329110Y0279916D01*
X0329024Y0279985D01*
X0328941Y0280057D01*
X0328861Y0280132D01*
X0328783Y0280210D01*
X0328708Y0280290D01*
X0328636Y0280373D01*
X0328567Y0280459D01*
X0328501Y0280546D01*
X0328438Y0280637D01*
X0328378Y0280729D01*
X0328321Y0280823D01*
X0328268Y0280919D01*
X0328218Y0281017D01*
X0328171Y0281117D01*
X0328128Y0281218D01*
X0328089Y0281321D01*
X0328053Y0281425D01*
X0328021Y0281530D01*
X0327993Y0281636D01*
X0327968Y0281743D01*
X0327947Y0281851D01*
X0327930Y0281960D01*
X0327916Y0282069D01*
X0327907Y0282178D01*
X0327901Y0282288D01*
X0327899Y0282398D01*
X0327899Y0301098D01*
X0327899Y0301114D01*
X0327899Y0301118D02*
X0327899Y0282398D01*
X0327901Y0282288D01*
X0327907Y0282178D01*
X0327916Y0282069D01*
X0327930Y0281960D01*
X0327947Y0281851D01*
X0327968Y0281743D01*
X0327993Y0281636D01*
X0328021Y0281530D01*
X0328053Y0281425D01*
X0328089Y0281321D01*
X0328128Y0281218D01*
X0328171Y0281117D01*
X0328218Y0281017D01*
X0328268Y0280919D01*
X0328321Y0280823D01*
X0328378Y0280729D01*
X0328438Y0280637D01*
X0328501Y0280546D01*
X0328567Y0280459D01*
X0328636Y0280373D01*
X0328708Y0280290D01*
X0328783Y0280210D01*
X0328861Y0280132D01*
X0328941Y0280057D01*
X0329024Y0279985D01*
X0329110Y0279916D01*
X0329197Y0279850D01*
X0329288Y0279787D01*
X0329380Y0279727D01*
X0329474Y0279670D01*
X0329570Y0279617D01*
X0329668Y0279567D01*
X0329768Y0279520D01*
X0329869Y0279477D01*
X0329972Y0279438D01*
X0330076Y0279402D01*
X0330181Y0279370D01*
X0330287Y0279342D01*
X0330394Y0279317D01*
X0330502Y0279296D01*
X0330611Y0279279D01*
X0330720Y0279265D01*
X0330829Y0279256D01*
X0330939Y0279250D01*
X0331049Y0279248D01*
X0325143Y0279445D02*
X0325143Y0275902D01*
X0323962Y0274721D02*
X0323896Y0274723D01*
X0323830Y0274728D01*
X0323764Y0274738D01*
X0323699Y0274751D01*
X0323635Y0274767D01*
X0323572Y0274787D01*
X0323510Y0274811D01*
X0323450Y0274838D01*
X0323391Y0274868D01*
X0323334Y0274902D01*
X0323279Y0274939D01*
X0323226Y0274979D01*
X0323175Y0275021D01*
X0323127Y0275067D01*
X0323081Y0275115D01*
X0323039Y0275166D01*
X0322999Y0275219D01*
X0322962Y0275274D01*
X0322928Y0275331D01*
X0322898Y0275390D01*
X0322871Y0275450D01*
X0322847Y0275512D01*
X0322827Y0275575D01*
X0322811Y0275639D01*
X0322798Y0275704D01*
X0322788Y0275770D01*
X0322783Y0275836D01*
X0322781Y0275902D01*
X0322781Y0279445D01*
X0323962Y0280626D02*
X0324028Y0280624D01*
X0324094Y0280619D01*
X0324160Y0280609D01*
X0324225Y0280596D01*
X0324289Y0280580D01*
X0324352Y0280560D01*
X0324414Y0280536D01*
X0324474Y0280509D01*
X0324533Y0280479D01*
X0324590Y0280445D01*
X0324645Y0280408D01*
X0324698Y0280368D01*
X0324749Y0280326D01*
X0324797Y0280280D01*
X0324843Y0280232D01*
X0324885Y0280181D01*
X0324925Y0280128D01*
X0324962Y0280073D01*
X0324996Y0280016D01*
X0325026Y0279957D01*
X0325053Y0279897D01*
X0325077Y0279835D01*
X0325097Y0279772D01*
X0325113Y0279708D01*
X0325126Y0279643D01*
X0325136Y0279577D01*
X0325141Y0279511D01*
X0325143Y0279445D01*
X0323962Y0280626D02*
X0323896Y0280624D01*
X0323830Y0280619D01*
X0323764Y0280609D01*
X0323699Y0280596D01*
X0323635Y0280580D01*
X0323572Y0280560D01*
X0323510Y0280536D01*
X0323450Y0280509D01*
X0323391Y0280479D01*
X0323334Y0280445D01*
X0323279Y0280408D01*
X0323226Y0280368D01*
X0323175Y0280326D01*
X0323127Y0280280D01*
X0323081Y0280232D01*
X0323039Y0280181D01*
X0322999Y0280128D01*
X0322962Y0280073D01*
X0322928Y0280016D01*
X0322898Y0279957D01*
X0322871Y0279897D01*
X0322847Y0279835D01*
X0322827Y0279772D01*
X0322811Y0279708D01*
X0322798Y0279643D01*
X0322788Y0279577D01*
X0322783Y0279511D01*
X0322781Y0279445D01*
X0323962Y0280626D02*
X0324028Y0280624D01*
X0324094Y0280619D01*
X0324160Y0280609D01*
X0324225Y0280596D01*
X0324289Y0280580D01*
X0324352Y0280560D01*
X0324414Y0280536D01*
X0324474Y0280509D01*
X0324533Y0280479D01*
X0324590Y0280445D01*
X0324645Y0280408D01*
X0324698Y0280368D01*
X0324749Y0280326D01*
X0324797Y0280280D01*
X0324843Y0280232D01*
X0324885Y0280181D01*
X0324925Y0280128D01*
X0324962Y0280073D01*
X0324996Y0280016D01*
X0325026Y0279957D01*
X0325053Y0279897D01*
X0325077Y0279835D01*
X0325097Y0279772D01*
X0325113Y0279708D01*
X0325126Y0279643D01*
X0325136Y0279577D01*
X0325141Y0279511D01*
X0325143Y0279445D01*
X0323962Y0280626D02*
X0323896Y0280624D01*
X0323830Y0280619D01*
X0323764Y0280609D01*
X0323699Y0280596D01*
X0323635Y0280580D01*
X0323572Y0280560D01*
X0323510Y0280536D01*
X0323450Y0280509D01*
X0323391Y0280479D01*
X0323334Y0280445D01*
X0323279Y0280408D01*
X0323226Y0280368D01*
X0323175Y0280326D01*
X0323127Y0280280D01*
X0323081Y0280232D01*
X0323039Y0280181D01*
X0322999Y0280128D01*
X0322962Y0280073D01*
X0322928Y0280016D01*
X0322898Y0279957D01*
X0322871Y0279897D01*
X0322847Y0279835D01*
X0322827Y0279772D01*
X0322811Y0279708D01*
X0322798Y0279643D01*
X0322788Y0279577D01*
X0322783Y0279511D01*
X0322781Y0279445D01*
X0325143Y0275902D02*
X0325141Y0275836D01*
X0325136Y0275770D01*
X0325126Y0275704D01*
X0325113Y0275639D01*
X0325097Y0275575D01*
X0325077Y0275512D01*
X0325053Y0275450D01*
X0325026Y0275390D01*
X0324996Y0275331D01*
X0324962Y0275274D01*
X0324925Y0275219D01*
X0324885Y0275166D01*
X0324843Y0275115D01*
X0324797Y0275067D01*
X0324749Y0275021D01*
X0324698Y0274979D01*
X0324645Y0274939D01*
X0324590Y0274902D01*
X0324533Y0274868D01*
X0324474Y0274838D01*
X0324414Y0274811D01*
X0324352Y0274787D01*
X0324289Y0274767D01*
X0324225Y0274751D01*
X0324160Y0274738D01*
X0324094Y0274728D01*
X0324028Y0274723D01*
X0323962Y0274721D01*
X0323896Y0274723D01*
X0323830Y0274728D01*
X0323764Y0274738D01*
X0323699Y0274751D01*
X0323635Y0274767D01*
X0323572Y0274787D01*
X0323510Y0274811D01*
X0323450Y0274838D01*
X0323391Y0274868D01*
X0323334Y0274902D01*
X0323279Y0274939D01*
X0323226Y0274979D01*
X0323175Y0275021D01*
X0323127Y0275067D01*
X0323081Y0275115D01*
X0323039Y0275166D01*
X0322999Y0275219D01*
X0322962Y0275274D01*
X0322928Y0275331D01*
X0322898Y0275390D01*
X0322871Y0275450D01*
X0322847Y0275512D01*
X0322827Y0275575D01*
X0322811Y0275639D01*
X0322798Y0275704D01*
X0322788Y0275770D01*
X0322783Y0275836D01*
X0322781Y0275902D01*
X0323962Y0274721D02*
X0324028Y0274723D01*
X0324094Y0274728D01*
X0324160Y0274738D01*
X0324225Y0274751D01*
X0324289Y0274767D01*
X0324352Y0274787D01*
X0324414Y0274811D01*
X0324474Y0274838D01*
X0324533Y0274868D01*
X0324590Y0274902D01*
X0324645Y0274939D01*
X0324698Y0274979D01*
X0324749Y0275021D01*
X0324797Y0275067D01*
X0324843Y0275115D01*
X0324885Y0275166D01*
X0324925Y0275219D01*
X0324962Y0275274D01*
X0324996Y0275331D01*
X0325026Y0275390D01*
X0325053Y0275450D01*
X0325077Y0275512D01*
X0325097Y0275575D01*
X0325113Y0275639D01*
X0325126Y0275704D01*
X0325136Y0275770D01*
X0325141Y0275836D01*
X0325143Y0275902D01*
X0325143Y0291059D02*
X0325143Y0295783D01*
X0325141Y0295849D01*
X0325136Y0295915D01*
X0325126Y0295981D01*
X0325113Y0296046D01*
X0325097Y0296110D01*
X0325077Y0296173D01*
X0325053Y0296235D01*
X0325026Y0296295D01*
X0324996Y0296354D01*
X0324962Y0296411D01*
X0324925Y0296466D01*
X0324885Y0296519D01*
X0324843Y0296570D01*
X0324797Y0296618D01*
X0324749Y0296664D01*
X0324698Y0296706D01*
X0324645Y0296746D01*
X0324590Y0296783D01*
X0324533Y0296817D01*
X0324474Y0296847D01*
X0324414Y0296874D01*
X0324352Y0296898D01*
X0324289Y0296918D01*
X0324225Y0296934D01*
X0324160Y0296947D01*
X0324094Y0296957D01*
X0324028Y0296962D01*
X0323962Y0296964D01*
X0323896Y0296962D01*
X0323830Y0296957D01*
X0323764Y0296947D01*
X0323699Y0296934D01*
X0323635Y0296918D01*
X0323572Y0296898D01*
X0323510Y0296874D01*
X0323450Y0296847D01*
X0323391Y0296817D01*
X0323334Y0296783D01*
X0323279Y0296746D01*
X0323226Y0296706D01*
X0323175Y0296664D01*
X0323127Y0296618D01*
X0323081Y0296570D01*
X0323039Y0296519D01*
X0322999Y0296466D01*
X0322962Y0296411D01*
X0322928Y0296354D01*
X0322898Y0296295D01*
X0322871Y0296235D01*
X0322847Y0296173D01*
X0322827Y0296110D01*
X0322811Y0296046D01*
X0322798Y0295981D01*
X0322788Y0295915D01*
X0322783Y0295849D01*
X0322781Y0295783D01*
X0322781Y0291059D01*
X0322783Y0290993D01*
X0322788Y0290927D01*
X0322798Y0290861D01*
X0322811Y0290796D01*
X0322827Y0290732D01*
X0322847Y0290669D01*
X0322871Y0290607D01*
X0322898Y0290547D01*
X0322928Y0290488D01*
X0322962Y0290431D01*
X0322999Y0290376D01*
X0323039Y0290323D01*
X0323081Y0290272D01*
X0323127Y0290224D01*
X0323175Y0290178D01*
X0323226Y0290136D01*
X0323279Y0290096D01*
X0323334Y0290059D01*
X0323391Y0290025D01*
X0323450Y0289995D01*
X0323510Y0289968D01*
X0323572Y0289944D01*
X0323635Y0289924D01*
X0323699Y0289908D01*
X0323764Y0289895D01*
X0323830Y0289885D01*
X0323896Y0289880D01*
X0323962Y0289878D01*
X0324028Y0289880D01*
X0324094Y0289885D01*
X0324160Y0289895D01*
X0324225Y0289908D01*
X0324289Y0289924D01*
X0324352Y0289944D01*
X0324414Y0289968D01*
X0324474Y0289995D01*
X0324533Y0290025D01*
X0324590Y0290059D01*
X0324645Y0290096D01*
X0324698Y0290136D01*
X0324749Y0290178D01*
X0324797Y0290224D01*
X0324843Y0290272D01*
X0324885Y0290323D01*
X0324925Y0290376D01*
X0324962Y0290431D01*
X0324996Y0290488D01*
X0325026Y0290547D01*
X0325053Y0290607D01*
X0325077Y0290669D01*
X0325097Y0290732D01*
X0325113Y0290796D01*
X0325126Y0290861D01*
X0325136Y0290927D01*
X0325141Y0290993D01*
X0325143Y0291059D01*
X0323962Y0289878D02*
X0323896Y0289880D01*
X0323830Y0289885D01*
X0323764Y0289895D01*
X0323699Y0289908D01*
X0323635Y0289924D01*
X0323572Y0289944D01*
X0323510Y0289968D01*
X0323450Y0289995D01*
X0323391Y0290025D01*
X0323334Y0290059D01*
X0323279Y0290096D01*
X0323226Y0290136D01*
X0323175Y0290178D01*
X0323127Y0290224D01*
X0323081Y0290272D01*
X0323039Y0290323D01*
X0322999Y0290376D01*
X0322962Y0290431D01*
X0322928Y0290488D01*
X0322898Y0290547D01*
X0322871Y0290607D01*
X0322847Y0290669D01*
X0322827Y0290732D01*
X0322811Y0290796D01*
X0322798Y0290861D01*
X0322788Y0290927D01*
X0322783Y0290993D01*
X0322781Y0291059D01*
X0323962Y0289878D02*
X0324028Y0289880D01*
X0324094Y0289885D01*
X0324160Y0289895D01*
X0324225Y0289908D01*
X0324289Y0289924D01*
X0324352Y0289944D01*
X0324414Y0289968D01*
X0324474Y0289995D01*
X0324533Y0290025D01*
X0324590Y0290059D01*
X0324645Y0290096D01*
X0324698Y0290136D01*
X0324749Y0290178D01*
X0324797Y0290224D01*
X0324843Y0290272D01*
X0324885Y0290323D01*
X0324925Y0290376D01*
X0324962Y0290431D01*
X0324996Y0290488D01*
X0325026Y0290547D01*
X0325053Y0290607D01*
X0325077Y0290669D01*
X0325097Y0290732D01*
X0325113Y0290796D01*
X0325126Y0290861D01*
X0325136Y0290927D01*
X0325141Y0290993D01*
X0325143Y0291059D01*
X0325143Y0295783D02*
X0325141Y0295849D01*
X0325136Y0295915D01*
X0325126Y0295981D01*
X0325113Y0296046D01*
X0325097Y0296110D01*
X0325077Y0296173D01*
X0325053Y0296235D01*
X0325026Y0296295D01*
X0324996Y0296354D01*
X0324962Y0296411D01*
X0324925Y0296466D01*
X0324885Y0296519D01*
X0324843Y0296570D01*
X0324797Y0296618D01*
X0324749Y0296664D01*
X0324698Y0296706D01*
X0324645Y0296746D01*
X0324590Y0296783D01*
X0324533Y0296817D01*
X0324474Y0296847D01*
X0324414Y0296874D01*
X0324352Y0296898D01*
X0324289Y0296918D01*
X0324225Y0296934D01*
X0324160Y0296947D01*
X0324094Y0296957D01*
X0324028Y0296962D01*
X0323962Y0296964D01*
X0323896Y0296962D01*
X0323830Y0296957D01*
X0323764Y0296947D01*
X0323699Y0296934D01*
X0323635Y0296918D01*
X0323572Y0296898D01*
X0323510Y0296874D01*
X0323450Y0296847D01*
X0323391Y0296817D01*
X0323334Y0296783D01*
X0323279Y0296746D01*
X0323226Y0296706D01*
X0323175Y0296664D01*
X0323127Y0296618D01*
X0323081Y0296570D01*
X0323039Y0296519D01*
X0322999Y0296466D01*
X0322962Y0296411D01*
X0322928Y0296354D01*
X0322898Y0296295D01*
X0322871Y0296235D01*
X0322847Y0296173D01*
X0322827Y0296110D01*
X0322811Y0296046D01*
X0322798Y0295981D01*
X0322788Y0295915D01*
X0322783Y0295849D01*
X0322781Y0295783D01*
X0280981Y0321879D02*
X0280641Y0322178D01*
X0280294Y0322469D01*
X0279940Y0322751D01*
X0279579Y0323025D01*
X0279211Y0323289D01*
X0278837Y0323545D01*
X0278457Y0323791D01*
X0278071Y0324028D01*
X0277679Y0324255D01*
X0277282Y0324473D01*
X0276879Y0324680D01*
X0276472Y0324878D01*
X0276060Y0325066D01*
X0275643Y0325244D01*
X0275222Y0325411D01*
X0274797Y0325568D01*
X0274369Y0325714D01*
X0273937Y0325850D01*
X0273502Y0325976D01*
X0273063Y0326090D01*
X0272623Y0326194D01*
X0272179Y0326287D01*
X0271734Y0326369D01*
X0271287Y0326441D01*
X0270838Y0326501D01*
X0270387Y0326550D01*
X0269936Y0326588D01*
X0269484Y0326615D01*
X0269031Y0326631D01*
X0268579Y0326636D01*
X0268126Y0326630D01*
X0267673Y0326612D01*
X0267221Y0326584D01*
X0266770Y0326544D01*
X0266320Y0326494D01*
X0265871Y0326432D01*
X0265424Y0326360D01*
X0264979Y0326276D01*
X0264536Y0326182D01*
X0264095Y0326077D01*
X0263658Y0325961D01*
X0263223Y0325834D01*
X0262791Y0325697D01*
X0262363Y0325549D01*
X0261939Y0325390D01*
X0261518Y0325222D01*
X0261102Y0325043D01*
X0260691Y0324854D01*
X0260284Y0324655D01*
X0259882Y0324446D01*
X0259485Y0324227D01*
X0259094Y0323998D01*
X0258709Y0323760D01*
X0258330Y0323513D01*
X0257956Y0323257D01*
X0257590Y0322991D01*
X0257229Y0322716D01*
X0256876Y0322433D01*
X0256530Y0322141D01*
X0256191Y0321841D01*
X0255859Y0321532D01*
X0255535Y0321216D01*
X0255219Y0320891D01*
X0254911Y0320559D01*
X0254611Y0320220D01*
X0254320Y0319873D01*
X0254037Y0319519D01*
X0253763Y0319159D01*
X0253498Y0318791D01*
X0253242Y0318418D01*
X0252995Y0318038D01*
X0252758Y0317652D01*
X0252530Y0317261D01*
X0252312Y0316864D01*
X0252103Y0316462D01*
X0251905Y0316055D01*
X0251716Y0315643D01*
X0251538Y0315227D01*
X0251370Y0314806D01*
X0251212Y0314381D01*
X0251065Y0313953D01*
X0250928Y0313521D01*
X0250802Y0313086D01*
X0250687Y0312648D01*
X0250582Y0312208D01*
X0250488Y0311765D01*
X0250406Y0311319D01*
X0250334Y0310872D01*
X0250273Y0310423D01*
X0250223Y0309973D01*
X0250184Y0309522D01*
X0250156Y0309070D01*
X0250140Y0308617D01*
X0250134Y0308164D01*
X0250140Y0307711D01*
X0250156Y0307259D01*
X0250184Y0306807D01*
X0250223Y0306355D01*
X0250272Y0305905D01*
X0250333Y0305457D01*
X0250405Y0305009D01*
X0250488Y0304564D01*
X0250582Y0304121D01*
X0250686Y0303680D01*
X0359002Y0301187D02*
X0361653Y0301693D01*
X0364291Y0302263D01*
X0366915Y0302897D01*
X0369522Y0303594D01*
X0372112Y0304355D01*
X0374683Y0305178D01*
X0377233Y0306063D01*
X0379760Y0307010D01*
X0382264Y0308018D01*
X0384743Y0309087D01*
X0387195Y0310215D01*
X0389619Y0311403D01*
X0392013Y0312649D01*
X0394376Y0313952D01*
X0396707Y0315313D01*
X0399005Y0316730D01*
X0401267Y0318202D01*
X0403493Y0319729D01*
X0405681Y0321309D01*
X0406011Y0321619D01*
X0406348Y0321922D01*
X0406692Y0322216D01*
X0407043Y0322502D01*
X0407402Y0322779D01*
X0407766Y0323048D01*
X0408138Y0323307D01*
X0408516Y0323557D01*
X0408899Y0323798D01*
X0409289Y0324029D01*
X0409684Y0324250D01*
X0410084Y0324462D01*
X0410489Y0324664D01*
X0410900Y0324856D01*
X0411314Y0325038D01*
X0411734Y0325210D01*
X0412157Y0325371D01*
X0412584Y0325522D01*
X0413014Y0325662D01*
X0413448Y0325792D01*
X0413885Y0325911D01*
X0414325Y0326019D01*
X0414767Y0326117D01*
X0415212Y0326204D01*
X0415658Y0326279D01*
X0416107Y0326344D01*
X0416556Y0326398D01*
X0417007Y0326441D01*
X0417459Y0326472D01*
X0417912Y0326493D01*
X0418364Y0326502D01*
X0418817Y0326501D01*
X0419270Y0326488D01*
X0419722Y0326464D01*
X0420174Y0326429D01*
X0420625Y0326383D01*
X0421074Y0326326D01*
X0421522Y0326258D01*
X0421968Y0326179D01*
X0422412Y0326089D01*
X0422853Y0325989D01*
X0423292Y0325877D01*
X0423728Y0325755D01*
X0424161Y0325622D01*
X0424591Y0325478D01*
X0425017Y0325324D01*
X0425439Y0325160D01*
X0425857Y0324985D01*
X0426270Y0324801D01*
X0426679Y0324606D01*
X0427083Y0324401D01*
X0427482Y0324186D01*
X0427875Y0323961D01*
X0428263Y0323727D01*
X0428645Y0323484D01*
X0429020Y0323231D01*
X0429390Y0322969D01*
X0429753Y0322698D01*
X0430109Y0322419D01*
X0430458Y0322130D01*
X0430801Y0321834D01*
X0431135Y0321528D01*
X0431462Y0321215D01*
X0431782Y0320894D01*
X0432093Y0320565D01*
X0432396Y0320229D01*
X0432691Y0319885D01*
X0432978Y0319534D01*
X0433255Y0319176D01*
X0433524Y0318812D01*
X0433784Y0318441D01*
X0434035Y0318063D01*
X0434276Y0317680D01*
X0434508Y0317291D01*
X0434730Y0316896D01*
X0434943Y0316497D01*
X0435145Y0316091D01*
X0435338Y0315682D01*
X0435520Y0315267D01*
X0435693Y0314848D01*
X0435855Y0314425D01*
X0436006Y0313998D01*
X0436147Y0313568D01*
X0436278Y0313134D01*
X0436398Y0312698D01*
X0436507Y0312258D01*
X0436605Y0311816D01*
X0436692Y0311371D01*
X0436769Y0310925D01*
X0436834Y0310477D01*
X0436889Y0310027D01*
X0436932Y0309576D01*
X0436965Y0309125D01*
X0436986Y0308672D01*
X0436996Y0308219D01*
X0436995Y0307766D01*
X0436983Y0307314D01*
X0436960Y0306861D01*
X0436926Y0306410D01*
X0436881Y0305959D01*
X0436824Y0305510D01*
X0436757Y0305062D01*
X0436679Y0304616D01*
X0436590Y0304172D01*
X0327899Y0301116D02*
X0325353Y0301596D01*
X0322820Y0302138D01*
X0320300Y0302741D01*
X0317796Y0303405D01*
X0315309Y0304129D01*
X0312840Y0304913D01*
X0310391Y0305757D01*
X0307963Y0306660D01*
X0305557Y0307622D01*
X0303176Y0308641D01*
X0300819Y0309718D01*
X0298490Y0310852D01*
X0296189Y0312042D01*
X0293917Y0313287D01*
X0291677Y0314587D01*
X0289468Y0315941D01*
X0287293Y0317348D01*
X0285152Y0318807D01*
X0283048Y0320318D01*
X0280981Y0321879D01*
X0237889Y0238042D02*
X0236504Y0235895D01*
X0235068Y0233781D01*
X0233581Y0231702D01*
X0232046Y0229659D01*
X0230461Y0227654D01*
X0228830Y0225687D01*
X0227152Y0223760D01*
X0225428Y0221873D01*
X0223660Y0220028D01*
X0221848Y0218226D01*
X0219993Y0216468D01*
X0218097Y0214754D01*
X0216161Y0213087D01*
X0214185Y0211466D01*
X0212171Y0209892D01*
X0210120Y0208368D01*
X0208033Y0206893D01*
X0205912Y0205468D01*
X0203757Y0204094D01*
X0201570Y0202772D01*
X0199352Y0201503D01*
X0197104Y0200287D01*
X0194828Y0199126D01*
X0192524Y0198019D01*
X0190195Y0196967D01*
X0187842Y0195971D01*
X0187413Y0195827D01*
X0186987Y0195671D01*
X0186566Y0195506D01*
X0186148Y0195330D01*
X0185735Y0195144D01*
X0185327Y0194947D01*
X0184924Y0194741D01*
X0184526Y0194525D01*
X0184133Y0194300D01*
X0183746Y0194064D01*
X0183365Y0193820D01*
X0182990Y0193566D01*
X0182621Y0193303D01*
X0182259Y0193031D01*
X0181904Y0192750D01*
X0181555Y0192461D01*
X0181214Y0192163D01*
X0180880Y0191856D01*
X0180554Y0191542D01*
X0180236Y0191220D01*
X0179925Y0190890D01*
X0179623Y0190553D01*
X0179329Y0190208D01*
X0179044Y0189856D01*
X0178767Y0189498D01*
X0178500Y0189132D01*
X0178241Y0188761D01*
X0177991Y0188383D01*
X0177751Y0187999D01*
X0177521Y0187609D01*
X0177300Y0187214D01*
X0177088Y0186813D01*
X0176887Y0186407D01*
X0176696Y0185997D01*
X0176514Y0185582D01*
X0176343Y0185162D01*
X0176183Y0184739D01*
X0176032Y0184312D01*
X0175893Y0183881D01*
X0175764Y0183447D01*
X0175645Y0183009D01*
X0175537Y0182570D01*
X0175441Y0182127D01*
X0175354Y0181682D01*
X0175279Y0181236D01*
X0175215Y0180787D01*
X0175162Y0180338D01*
X0175120Y0179887D01*
X0175089Y0179435D01*
X0175069Y0178982D01*
X0175060Y0178529D01*
X0175063Y0178077D01*
X0175076Y0177624D01*
X0175101Y0177172D01*
X0175136Y0176720D01*
X0175183Y0176270D01*
X0175241Y0175820D01*
X0175309Y0175373D01*
X0175389Y0174927D01*
X0175479Y0174483D01*
X0175581Y0174042D01*
X0175693Y0173603D01*
X0175816Y0173167D01*
X0175949Y0172734D01*
X0176094Y0172305D01*
X0176248Y0171879D01*
X0176413Y0171457D01*
X0176588Y0171040D01*
X0176774Y0170626D01*
X0176969Y0170218D01*
X0177175Y0169814D01*
X0177390Y0169416D01*
X0177615Y0169023D01*
X0177850Y0168635D01*
X0178094Y0168254D01*
X0178347Y0167878D01*
X0178610Y0167509D01*
X0178881Y0167146D01*
X0179161Y0166791D01*
X0179450Y0166442D01*
X0179748Y0166100D01*
X0180053Y0165766D01*
X0180367Y0165439D01*
X0180688Y0165120D01*
X0181018Y0164809D01*
X0181355Y0164507D01*
X0181699Y0164212D01*
X0182050Y0163926D01*
X0182408Y0163649D01*
X0182773Y0163381D01*
X0183145Y0163122D01*
X0183522Y0162872D01*
X0183906Y0162631D01*
X0184295Y0162400D01*
X0184690Y0162178D01*
X0185091Y0161966D01*
X0185496Y0161764D01*
X0185906Y0161572D01*
X0186321Y0161390D01*
X0186740Y0161218D01*
X0187163Y0161057D01*
X0187590Y0160906D01*
X0188021Y0160766D01*
X0188455Y0160636D01*
X0237889Y0238042D02*
X0238900Y0239794D01*
X0240087Y0242148D01*
X0241218Y0244530D01*
X0242292Y0246939D01*
X0243309Y0249372D01*
X0244268Y0251828D01*
X0245168Y0254307D01*
X0246009Y0256806D01*
X0246791Y0259324D01*
X0247513Y0261860D01*
X0248174Y0264413D01*
X0248775Y0266981D01*
X0249315Y0269562D01*
X0249793Y0272155D01*
X0250210Y0274759D01*
X0250565Y0277372D01*
X0250858Y0279992D01*
X0251088Y0282619D01*
X0251257Y0285251D01*
X0251363Y0287886D01*
X0251406Y0290522D01*
X0251387Y0293159D01*
X0251305Y0295795D01*
X0251161Y0298428D01*
X0250954Y0301056D01*
X0250685Y0303680D01*
X0449012Y0238042D02*
X0450457Y0235836D01*
X0451955Y0233666D01*
X0453503Y0231532D01*
X0455102Y0229434D01*
X0456750Y0227376D01*
X0458446Y0225357D01*
X0460190Y0223379D01*
X0461980Y0221443D01*
X0463816Y0219549D01*
X0465695Y0217700D01*
X0467619Y0215896D01*
X0469584Y0214138D01*
X0471591Y0212427D01*
X0473637Y0210765D01*
X0475723Y0209151D01*
X0477846Y0207587D01*
X0480005Y0206074D01*
X0482200Y0204612D01*
X0484429Y0203203D01*
X0486691Y0201847D01*
X0488984Y0200545D01*
X0491307Y0199298D01*
X0493660Y0198107D01*
X0496040Y0196971D01*
X0498446Y0195892D01*
X0449012Y0118486D02*
X0448000Y0116734D01*
X0448001Y0116734D02*
X0446814Y0114380D01*
X0445683Y0111998D01*
X0444609Y0109589D01*
X0443592Y0107156D01*
X0442633Y0104700D01*
X0441733Y0102221D01*
X0440892Y0099722D01*
X0440110Y0097204D01*
X0439388Y0094668D01*
X0438727Y0092115D01*
X0438126Y0089547D01*
X0437586Y0086966D01*
X0437108Y0084373D01*
X0436691Y0081769D01*
X0436336Y0079156D01*
X0436043Y0076536D01*
X0435813Y0073909D01*
X0435644Y0071277D01*
X0435538Y0068642D01*
X0435495Y0066006D01*
X0435514Y0063369D01*
X0435596Y0060733D01*
X0435740Y0058100D01*
X0435947Y0055472D01*
X0436216Y0052848D01*
X0448000Y0239794D02*
X0446833Y0242067D01*
X0445721Y0244368D01*
X0444664Y0246695D01*
X0443663Y0249046D01*
X0442718Y0251421D01*
X0441830Y0253817D01*
X0441000Y0256234D01*
X0440228Y0258670D01*
X0439515Y0261124D01*
X0438860Y0263594D01*
X0438264Y0266079D01*
X0437729Y0268578D01*
X0437253Y0271089D01*
X0436837Y0273610D01*
X0436481Y0276141D01*
X0436186Y0278680D01*
X0435952Y0281224D01*
X0435779Y0283774D01*
X0435667Y0286327D01*
X0435615Y0288882D01*
X0435625Y0291438D01*
X0435696Y0293992D01*
X0435828Y0296544D01*
X0436021Y0299093D01*
X0436275Y0301636D01*
X0436590Y0304172D01*
D11*
X0419631Y0277673D03*
X0415694Y0279839D03*
X0410182Y0273933D03*
X0414316Y0271965D03*
X0414316Y0268618D03*
X0405419Y0267043D03*
X0399749Y0270783D03*
X0396797Y0271768D03*
X0391679Y0272161D03*
X0386364Y0275311D03*
X0390694Y0278264D03*
X0391679Y0291650D03*
X0391285Y0297358D03*
X0426206Y0275980D03*
X0406009Y0259760D03*
X0405261Y0255193D03*
X0408805Y0248303D03*
X0413923Y0236925D03*
X0410970Y0235154D03*
X0406836Y0235547D03*
X0403490Y0236098D03*
X0398175Y0237280D03*
X0390694Y0238894D03*
X0384001Y0246571D03*
X0380064Y0250311D03*
X0381875Y0253028D03*
X0382820Y0256217D03*
X0377308Y0252280D03*
X0373765Y0251492D03*
X0368450Y0252791D03*
X0371797Y0257988D03*
X0372190Y0263697D03*
X0369238Y0266846D03*
X0361167Y0266453D03*
X0353686Y0263500D03*
X0348765Y0263894D03*
X0346797Y0266650D03*
X0342663Y0266650D03*
X0338332Y0266650D03*
X0333017Y0266650D03*
X0327112Y0266650D03*
X0317860Y0272949D03*
X0311364Y0273736D03*
X0311364Y0276886D03*
X0318253Y0281217D03*
X0310773Y0284957D03*
X0308017Y0289484D03*
X0305261Y0286925D03*
X0299946Y0286925D03*
X0287938Y0283776D03*
X0282623Y0282201D03*
X0274946Y0281610D03*
X0267072Y0281413D03*
X0259198Y0281413D03*
X0254474Y0283776D03*
X0253883Y0278657D03*
X0258214Y0276689D03*
X0280064Y0265469D03*
X0283017Y0266846D03*
X0282230Y0269799D03*
X0283608Y0272752D03*
X0284592Y0275902D03*
X0294828Y0276689D03*
X0297584Y0273736D03*
X0295025Y0270783D03*
X0300143Y0270783D03*
X0300143Y0276689D03*
X0313135Y0264681D03*
X0306245Y0261531D03*
X0298175Y0258382D03*
X0298175Y0253657D03*
X0305261Y0255035D03*
X0305655Y0249524D03*
X0301915Y0246571D03*
X0305458Y0243815D03*
X0306639Y0239681D03*
X0315694Y0238303D03*
X0314907Y0234563D03*
X0319238Y0233972D03*
X0323765Y0235154D03*
X0332820Y0235154D03*
X0336757Y0232988D03*
X0336757Y0228264D03*
X0334986Y0223539D03*
X0339119Y0222161D03*
X0343647Y0219799D03*
X0351324Y0221571D03*
X0354474Y0226295D03*
X0350340Y0228264D03*
X0350340Y0236728D03*
X0355458Y0235941D03*
X0363332Y0236335D03*
X0365104Y0232988D03*
X0369041Y0233382D03*
X0373962Y0236531D03*
X0377308Y0234169D03*
X0383017Y0231413D03*
X0382820Y0227083D03*
X0385379Y0225114D03*
X0385379Y0219996D03*
X0377308Y0220783D03*
X0369041Y0224327D03*
X0365104Y0227870D03*
X0368844Y0216453D03*
X0363135Y0214878D03*
X0351718Y0214878D03*
X0339513Y0208185D03*
X0342860Y0205035D03*
X0347781Y0204642D03*
X0336167Y0204642D03*
X0333805Y0202280D03*
X0333214Y0208382D03*
X0324159Y0206217D03*
X0321009Y0203067D03*
X0315891Y0201492D03*
X0315891Y0196177D03*
X0321403Y0196374D03*
X0332033Y0194012D03*
X0334395Y0191650D03*
X0331442Y0190075D03*
X0323371Y0188894D03*
X0320616Y0185744D03*
X0318253Y0188500D03*
X0308805Y0186925D03*
X0308608Y0190469D03*
X0306442Y0182594D03*
X0315497Y0177870D03*
X0315891Y0174327D03*
X0320616Y0176295D03*
X0323371Y0177870D03*
X0325340Y0173933D03*
X0332820Y0172161D03*
X0336757Y0178067D03*
X0334395Y0180429D03*
X0339119Y0180626D03*
X0347781Y0177476D03*
X0351993Y0176413D03*
X0364642Y0173665D03*
X0373429Y0173639D03*
X0380523Y0172692D03*
X0386954Y0175114D03*
X0381836Y0182398D03*
X0388923Y0189878D03*
X0385773Y0196177D03*
X0395222Y0194996D03*
X0399946Y0201689D03*
X0409198Y0202476D03*
X0415301Y0203067D03*
X0419828Y0197358D03*
X0423765Y0196571D03*
X0430655Y0191650D03*
X0427112Y0189287D03*
X0423962Y0186531D03*
X0433214Y0180232D03*
X0427112Y0177280D03*
X0423765Y0178854D03*
X0419041Y0174524D03*
X0413923Y0178067D03*
X0407230Y0171768D03*
X0411757Y0167043D03*
X0413923Y0158972D03*
X0422978Y0157358D03*
X0419828Y0153697D03*
X0411167Y0154248D03*
X0411167Y0149917D03*
X0411364Y0145587D03*
X0403686Y0146177D03*
X0403490Y0142043D03*
X0411560Y0139878D03*
X0408017Y0136728D03*
X0404592Y0134051D03*
X0407427Y0131217D03*
X0398175Y0125311D03*
X0385379Y0136728D03*
X0375930Y0136728D03*
X0370616Y0137122D03*
X0371206Y0142634D03*
X0379868Y0148146D03*
X0365891Y0153461D03*
X0370261Y0159130D03*
X0377237Y0163649D03*
X0381836Y0159169D03*
X0392466Y0164287D03*
X0399749Y0164091D03*
X0403490Y0158579D03*
X0393962Y0157476D03*
X0400930Y0154248D03*
X0393450Y0141059D03*
X0375340Y0127083D03*
X0373568Y0123736D03*
X0373962Y0120390D03*
X0371600Y0117634D03*
X0365694Y0119996D03*
X0379080Y0114681D03*
X0380261Y0121768D03*
X0380852Y0107594D03*
X0394434Y0106610D03*
X0398962Y0105429D03*
X0432623Y0089681D03*
X0361757Y0134760D03*
X0350340Y0128264D03*
X0347584Y0130823D03*
X0346600Y0138106D03*
X0343056Y0144209D03*
X0340497Y0146374D03*
X0333608Y0144602D03*
X0332820Y0150114D03*
X0334986Y0152476D03*
X0326521Y0149917D03*
X0327112Y0146768D03*
X0321797Y0143421D03*
X0320222Y0140272D03*
X0319238Y0135547D03*
X0318844Y0132594D03*
X0321403Y0128657D03*
X0321009Y0125705D03*
X0317860Y0124720D03*
X0314710Y0124327D03*
X0306836Y0123146D03*
X0300340Y0122358D03*
X0300734Y0119209D03*
X0295616Y0120193D03*
X0291875Y0120193D03*
X0291088Y0123146D03*
X0289710Y0125902D03*
X0287938Y0123343D03*
X0283214Y0123933D03*
X0284395Y0129642D03*
X0274946Y0131217D03*
X0277308Y0133972D03*
X0280458Y0137122D03*
X0283411Y0139091D03*
X0289710Y0139287D03*
X0291679Y0141453D03*
X0293844Y0143618D03*
X0308017Y0142043D03*
X0310379Y0138697D03*
X0305655Y0133579D03*
X0300537Y0128854D03*
X0318450Y0118421D03*
X0333214Y0116846D03*
X0336167Y0118224D03*
X0336167Y0121571D03*
X0336167Y0124720D03*
X0336560Y0127870D03*
X0330655Y0133579D03*
X0330458Y0136925D03*
X0337348Y0136728D03*
X0350340Y0123343D03*
X0350340Y0117831D03*
X0342663Y0117437D03*
X0307820Y0106217D03*
X0303096Y0110547D03*
X0300734Y0112909D03*
X0290301Y0105823D03*
X0287348Y0106610D03*
X0284395Y0105232D03*
X0297978Y0102083D03*
X0299671Y0093815D03*
X0276324Y0120980D03*
X0270025Y0125902D03*
X0263529Y0136335D03*
X0270222Y0144209D03*
X0266482Y0148343D03*
X0269828Y0151295D03*
X0275143Y0153264D03*
X0276521Y0158579D03*
X0280458Y0158185D03*
X0284001Y0164681D03*
X0273962Y0164681D03*
X0270025Y0166256D03*
X0266088Y0165272D03*
X0262938Y0171571D03*
X0256836Y0169209D03*
X0248490Y0172358D03*
X0251718Y0176492D03*
X0244631Y0176098D03*
X0242860Y0172161D03*
X0240104Y0176492D03*
X0246009Y0182004D03*
X0250537Y0185154D03*
X0257230Y0182988D03*
X0257623Y0189484D03*
X0266285Y0187909D03*
X0267427Y0181177D03*
X0267230Y0176335D03*
X0276718Y0181020D03*
X0277899Y0174917D03*
X0281836Y0174917D03*
X0285970Y0175311D03*
X0293253Y0178461D03*
X0291679Y0181217D03*
X0295419Y0183972D03*
X0295222Y0188106D03*
X0285773Y0182791D03*
X0281836Y0186335D03*
X0273175Y0190075D03*
X0282427Y0193618D03*
X0288135Y0198146D03*
X0295222Y0195783D03*
X0306639Y0200114D03*
X0304868Y0210154D03*
X0294631Y0212516D03*
X0285182Y0211335D03*
X0284592Y0217240D03*
X0278883Y0220390D03*
X0288529Y0221768D03*
X0284789Y0226295D03*
X0292663Y0226098D03*
X0296009Y0227673D03*
X0297387Y0230626D03*
X0292269Y0231807D03*
X0286167Y0233579D03*
X0281049Y0234169D03*
X0273175Y0236335D03*
X0274946Y0240272D03*
X0276521Y0244012D03*
X0281049Y0247949D03*
X0280064Y0253067D03*
X0286364Y0258185D03*
X0286560Y0261531D03*
X0284001Y0263697D03*
X0316482Y0256217D03*
X0331442Y0255626D03*
X0339710Y0255626D03*
X0343647Y0259366D03*
X0352899Y0255626D03*
X0358411Y0258579D03*
X0382466Y0259760D03*
X0389119Y0263894D03*
X0394238Y0263894D03*
X0343253Y0236335D03*
X0321009Y0222949D03*
X0318253Y0226492D03*
X0317860Y0219602D03*
X0306049Y0219012D03*
X0295025Y0218815D03*
X0306442Y0228854D03*
X0333805Y0217437D03*
X0367663Y0208579D03*
X0372190Y0205429D03*
X0377308Y0205035D03*
X0386797Y0204799D03*
X0393647Y0204839D03*
X0386009Y0212673D03*
X0394434Y0218028D03*
X0401324Y0218028D03*
X0409986Y0230232D03*
X0416285Y0231374D03*
X0420419Y0221177D03*
X0422387Y0212713D03*
X0423371Y0207398D03*
X0435576Y0186138D03*
X0441875Y0180035D03*
X0448096Y0173933D03*
X0435576Y0173736D03*
X0427427Y0172988D03*
X0421993Y0164091D03*
X0430458Y0153303D03*
X0433135Y0147122D03*
X0444631Y0145783D03*
X0450537Y0144799D03*
X0451206Y0138697D03*
X0460891Y0138657D03*
X0468332Y0145902D03*
X0454474Y0153894D03*
X0463056Y0159996D03*
X0468844Y0161925D03*
X0460616Y0170035D03*
X0463293Y0176846D03*
X0451718Y0162476D03*
X0440458Y0162004D03*
X0443253Y0153854D03*
X0399946Y0176886D03*
X0399946Y0187319D03*
X0369238Y0182004D03*
X0365497Y0190469D03*
X0363135Y0193224D03*
X0369238Y0196571D03*
X0355261Y0195980D03*
X0350930Y0196374D03*
X0351521Y0190075D03*
X0347584Y0165075D03*
X0356639Y0161531D03*
X0338135Y0167437D03*
X0323863Y0154819D03*
X0321245Y0153224D03*
X0318603Y0154839D03*
X0315973Y0153264D03*
X0313343Y0154839D03*
X0310713Y0152673D03*
X0307493Y0157201D03*
X0306245Y0160154D03*
X0297584Y0164681D03*
X0298962Y0168028D03*
X0301127Y0170390D03*
X0301127Y0165665D03*
X0310576Y0171374D03*
X0309592Y0174327D03*
X0318450Y0144799D03*
X0265104Y0158579D03*
X0260773Y0161335D03*
X0258017Y0164484D03*
X0253647Y0164248D03*
X0249946Y0159563D03*
X0252308Y0155429D03*
X0254474Y0151689D03*
X0256639Y0147555D03*
X0260970Y0147555D03*
X0260970Y0154642D03*
X0247190Y0164484D03*
X0260576Y0197555D03*
X0275930Y0204445D03*
X0281442Y0203854D03*
X0277308Y0210744D03*
X0269041Y0211531D03*
X0265497Y0217240D03*
X0270616Y0220783D03*
X0270812Y0226689D03*
X0262348Y0209366D03*
X0294631Y0206217D03*
X0286560Y0289484D03*
X0301875Y0299012D03*
X0302584Y0304209D03*
X0307820Y0303264D03*
X0308411Y0298776D03*
X0314710Y0295980D03*
X0297978Y0308028D03*
M02*
